<svg width="156" height="43" viewBox="0 0 156 43" fill="none" xmlns="http://www.w3.org/2000/svg">
<circle cx="21.5" cy="21.5" r="7.5" fill="#17D107"/>
<path d="M48.12 26V14.48H55.32V15.608H49.296V19.592H54.36V20.72H49.296V24.872H55.32V26H48.12ZM63.485 26V21.592C63.485 21.112 63.4397 20.672 63.349 20.272C63.2583 19.8667 63.1117 19.5147 62.909 19.216C62.7117 18.912 62.453 18.6773 62.133 18.512C61.8183 18.3467 61.4343 18.264 60.981 18.264C60.565 18.264 60.197 18.336 59.877 18.48C59.5623 18.624 59.2957 18.832 59.077 19.104C58.8637 19.3707 58.701 19.696 58.589 20.08C58.477 20.464 58.421 20.9013 58.421 21.392L57.589 21.208C57.589 20.3227 57.7437 19.5787 58.053 18.976C58.3623 18.3733 58.789 17.9173 59.333 17.608C59.877 17.2987 60.501 17.144 61.205 17.144C61.7223 17.144 62.173 17.224 62.557 17.384C62.9463 17.544 63.2743 17.76 63.541 18.032C63.813 18.304 64.0317 18.616 64.197 18.968C64.3623 19.3147 64.4823 19.6853 64.557 20.08C64.6317 20.4693 64.669 20.8587 64.669 21.248V26H63.485ZM57.237 26V17.36H58.301V19.488H58.421V26H57.237ZM70.1081 26V14.24H71.2841V26H70.1081ZM73.8425 15.72V14.4H75.0185V15.72H73.8425ZM73.8425 26V17.36H75.0185V26H73.8425ZM83.6569 26V21.592C83.6569 21.112 83.6115 20.672 83.5209 20.272C83.4302 19.8667 83.2835 19.5147 83.0809 19.216C82.8835 18.912 82.6249 18.6773 82.3049 18.512C81.9902 18.3467 81.6062 18.264 81.1529 18.264C80.7369 18.264 80.3689 18.336 80.0489 18.48C79.7342 18.624 79.4675 18.832 79.2489 19.104C79.0355 19.3707 78.8729 19.696 78.7609 20.08C78.6489 20.464 78.5929 20.9013 78.5929 21.392L77.7609 21.208C77.7609 20.3227 77.9155 19.5787 78.2249 18.976C78.5342 18.3733 78.9609 17.9173 79.5049 17.608C80.0489 17.2987 80.6729 17.144 81.3769 17.144C81.8942 17.144 82.3449 17.224 82.7289 17.384C83.1182 17.544 83.4462 17.76 83.7129 18.032C83.9849 18.304 84.2035 18.616 84.3689 18.968C84.5342 19.3147 84.6542 19.6853 84.7289 20.08C84.8035 20.4693 84.8409 20.8587 84.8409 21.248V26H83.6569ZM77.4089 26V17.36H78.4729V19.488H78.5929V26H77.4089ZM90.526 26.24C89.6833 26.24 88.9527 26.0533 88.334 25.68C87.7207 25.3067 87.2433 24.7813 86.902 24.104C86.5607 23.4267 86.39 22.632 86.39 21.72C86.39 20.776 86.558 19.96 86.894 19.272C87.23 18.584 87.702 18.0533 88.31 17.68C88.9233 17.3067 89.646 17.12 90.478 17.12C91.3313 17.12 92.0593 17.3173 92.662 17.712C93.2647 18.1013 93.7207 18.6613 94.03 19.392C94.3393 20.1227 94.4807 20.9947 94.454 22.008H93.254V21.592C93.2327 20.472 92.99 19.6267 92.526 19.056C92.0673 18.4853 91.3953 18.2 90.51 18.2C89.582 18.2 88.87 18.5013 88.374 19.104C87.8833 19.7067 87.638 20.5653 87.638 21.68C87.638 22.768 87.8833 23.6133 88.374 24.216C88.87 24.8133 89.5713 25.112 90.478 25.112C91.0967 25.112 91.6353 24.9707 92.094 24.688C92.558 24.4 92.9233 23.9867 93.19 23.448L94.286 23.872C93.9447 24.624 93.4407 25.208 92.774 25.624C92.1127 26.0347 91.3633 26.24 90.526 26.24ZM87.222 22.008V21.024H93.822V22.008H87.222ZM98.5451 26.24C97.8945 26.24 97.3478 26.1227 96.9051 25.888C96.4678 25.6533 96.1398 25.3413 95.9211 24.952C95.7025 24.5627 95.5931 24.1387 95.5931 23.68C95.5931 23.2107 95.6865 22.8107 95.8731 22.48C96.0651 22.144 96.3238 21.8693 96.6491 21.656C96.9798 21.4427 97.3611 21.28 97.7931 21.168C98.2305 21.0613 98.7131 20.968 99.2411 20.888C99.7745 20.8027 100.294 20.7307 100.801 20.672C101.313 20.608 101.761 20.5467 102.145 20.488L101.729 20.744C101.745 19.8907 101.58 19.2587 101.233 18.848C100.886 18.4373 100.284 18.232 99.4251 18.232C98.8331 18.232 98.3318 18.3653 97.9211 18.632C97.5158 18.8987 97.2305 19.32 97.0651 19.896L95.9211 19.56C96.1185 18.7867 96.5158 18.1867 97.1131 17.76C97.7105 17.3333 98.4865 17.12 99.4411 17.12C100.23 17.12 100.9 17.2693 101.449 17.568C102.004 17.8613 102.396 18.288 102.625 18.848C102.732 19.0987 102.801 19.3787 102.833 19.688C102.865 19.9973 102.881 20.312 102.881 20.632V26H101.833V23.832L102.137 23.96C101.844 24.7013 101.388 25.2667 100.769 25.656C100.15 26.0453 99.4091 26.24 98.5451 26.24ZM98.6811 25.224C99.2305 25.224 99.7105 25.1253 100.121 24.928C100.532 24.7307 100.862 24.4613 101.113 24.12C101.364 23.7733 101.526 23.384 101.601 22.952C101.665 22.6747 101.7 22.3707 101.705 22.04C101.71 21.704 101.713 21.4533 101.713 21.288L102.161 21.52C101.761 21.5733 101.326 21.6267 100.857 21.68C100.393 21.7333 99.9345 21.7947 99.4811 21.864C99.0331 21.9333 98.6278 22.016 98.2651 22.112C98.0198 22.1813 97.7825 22.28 97.5531 22.408C97.3238 22.5307 97.1345 22.696 96.9851 22.904C96.8411 23.112 96.7691 23.3707 96.7691 23.68C96.7691 23.9307 96.8305 24.1733 96.9531 24.408C97.0811 24.6427 97.2838 24.8373 97.5611 24.992C97.8438 25.1467 98.2171 25.224 98.6811 25.224ZM105.188 26V24.632H106.556V26H105.188Z" fill="white"/>
<rect x="0.5" y="0.5" width="155" height="42" rx="19.5" stroke="#7C7B84"/>
</svg>
