<svg width="32" height="32" viewBox="0 0 32 32" fill="none" xmlns="http://www.w3.org/2000/svg">
<path d="M14.144 25.5439L7.24174 18.0496C6.87186 17.648 6.66797 17.113 6.66797 16.5439C6.66797 15.9749 6.87186 15.4413 7.24174 15.0383L14.144 7.54395L15.0681 8.54726L8.16579 16.0416C8.04293 16.1764 7.97497 16.3538 7.97497 16.5439C7.97497 16.7341 8.04293 16.9115 8.16579 17.0463L15.0681 24.5406L14.144 25.5439ZM24.668 24.5406L17.303 16.5439L24.668 8.54726L23.7439 7.54395L16.0705 15.8755C15.7307 16.2445 15.7307 16.8448 16.0705 17.2123L23.7439 25.5439L24.668 24.5406Z" fill="white"/>
</svg>
