<svg width="955" height="154" viewBox="0 0 955 154" fill="none" xmlns="http://www.w3.org/2000/svg">
<rect x="0.5" y="0.5" width="225" height="153" rx="15.5" fill="#1C1C1F"/>
<path d="M49 52C47.622 52 46.5 53.122 46.5 54.5C46.5 55.878 47.622 57 49 57C50.378 57 51.5 55.878 51.5 54.5C51.5 53.122 50.378 52 49 52ZM49 56C48.173 56 47.5 55.327 47.5 54.5C47.5 53.673 48.173 53 49 53C49.827 53 50.5 53.673 50.5 54.5C50.5 55.327 49.827 56 49 56ZM57.5 48.5C57.5 47.122 56.378 46 54.986 46C50.044 46.141 45.542 48.552 41.875 53.001C40.289 53.02 38.707 53.405 37.29 54.116C34.988 55.271 33.5 57.777 33.5 60.5V61H38.5C39.568 61 40.573 61.416 41.329 62.171C42.084 62.927 42.5 63.931 42.5 65V70H43C45.723 70 48.229 68.513 49.384 66.211C50.096 64.794 50.48 63.211 50.499 61.625C54.947 57.958 57.359 53.455 57.5 48.5ZM37.738 55.01C38.772 54.491 39.903 54.165 41.055 54.049C40.957 54.181 40.859 54.314 40.762 54.449C39.209 56.616 38.05 59.133 37.67 60H34.519C34.685 57.85 35.912 55.926 37.738 55.01ZM48.49 65.762C47.573 67.588 45.65 68.815 43.5 68.981V65.83C44.368 65.45 46.884 64.291 49.052 62.738C49.187 62.641 49.32 62.544 49.452 62.446C49.336 63.598 49.01 64.729 48.491 65.763L48.49 65.762ZM48.469 61.925C46.666 63.217 44.555 64.25 43.493 64.736C43.429 63.5 42.917 62.347 42.036 61.465C41.154 60.583 40.001 60.072 38.765 60.008C39.251 58.946 40.284 56.835 41.576 55.032C44.129 51.469 48.533 47.184 55 47C55.827 47 56.5 47.673 56.5 48.486C56.316 54.967 52.031 59.371 48.469 61.925ZM35.232 64.732C34.382 65.581 33.813 68.613 33.708 69.212L33.584 69.915L34.287 69.791C34.886 69.686 37.918 69.117 38.767 68.267C39.239 67.795 39.499 67.167 39.499 66.499C39.499 65.831 39.239 65.203 38.767 64.731C37.824 63.787 36.175 63.788 35.232 64.732ZM38.06 67.56C37.674 67.946 36.126 68.391 34.833 68.666C35.108 67.373 35.553 65.825 35.939 65.439C36.222 65.156 36.599 65 37 65C37.401 65 37.777 65.156 38.061 65.439C38.345 65.722 38.5 66.099 38.5 66.5C38.5 66.901 38.344 67.277 38.061 67.561L38.06 67.56Z" fill="#7C7B84"/>
<path d="M27.9 106V91.6H32.41C32.5433 91.6 32.79 91.6033 33.15 91.61C33.5167 91.6167 33.8667 91.6433 34.2 91.69C35.3267 91.83 36.2733 92.2333 37.04 92.9C37.8133 93.5667 38.3967 94.4133 38.79 95.44C39.1833 96.46 39.38 97.58 39.38 98.8C39.38 100.027 39.1833 101.153 38.79 102.18C38.3967 103.2 37.8133 104.043 37.04 104.71C36.2733 105.37 35.3267 105.77 34.2 105.91C33.8667 105.957 33.5167 105.983 33.15 105.99C32.79 105.997 32.5433 106 32.41 106H27.9ZM30.04 104.01H32.41C32.6367 104.01 32.9067 104.003 33.22 103.99C33.5333 103.977 33.81 103.95 34.05 103.91C34.7833 103.77 35.3767 103.453 35.83 102.96C36.29 102.46 36.6267 101.847 36.84 101.12C37.0533 100.393 37.16 99.62 37.16 98.8C37.16 97.9533 37.05 97.17 36.83 96.45C36.61 95.7233 36.27 95.1167 35.81 94.63C35.3567 94.1367 34.77 93.8233 34.05 93.69C33.81 93.6433 33.53 93.6167 33.21 93.61C32.8967 93.5967 32.63 93.59 32.41 93.59H30.04V104.01ZM46.4986 106.3C45.4253 106.3 44.4819 106.067 43.6686 105.6C42.8619 105.127 42.2319 104.47 41.7786 103.63C41.3319 102.783 41.1086 101.803 41.1086 100.69C41.1086 99.51 41.3286 98.4867 41.7686 97.62C42.2153 96.7533 42.8353 96.0833 43.6286 95.61C44.4219 95.1367 45.3453 94.9 46.3986 94.9C47.4986 94.9 48.4353 95.1567 49.2086 95.67C49.9819 96.1767 50.5586 96.9 50.9386 97.84C51.3253 98.78 51.4786 99.8967 51.3986 101.19H49.3086V100.43C49.2953 99.1767 49.0553 98.25 48.5886 97.65C48.1286 97.05 47.4253 96.75 46.4786 96.75C45.4319 96.75 44.6453 97.08 44.1186 97.74C43.5919 98.4 43.3286 99.3533 43.3286 100.6C43.3286 101.787 43.5919 102.707 44.1186 103.36C44.6453 104.007 45.4053 104.33 46.3986 104.33C47.0519 104.33 47.6153 104.183 48.0886 103.89C48.5686 103.59 48.9419 103.163 49.2086 102.61L51.2586 103.26C50.8386 104.227 50.2019 104.977 49.3486 105.51C48.4953 106.037 47.5453 106.3 46.4986 106.3ZM42.6486 101.19V99.56H50.3586V101.19H42.6486ZM57.7722 106.29C56.4589 106.29 55.3889 106 54.5622 105.42C53.7355 104.84 53.2289 104.023 53.0422 102.97L55.1822 102.64C55.3155 103.2 55.6222 103.643 56.1022 103.97C56.5889 104.29 57.1922 104.45 57.9122 104.45C58.5655 104.45 59.0755 104.317 59.4422 104.05C59.8155 103.783 60.0022 103.417 60.0022 102.95C60.0022 102.677 59.9355 102.457 59.8022 102.29C59.6755 102.117 59.4055 101.953 58.9922 101.8C58.5789 101.647 57.9489 101.457 57.1022 101.23C56.1755 100.99 55.4389 100.733 54.8922 100.46C54.3522 100.18 53.9655 99.8567 53.7322 99.49C53.5055 99.1167 53.3922 98.6667 53.3922 98.14C53.3922 97.4867 53.5655 96.9167 53.9122 96.43C54.2589 95.9433 54.7455 95.5667 55.3722 95.3C56.0055 95.0333 56.7455 94.9 57.5922 94.9C58.4189 94.9 59.1555 95.03 59.8022 95.29C60.4489 95.55 60.9722 95.92 61.3722 96.4C61.7722 96.8733 62.0122 97.43 62.0922 98.07L59.9522 98.46C59.8789 97.94 59.6355 97.53 59.2222 97.23C58.8089 96.93 58.2722 96.7667 57.6122 96.74C56.9789 96.7133 56.4655 96.82 56.0722 97.06C55.6789 97.2933 55.4822 97.6167 55.4822 98.03C55.4822 98.27 55.5555 98.4733 55.7022 98.64C55.8555 98.8067 56.1489 98.9667 56.5822 99.12C57.0155 99.2733 57.6555 99.4567 58.5022 99.67C59.4089 99.9033 60.1289 100.163 60.6622 100.45C61.1955 100.73 61.5755 101.067 61.8022 101.46C62.0355 101.847 62.1522 102.317 62.1522 102.87C62.1522 103.937 61.7622 104.773 60.9822 105.38C60.2089 105.987 59.1389 106.29 57.7722 106.29ZM67.4148 106.3C66.6148 106.3 65.9448 106.153 65.4048 105.86C64.8648 105.56 64.4548 105.167 64.1748 104.68C63.9015 104.187 63.7648 103.647 63.7648 103.06C63.7648 102.513 63.8615 102.033 64.0548 101.62C64.2482 101.207 64.5348 100.857 64.9148 100.57C65.2948 100.277 65.7615 100.04 66.3148 99.86C66.7948 99.72 67.3382 99.5967 67.9448 99.49C68.5515 99.3833 69.1882 99.2833 69.8548 99.19C70.5282 99.0967 71.1948 99.0033 71.8548 98.91L71.0948 99.33C71.1082 98.4833 70.9282 97.8567 70.5548 97.45C70.1882 97.0367 69.5548 96.83 68.6548 96.83C68.0882 96.83 67.5682 96.9633 67.0948 97.23C66.6215 97.49 66.2915 97.9233 66.1048 98.53L64.1548 97.93C64.4215 97.0033 64.9282 96.2667 65.6748 95.72C66.4282 95.1733 67.4282 94.9 68.6748 94.9C69.6415 94.9 70.4815 95.0667 71.1948 95.4C71.9148 95.7267 72.4415 96.2467 72.7748 96.96C72.9482 97.3133 73.0548 97.6867 73.0948 98.08C73.1348 98.4733 73.1548 98.8967 73.1548 99.35V106H71.3048V103.53L71.6648 103.85C71.2182 104.677 70.6482 105.293 69.9548 105.7C69.2682 106.1 68.4215 106.3 67.4148 106.3ZM67.7848 104.59C68.3782 104.59 68.8882 104.487 69.3148 104.28C69.7415 104.067 70.0848 103.797 70.3448 103.47C70.6048 103.143 70.7748 102.803 70.8548 102.45C70.9682 102.13 71.0315 101.77 71.0448 101.37C71.0648 100.97 71.0748 100.65 71.0748 100.41L71.7548 100.66C71.0948 100.76 70.4948 100.85 69.9548 100.93C69.4148 101.01 68.9248 101.09 68.4848 101.17C68.0515 101.243 67.6648 101.333 67.3248 101.44C67.0382 101.54 66.7815 101.66 66.5548 101.8C66.3348 101.94 66.1582 102.11 66.0248 102.31C65.8982 102.51 65.8348 102.753 65.8348 103.04C65.8348 103.32 65.9048 103.58 66.0448 103.82C66.1848 104.053 66.3982 104.24 66.6848 104.38C66.9715 104.52 67.3382 104.59 67.7848 104.59ZM75.7516 106V95.2H77.6116V97.82L77.3516 97.48C77.4849 97.1333 77.6582 96.8167 77.8716 96.53C78.0849 96.2367 78.3316 95.9967 78.6116 95.81C78.8849 95.61 79.1882 95.4567 79.5216 95.35C79.8616 95.2367 80.2082 95.17 80.5616 95.15C80.9149 95.1233 81.2549 95.14 81.5816 95.2V97.16C81.2282 97.0667 80.8349 97.04 80.4016 97.08C79.9749 97.12 79.5816 97.2567 79.2216 97.49C78.8816 97.71 78.6116 97.9767 78.4116 98.29C78.2182 98.6033 78.0782 98.9533 77.9916 99.34C77.9049 99.72 77.8616 100.123 77.8616 100.55V106H75.7516ZM83.4859 106V95.2H85.3459V97.82L85.0859 97.48C85.2193 97.1333 85.3926 96.8167 85.6059 96.53C85.8193 96.2367 86.0659 95.9967 86.3459 95.81C86.6193 95.61 86.9226 95.4567 87.2559 95.35C87.5959 95.2367 87.9426 95.17 88.2959 95.15C88.6493 95.1233 88.9893 95.14 89.3159 95.2V97.16C88.9626 97.0667 88.5693 97.04 88.1359 97.08C87.7093 97.12 87.3159 97.2567 86.9559 97.49C86.6159 97.71 86.3459 97.9767 86.1459 98.29C85.9526 98.6033 85.8126 98.9533 85.7259 99.34C85.6393 99.72 85.5959 100.123 85.5959 100.55V106H83.4859ZM95.715 106.3C94.635 106.3 93.6983 106.057 92.905 105.57C92.1117 105.083 91.4983 104.413 91.065 103.56C90.6383 102.7 90.425 101.71 90.425 100.59C90.425 99.4633 90.645 98.4733 91.085 97.62C91.525 96.76 92.1417 96.0933 92.935 95.62C93.7283 95.14 94.655 94.9 95.715 94.9C96.795 94.9 97.7317 95.1433 98.525 95.63C99.3183 96.1167 99.9317 96.7867 100.365 97.64C100.798 98.4933 101.015 99.4767 101.015 100.59C101.015 101.717 100.795 102.71 100.355 103.57C99.9217 104.423 99.3083 105.093 98.515 105.58C97.7217 106.06 96.7883 106.3 95.715 106.3ZM95.715 104.33C96.7483 104.33 97.5183 103.983 98.025 103.29C98.5383 102.59 98.795 101.69 98.795 100.59C98.795 99.4633 98.535 98.5633 98.015 97.89C97.5017 97.21 96.735 96.87 95.715 96.87C95.015 96.87 94.4383 97.03 93.985 97.35C93.5317 97.6633 93.195 98.1 92.975 98.66C92.755 99.2133 92.645 99.8567 92.645 100.59C92.645 101.723 92.905 102.63 93.425 103.31C93.945 103.99 94.7083 104.33 95.715 104.33ZM103.413 106V91.3H105.503V106H103.413ZM108.705 106V91.3H110.795V106H108.705ZM116.848 106.3C116.048 106.3 115.378 106.153 114.838 105.86C114.298 105.56 113.888 105.167 113.608 104.68C113.335 104.187 113.198 103.647 113.198 103.06C113.198 102.513 113.295 102.033 113.488 101.62C113.682 101.207 113.968 100.857 114.348 100.57C114.728 100.277 115.195 100.04 115.748 99.86C116.228 99.72 116.772 99.5967 117.378 99.49C117.985 99.3833 118.622 99.2833 119.288 99.19C119.962 99.0967 120.628 99.0033 121.288 98.91L120.528 99.33C120.542 98.4833 120.362 97.8567 119.988 97.45C119.622 97.0367 118.988 96.83 118.088 96.83C117.522 96.83 117.002 96.9633 116.528 97.23C116.055 97.49 115.725 97.9233 115.538 98.53L113.588 97.93C113.855 97.0033 114.362 96.2667 115.108 95.72C115.862 95.1733 116.862 94.9 118.108 94.9C119.075 94.9 119.915 95.0667 120.628 95.4C121.348 95.7267 121.875 96.2467 122.208 96.96C122.382 97.3133 122.488 97.6867 122.528 98.08C122.568 98.4733 122.588 98.8967 122.588 99.35V106H120.738V103.53L121.098 103.85C120.652 104.677 120.082 105.293 119.388 105.7C118.702 106.1 117.855 106.3 116.848 106.3ZM117.218 104.59C117.812 104.59 118.322 104.487 118.748 104.28C119.175 104.067 119.518 103.797 119.778 103.47C120.038 103.143 120.208 102.803 120.288 102.45C120.402 102.13 120.465 101.77 120.478 101.37C120.498 100.97 120.508 100.65 120.508 100.41L121.188 100.66C120.528 100.76 119.928 100.85 119.388 100.93C118.848 101.01 118.358 101.09 117.918 101.17C117.485 101.243 117.098 101.333 116.758 101.44C116.472 101.54 116.215 101.66 115.988 101.8C115.768 101.94 115.592 102.11 115.458 102.31C115.332 102.51 115.268 102.753 115.268 103.04C115.268 103.32 115.338 103.58 115.478 103.82C115.618 104.053 115.832 104.24 116.118 104.38C116.405 104.52 116.772 104.59 117.218 104.59ZM129.475 106.3C128.468 106.3 127.598 106.05 126.865 105.55C126.138 105.05 125.575 104.37 125.175 103.51C124.782 102.643 124.585 101.67 124.585 100.59C124.585 99.5033 124.785 98.5333 125.185 97.68C125.585 96.82 126.152 96.1433 126.885 95.65C127.625 95.15 128.502 94.9 129.515 94.9C130.535 94.9 131.392 95.15 132.085 95.65C132.785 96.1433 133.312 96.82 133.665 97.68C134.025 98.54 134.205 99.51 134.205 100.59C134.205 101.67 134.025 102.64 133.665 103.5C133.305 104.36 132.775 105.043 132.075 105.55C131.375 106.05 130.508 106.3 129.475 106.3ZM129.765 104.41C130.452 104.41 131.012 104.247 131.445 103.92C131.878 103.593 132.195 103.143 132.395 102.57C132.595 101.997 132.695 101.337 132.695 100.59C132.695 99.8433 132.592 99.1833 132.385 98.61C132.185 98.0367 131.872 97.59 131.445 97.27C131.025 96.95 130.488 96.79 129.835 96.79C129.142 96.79 128.572 96.96 128.125 97.3C127.678 97.64 127.345 98.0967 127.125 98.67C126.912 99.2433 126.805 99.8833 126.805 100.59C126.805 101.303 126.912 101.95 127.125 102.53C127.345 103.103 127.672 103.56 128.105 103.9C128.545 104.24 129.098 104.41 129.765 104.41ZM132.695 106V98.23H132.455V91.6H134.555V106H132.695ZM142.043 106.3C140.963 106.3 140.026 106.057 139.233 105.57C138.44 105.083 137.826 104.413 137.393 103.56C136.966 102.7 136.753 101.71 136.753 100.59C136.753 99.4633 136.973 98.4733 137.413 97.62C137.853 96.76 138.47 96.0933 139.263 95.62C140.056 95.14 140.983 94.9 142.043 94.9C143.123 94.9 144.06 95.1433 144.853 95.63C145.646 96.1167 146.26 96.7867 146.693 97.64C147.126 98.4933 147.343 99.4767 147.343 100.59C147.343 101.717 147.123 102.71 146.683 103.57C146.25 104.423 145.636 105.093 144.843 105.58C144.05 106.06 143.116 106.3 142.043 106.3ZM142.043 104.33C143.076 104.33 143.846 103.983 144.353 103.29C144.866 102.59 145.123 101.69 145.123 100.59C145.123 99.4633 144.863 98.5633 144.343 97.89C143.83 97.21 143.063 96.87 142.043 96.87C141.343 96.87 140.766 97.03 140.313 97.35C139.86 97.6633 139.523 98.1 139.303 98.66C139.083 99.2133 138.973 99.8567 138.973 100.59C138.973 101.723 139.233 102.63 139.753 103.31C140.273 103.99 141.036 104.33 142.043 104.33ZM149.541 106V95.2H151.401V97.82L151.141 97.48C151.274 97.1333 151.447 96.8167 151.661 96.53C151.874 96.2367 152.121 95.9967 152.401 95.81C152.674 95.61 152.977 95.4567 153.311 95.35C153.651 95.2367 153.997 95.17 154.351 95.15C154.704 95.1233 155.044 95.14 155.371 95.2V97.16C155.017 97.0667 154.624 97.04 154.191 97.08C153.764 97.12 153.371 97.2567 153.011 97.49C152.671 97.71 152.401 97.9767 152.201 98.29C152.007 98.6033 151.867 98.9533 151.781 99.34C151.694 99.72 151.651 100.123 151.651 100.55V106H149.541ZM164.329 106L160.149 91.6H162.339L165.369 102.49L168.399 91.61L170.599 91.6L173.629 102.49L176.659 91.6H178.859L174.669 106H172.589L169.499 95.23L166.409 106H164.329ZM184.135 106.3C183.062 106.3 182.119 106.067 181.305 105.6C180.499 105.127 179.869 104.47 179.415 103.63C178.969 102.783 178.745 101.803 178.745 100.69C178.745 99.51 178.965 98.4867 179.405 97.62C179.852 96.7533 180.472 96.0833 181.265 95.61C182.059 95.1367 182.982 94.9 184.035 94.9C185.135 94.9 186.072 95.1567 186.845 95.67C187.619 96.1767 188.195 96.9 188.575 97.84C188.962 98.78 189.115 99.8967 189.035 101.19H186.945V100.43C186.932 99.1767 186.692 98.25 186.225 97.65C185.765 97.05 185.062 96.75 184.115 96.75C183.069 96.75 182.282 97.08 181.755 97.74C181.229 98.4 180.965 99.3533 180.965 100.6C180.965 101.787 181.229 102.707 181.755 103.36C182.282 104.007 183.042 104.33 184.035 104.33C184.689 104.33 185.252 104.183 185.725 103.89C186.205 103.59 186.579 103.163 186.845 102.61L188.895 103.26C188.475 104.227 187.839 104.977 186.985 105.51C186.132 106.037 185.182 106.3 184.135 106.3ZM180.285 101.19V99.56H187.995V101.19H180.285ZM196.349 106.3C195.316 106.3 194.449 106.05 193.749 105.55C193.049 105.043 192.519 104.36 192.159 103.5C191.799 102.64 191.619 101.67 191.619 100.59C191.619 99.51 191.796 98.54 192.149 97.68C192.509 96.82 193.036 96.1433 193.729 95.65C194.429 95.15 195.289 94.9 196.309 94.9C197.322 94.9 198.196 95.15 198.929 95.65C199.669 96.1433 200.239 96.82 200.639 97.68C201.039 98.5333 201.239 99.5033 201.239 100.59C201.239 101.67 201.039 102.643 200.639 103.51C200.246 104.37 199.682 105.05 198.949 105.55C198.222 106.05 197.356 106.3 196.349 106.3ZM191.269 106V91.6H193.369V98.23H193.129V106H191.269ZM196.059 104.41C196.726 104.41 197.276 104.24 197.709 103.9C198.149 103.56 198.476 103.103 198.689 102.53C198.909 101.95 199.019 101.303 199.019 100.59C199.019 99.8833 198.909 99.2433 198.689 98.67C198.476 98.0967 198.146 97.64 197.699 97.3C197.252 96.96 196.682 96.79 195.989 96.79C195.336 96.79 194.796 96.95 194.369 97.27C193.949 97.59 193.636 98.0367 193.429 98.61C193.229 99.1833 193.129 99.8433 193.129 100.59C193.129 101.337 193.229 101.997 193.429 102.57C193.629 103.143 193.946 103.593 194.379 103.92C194.812 104.247 195.372 104.41 196.059 104.41Z" fill="white"/>
<rect x="0.5" y="0.5" width="225" height="153" rx="15.5" stroke="#7C7B84"/>
<rect x="243.5" y="0.5" width="225" height="153" rx="15.5" fill="#1C1C1F"/>
<path d="M293.501 52.204C292.369 49.0756 289.498 47 286.25 47C281.977 47 278.5 50.603 278.5 55.0308C278.5 55.8214 278.616 56.609 278.845 57.3799C277.369 58.4493 276.5 60.1581 276.5 62.0253C276.5 65.1672 278.967 67.7246 282 67.7246L283.277 67.7236L282 66.6884C279.519 66.6884 277.5 64.5962 277.5 62.0253C277.5 60.386 278.322 58.8949 279.7 58.039L280.054 57.8193L279.913 57.4172C279.64 56.638 279.501 55.8349 279.501 55.0298C279.501 51.1729 282.529 48.0352 286.251 48.0352C289.181 48.0352 291.76 49.9761 292.667 52.8651L292.777 53.2163L293.132 53.2236C296.643 53.2972 299.5 56.3157 299.5 59.9518C299.5 63.6657 296.75 66.6884 293.166 66.6884L292.667 67.7236H293C297.136 67.7236 300.5 64.2377 300.5 59.9518C300.5 55.8764 297.392 52.4744 293.502 52.2029L293.501 52.204Z" fill="#7C7B84"/>
<path d="M285.389 61.7375C283.919 61.7375 282.722 62.9777 282.722 64.5008C282.722 66.0239 283.919 67.2641 285.389 67.2641C286.858 67.2641 288.055 66.0239 288.055 64.5008C288.055 62.9777 286.858 61.7375 285.389 61.7375ZM285.389 66.1588C284.506 66.1588 283.789 65.4149 283.789 64.5008C283.789 63.5867 284.506 62.8428 285.389 62.8428C286.271 62.8428 286.988 63.5867 286.988 64.5008C286.988 65.4149 286.271 66.1588 285.389 66.1588Z" fill="#7C7B84"/>
<path d="M284.739 56.4412H285.816V62.0209H284.739V56.4412Z" fill="#7C7B84"/>
<path d="M291.166 64.0402C292.636 64.0402 293.833 62.8001 293.833 61.277C293.833 59.7538 292.636 58.5137 291.166 58.5137C289.696 58.5137 288.499 59.7538 288.499 61.277C288.499 62.8001 289.696 64.0402 291.166 64.0402ZM291.166 59.619C292.048 59.619 292.766 60.3629 292.766 61.277C292.766 62.191 292.048 62.9349 291.166 62.9349C290.284 62.9349 289.566 62.191 289.566 61.277C289.566 60.3629 290.284 59.619 291.166 59.619Z" fill="#7C7B84"/>
<path d="M291.679 69H290.653L290.653 63.686H291.679L291.679 69Z" fill="#7C7B84"/>
<path d="M276.79 106.3C275.823 106.3 274.933 106.133 274.12 105.8C273.307 105.46 272.6 104.967 272 104.32C271.4 103.673 270.933 102.887 270.6 101.96C270.267 101.033 270.1 99.98 270.1 98.8C270.1 97.2467 270.383 95.9133 270.95 94.8C271.517 93.68 272.303 92.82 273.31 92.22C274.317 91.6133 275.477 91.31 276.79 91.31C278.483 91.31 279.833 91.7033 280.84 92.49C281.853 93.2767 282.543 94.3633 282.91 95.75L280.79 96.13C280.497 95.27 280.023 94.5833 279.37 94.07C278.717 93.5567 277.897 93.2967 276.91 93.29C275.89 93.2833 275.04 93.51 274.36 93.97C273.687 94.43 273.18 95.0767 272.84 95.91C272.5 96.7367 272.327 97.7 272.32 98.8C272.313 99.9 272.48 100.863 272.82 101.69C273.16 102.51 273.67 103.15 274.35 103.61C275.037 104.07 275.89 104.303 276.91 104.31C277.73 104.323 278.433 104.173 279.02 103.86C279.613 103.54 280.083 103.073 280.43 102.46C280.777 101.847 281 101.093 281.1 100.2H278.3V98.52H283.32C283.333 98.64 283.343 98.8 283.35 99C283.357 99.1933 283.36 99.3167 283.36 99.37C283.36 100.703 283.103 101.893 282.59 102.94C282.077 103.987 281.33 104.81 280.35 105.41C279.37 106.003 278.183 106.3 276.79 106.3ZM290.143 106.3C289.07 106.3 288.126 106.067 287.313 105.6C286.506 105.127 285.876 104.47 285.423 103.63C284.976 102.783 284.753 101.803 284.753 100.69C284.753 99.51 284.973 98.4867 285.413 97.62C285.86 96.7533 286.48 96.0833 287.273 95.61C288.066 95.1367 288.99 94.9 290.043 94.9C291.143 94.9 292.08 95.1567 292.853 95.67C293.626 96.1767 294.203 96.9 294.583 97.84C294.97 98.78 295.123 99.8967 295.043 101.19H292.953V100.43C292.94 99.1767 292.7 98.25 292.233 97.65C291.773 97.05 291.07 96.75 290.123 96.75C289.076 96.75 288.29 97.08 287.763 97.74C287.236 98.4 286.973 99.3533 286.973 100.6C286.973 101.787 287.236 102.707 287.763 103.36C288.29 104.007 289.05 104.33 290.043 104.33C290.696 104.33 291.26 104.183 291.733 103.89C292.213 103.59 292.586 103.163 292.853 102.61L294.903 103.26C294.483 104.227 293.846 104.977 292.993 105.51C292.14 106.037 291.19 106.3 290.143 106.3ZM286.293 101.19V99.56H294.003V101.19H286.293ZM301.417 106.29C300.103 106.29 299.033 106 298.207 105.42C297.38 104.84 296.873 104.023 296.687 102.97L298.827 102.64C298.96 103.2 299.267 103.643 299.747 103.97C300.233 104.29 300.837 104.45 301.557 104.45C302.21 104.45 302.72 104.317 303.087 104.05C303.46 103.783 303.647 103.417 303.647 102.95C303.647 102.677 303.58 102.457 303.447 102.29C303.32 102.117 303.05 101.953 302.637 101.8C302.223 101.647 301.593 101.457 300.747 101.23C299.82 100.99 299.083 100.733 298.537 100.46C297.997 100.18 297.61 99.8567 297.377 99.49C297.15 99.1167 297.037 98.6667 297.037 98.14C297.037 97.4867 297.21 96.9167 297.557 96.43C297.903 95.9433 298.39 95.5667 299.017 95.3C299.65 95.0333 300.39 94.9 301.237 94.9C302.063 94.9 302.8 95.03 303.447 95.29C304.093 95.55 304.617 95.92 305.017 96.4C305.417 96.8733 305.657 97.43 305.737 98.07L303.597 98.46C303.523 97.94 303.28 97.53 302.867 97.23C302.453 96.93 301.917 96.7667 301.257 96.74C300.623 96.7133 300.11 96.82 299.717 97.06C299.323 97.2933 299.127 97.6167 299.127 98.03C299.127 98.27 299.2 98.4733 299.347 98.64C299.5 98.8067 299.793 98.9667 300.227 99.12C300.66 99.2733 301.3 99.4567 302.147 99.67C303.053 99.9033 303.773 100.163 304.307 100.45C304.84 100.73 305.22 101.067 305.447 101.46C305.68 101.847 305.797 102.317 305.797 102.87C305.797 103.937 305.407 104.773 304.627 105.38C303.853 105.987 302.783 106.29 301.417 106.29ZM314.189 106C313.509 106.133 312.843 106.19 312.189 106.17C311.536 106.15 310.953 106.023 310.439 105.79C309.926 105.557 309.539 105.19 309.279 104.69C309.046 104.243 308.919 103.79 308.899 103.33C308.886 102.863 308.879 102.337 308.879 101.75V92.2H310.979V101.65C310.979 102.083 310.983 102.46 310.989 102.78C311.003 103.1 311.073 103.37 311.199 103.59C311.439 104.003 311.819 104.24 312.339 104.3C312.866 104.353 313.483 104.33 314.189 104.23V106ZM306.809 96.88V95.2H314.189V96.88H306.809ZM316.666 93.43V91.4H318.756V93.43H316.666ZM316.666 106V95.2H318.756V106H316.666ZM326.449 106.3C325.369 106.3 324.433 106.057 323.639 105.57C322.846 105.083 322.233 104.413 321.799 103.56C321.373 102.7 321.159 101.71 321.159 100.59C321.159 99.4633 321.379 98.4733 321.819 97.62C322.259 96.76 322.876 96.0933 323.669 95.62C324.463 95.14 325.389 94.9 326.449 94.9C327.529 94.9 328.466 95.1433 329.259 95.63C330.053 96.1167 330.666 96.7867 331.099 97.64C331.533 98.4933 331.749 99.4767 331.749 100.59C331.749 101.717 331.529 102.71 331.089 103.57C330.656 104.423 330.043 105.093 329.249 105.58C328.456 106.06 327.523 106.3 326.449 106.3ZM326.449 104.33C327.483 104.33 328.253 103.983 328.759 103.29C329.273 102.59 329.529 101.69 329.529 100.59C329.529 99.4633 329.269 98.5633 328.749 97.89C328.236 97.21 327.469 96.87 326.449 96.87C325.749 96.87 325.173 97.03 324.719 97.35C324.266 97.6633 323.929 98.1 323.709 98.66C323.489 99.2133 323.379 99.8567 323.379 100.59C323.379 101.723 323.639 102.63 324.159 103.31C324.679 103.99 325.443 104.33 326.449 104.33ZM341.527 106V100.69C341.527 100.27 341.49 99.84 341.417 99.4C341.35 98.9533 341.217 98.54 341.017 98.16C340.824 97.78 340.547 97.4733 340.187 97.24C339.834 97.0067 339.37 96.89 338.797 96.89C338.424 96.89 338.07 96.9533 337.737 97.08C337.404 97.2 337.11 97.3967 336.857 97.67C336.61 97.9433 336.414 98.3033 336.267 98.75C336.127 99.1967 336.057 99.74 336.057 100.38L334.757 99.89C334.757 98.91 334.94 98.0467 335.307 97.3C335.674 96.5467 336.2 95.96 336.887 95.54C337.574 95.12 338.404 94.91 339.377 94.91C340.124 94.91 340.75 95.03 341.257 95.27C341.764 95.51 342.174 95.8267 342.487 96.22C342.807 96.6067 343.05 97.03 343.217 97.49C343.384 97.95 343.497 98.4 343.557 98.84C343.617 99.28 343.647 99.6667 343.647 100V106H341.527ZM333.937 106V95.2H335.807V98.32H336.057V106H333.937ZM354.545 106.3C353.539 106.3 352.669 106.05 351.935 105.55C351.209 105.05 350.645 104.37 350.245 103.51C349.852 102.643 349.655 101.67 349.655 100.59C349.655 99.5033 349.855 98.5333 350.255 97.68C350.655 96.82 351.222 96.1433 351.955 95.65C352.695 95.15 353.572 94.9 354.585 94.9C355.605 94.9 356.462 95.15 357.155 95.65C357.855 96.1433 358.382 96.82 358.735 97.68C359.095 98.54 359.275 99.51 359.275 100.59C359.275 101.67 359.095 102.64 358.735 103.5C358.375 104.36 357.845 105.043 357.145 105.55C356.445 106.05 355.579 106.3 354.545 106.3ZM354.835 104.41C355.522 104.41 356.082 104.247 356.515 103.92C356.949 103.593 357.265 103.143 357.465 102.57C357.665 101.997 357.765 101.337 357.765 100.59C357.765 99.8433 357.662 99.1833 357.455 98.61C357.255 98.0367 356.942 97.59 356.515 97.27C356.095 96.95 355.559 96.79 354.905 96.79C354.212 96.79 353.642 96.96 353.195 97.3C352.749 97.64 352.415 98.0967 352.195 98.67C351.982 99.2433 351.875 99.8833 351.875 100.59C351.875 101.303 351.982 101.95 352.195 102.53C352.415 103.103 352.742 103.56 353.175 103.9C353.615 104.24 354.169 104.41 354.835 104.41ZM357.765 106V98.23H357.525V91.6H359.625V106H357.765ZM367.213 106.3C366.14 106.3 365.197 106.067 364.383 105.6C363.577 105.127 362.947 104.47 362.493 103.63C362.047 102.783 361.823 101.803 361.823 100.69C361.823 99.51 362.043 98.4867 362.483 97.62C362.93 96.7533 363.55 96.0833 364.343 95.61C365.137 95.1367 366.06 94.9 367.113 94.9C368.213 94.9 369.15 95.1567 369.923 95.67C370.697 96.1767 371.273 96.9 371.653 97.84C372.04 98.78 372.193 99.8967 372.113 101.19H370.023V100.43C370.01 99.1767 369.77 98.25 369.303 97.65C368.843 97.05 368.14 96.75 367.193 96.75C366.147 96.75 365.36 97.08 364.833 97.74C364.307 98.4 364.043 99.3533 364.043 100.6C364.043 101.787 364.307 102.707 364.833 103.36C365.36 104.007 366.12 104.33 367.113 104.33C367.767 104.33 368.33 104.183 368.803 103.89C369.283 103.59 369.657 103.163 369.923 102.61L371.973 103.26C371.553 104.227 370.917 104.977 370.063 105.51C369.21 106.037 368.26 106.3 367.213 106.3ZM363.363 101.19V99.56H371.073V101.19H363.363ZM377.361 106L382.041 91.6H385.051L389.731 106H387.561L383.251 92.86H383.791L379.531 106H377.361ZM379.791 102.75V100.79H387.311V102.75H379.791ZM391.525 106V91.6H397.345C397.485 91.6 397.658 91.6067 397.865 91.62C398.072 91.6267 398.268 91.6467 398.455 91.68C399.255 91.8067 399.922 92.08 400.455 92.5C400.995 92.92 401.398 93.45 401.665 94.09C401.932 94.73 402.065 95.4367 402.065 96.21C402.065 96.99 401.932 97.7 401.665 98.34C401.398 98.98 400.995 99.51 400.455 99.93C399.922 100.35 399.255 100.623 398.455 100.75C398.268 100.777 398.068 100.797 397.855 100.81C397.648 100.823 397.478 100.83 397.345 100.83H393.615V106H391.525ZM393.615 98.85H397.265C397.398 98.85 397.545 98.8433 397.705 98.83C397.872 98.8167 398.028 98.7933 398.175 98.76C398.602 98.66 398.945 98.4767 399.205 98.21C399.465 97.9367 399.652 97.6233 399.765 97.27C399.878 96.9167 399.935 96.5633 399.935 96.21C399.935 95.8567 399.878 95.5067 399.765 95.16C399.652 94.8067 399.465 94.4967 399.205 94.23C398.945 93.9567 398.602 93.77 398.175 93.67C398.028 93.63 397.872 93.6033 397.705 93.59C397.545 93.5767 397.398 93.57 397.265 93.57H393.615V98.85ZM404.264 106V91.6H406.354V106H404.264ZM412.697 90L411.277 86.5H412.917L414.337 90H412.697ZM423.936 106.29C422.623 106.29 421.553 106 420.726 105.42C419.9 104.84 419.393 104.023 419.206 102.97L421.346 102.64C421.48 103.2 421.786 103.643 422.266 103.97C422.753 104.29 423.356 104.45 424.076 104.45C424.73 104.45 425.24 104.317 425.606 104.05C425.98 103.783 426.166 103.417 426.166 102.95C426.166 102.677 426.1 102.457 425.966 102.29C425.84 102.117 425.57 101.953 425.156 101.8C424.743 101.647 424.113 101.457 423.266 101.23C422.34 100.99 421.603 100.733 421.056 100.46C420.516 100.18 420.13 99.8567 419.896 99.49C419.67 99.1167 419.556 98.6667 419.556 98.14C419.556 97.4867 419.73 96.9167 420.076 96.43C420.423 95.9433 420.91 95.5667 421.536 95.3C422.17 95.0333 422.91 94.9 423.756 94.9C424.583 94.9 425.32 95.03 425.966 95.29C426.613 95.55 427.136 95.92 427.536 96.4C427.936 96.8733 428.176 97.43 428.256 98.07L426.116 98.46C426.043 97.94 425.8 97.53 425.386 97.23C424.973 96.93 424.436 96.7667 423.776 96.74C423.143 96.7133 422.63 96.82 422.236 97.06C421.843 97.2933 421.646 97.6167 421.646 98.03C421.646 98.27 421.72 98.4733 421.866 98.64C422.02 98.8067 422.313 98.9667 422.746 99.12C423.18 99.2733 423.82 99.4567 424.666 99.67C425.573 99.9033 426.293 100.163 426.826 100.45C427.36 100.73 427.74 101.067 427.966 101.46C428.2 101.847 428.316 102.317 428.316 102.87C428.316 103.937 427.926 104.773 427.146 105.38C426.373 105.987 425.303 106.29 423.936 106.29Z" fill="white"/>
<rect x="243.5" y="0.5" width="225" height="153" rx="15.5" stroke="#7C7B84"/>
<rect x="486.5" y="0.5" width="225" height="153" rx="15.5" fill="#1C1C1F"/>
<path d="M541 46H522C520.62 46 519.5 47.2218 519.5 48.7273V67.8182H535.14L534.14 66.7273H520.5V52.5455H542.5V61.9709L543.5 63.0618V48.7273C543.5 47.2218 542.38 46 541 46ZM520.5 51.4545V48.7273C520.5 47.8218 521.17 47.0909 522 47.0909H541C541.83 47.0909 542.5 47.8218 542.5 48.7273V51.4545H520.5ZM535.04 56.9091H531.5V60.7709L539.23 69.2036C539.7 69.7164 540.33 70 541 70C541.67 70 542.3 69.7164 542.77 69.2036C543.24 68.6909 543.5 68.0036 543.5 67.2727C543.5 66.5418 543.24 65.8545 542.77 65.3418L535.04 56.9091ZM542.06 68.4291C541.49 69.0509 540.51 69.0509 539.94 68.4291L532.5 60.3127V58H534.62L542.06 66.1164C542.34 66.4218 542.5 66.8364 542.5 67.2727C542.5 67.7091 542.34 68.1236 542.06 68.4291Z" fill="#7C7B84"/>
<path d="M513.9 106V91.6H518.41C518.543 91.6 518.79 91.6033 519.15 91.61C519.517 91.6167 519.867 91.6433 520.2 91.69C521.327 91.83 522.273 92.2333 523.04 92.9C523.813 93.5667 524.397 94.4133 524.79 95.44C525.183 96.46 525.38 97.58 525.38 98.8C525.38 100.027 525.183 101.153 524.79 102.18C524.397 103.2 523.813 104.043 523.04 104.71C522.273 105.37 521.327 105.77 520.2 105.91C519.867 105.957 519.517 105.983 519.15 105.99C518.79 105.997 518.543 106 518.41 106H513.9ZM516.04 104.01H518.41C518.637 104.01 518.907 104.003 519.22 103.99C519.533 103.977 519.81 103.95 520.05 103.91C520.783 103.77 521.377 103.453 521.83 102.96C522.29 102.46 522.627 101.847 522.84 101.12C523.053 100.393 523.16 99.62 523.16 98.8C523.16 97.9533 523.05 97.17 522.83 96.45C522.61 95.7233 522.27 95.1167 521.81 94.63C521.357 94.1367 520.77 93.8233 520.05 93.69C519.81 93.6433 519.53 93.6167 519.21 93.61C518.897 93.5967 518.63 93.59 518.41 93.59H516.04V104.01ZM527.909 93.43V91.4H529.999V93.43H527.909ZM527.909 106V95.2H529.999V106H527.909ZM537.132 106.29C535.818 106.29 534.748 106 533.922 105.42C533.095 104.84 532.588 104.023 532.402 102.97L534.542 102.64C534.675 103.2 534.982 103.643 535.462 103.97C535.948 104.29 536.552 104.45 537.272 104.45C537.925 104.45 538.435 104.317 538.802 104.05C539.175 103.783 539.362 103.417 539.362 102.95C539.362 102.677 539.295 102.457 539.162 102.29C539.035 102.117 538.765 101.953 538.352 101.8C537.938 101.647 537.308 101.457 536.462 101.23C535.535 100.99 534.798 100.733 534.252 100.46C533.712 100.18 533.325 99.8567 533.092 99.49C532.865 99.1167 532.752 98.6667 532.752 98.14C532.752 97.4867 532.925 96.9167 533.272 96.43C533.618 95.9433 534.105 95.5667 534.732 95.3C535.365 95.0333 536.105 94.9 536.952 94.9C537.778 94.9 538.515 95.03 539.162 95.29C539.808 95.55 540.332 95.92 540.732 96.4C541.132 96.8733 541.372 97.43 541.452 98.07L539.312 98.46C539.238 97.94 538.995 97.53 538.582 97.23C538.168 96.93 537.632 96.7667 536.972 96.74C536.338 96.7133 535.825 96.82 535.432 97.06C535.038 97.2933 534.842 97.6167 534.842 98.03C534.842 98.27 534.915 98.4733 535.062 98.64C535.215 98.8067 535.508 98.9667 535.942 99.12C536.375 99.2733 537.015 99.4567 537.862 99.67C538.768 99.9033 539.488 100.163 540.022 100.45C540.555 100.73 540.935 101.067 541.162 101.46C541.395 101.847 541.512 102.317 541.512 102.87C541.512 103.937 541.122 104.773 540.342 105.38C539.568 105.987 538.498 106.29 537.132 106.29ZM548.514 106.3C547.441 106.3 546.498 106.067 545.684 105.6C544.878 105.127 544.248 104.47 543.794 103.63C543.348 102.783 543.124 101.803 543.124 100.69C543.124 99.51 543.344 98.4867 543.784 97.62C544.231 96.7533 544.851 96.0833 545.644 95.61C546.438 95.1367 547.361 94.9 548.414 94.9C549.514 94.9 550.451 95.1567 551.224 95.67C551.998 96.1767 552.574 96.9 552.954 97.84C553.341 98.78 553.494 99.8967 553.414 101.19H551.324V100.43C551.311 99.1767 551.071 98.25 550.604 97.65C550.144 97.05 549.441 96.75 548.494 96.75C547.448 96.75 546.661 97.08 546.134 97.74C545.608 98.4 545.344 99.3533 545.344 100.6C545.344 101.787 545.608 102.707 546.134 103.36C546.661 104.007 547.421 104.33 548.414 104.33C549.068 104.33 549.631 104.183 550.104 103.89C550.584 103.59 550.958 103.163 551.224 102.61L553.274 103.26C552.854 104.227 552.218 104.977 551.364 105.51C550.511 106.037 549.561 106.3 548.514 106.3ZM544.664 101.19V99.56H552.374V101.19H544.664ZM562.028 93.56C561.728 93.56 561.434 93.4933 561.148 93.36C560.868 93.2267 560.598 93.0767 560.338 92.91C560.078 92.7367 559.834 92.5833 559.608 92.45C559.381 92.3167 559.168 92.25 558.968 92.25C558.741 92.25 558.591 92.36 558.518 92.58C558.444 92.7933 558.448 93.0433 558.528 93.33H557.168C556.988 92.59 557.038 91.9667 557.318 91.46C557.598 90.9467 558.094 90.69 558.808 90.69C559.114 90.69 559.408 90.7567 559.688 90.89C559.968 91.0233 560.238 91.1767 560.498 91.35C560.758 91.5167 561.001 91.6667 561.228 91.8C561.461 91.9333 561.674 92 561.868 92C562.088 92 562.238 91.8967 562.318 91.69C562.404 91.4767 562.404 91.2167 562.318 90.91H563.678C563.858 91.6367 563.808 92.26 563.528 92.78C563.248 93.3 562.748 93.56 562.028 93.56ZM563.238 106V100.69C563.238 100.27 563.201 99.84 563.128 99.4C563.061 98.9533 562.928 98.54 562.728 98.16C562.534 97.78 562.258 97.4733 561.898 97.24C561.544 97.0067 561.081 96.89 560.508 96.89C560.134 96.89 559.781 96.9533 559.448 97.08C559.114 97.2 558.821 97.3967 558.568 97.67C558.321 97.9433 558.124 98.3033 557.978 98.75C557.838 99.1967 557.768 99.74 557.768 100.38L556.468 99.89C556.468 98.91 556.651 98.0467 557.018 97.3C557.384 96.5467 557.911 95.96 558.598 95.54C559.284 95.12 560.114 94.91 561.088 94.91C561.834 94.91 562.461 95.03 562.968 95.27C563.474 95.51 563.884 95.8267 564.198 96.22C564.518 96.6067 564.761 97.03 564.928 97.49C565.094 97.95 565.208 98.4 565.268 98.84C565.328 99.28 565.358 99.6667 565.358 100V106H563.238ZM555.648 106V95.2H557.518V98.32H557.768V106H555.648ZM572.653 106.3C571.573 106.3 570.636 106.057 569.843 105.57C569.049 105.083 568.436 104.413 568.003 103.56C567.576 102.7 567.363 101.71 567.363 100.59C567.363 99.4633 567.583 98.4733 568.023 97.62C568.463 96.76 569.079 96.0933 569.873 95.62C570.666 95.14 571.593 94.9 572.653 94.9C573.733 94.9 574.669 95.1433 575.463 95.63C576.256 96.1167 576.869 96.7867 577.303 97.64C577.736 98.4933 577.953 99.4767 577.953 100.59C577.953 101.717 577.733 102.71 577.293 103.57C576.859 104.423 576.246 105.093 575.453 105.58C574.659 106.06 573.726 106.3 572.653 106.3ZM572.653 104.33C573.686 104.33 574.456 103.983 574.963 103.29C575.476 102.59 575.733 101.69 575.733 100.59C575.733 99.4633 575.473 98.5633 574.953 97.89C574.439 97.21 573.673 96.87 572.653 96.87C571.953 96.87 571.376 97.03 570.923 97.35C570.469 97.6633 570.133 98.1 569.913 98.66C569.693 99.2133 569.583 99.8567 569.583 100.59C569.583 101.723 569.843 102.63 570.363 103.31C570.883 103.99 571.646 104.33 572.653 104.33ZM589.894 106.3C588.767 106.3 587.771 106.07 586.904 105.61C586.044 105.143 585.371 104.493 584.884 103.66C584.397 102.82 584.154 101.833 584.154 100.7V91.61L586.274 91.6V100.59C586.274 101.203 586.377 101.743 586.584 102.21C586.791 102.677 587.067 103.067 587.414 103.38C587.761 103.693 588.147 103.93 588.574 104.09C589.007 104.25 589.447 104.33 589.894 104.33C590.347 104.33 590.787 104.25 591.214 104.09C591.647 103.923 592.037 103.683 592.384 103.37C592.731 103.057 593.004 102.667 593.204 102.2C593.411 101.733 593.514 101.197 593.514 100.59V91.6H595.634V100.7C595.634 101.827 595.391 102.81 594.904 103.65C594.417 104.49 593.741 105.143 592.874 105.61C592.014 106.07 591.021 106.3 589.894 106.3ZM598.631 106V91.6H600.721V106H598.631ZM607.364 91.6H609.474L605.634 106H603.524L607.364 91.6ZM617.824 106.3C616.697 106.3 615.7 106.07 614.834 105.61C613.974 105.143 613.3 104.493 612.814 103.66C612.327 102.82 612.084 101.833 612.084 100.7V91.61L614.204 91.6V100.59C614.204 101.203 614.307 101.743 614.514 102.21C614.72 102.677 614.997 103.067 615.344 103.38C615.69 103.693 616.077 103.93 616.504 104.09C616.937 104.25 617.377 104.33 617.824 104.33C618.277 104.33 618.717 104.25 619.144 104.09C619.577 103.923 619.967 103.683 620.314 103.37C620.66 103.057 620.934 102.667 621.134 102.2C621.34 101.733 621.444 101.197 621.444 100.59V91.6H623.564V100.7C623.564 101.827 623.32 102.81 622.834 103.65C622.347 104.49 621.67 105.143 620.804 105.61C619.944 106.07 618.95 106.3 617.824 106.3ZM625.161 106L630.071 98.71L625.291 91.6H627.851L631.361 96.94L634.851 91.6H637.421L632.641 98.71L637.541 106H634.981L631.361 100.49L627.731 106H625.161Z" fill="white"/>
<rect x="486.5" y="0.5" width="225" height="153" rx="15.5" stroke="#7C7B84"/>
<rect x="729.5" y="0.5" width="225" height="153" rx="15.5" fill="#1C1C1F"/>
<path d="M774.92 53.3885C774.975 53.1185 775.238 52.9438 775.508 52.998L775.525 53.0014C775.796 53.0558 775.972 53.3202 775.917 53.5914L774.08 62.6115C774.025 62.8815 773.762 63.0562 773.492 63.002L773.475 62.9986C773.204 62.9442 773.028 62.6798 773.083 62.4086L774.92 53.3885ZM771.782 55.555C771.782 55.5569 771.78 55.5578 771.779 55.5565L771.271 55.0572C771.154 54.9422 770.966 54.9422 770.849 55.0572L768.831 57.04C768.24 57.62 768.24 58.56 768.831 59.14L770.679 60.9557C770.873 61.1468 771.185 61.1468 771.38 60.9557L771.389 60.9467C771.588 60.7507 771.588 60.4293 771.389 60.2333L769.553 58.43C769.36 58.24 769.36 57.93 769.553 57.74L771.779 55.5535C771.78 55.5522 771.782 55.5531 771.782 55.555V55.555ZM777.961 54.8185C777.961 54.8153 777.957 54.8137 777.954 54.816L777.454 55.3076C777.335 55.4243 777.335 55.6157 777.454 55.7324L779.457 57.7C779.65 57.89 779.65 58.2 779.457 58.39L777.601 60.2133C777.401 60.4093 777.401 60.7307 777.601 60.9267L777.61 60.9357C777.805 61.1268 778.116 61.1268 778.311 60.9357L780.179 59.1C780.77 58.52 780.77 57.58 780.179 57L777.962 54.821C777.961 54.8204 777.961 54.8195 777.961 54.8185V54.8185ZM783.518 59.5482C783.479 59.7593 783.57 59.9748 783.754 60.086L786.066 61.4868C786.304 61.6315 786.378 61.9437 786.23 62.1802L783.556 66.443C783.41 66.6744 783.106 66.7464 782.873 66.6049L780.539 65.1908C780.36 65.0822 780.132 65.098 779.964 65.2224C779.32 65.6974 778.628 66.0773 777.887 66.3669C777.689 66.4444 777.553 66.6326 777.553 66.8454V69.5C777.553 69.7761 777.33 70 777.053 70H771.947C771.67 70 771.447 69.7761 771.447 69.5V66.8442C771.447 66.632 771.312 66.4441 771.115 66.3664C770.379 66.0768 769.681 65.697 769.036 65.2223C768.868 65.098 768.64 65.0822 768.461 65.1908L766.127 66.6049C765.894 66.7464 765.59 66.6744 765.444 66.443L762.77 62.1802C762.622 61.9437 762.696 61.6315 762.934 61.4868L765.246 60.086C765.43 59.9748 765.521 59.7593 765.482 59.5482C765.387 59.0261 765.34 58.5064 765.34 58C765.34 57.4936 765.387 56.9739 765.482 56.4518C765.521 56.2407 765.43 56.0252 765.246 55.914L762.934 54.5132C762.696 54.3685 762.622 54.0563 762.77 53.8198L765.444 49.557C765.59 49.3256 765.894 49.2536 766.127 49.3951L768.461 50.8092C768.64 50.9178 768.868 50.902 769.036 50.7776C769.68 50.3026 770.372 49.9227 771.113 49.6331C771.311 49.5556 771.447 49.3674 771.447 49.1546V46.5C771.447 46.2239 771.67 46 771.947 46H777.053C777.33 46 777.553 46.2239 777.553 46.5V49.1558C777.553 49.368 777.688 49.5559 777.885 49.6336C778.621 49.9232 779.319 50.303 779.964 50.7777C780.132 50.902 780.36 50.9178 780.539 50.8092L782.873 49.3951C783.106 49.2536 783.41 49.3256 783.556 49.557L786.23 53.8198C786.378 54.0563 786.304 54.3685 786.066 54.5132L783.754 55.914C783.57 56.0252 783.479 56.2407 783.518 56.4518C783.613 56.9739 783.66 57.4936 783.66 58C783.66 58.5064 783.613 59.0261 783.518 59.5482ZM782.593 60.562C782.405 60.4479 782.313 60.2232 782.368 60.01V60.01C782.551 59.33 782.642 58.66 782.642 58C782.642 57.34 782.551 56.67 782.368 55.99V55.99C782.313 55.7768 782.405 55.5521 782.593 55.438L784.661 54.1835C784.9 54.0387 784.974 53.7263 784.825 53.4899L783.22 50.9366C783.075 50.7054 782.771 50.6336 782.537 50.7752L780.446 52.0439C780.262 52.1551 780.028 52.137 779.864 51.9988L779.854 51.99C778.978 51.24 777.981 50.69 776.892 50.36L776.888 50.3588C776.679 50.2941 776.536 50.1004 776.536 49.8811V47.5C776.536 47.2239 776.312 47 776.036 47H772.964C772.688 47 772.464 47.2239 772.464 47.5V49.8711C772.464 50.0904 772.321 50.2841 772.112 50.3488L772.108 50.35C771.019 50.68 770.022 51.23 769.146 51.98L769.136 51.9888C768.972 52.127 768.738 52.1451 768.554 52.0339L766.463 50.7655C766.23 50.6238 765.925 50.6959 765.78 50.9275L764.174 53.4901C764.026 53.7265 764.1 54.0384 764.338 54.1831L766.407 55.438C766.595 55.5521 766.687 55.7768 766.632 55.99V55.99C766.449 56.67 766.358 57.34 766.358 58C766.358 58.66 766.449 59.33 766.632 60.01V60.01C766.687 60.2232 766.595 60.4479 766.407 60.562L764.339 61.8165C764.1 61.9613 764.026 62.2737 764.175 62.5101L765.78 65.0634C765.925 65.2946 766.229 65.3664 766.463 65.2248L768.554 63.9561C768.738 63.8449 768.972 63.863 769.136 64.0012L769.146 64.01C770.022 64.76 771.019 65.31 772.108 65.64L772.112 65.6412C772.321 65.7059 772.464 65.8996 772.464 66.1189V68.49C772.464 68.7661 772.688 68.99 772.964 68.99H776.036C776.312 68.99 776.536 68.7661 776.536 68.49V66.1189C776.536 65.8996 776.679 65.7059 776.888 65.6412L776.892 65.64C777.981 65.31 778.978 64.76 779.854 64.01L779.864 64.0012C780.028 63.863 780.262 63.8449 780.446 63.9561L782.537 65.2248C782.771 65.3664 783.075 65.2946 783.22 65.0634L784.825 62.5101C784.974 62.2737 784.9 61.9613 784.661 61.8165L782.593 60.562Z" fill="#7C7B84"/>
<path d="M762.12 106.3C761.087 106.3 760.153 106.123 759.32 105.77C758.493 105.41 757.81 104.9 757.27 104.24C756.737 103.573 756.39 102.783 756.23 101.87L758.41 101.54C758.63 102.42 759.09 103.107 759.79 103.6C760.49 104.087 761.307 104.33 762.24 104.33C762.82 104.33 763.353 104.24 763.84 104.06C764.327 103.873 764.717 103.61 765.01 103.27C765.31 102.923 765.46 102.51 765.46 102.03C765.46 101.77 765.413 101.54 765.32 101.34C765.233 101.14 765.11 100.967 764.95 100.82C764.797 100.667 764.607 100.537 764.38 100.43C764.16 100.317 763.917 100.22 763.65 100.14L759.96 99.05C759.6 98.9433 759.233 98.8067 758.86 98.64C758.487 98.4667 758.143 98.2433 757.83 97.97C757.523 97.69 757.273 97.3467 757.08 96.94C756.887 96.5267 756.79 96.0267 756.79 95.44C756.79 94.5533 757.017 93.8033 757.47 93.19C757.93 92.57 758.55 92.1033 759.33 91.79C760.11 91.47 760.983 91.31 761.95 91.31C762.923 91.3233 763.793 91.4967 764.56 91.83C765.333 92.1633 765.973 92.6433 766.48 93.27C766.993 93.89 767.347 94.6433 767.54 95.53L765.3 95.91C765.2 95.37 764.987 94.9067 764.66 94.52C764.333 94.1267 763.933 93.8267 763.46 93.62C762.987 93.4067 762.473 93.2967 761.92 93.29C761.387 93.2767 760.897 93.3567 760.45 93.53C760.01 93.7033 759.657 93.9467 759.39 94.26C759.13 94.5733 759 94.9333 759 95.34C759 95.74 759.117 96.0633 759.35 96.31C759.583 96.5567 759.87 96.7533 760.21 96.9C760.557 97.04 760.9 97.1567 761.24 97.25L763.9 98C764.233 98.0933 764.61 98.22 765.03 98.38C765.457 98.5333 765.867 98.75 766.26 99.03C766.66 99.31 766.99 99.6833 767.25 100.15C767.51 100.61 767.64 101.19 767.64 101.89C767.64 102.617 767.493 103.257 767.2 103.81C766.907 104.357 766.503 104.817 765.99 105.19C765.483 105.557 764.897 105.833 764.23 106.02C763.563 106.207 762.86 106.3 762.12 106.3ZM774.461 106.3C773.381 106.3 772.444 106.057 771.651 105.57C770.858 105.083 770.244 104.413 769.811 103.56C769.384 102.7 769.171 101.71 769.171 100.59C769.171 99.4633 769.391 98.4733 769.831 97.62C770.271 96.76 770.888 96.0933 771.681 95.62C772.474 95.14 773.401 94.9 774.461 94.9C775.541 94.9 776.478 95.1433 777.271 95.63C778.064 96.1167 778.678 96.7867 779.111 97.64C779.544 98.4933 779.761 99.4767 779.761 100.59C779.761 101.717 779.541 102.71 779.101 103.57C778.668 104.423 778.054 105.093 777.261 105.58C776.468 106.06 775.534 106.3 774.461 106.3ZM774.461 104.33C775.494 104.33 776.264 103.983 776.771 103.29C777.284 102.59 777.541 101.69 777.541 100.59C777.541 99.4633 777.281 98.5633 776.761 97.89C776.248 97.21 775.481 96.87 774.461 96.87C773.761 96.87 773.184 97.03 772.731 97.35C772.278 97.6633 771.941 98.1 771.721 98.66C771.501 99.2133 771.391 99.8567 771.391 100.59C771.391 101.723 771.651 102.63 772.171 103.31C772.691 103.99 773.454 104.33 774.461 104.33ZM787.029 106.3C785.995 106.3 785.129 106.05 784.429 105.55C783.729 105.043 783.199 104.36 782.839 103.5C782.479 102.64 782.299 101.67 782.299 100.59C782.299 99.51 782.475 98.54 782.829 97.68C783.189 96.82 783.715 96.1433 784.409 95.65C785.109 95.15 785.969 94.9 786.989 94.9C788.002 94.9 788.875 95.15 789.609 95.65C790.349 96.1433 790.919 96.82 791.319 97.68C791.719 98.5333 791.919 99.5033 791.919 100.59C791.919 101.67 791.719 102.643 791.319 103.51C790.925 104.37 790.362 105.05 789.629 105.55C788.902 106.05 788.035 106.3 787.029 106.3ZM781.949 110.8V95.2H783.809V102.97H784.049V110.8H781.949ZM786.739 104.41C787.405 104.41 787.955 104.24 788.389 103.9C788.829 103.56 789.155 103.103 789.369 102.53C789.589 101.95 789.699 101.303 789.699 100.59C789.699 99.8833 789.589 99.2433 789.369 98.67C789.155 98.0967 788.825 97.64 788.379 97.3C787.932 96.96 787.362 96.79 786.669 96.79C786.015 96.79 785.475 96.95 785.049 97.27C784.629 97.59 784.315 98.0367 784.109 98.61C783.909 99.1833 783.809 99.8433 783.809 100.59C783.809 101.337 783.909 101.997 784.109 102.57C784.309 103.143 784.625 103.593 785.059 103.92C785.492 104.247 786.052 104.41 786.739 104.41ZM798.817 106.3C797.737 106.3 796.8 106.057 796.007 105.57C795.213 105.083 794.6 104.413 794.167 103.56C793.74 102.7 793.527 101.71 793.527 100.59C793.527 99.4633 793.747 98.4733 794.187 97.62C794.627 96.76 795.243 96.0933 796.037 95.62C796.83 95.14 797.757 94.9 798.817 94.9C799.897 94.9 800.833 95.1433 801.627 95.63C802.42 96.1167 803.033 96.7867 803.467 97.64C803.9 98.4933 804.117 99.4767 804.117 100.59C804.117 101.717 803.897 102.71 803.457 103.57C803.023 104.423 802.41 105.093 801.617 105.58C800.823 106.06 799.89 106.3 798.817 106.3ZM798.817 104.33C799.85 104.33 800.62 103.983 801.127 103.29C801.64 102.59 801.897 101.69 801.897 100.59C801.897 99.4633 801.637 98.5633 801.117 97.89C800.603 97.21 799.837 96.87 798.817 96.87C798.117 96.87 797.54 97.03 797.087 97.35C796.633 97.6633 796.297 98.1 796.077 98.66C795.857 99.2133 795.747 99.8567 795.747 100.59C795.747 101.723 796.007 102.63 796.527 103.31C797.047 103.99 797.81 104.33 798.817 104.33ZM806.314 106V95.2H808.174V97.82L807.914 97.48C808.047 97.1333 808.221 96.8167 808.434 96.53C808.647 96.2367 808.894 95.9967 809.174 95.81C809.447 95.61 809.751 95.4567 810.084 95.35C810.424 95.2367 810.771 95.17 811.124 95.15C811.477 95.1233 811.817 95.14 812.144 95.2V97.16C811.791 97.0667 811.397 97.04 810.964 97.08C810.537 97.12 810.144 97.2567 809.784 97.49C809.444 97.71 809.174 97.9767 808.974 98.29C808.781 98.6033 808.641 98.9533 808.554 99.34C808.467 99.72 808.424 100.123 808.424 100.55V106H806.314ZM820.228 106C819.548 106.133 818.882 106.19 818.228 106.17C817.575 106.15 816.992 106.023 816.478 105.79C815.965 105.557 815.578 105.19 815.318 104.69C815.085 104.243 814.958 103.79 814.938 103.33C814.925 102.863 814.918 102.337 814.918 101.75V92.2H817.018V101.65C817.018 102.083 817.022 102.46 817.028 102.78C817.042 103.1 817.112 103.37 817.238 103.59C817.478 104.003 817.858 104.24 818.378 104.3C818.905 104.353 819.522 104.33 820.228 104.23V106ZM812.848 96.88V95.2H820.228V96.88H812.848ZM826.807 106.3C825.734 106.3 824.791 106.067 823.977 105.6C823.171 105.127 822.541 104.47 822.087 103.63C821.641 102.783 821.417 101.803 821.417 100.69C821.417 99.51 821.637 98.4867 822.077 97.62C822.524 96.7533 823.144 96.0833 823.937 95.61C824.731 95.1367 825.654 94.9 826.707 94.9C827.807 94.9 828.744 95.1567 829.517 95.67C830.291 96.1767 830.867 96.9 831.247 97.84C831.634 98.78 831.787 99.8967 831.707 101.19H829.617V100.43C829.604 99.1767 829.364 98.25 828.897 97.65C828.437 97.05 827.734 96.75 826.787 96.75C825.741 96.75 824.954 97.08 824.427 97.74C823.901 98.4 823.637 99.3533 823.637 100.6C823.637 101.787 823.901 102.707 824.427 103.36C824.954 104.007 825.714 104.33 826.707 104.33C827.361 104.33 827.924 104.183 828.397 103.89C828.877 103.59 829.251 103.163 829.517 102.61L831.567 103.26C831.147 104.227 830.511 104.977 829.657 105.51C828.804 106.037 827.854 106.3 826.807 106.3ZM822.957 101.19V99.56H830.667V101.19H822.957Z" fill="white"/>
<rect x="729.5" y="0.5" width="225" height="153" rx="15.5" stroke="#7C7B84"/>
</svg>
