<svg width="226" height="154" viewBox="0 0 226 154" fill="none" xmlns="http://www.w3.org/2000/svg">
<rect x="0.5" y="0.5" width="225" height="153" rx="15.5" fill="#1C1C1F"/>
<path d="M50.732 60.4C50.828 59.608 50.9 58.816 50.9 58C50.9 57.184 50.828 56.392 50.732 55.6H54.788C54.98 56.368 55.1 57.172 55.1 58C55.1 58.828 54.98 59.632 54.788 60.4M48.608 67.072C49.328 65.74 49.88 64.3 50.264 62.8H53.804C52.6414 64.8019 50.7969 66.3184 48.608 67.072ZM48.308 60.4H42.692C42.572 59.608 42.5 58.816 42.5 58C42.5 57.184 42.572 56.38 42.692 55.6H48.308C48.416 56.38 48.5 57.184 48.5 58C48.5 58.816 48.416 59.608 48.308 60.4ZM45.5 67.552C44.504 66.112 43.7 64.516 43.208 62.8H47.792C47.3 64.516 46.496 66.112 45.5 67.552ZM40.7 53.2H37.196C38.3466 51.1927 40.1898 49.6738 42.38 48.928C41.66 50.26 41.12 51.7 40.7 53.2ZM37.196 62.8H40.7C41.12 64.3 41.66 65.74 42.38 67.072C40.1943 66.318 38.3538 64.8013 37.196 62.8ZM36.212 60.4C36.02 59.632 35.9 58.828 35.9 58C35.9 57.172 36.02 56.368 36.212 55.6H40.268C40.172 56.392 40.1 57.184 40.1 58C40.1 58.816 40.172 59.608 40.268 60.4M45.5 48.436C46.496 49.876 47.3 51.484 47.792 53.2H43.208C43.7 51.484 44.504 49.876 45.5 48.436ZM53.804 53.2H50.264C49.8884 51.7137 49.3323 50.2791 48.608 48.928C50.816 49.684 52.652 51.208 53.804 53.2ZM45.5 46C38.864 46 33.5 51.4 33.5 58C33.5 61.1826 34.7643 64.2348 37.0147 66.4853C38.129 67.5996 39.4519 68.4835 40.9078 69.0866C42.3637 69.6896 43.9241 70 45.5 70C48.6826 70 51.7348 68.7357 53.9853 66.4853C56.2357 64.2348 57.5 61.1826 57.5 58C57.5 56.4241 57.1896 54.8637 56.5866 53.4078C55.9835 51.9519 55.0996 50.629 53.9853 49.5147C52.871 48.4004 51.5481 47.5165 50.0922 46.9134C48.6363 46.3104 47.0759 46 45.5 46Z" fill="#7C7B84"/>
<path d="M27.9 106V91.6H32.41C32.5433 91.6 32.79 91.6033 33.15 91.61C33.5167 91.6167 33.8667 91.6433 34.2 91.69C35.3267 91.83 36.2733 92.2333 37.04 92.9C37.8133 93.5667 38.3967 94.4133 38.79 95.44C39.1833 96.46 39.38 97.58 39.38 98.8C39.38 100.027 39.1833 101.153 38.79 102.18C38.3967 103.2 37.8133 104.043 37.04 104.71C36.2733 105.37 35.3267 105.77 34.2 105.91C33.8667 105.957 33.5167 105.983 33.15 105.99C32.79 105.997 32.5433 106 32.41 106H27.9ZM30.04 104.01H32.41C32.6367 104.01 32.9067 104.003 33.22 103.99C33.5333 103.977 33.81 103.95 34.05 103.91C34.7833 103.77 35.3767 103.453 35.83 102.96C36.29 102.46 36.6267 101.847 36.84 101.12C37.0533 100.393 37.16 99.62 37.16 98.8C37.16 97.9533 37.05 97.17 36.83 96.45C36.61 95.7233 36.27 95.1167 35.81 94.63C35.3567 94.1367 34.77 93.8233 34.05 93.69C33.81 93.6433 33.53 93.6167 33.21 93.61C32.8967 93.5967 32.63 93.59 32.41 93.59H30.04V104.01ZM46.4986 106.3C45.4253 106.3 44.4819 106.067 43.6686 105.6C42.8619 105.127 42.2319 104.47 41.7786 103.63C41.3319 102.783 41.1086 101.803 41.1086 100.69C41.1086 99.51 41.3286 98.4867 41.7686 97.62C42.2153 96.7533 42.8353 96.0833 43.6286 95.61C44.4219 95.1367 45.3453 94.9 46.3986 94.9C47.4986 94.9 48.4353 95.1567 49.2086 95.67C49.9819 96.1767 50.5586 96.9 50.9386 97.84C51.3253 98.78 51.4786 99.8967 51.3986 101.19H49.3086V100.43C49.2953 99.1767 49.0553 98.25 48.5886 97.65C48.1286 97.05 47.4253 96.75 46.4786 96.75C45.4319 96.75 44.6453 97.08 44.1186 97.74C43.5919 98.4 43.3286 99.3533 43.3286 100.6C43.3286 101.787 43.5919 102.707 44.1186 103.36C44.6453 104.007 45.4053 104.33 46.3986 104.33C47.0519 104.33 47.6153 104.183 48.0886 103.89C48.5686 103.59 48.9419 103.163 49.2086 102.61L51.2586 103.26C50.8386 104.227 50.2019 104.977 49.3486 105.51C48.4953 106.037 47.5453 106.3 46.4986 106.3ZM42.6486 101.19V99.56H50.3586V101.19H42.6486ZM57.7722 106.29C56.4589 106.29 55.3889 106 54.5622 105.42C53.7355 104.84 53.2289 104.023 53.0422 102.97L55.1822 102.64C55.3155 103.2 55.6222 103.643 56.1022 103.97C56.5889 104.29 57.1922 104.45 57.9122 104.45C58.5655 104.45 59.0755 104.317 59.4422 104.05C59.8155 103.783 60.0022 103.417 60.0022 102.95C60.0022 102.677 59.9355 102.457 59.8022 102.29C59.6755 102.117 59.4055 101.953 58.9922 101.8C58.5789 101.647 57.9489 101.457 57.1022 101.23C56.1755 100.99 55.4389 100.733 54.8922 100.46C54.3522 100.18 53.9655 99.8567 53.7322 99.49C53.5055 99.1167 53.3922 98.6667 53.3922 98.14C53.3922 97.4867 53.5655 96.9167 53.9122 96.43C54.2589 95.9433 54.7455 95.5667 55.3722 95.3C56.0055 95.0333 56.7455 94.9 57.5922 94.9C58.4189 94.9 59.1555 95.03 59.8022 95.29C60.4489 95.55 60.9722 95.92 61.3722 96.4C61.7722 96.8733 62.0122 97.43 62.0922 98.07L59.9522 98.46C59.8789 97.94 59.6355 97.53 59.2222 97.23C58.8089 96.93 58.2722 96.7667 57.6122 96.74C56.9789 96.7133 56.4655 96.82 56.0722 97.06C55.6789 97.2933 55.4822 97.6167 55.4822 98.03C55.4822 98.27 55.5555 98.4733 55.7022 98.64C55.8555 98.8067 56.1489 98.9667 56.5822 99.12C57.0155 99.2733 57.6555 99.4567 58.5022 99.67C59.4089 99.9033 60.1289 100.163 60.6622 100.45C61.1955 100.73 61.5755 101.067 61.8022 101.46C62.0355 101.847 62.1522 102.317 62.1522 102.87C62.1522 103.937 61.7622 104.773 60.9822 105.38C60.2089 105.987 59.1389 106.29 57.7722 106.29ZM67.4148 106.3C66.6148 106.3 65.9448 106.153 65.4048 105.86C64.8648 105.56 64.4548 105.167 64.1748 104.68C63.9015 104.187 63.7648 103.647 63.7648 103.06C63.7648 102.513 63.8615 102.033 64.0548 101.62C64.2482 101.207 64.5348 100.857 64.9148 100.57C65.2948 100.277 65.7615 100.04 66.3148 99.86C66.7948 99.72 67.3382 99.5967 67.9448 99.49C68.5515 99.3833 69.1882 99.2833 69.8548 99.19C70.5282 99.0967 71.1948 99.0033 71.8548 98.91L71.0948 99.33C71.1082 98.4833 70.9282 97.8567 70.5548 97.45C70.1882 97.0367 69.5548 96.83 68.6548 96.83C68.0882 96.83 67.5682 96.9633 67.0948 97.23C66.6215 97.49 66.2915 97.9233 66.1048 98.53L64.1548 97.93C64.4215 97.0033 64.9282 96.2667 65.6748 95.72C66.4282 95.1733 67.4282 94.9 68.6748 94.9C69.6415 94.9 70.4815 95.0667 71.1948 95.4C71.9148 95.7267 72.4415 96.2467 72.7748 96.96C72.9482 97.3133 73.0548 97.6867 73.0948 98.08C73.1348 98.4733 73.1548 98.8967 73.1548 99.35V106H71.3048V103.53L71.6648 103.85C71.2182 104.677 70.6482 105.293 69.9548 105.7C69.2682 106.1 68.4215 106.3 67.4148 106.3ZM67.7848 104.59C68.3782 104.59 68.8882 104.487 69.3148 104.28C69.7415 104.067 70.0848 103.797 70.3448 103.47C70.6048 103.143 70.7748 102.803 70.8548 102.45C70.9682 102.13 71.0315 101.77 71.0448 101.37C71.0648 100.97 71.0748 100.65 71.0748 100.41L71.7548 100.66C71.0948 100.76 70.4948 100.85 69.9548 100.93C69.4148 101.01 68.9248 101.09 68.4848 101.17C68.0515 101.243 67.6648 101.333 67.3248 101.44C67.0382 101.54 66.7815 101.66 66.5548 101.8C66.3348 101.94 66.1582 102.11 66.0248 102.31C65.8982 102.51 65.8348 102.753 65.8348 103.04C65.8348 103.32 65.9048 103.58 66.0448 103.82C66.1848 104.053 66.3982 104.24 66.6848 104.38C66.9715 104.52 67.3382 104.59 67.7848 104.59ZM75.7516 106V95.2H77.6116V97.82L77.3516 97.48C77.4849 97.1333 77.6582 96.8167 77.8716 96.53C78.0849 96.2367 78.3316 95.9967 78.6116 95.81C78.8849 95.61 79.1882 95.4567 79.5216 95.35C79.8616 95.2367 80.2082 95.17 80.5616 95.15C80.9149 95.1233 81.2549 95.14 81.5816 95.2V97.16C81.2282 97.0667 80.8349 97.04 80.4016 97.08C79.9749 97.12 79.5816 97.2567 79.2216 97.49C78.8816 97.71 78.6116 97.9767 78.4116 98.29C78.2182 98.6033 78.0782 98.9533 77.9916 99.34C77.9049 99.72 77.8616 100.123 77.8616 100.55V106H75.7516ZM83.4859 106V95.2H85.3459V97.82L85.0859 97.48C85.2193 97.1333 85.3926 96.8167 85.6059 96.53C85.8193 96.2367 86.0659 95.9967 86.3459 95.81C86.6193 95.61 86.9226 95.4567 87.2559 95.35C87.5959 95.2367 87.9426 95.17 88.2959 95.15C88.6493 95.1233 88.9893 95.14 89.3159 95.2V97.16C88.9626 97.0667 88.5693 97.04 88.1359 97.08C87.7093 97.12 87.3159 97.2567 86.9559 97.49C86.6159 97.71 86.3459 97.9767 86.1459 98.29C85.9526 98.6033 85.8126 98.9533 85.7259 99.34C85.6393 99.72 85.5959 100.123 85.5959 100.55V106H83.4859ZM95.715 106.3C94.635 106.3 93.6983 106.057 92.905 105.57C92.1117 105.083 91.4983 104.413 91.065 103.56C90.6383 102.7 90.425 101.71 90.425 100.59C90.425 99.4633 90.645 98.4733 91.085 97.62C91.525 96.76 92.1417 96.0933 92.935 95.62C93.7283 95.14 94.655 94.9 95.715 94.9C96.795 94.9 97.7317 95.1433 98.525 95.63C99.3183 96.1167 99.9317 96.7867 100.365 97.64C100.798 98.4933 101.015 99.4767 101.015 100.59C101.015 101.717 100.795 102.71 100.355 103.57C99.9217 104.423 99.3083 105.093 98.515 105.58C97.7217 106.06 96.7883 106.3 95.715 106.3ZM95.715 104.33C96.7483 104.33 97.5183 103.983 98.025 103.29C98.5383 102.59 98.795 101.69 98.795 100.59C98.795 99.4633 98.535 98.5633 98.015 97.89C97.5017 97.21 96.735 96.87 95.715 96.87C95.015 96.87 94.4383 97.03 93.985 97.35C93.5317 97.6633 93.195 98.1 92.975 98.66C92.755 99.2133 92.645 99.8567 92.645 100.59C92.645 101.723 92.905 102.63 93.425 103.31C93.945 103.99 94.7083 104.33 95.715 104.33ZM103.413 106V91.3H105.503V106H103.413ZM108.705 106V91.3H110.795V106H108.705ZM116.848 106.3C116.048 106.3 115.378 106.153 114.838 105.86C114.298 105.56 113.888 105.167 113.608 104.68C113.335 104.187 113.198 103.647 113.198 103.06C113.198 102.513 113.295 102.033 113.488 101.62C113.682 101.207 113.968 100.857 114.348 100.57C114.728 100.277 115.195 100.04 115.748 99.86C116.228 99.72 116.772 99.5967 117.378 99.49C117.985 99.3833 118.622 99.2833 119.288 99.19C119.962 99.0967 120.628 99.0033 121.288 98.91L120.528 99.33C120.542 98.4833 120.362 97.8567 119.988 97.45C119.622 97.0367 118.988 96.83 118.088 96.83C117.522 96.83 117.002 96.9633 116.528 97.23C116.055 97.49 115.725 97.9233 115.538 98.53L113.588 97.93C113.855 97.0033 114.362 96.2667 115.108 95.72C115.862 95.1733 116.862 94.9 118.108 94.9C119.075 94.9 119.915 95.0667 120.628 95.4C121.348 95.7267 121.875 96.2467 122.208 96.96C122.382 97.3133 122.488 97.6867 122.528 98.08C122.568 98.4733 122.588 98.8967 122.588 99.35V106H120.738V103.53L121.098 103.85C120.652 104.677 120.082 105.293 119.388 105.7C118.702 106.1 117.855 106.3 116.848 106.3ZM117.218 104.59C117.812 104.59 118.322 104.487 118.748 104.28C119.175 104.067 119.518 103.797 119.778 103.47C120.038 103.143 120.208 102.803 120.288 102.45C120.402 102.13 120.465 101.77 120.478 101.37C120.498 100.97 120.508 100.65 120.508 100.41L121.188 100.66C120.528 100.76 119.928 100.85 119.388 100.93C118.848 101.01 118.358 101.09 117.918 101.17C117.485 101.243 117.098 101.333 116.758 101.44C116.472 101.54 116.215 101.66 115.988 101.8C115.768 101.94 115.592 102.11 115.458 102.31C115.332 102.51 115.268 102.753 115.268 103.04C115.268 103.32 115.338 103.58 115.478 103.82C115.618 104.053 115.832 104.24 116.118 104.38C116.405 104.52 116.772 104.59 117.218 104.59ZM129.475 106.3C128.468 106.3 127.598 106.05 126.865 105.55C126.138 105.05 125.575 104.37 125.175 103.51C124.782 102.643 124.585 101.67 124.585 100.59C124.585 99.5033 124.785 98.5333 125.185 97.68C125.585 96.82 126.152 96.1433 126.885 95.65C127.625 95.15 128.502 94.9 129.515 94.9C130.535 94.9 131.392 95.15 132.085 95.65C132.785 96.1433 133.312 96.82 133.665 97.68C134.025 98.54 134.205 99.51 134.205 100.59C134.205 101.67 134.025 102.64 133.665 103.5C133.305 104.36 132.775 105.043 132.075 105.55C131.375 106.05 130.508 106.3 129.475 106.3ZM129.765 104.41C130.452 104.41 131.012 104.247 131.445 103.92C131.878 103.593 132.195 103.143 132.395 102.57C132.595 101.997 132.695 101.337 132.695 100.59C132.695 99.8433 132.592 99.1833 132.385 98.61C132.185 98.0367 131.872 97.59 131.445 97.27C131.025 96.95 130.488 96.79 129.835 96.79C129.142 96.79 128.572 96.96 128.125 97.3C127.678 97.64 127.345 98.0967 127.125 98.67C126.912 99.2433 126.805 99.8833 126.805 100.59C126.805 101.303 126.912 101.95 127.125 102.53C127.345 103.103 127.672 103.56 128.105 103.9C128.545 104.24 129.098 104.41 129.765 104.41ZM132.695 106V98.23H132.455V91.6H134.555V106H132.695ZM142.043 106.3C140.963 106.3 140.026 106.057 139.233 105.57C138.44 105.083 137.826 104.413 137.393 103.56C136.966 102.7 136.753 101.71 136.753 100.59C136.753 99.4633 136.973 98.4733 137.413 97.62C137.853 96.76 138.47 96.0933 139.263 95.62C140.056 95.14 140.983 94.9 142.043 94.9C143.123 94.9 144.06 95.1433 144.853 95.63C145.646 96.1167 146.26 96.7867 146.693 97.64C147.126 98.4933 147.343 99.4767 147.343 100.59C147.343 101.717 147.123 102.71 146.683 103.57C146.25 104.423 145.636 105.093 144.843 105.58C144.05 106.06 143.116 106.3 142.043 106.3ZM142.043 104.33C143.076 104.33 143.846 103.983 144.353 103.29C144.866 102.59 145.123 101.69 145.123 100.59C145.123 99.4633 144.863 98.5633 144.343 97.89C143.83 97.21 143.063 96.87 142.043 96.87C141.343 96.87 140.766 97.03 140.313 97.35C139.86 97.6633 139.523 98.1 139.303 98.66C139.083 99.2133 138.973 99.8567 138.973 100.59C138.973 101.723 139.233 102.63 139.753 103.31C140.273 103.99 141.036 104.33 142.043 104.33ZM149.541 106V95.2H151.401V97.82L151.141 97.48C151.274 97.1333 151.447 96.8167 151.661 96.53C151.874 96.2367 152.121 95.9967 152.401 95.81C152.674 95.61 152.977 95.4567 153.311 95.35C153.651 95.2367 153.997 95.17 154.351 95.15C154.704 95.1233 155.044 95.14 155.371 95.2V97.16C155.017 97.0667 154.624 97.04 154.191 97.08C153.764 97.12 153.371 97.2567 153.011 97.49C152.671 97.71 152.401 97.9767 152.201 98.29C152.007 98.6033 151.867 98.9533 151.781 99.34C151.694 99.72 151.651 100.123 151.651 100.55V106H149.541ZM164.329 106L160.149 91.6H162.339L165.369 102.49L168.399 91.61L170.599 91.6L173.629 102.49L176.659 91.6H178.859L174.669 106H172.589L169.499 95.23L166.409 106H164.329ZM184.135 106.3C183.062 106.3 182.119 106.067 181.305 105.6C180.499 105.127 179.869 104.47 179.415 103.63C178.969 102.783 178.745 101.803 178.745 100.69C178.745 99.51 178.965 98.4867 179.405 97.62C179.852 96.7533 180.472 96.0833 181.265 95.61C182.059 95.1367 182.982 94.9 184.035 94.9C185.135 94.9 186.072 95.1567 186.845 95.67C187.619 96.1767 188.195 96.9 188.575 97.84C188.962 98.78 189.115 99.8967 189.035 101.19H186.945V100.43C186.932 99.1767 186.692 98.25 186.225 97.65C185.765 97.05 185.062 96.75 184.115 96.75C183.069 96.75 182.282 97.08 181.755 97.74C181.229 98.4 180.965 99.3533 180.965 100.6C180.965 101.787 181.229 102.707 181.755 103.36C182.282 104.007 183.042 104.33 184.035 104.33C184.689 104.33 185.252 104.183 185.725 103.89C186.205 103.59 186.579 103.163 186.845 102.61L188.895 103.26C188.475 104.227 187.839 104.977 186.985 105.51C186.132 106.037 185.182 106.3 184.135 106.3ZM180.285 101.19V99.56H187.995V101.19H180.285ZM196.349 106.3C195.316 106.3 194.449 106.05 193.749 105.55C193.049 105.043 192.519 104.36 192.159 103.5C191.799 102.64 191.619 101.67 191.619 100.59C191.619 99.51 191.796 98.54 192.149 97.68C192.509 96.82 193.036 96.1433 193.729 95.65C194.429 95.15 195.289 94.9 196.309 94.9C197.322 94.9 198.196 95.15 198.929 95.65C199.669 96.1433 200.239 96.82 200.639 97.68C201.039 98.5333 201.239 99.5033 201.239 100.59C201.239 101.67 201.039 102.643 200.639 103.51C200.246 104.37 199.682 105.05 198.949 105.55C198.222 106.05 197.356 106.3 196.349 106.3ZM191.269 106V91.6H193.369V98.23H193.129V106H191.269ZM196.059 104.41C196.726 104.41 197.276 104.24 197.709 103.9C198.149 103.56 198.476 103.103 198.689 102.53C198.909 101.95 199.019 101.303 199.019 100.59C199.019 99.8833 198.909 99.2433 198.689 98.67C198.476 98.0967 198.146 97.64 197.699 97.3C197.252 96.96 196.682 96.79 195.989 96.79C195.336 96.79 194.796 96.95 194.369 97.27C193.949 97.59 193.636 98.0367 193.429 98.61C193.229 99.1833 193.129 99.8433 193.129 100.59C193.129 101.337 193.229 101.997 193.429 102.57C193.629 103.143 193.946 103.593 194.379 103.92C194.812 104.247 195.372 104.41 196.059 104.41Z" fill="white"/>
<rect x="0.5" y="0.5" width="225" height="153" rx="15.5" stroke="#7C7B84"/>
</svg>
