<svg width="300" height="204" viewBox="0 0 300 204" fill="none" xmlns="http://www.w3.org/2000/svg">
<rect x="1" y="1" width="298" height="202" rx="15" fill="#1C1C1F"/>
<path d="M59.6684 67.8598C58.1591 63.736 54.3313 61 49.9995 61C44.3024 61 39.6666 65.7494 39.6666 71.586C39.6666 72.6283 39.8212 73.6664 40.1265 74.6826C38.1586 76.0923 37 78.3447 37 80.8061C37 84.9477 40.2892 88.3188 44.333 88.3188L46.0367 88.3174L44.333 86.9529C41.0252 86.9529 38.3333 84.195 38.3333 80.8061C38.3333 78.6452 39.4292 76.6796 41.2665 75.5514L41.7385 75.2618L41.5505 74.7318C41.1865 73.7046 41.0012 72.646 41.0012 71.5847C41.0012 66.5006 45.0383 62.3646 50.0008 62.3646C53.9086 62.3646 57.3472 64.923 58.5564 68.7312L58.7031 69.1943L59.1764 69.2038C63.8575 69.3008 67.6667 73.2798 67.6667 78.0729C67.6667 82.9684 63.9998 86.9529 59.2213 86.9529L58.5564 88.3174H59.0004C64.5149 88.3174 69 83.7224 69 78.0729C69 72.7006 64.8562 68.2163 59.6697 67.8584L59.6684 67.8598Z" fill="#7C7B84"/>
<path d="M48.8514 80.4267C46.8916 80.4267 45.296 82.0615 45.296 84.0692C45.296 86.077 46.8916 87.7117 48.8514 87.7117C50.8111 87.7117 52.4068 86.077 52.4068 84.0692C52.4068 82.0615 50.8111 80.4267 48.8514 80.4267ZM48.8514 86.2547C47.6752 86.2547 46.7181 85.2742 46.7181 84.0692C46.7181 82.8643 47.6752 81.8837 48.8514 81.8837C50.0275 81.8837 50.9846 82.8643 50.9846 84.0692C50.9846 85.2742 50.0275 86.2547 48.8514 86.2547Z" fill="#7C7B84"/>
<path d="M47.9853 73.4452H49.4211V80.8003H47.9853V73.4452Z" fill="#7C7B84"/>
<path d="M56.5547 83.4621C58.5145 83.4621 60.1101 81.8274 60.1101 79.8196C60.1101 77.8119 58.5145 76.1771 56.5547 76.1771C54.595 76.1771 52.9993 77.8119 52.9993 79.8196C52.9993 81.8274 54.595 83.4621 56.5547 83.4621ZM56.5547 77.6341C57.7309 77.6341 58.688 78.6147 58.688 79.8196C58.688 81.0246 57.7309 82.0051 56.5547 82.0051C55.3786 82.0051 54.4215 81.0246 54.4215 79.8196C54.4215 78.6147 55.3786 77.6341 56.5547 77.6341Z" fill="#7C7B84"/>
<path d="M57.2385 90H55.871L55.871 82.9952H57.2385L57.2385 90Z" fill="#7C7B84"/>
<path d="M39.29 141.8C38.3233 141.8 37.4333 141.633 36.62 141.3C35.8067 140.96 35.1 140.467 34.5 139.82C33.9 139.173 33.4333 138.387 33.1 137.46C32.7667 136.533 32.6 135.48 32.6 134.3C32.6 132.747 32.8833 131.413 33.45 130.3C34.0167 129.18 34.8033 128.32 35.81 127.72C36.8167 127.113 37.9767 126.81 39.29 126.81C40.9833 126.81 42.3333 127.203 43.34 127.99C44.3533 128.777 45.0433 129.863 45.41 131.25L43.29 131.63C42.9967 130.77 42.5233 130.083 41.87 129.57C41.2167 129.057 40.3967 128.797 39.41 128.79C38.39 128.783 37.54 129.01 36.86 129.47C36.1867 129.93 35.68 130.577 35.34 131.41C35 132.237 34.8267 133.2 34.82 134.3C34.8133 135.4 34.98 136.363 35.32 137.19C35.66 138.01 36.17 138.65 36.85 139.11C37.5367 139.57 38.39 139.803 39.41 139.81C40.23 139.823 40.9333 139.673 41.52 139.36C42.1133 139.04 42.5833 138.573 42.93 137.96C43.2767 137.347 43.5 136.593 43.6 135.7H40.8V134.02H45.82C45.8333 134.14 45.8433 134.3 45.85 134.5C45.8567 134.693 45.86 134.817 45.86 134.87C45.86 136.203 45.6033 137.393 45.09 138.44C44.5767 139.487 43.83 140.31 42.85 140.91C41.87 141.503 40.6833 141.8 39.29 141.8ZM52.6431 141.8C51.5698 141.8 50.6265 141.567 49.8131 141.1C49.0065 140.627 48.3765 139.97 47.9231 139.13C47.4765 138.283 47.2531 137.303 47.2531 136.19C47.2531 135.01 47.4731 133.987 47.9131 133.12C48.3598 132.253 48.9798 131.583 49.7731 131.11C50.5665 130.637 51.4898 130.4 52.5431 130.4C53.6431 130.4 54.5798 130.657 55.3531 131.17C56.1265 131.677 56.7031 132.4 57.0831 133.34C57.4698 134.28 57.6231 135.397 57.5431 136.69H55.4531V135.93C55.4398 134.677 55.1998 133.75 54.7331 133.15C54.2731 132.55 53.5698 132.25 52.6231 132.25C51.5765 132.25 50.7898 132.58 50.2631 133.24C49.7365 133.9 49.4731 134.853 49.4731 136.1C49.4731 137.287 49.7365 138.207 50.2631 138.86C50.7898 139.507 51.5498 139.83 52.5431 139.83C53.1965 139.83 53.7598 139.683 54.2331 139.39C54.7131 139.09 55.0865 138.663 55.3531 138.11L57.4031 138.76C56.9831 139.727 56.3465 140.477 55.4931 141.01C54.6398 141.537 53.6898 141.8 52.6431 141.8ZM48.7931 136.69V135.06H56.5031V136.69H48.7931ZM63.9167 141.79C62.6034 141.79 61.5334 141.5 60.7067 140.92C59.8801 140.34 59.3734 139.523 59.1867 138.47L61.3267 138.14C61.4601 138.7 61.7667 139.143 62.2467 139.47C62.7334 139.79 63.3367 139.95 64.0567 139.95C64.7101 139.95 65.2201 139.817 65.5867 139.55C65.9601 139.283 66.1467 138.917 66.1467 138.45C66.1467 138.177 66.0801 137.957 65.9467 137.79C65.8201 137.617 65.5501 137.453 65.1367 137.3C64.7234 137.147 64.0934 136.957 63.2467 136.73C62.3201 136.49 61.5834 136.233 61.0367 135.96C60.4967 135.68 60.1101 135.357 59.8767 134.99C59.6501 134.617 59.5367 134.167 59.5367 133.64C59.5367 132.987 59.7101 132.417 60.0567 131.93C60.4034 131.443 60.8901 131.067 61.5167 130.8C62.1501 130.533 62.8901 130.4 63.7367 130.4C64.5634 130.4 65.3001 130.53 65.9467 130.79C66.5934 131.05 67.1167 131.42 67.5167 131.9C67.9167 132.373 68.1567 132.93 68.2367 133.57L66.0967 133.96C66.0234 133.44 65.7801 133.03 65.3667 132.73C64.9534 132.43 64.4167 132.267 63.7567 132.24C63.1234 132.213 62.6101 132.32 62.2167 132.56C61.8234 132.793 61.6267 133.117 61.6267 133.53C61.6267 133.77 61.7001 133.973 61.8467 134.14C62.0001 134.307 62.2934 134.467 62.7267 134.62C63.1601 134.773 63.8001 134.957 64.6467 135.17C65.5534 135.403 66.2734 135.663 66.8067 135.95C67.3401 136.23 67.7201 136.567 67.9467 136.96C68.1801 137.347 68.2967 137.817 68.2967 138.37C68.2967 139.437 67.9067 140.273 67.1267 140.88C66.3534 141.487 65.2834 141.79 63.9167 141.79ZM76.6894 141.5C76.0094 141.633 75.3427 141.69 74.6894 141.67C74.036 141.65 73.4527 141.523 72.9394 141.29C72.426 141.057 72.0394 140.69 71.7794 140.19C71.546 139.743 71.4194 139.29 71.3994 138.83C71.386 138.363 71.3794 137.837 71.3794 137.25V127.7H73.4794V137.15C73.4794 137.583 73.4827 137.96 73.4894 138.28C73.5027 138.6 73.5727 138.87 73.6994 139.09C73.9394 139.503 74.3194 139.74 74.8394 139.8C75.366 139.853 75.9827 139.83 76.6894 139.73V141.5ZM69.3094 132.38V130.7H76.6894V132.38H69.3094ZM79.1664 128.93V126.9H81.2564V128.93H79.1664ZM79.1664 141.5V130.7H81.2564V141.5H79.1664ZM88.9494 141.8C87.8694 141.8 86.9327 141.557 86.1394 141.07C85.346 140.583 84.7327 139.913 84.2994 139.06C83.8727 138.2 83.6594 137.21 83.6594 136.09C83.6594 134.963 83.8794 133.973 84.3194 133.12C84.7594 132.26 85.376 131.593 86.1694 131.12C86.9627 130.64 87.8894 130.4 88.9494 130.4C90.0294 130.4 90.966 130.643 91.7594 131.13C92.5527 131.617 93.166 132.287 93.5994 133.14C94.0327 133.993 94.2494 134.977 94.2494 136.09C94.2494 137.217 94.0294 138.21 93.5894 139.07C93.156 139.923 92.5427 140.593 91.7494 141.08C90.956 141.56 90.0227 141.8 88.9494 141.8ZM88.9494 139.83C89.9827 139.83 90.7527 139.483 91.2594 138.79C91.7727 138.09 92.0294 137.19 92.0294 136.09C92.0294 134.963 91.7694 134.063 91.2494 133.39C90.736 132.71 89.9694 132.37 88.9494 132.37C88.2494 132.37 87.6727 132.53 87.2194 132.85C86.766 133.163 86.4294 133.6 86.2094 134.16C85.9894 134.713 85.8794 135.357 85.8794 136.09C85.8794 137.223 86.1394 138.13 86.6594 138.81C87.1794 139.49 87.9427 139.83 88.9494 139.83ZM104.027 141.5V136.19C104.027 135.77 103.99 135.34 103.917 134.9C103.85 134.453 103.717 134.04 103.517 133.66C103.324 133.28 103.047 132.973 102.687 132.74C102.334 132.507 101.87 132.39 101.297 132.39C100.924 132.39 100.57 132.453 100.237 132.58C99.9035 132.7 99.6102 132.897 99.3569 133.17C99.1102 133.443 98.9135 133.803 98.7669 134.25C98.6269 134.697 98.5569 135.24 98.5569 135.88L97.2569 135.39C97.2569 134.41 97.4402 133.547 97.8069 132.8C98.1735 132.047 98.7002 131.46 99.3869 131.04C100.074 130.62 100.904 130.41 101.877 130.41C102.624 130.41 103.25 130.53 103.757 130.77C104.264 131.01 104.674 131.327 104.987 131.72C105.307 132.107 105.55 132.53 105.717 132.99C105.884 133.45 105.997 133.9 106.057 134.34C106.117 134.78 106.147 135.167 106.147 135.5V141.5H104.027ZM96.4369 141.5V130.7H98.3069V133.82H98.5569V141.5H96.4369ZM117.045 141.8C116.039 141.8 115.169 141.55 114.435 141.05C113.709 140.55 113.145 139.87 112.745 139.01C112.352 138.143 112.155 137.17 112.155 136.09C112.155 135.003 112.355 134.033 112.755 133.18C113.155 132.32 113.722 131.643 114.455 131.15C115.195 130.65 116.072 130.4 117.085 130.4C118.105 130.4 118.962 130.65 119.655 131.15C120.355 131.643 120.882 132.32 121.235 133.18C121.595 134.04 121.775 135.01 121.775 136.09C121.775 137.17 121.595 138.14 121.235 139C120.875 139.86 120.345 140.543 119.645 141.05C118.945 141.55 118.079 141.8 117.045 141.8ZM117.335 139.91C118.022 139.91 118.582 139.747 119.015 139.42C119.449 139.093 119.765 138.643 119.965 138.07C120.165 137.497 120.265 136.837 120.265 136.09C120.265 135.343 120.162 134.683 119.955 134.11C119.755 133.537 119.442 133.09 119.015 132.77C118.595 132.45 118.059 132.29 117.405 132.29C116.712 132.29 116.142 132.46 115.695 132.8C115.249 133.14 114.915 133.597 114.695 134.17C114.482 134.743 114.375 135.383 114.375 136.09C114.375 136.803 114.482 137.45 114.695 138.03C114.915 138.603 115.242 139.06 115.675 139.4C116.115 139.74 116.669 139.91 117.335 139.91ZM120.265 141.5V133.73H120.025V127.1H122.125V141.5H120.265ZM129.713 141.8C128.64 141.8 127.697 141.567 126.883 141.1C126.077 140.627 125.447 139.97 124.993 139.13C124.547 138.283 124.323 137.303 124.323 136.19C124.323 135.01 124.543 133.987 124.983 133.12C125.43 132.253 126.05 131.583 126.843 131.11C127.637 130.637 128.56 130.4 129.613 130.4C130.713 130.4 131.65 130.657 132.423 131.17C133.197 131.677 133.773 132.4 134.153 133.34C134.54 134.28 134.693 135.397 134.613 136.69H132.523V135.93C132.51 134.677 132.27 133.75 131.803 133.15C131.343 132.55 130.64 132.25 129.693 132.25C128.647 132.25 127.86 132.58 127.333 133.24C126.807 133.9 126.543 134.853 126.543 136.1C126.543 137.287 126.807 138.207 127.333 138.86C127.86 139.507 128.62 139.83 129.613 139.83C130.267 139.83 130.83 139.683 131.303 139.39C131.783 139.09 132.157 138.663 132.423 138.11L134.473 138.76C134.053 139.727 133.417 140.477 132.563 141.01C131.71 141.537 130.76 141.8 129.713 141.8ZM125.863 136.69V135.06H133.573V136.69H125.863ZM139.861 141.5L144.541 127.1H147.551L152.231 141.5H150.061L145.751 128.36H146.291L142.031 141.5H139.861ZM142.291 138.25V136.29H149.811V138.25H142.291ZM154.025 141.5V127.1H159.845C159.985 127.1 160.158 127.107 160.365 127.12C160.572 127.127 160.768 127.147 160.955 127.18C161.755 127.307 162.422 127.58 162.955 128C163.495 128.42 163.898 128.95 164.165 129.59C164.432 130.23 164.565 130.937 164.565 131.71C164.565 132.49 164.432 133.2 164.165 133.84C163.898 134.48 163.495 135.01 162.955 135.43C162.422 135.85 161.755 136.123 160.955 136.25C160.768 136.277 160.568 136.297 160.355 136.31C160.148 136.323 159.978 136.33 159.845 136.33H156.115V141.5H154.025ZM156.115 134.35H159.765C159.898 134.35 160.045 134.343 160.205 134.33C160.372 134.317 160.528 134.293 160.675 134.26C161.102 134.16 161.445 133.977 161.705 133.71C161.965 133.437 162.152 133.123 162.265 132.77C162.378 132.417 162.435 132.063 162.435 131.71C162.435 131.357 162.378 131.007 162.265 130.66C162.152 130.307 161.965 129.997 161.705 129.73C161.445 129.457 161.102 129.27 160.675 129.17C160.528 129.13 160.372 129.103 160.205 129.09C160.045 129.077 159.898 129.07 159.765 129.07H156.115V134.35ZM166.764 141.5V127.1H168.854V141.5H166.764ZM175.197 125.5L173.777 122H175.417L176.837 125.5H175.197ZM186.436 141.79C185.123 141.79 184.053 141.5 183.226 140.92C182.4 140.34 181.893 139.523 181.706 138.47L183.846 138.14C183.98 138.7 184.286 139.143 184.766 139.47C185.253 139.79 185.856 139.95 186.576 139.95C187.23 139.95 187.74 139.817 188.106 139.55C188.48 139.283 188.666 138.917 188.666 138.45C188.666 138.177 188.6 137.957 188.466 137.79C188.34 137.617 188.07 137.453 187.656 137.3C187.243 137.147 186.613 136.957 185.766 136.73C184.84 136.49 184.103 136.233 183.556 135.96C183.016 135.68 182.63 135.357 182.396 134.99C182.17 134.617 182.056 134.167 182.056 133.64C182.056 132.987 182.23 132.417 182.576 131.93C182.923 131.443 183.41 131.067 184.036 130.8C184.67 130.533 185.41 130.4 186.256 130.4C187.083 130.4 187.82 130.53 188.466 130.79C189.113 131.05 189.636 131.42 190.036 131.9C190.436 132.373 190.676 132.93 190.756 133.57L188.616 133.96C188.543 133.44 188.3 133.03 187.886 132.73C187.473 132.43 186.936 132.267 186.276 132.24C185.643 132.213 185.13 132.32 184.736 132.56C184.343 132.793 184.146 133.117 184.146 133.53C184.146 133.77 184.22 133.973 184.366 134.14C184.52 134.307 184.813 134.467 185.246 134.62C185.68 134.773 186.32 134.957 187.166 135.17C188.073 135.403 188.793 135.663 189.326 135.95C189.86 136.23 190.24 136.567 190.466 136.96C190.7 137.347 190.816 137.817 190.816 138.37C190.816 139.437 190.426 140.273 189.646 140.88C188.873 141.487 187.803 141.79 186.436 141.79Z" fill="white"/>
<rect x="1" y="1" width="298" height="202" rx="15" stroke="#7C7B84" stroke-width="2"/>
</svg>
