<svg width="32" height="32" viewBox="0 0 32 32" fill="none" xmlns="http://www.w3.org/2000/svg">
<path d="M21.3571 4C19.1446 4 17.2075 5.11026 16 6.98695C14.7925 5.11026 12.8554 4 10.6429 4C8.88167 4.00232 7.19319 4.81977 5.94784 6.27302C4.70249 7.72626 4.00199 9.69663 4 11.7518C4 20.5039 15.1204 27.5881 15.5939 27.8806C15.7187 27.959 15.8583 28 16 28C16.1417 28 16.2813 27.959 16.4061 27.8806C16.8796 27.5881 28 20.5039 28 11.7518C27.998 9.69663 27.2975 7.72626 26.0522 6.27302C24.8068 4.81977 23.1183 4.00232 21.3571 4ZM16 25.8552C14.0436 24.5248 5.71429 18.4647 5.71429 11.7518C5.71599 10.2271 6.23579 8.76536 7.15971 7.6872C8.08363 6.60904 9.33624 6.00246 10.6429 6.00047C12.7268 6.00047 14.4764 7.29578 15.2071 9.37627C15.2717 9.55972 15.3816 9.71663 15.5228 9.82706C15.6639 9.93749 15.83 9.99645 16 9.99645C16.17 9.99645 16.3361 9.93749 16.4772 9.82706C16.6184 9.71663 16.7283 9.55972 16.7929 9.37627C17.5236 7.29203 19.2732 6.00047 21.3571 6.00047C22.6638 6.00246 23.9164 6.60904 24.8403 7.6872C25.7642 8.76536 26.284 10.2271 26.2857 11.7518C26.2857 18.4547 17.9543 24.5236 16 25.8552Z" fill="url(#paint0_linear_127_944)" fill-opacity="0.5"/>
<defs>
<linearGradient id="paint0_linear_127_944" x1="4.9913" y1="15.6571" x2="27.2174" y2="15.6571" gradientUnits="userSpaceOnUse">
<stop offset="0.00101106" stop-color="#A3DDEF"/>
<stop offset="0.479167" stop-color="#C7C2F6"/>
<stop offset="0.833333" stop-color="#E8ABF2"/>
<stop offset="0.927083" stop-color="#F1A4F1"/>
<stop offset="1" stop-color="#F7A0F0"/>
</linearGradient>
</defs>
</svg>
