<svg width="32" height="32" viewBox="0 0 32 32" fill="none" xmlns="http://www.w3.org/2000/svg">
<path d="M24.229 20.3887C24.3302 20.3213 24.4144 20.2244 24.473 20.1075C24.5317 19.9905 24.5628 19.8576 24.563 19.7223L24.575 15.259C24.5752 15.1236 24.6063 14.9908 24.665 14.8737C24.7239 14.7567 24.8084 14.6598 24.91 14.5926L27 13.2008C27.1014 13.1338 27.2162 13.0987 27.333 13.099C27.45 13.0994 27.5648 13.1353 27.666 13.2031C27.7672 13.2705 27.8513 13.3675 27.91 13.4843C27.9684 13.6014 27.9991 13.7343 27.999 13.8695V21.984C27.9989 22.1197 27.9679 22.253 27.9091 22.3704C27.8503 22.4878 27.7657 22.5852 27.664 22.6527L19.771 27.8981C19.6702 27.9649 19.5561 28 19.44 28C19.3239 28 19.2098 27.9649 19.109 27.8981L12.915 23.8004C12.8129 23.733 12.7281 23.6356 12.669 23.5181C12.61 23.4003 12.5789 23.2666 12.579 23.1305V19.0386C12.579 19.0339 12.583 19.0316 12.587 19.0339C12.591 19.0362 12.595 19.0339 12.595 19.0281V19.0235C12.595 19.02 12.597 19.0177 12.599 19.0154L17.701 15.6257C17.705 15.6222 17.703 15.6141 17.698 15.6141C17.6972 15.6141 17.6965 15.6139 17.6958 15.6135C17.6951 15.6131 17.6945 15.6125 17.694 15.6118C17.6936 15.6112 17.6932 15.6104 17.6931 15.6096C17.6929 15.6088 17.6929 15.608 17.693 15.6072L17.703 11.5962C17.7035 11.4604 17.6729 11.3268 17.6144 11.2089C17.556 11.0911 17.4717 10.9932 17.37 10.9252C17.2686 10.8575 17.1536 10.8218 17.0365 10.8218C16.9194 10.8218 16.8044 10.8575 16.703 10.9252L12.912 13.4542C12.8108 13.5215 12.6962 13.5569 12.5795 13.5569C12.4628 13.5569 12.3482 13.5215 12.247 13.4542L8.443 10.9206C8.34169 10.8533 8.22689 10.818 8.11008 10.8182C7.99327 10.8184 7.87855 10.8541 7.7774 10.9216C7.67625 10.9892 7.59222 11.0864 7.53371 11.2033C7.4752 11.3203 7.44426 11.453 7.444 11.5881V18.8384C7.44404 18.9736 7.4134 19.1064 7.35513 19.2235C7.29687 19.3407 7.21303 19.4381 7.112 19.5059C7.01113 19.5737 6.89664 19.6096 6.78 19.6101C6.66321 19.6104 6.54838 19.5753 6.447 19.5083L4.336 18.1119C4.23394 18.0445 4.14908 17.9471 4.09 17.8296C4.03081 17.7115 3.99975 17.5774 4 17.4409L4.019 4.76934C4.01936 4.63438 4.05032 4.50188 4.10878 4.38508C4.16724 4.26828 4.25115 4.17126 4.35215 4.1037C4.45315 4.03615 4.56769 4.00042 4.68436 4.00009C4.80102 3.99976 4.91572 4.03483 5.017 4.10181L12.247 8.90642C12.3482 8.97372 12.4628 9.00914 12.5795 9.00914C12.6962 9.00914 12.8108 8.97372 12.912 8.90642L20.14 4.10181C20.2414 4.03468 20.3562 3.99957 20.473 4C20.59 4.00028 20.7048 4.03619 20.806 4.10413C20.9073 4.17183 20.9915 4.26918 21.05 4.38641C21.108 4.5037 21.1383 4.63654 21.138 4.77166V17.4467C21.138 17.582 21.108 17.7151 21.049 17.8331C20.9902 17.9504 20.9057 18.0478 20.804 18.1153L17.019 20.6374C16.9172 20.7053 16.8327 20.803 16.774 20.9208C16.7155 21.0383 16.6848 21.1716 16.685 21.3072C16.6851 21.443 16.7162 21.5762 16.775 21.6936C16.8343 21.8113 16.9195 21.9088 17.022 21.9759L19.11 23.3515C19.2106 23.4174 19.3243 23.4521 19.44 23.4521C19.5565 23.452 19.671 23.4165 19.772 23.3492L24.229 20.3875V20.3887ZM24.667 9.01864C24.6669 9.15476 24.6979 9.28848 24.757 9.4062C24.8166 9.52405 24.9022 9.62147 25.005 9.68849C25.1075 9.75546 25.2234 9.78988 25.3411 9.78825C25.4588 9.78663 25.574 9.74901 25.675 9.67923L27.676 8.29095C27.7747 8.22249 27.8563 8.12564 27.913 8.00982C27.97 7.89379 27.9999 7.76264 28 7.6292V4.80174C27.9998 4.66552 27.9684 4.53181 27.909 4.41417C27.8495 4.29653 27.7641 4.19923 27.6615 4.13217C27.5589 4.06511 27.4428 4.03069 27.325 4.0324C27.2073 4.03392 27.0921 4.07144 26.991 4.14115L24.991 5.52943C24.892 5.59772 24.81 5.69459 24.753 5.81055C24.6964 5.92672 24.6668 6.05784 24.667 6.19117V9.01864Z" fill="black"/>
</svg>
