<svg width="32" height="32" viewBox="0 0 32 32" fill="none" xmlns="http://www.w3.org/2000/svg">
<path d="M16 4C12.796 4 10.804 6.66 10 12C11.2 9.34 12.604 8.34 14.2 9C15.112 9.38 15.772 10.48 16.492 11.7C17.668 13.7 19 16 22 16C25.204 16 27.196 13.34 28 8C26.8 10.66 25.396 11.66 23.8 11C22.888 10.62 22.24 9.52 21.508 8.3C20.332 6.3 19 4 16 4ZM10 16C6.796 16 4.804 18.66 4 24C5.2 21.34 6.604 20.34 8.2 21C9.112 21.38 9.76 22.48 10.492 23.7C11.668 25.7 13 28 16 28C19.204 28 21.196 25.34 22 20C20.8 22.66 19.396 23.66 17.8 23C16.888 22.62 16.24 21.52 15.508 20.3C14.332 18.3 13 16 10 16Z" fill="black"/>
</svg>
