<svg width="32" height="32" viewBox="0 0 32 32" fill="none" xmlns="http://www.w3.org/2000/svg">
<path d="M8.98453 4C7.61493 4 6.60267 5.50502 6.64853 7.13591C6.6912 8.70386 6.63467 10.7338 6.2272 12.3901C5.81867 14.0504 5.12853 15.1029 4 15.2381V16.7619C5.12853 16.8971 5.81867 17.9496 6.2272 19.6099C6.63467 21.2649 6.6912 23.2961 6.64747 24.8628C6.60267 26.495 7.61493 28 8.9856 28H23.0165C24.3861 28 25.3995 26.495 25.3547 24.8628C25.3109 23.2961 25.3675 21.2649 25.7739 19.6099C26.1835 17.9496 26.8725 16.8971 28 16.7619V15.2381C26.8715 15.1029 26.1835 14.0504 25.7739 12.3901C25.3675 10.7351 25.3109 8.70386 25.3547 7.13591C25.3995 5.50502 24.3861 4 23.0165 4H8.98453ZM20.2709 18.773C20.2709 21.0199 18.9365 22.383 16.7211 22.383H12.9493C12.8959 22.3831 12.8429 22.3701 12.7935 22.3445C12.7441 22.3189 12.6991 22.2814 12.6613 22.234C12.6234 22.1866 12.5934 22.1303 12.5729 22.0683C12.5524 22.0064 12.5419 21.9399 12.5419 21.8728V10.1272C12.5419 10.0601 12.5524 9.99365 12.5729 9.93167C12.5934 9.86968 12.6234 9.81339 12.6613 9.766C12.6991 9.71861 12.7441 9.68106 12.7935 9.6555C12.8429 9.62994 12.8959 9.61687 12.9493 9.61705H16.6987C18.5461 9.61705 19.7589 10.873 19.7589 12.8025C19.7589 14.1549 18.9429 15.368 17.904 15.5796V15.6505C19.3184 15.8447 20.2709 17.0752 20.2709 18.773ZM16.3093 11.2345H14.1589V15.048H15.9701C17.3707 15.048 18.1419 14.341 18.1419 13.0757C18.1419 11.8906 17.4784 11.2359 16.3093 11.2359V11.2345ZM14.1589 16.561V20.7641H16.3883C17.8464 20.7641 18.6176 20.029 18.6176 18.6485C18.6176 17.2694 17.8251 16.561 16.2944 16.561H14.1589Z" fill="black"/>
</svg>
