<svg width="32" height="32" viewBox="0 0 32 32" fill="none" xmlns="http://www.w3.org/2000/svg">
<path d="M11.6175 1.85962H14.1955V2.93762H12.6955V4.01562H14.1955V5.09362H11.6175V1.85962ZM14.7105 1.85962H17.2895V2.79762H15.7895V2.98462H17.2895V5.14062H14.7105V4.15662H16.2105V3.96862H14.7105V1.85962ZM17.8055 1.85962H20.3825V2.79762H18.8825V2.98462H20.3825V5.14062H17.8055V4.15662H19.3055V3.96862H17.8055V1.85962Z" fill="black"/>
<path fill-rule="evenodd" clip-rule="evenodd" d="M15.988 30.1404L6.72933 27.7408L4 6.14038H28L25.272 27.7383L15.988 30.1404ZM9.396 15.9181L9.65067 18.5667H19.4867L19.1573 22.0018L15.992 22.8009H15.9893L12.8293 22.0043L12.6267 19.8922H9.77733L10.1747 24.0517L15.988 25.5577L21.8107 24.0517L22.52 16.6288L22.5893 15.9181L23.1013 10.555H8.88533L9.144 13.2048H19.992L19.7333 15.9181H9.396Z" fill="black"/>
</svg>
