<svg width="32" height="32" viewBox="0 0 32 32" fill="none" xmlns="http://www.w3.org/2000/svg">
<path d="M17.7787 21.4067L16.6347 22.9907C17.72 23.9587 19.0693 24.4427 20.6827 24.4427C21.9147 24.4133 22.8533 24.096 23.4987 23.4893C24.1547 22.8733 24.4813 22.14 24.4813 21.2893C24.4813 20.4587 24.252 19.7733 23.792 19.236C23.3333 18.6987 22.56 18.268 21.4747 17.9453C20.576 17.672 19.9413 17.4227 19.568 17.1973C19.1973 16.9627 19.0107 16.6787 19.0107 16.3467C19.0107 16.044 19.1627 15.8 19.4653 15.6133C19.7693 15.4267 20.1747 15.3347 20.6827 15.3347C21.056 15.3347 21.4747 15.408 21.944 15.5547C22.4133 15.6813 22.8293 15.888 23.1907 16.1707L24.2173 14.572C23.3187 13.848 22.1253 13.4867 20.6387 13.4867C19.5733 13.4867 18.6987 13.76 18.0133 14.308C17.3093 14.8547 16.9573 15.5347 16.9573 16.3467C16.968 17.2067 17.2507 17.8773 17.808 18.356C18.376 18.836 19.1813 19.2267 20.228 19.5293C21.0987 19.8027 21.6907 20.076 22.0027 20.3507C22.1468 20.4735 22.2622 20.6265 22.3408 20.7988C22.4193 20.9712 22.4591 21.1586 22.4573 21.348C22.4646 21.5214 22.4267 21.6937 22.3472 21.848C22.2677 22.0023 22.1494 22.1333 22.004 22.228C21.6907 22.4427 21.24 22.5507 20.6533 22.5507C19.696 22.56 18.7373 22.1787 17.7787 21.4067ZM10.4053 22.2573C10.0833 22.0545 9.80425 21.7904 9.584 21.48L8.20533 22.6093C8.616 23.3027 9.12533 23.788 9.73067 24.0613C10.2973 24.3147 10.948 24.4427 11.6813 24.4427C12.0813 24.4427 12.4973 24.3787 12.928 24.252C13.3645 24.1217 13.7691 23.9019 14.116 23.6067C14.752 23.0987 15.084 22.2667 15.1133 21.1133V13.6627H13.1333V20.732C13.1333 21.4067 12.9813 21.8813 12.68 22.1547C12.376 22.4187 11.9947 22.5507 11.5347 22.5507C11.0947 22.5507 10.7187 22.4533 10.4053 22.2573ZM4 8C4 6.93913 4.42143 5.92172 5.17157 5.17157C5.92172 4.42143 6.93913 4 8 4H24C25.0609 4 26.0783 4.42143 26.8284 5.17157C27.5786 5.92172 28 6.93913 28 8V24C28 25.0609 27.5786 26.0783 26.8284 26.8284C26.0783 27.5786 25.0609 28 24 28H8C6.93913 28 5.92172 27.5786 5.17157 26.8284C4.42143 26.0783 4 25.0609 4 24V8ZM8 6.66667C7.64638 6.66667 7.30724 6.80714 7.05719 7.05719C6.80714 7.30724 6.66667 7.64638 6.66667 8V24C6.66667 24.3536 6.80714 24.6928 7.05719 24.9428C7.30724 25.1929 7.64638 25.3333 8 25.3333H24C24.3536 25.3333 24.6928 25.1929 24.9428 24.9428C25.1929 24.6928 25.3333 24.3536 25.3333 24V8C25.3333 7.64638 25.1929 7.30724 24.9428 7.05719C24.6928 6.80714 24.3536 6.66667 24 6.66667H8Z" fill="black"/>
</svg>
