<svg width="153" height="49" viewBox="0 0 153 49" fill="none" xmlns="http://www.w3.org/2000/svg">
<path d="M13.9345 31C13.6412 31 13.3945 30.9 13.1945 30.7C12.9945 30.5 12.8945 30.2533 12.8945 29.96V16.42C12.8945 16.1133 12.9945 15.8667 13.1945 15.68C13.3945 15.48 13.6412 15.38 13.9345 15.38C14.3345 15.38 14.6412 15.5667 14.8545 15.94L21.1145 28.48H20.4745L26.5745 15.94C26.7879 15.5667 27.0945 15.38 27.4945 15.38C27.7879 15.38 28.0345 15.48 28.2345 15.68C28.4345 15.8667 28.5345 16.1133 28.5345 16.42V29.96C28.5345 30.2533 28.4279 30.5 28.2145 30.7C28.0145 30.9 27.7745 31 27.4945 31C27.2012 31 26.9545 30.9 26.7545 30.7C26.5545 30.5 26.4545 30.2533 26.4545 29.96V19.3L26.8545 19.2L21.6145 29.88C21.3879 30.2267 21.0879 30.4 20.7145 30.4C20.2745 30.4 19.9545 30.1933 19.7545 29.78L14.5745 19.4L14.9745 19.3V29.96C14.9745 30.2533 14.8745 30.5 14.6745 30.7C14.4745 30.9 14.2279 31 13.9345 31ZM36.903 31.08C35.9296 31.08 35.0563 30.84 34.283 30.36C33.5096 29.8667 32.8963 29.2067 32.443 28.38C32.003 27.54 31.783 26.5933 31.783 25.54C31.783 24.4867 32.023 23.54 32.503 22.7C32.9963 21.86 33.6563 21.2 34.483 20.72C35.323 20.2267 36.263 19.98 37.303 19.98C38.343 19.98 39.2763 20.2267 40.103 20.72C40.9296 21.2 41.583 21.86 42.063 22.7C42.5563 23.54 42.803 24.4867 42.803 25.54H42.023C42.023 26.5933 41.7963 27.54 41.343 28.38C40.903 29.2067 40.2963 29.8667 39.523 30.36C38.7496 30.84 37.8763 31.08 36.903 31.08ZM37.303 29.28C37.983 29.28 38.5896 29.12 39.123 28.8C39.6563 28.4667 40.0763 28.02 40.383 27.46C40.6896 26.8867 40.843 26.2467 40.843 25.54C40.843 24.82 40.6896 24.18 40.383 23.62C40.0763 23.0467 39.6563 22.6 39.123 22.28C38.5896 21.9467 37.983 21.78 37.303 21.78C36.6363 21.78 36.0296 21.9467 35.483 22.28C34.9496 22.6 34.523 23.0467 34.203 23.62C33.8963 24.18 33.743 24.82 33.743 25.54C33.743 26.2467 33.8963 26.8867 34.203 27.46C34.523 28.02 34.9496 28.4667 35.483 28.8C36.0296 29.12 36.6363 29.28 37.303 29.28ZM41.783 31.02C41.4896 31.02 41.243 30.9267 41.043 30.74C40.8563 30.54 40.763 30.2933 40.763 30V26.94L41.143 24.82L42.803 25.54V30C42.803 30.2933 42.703 30.54 42.503 30.74C42.3163 30.9267 42.0763 31.02 41.783 31.02ZM49.8191 31C49.1524 31 48.5524 30.8333 48.0191 30.5C47.4857 30.1533 47.0657 29.6867 46.7591 29.1C46.4524 28.5133 46.2991 27.8533 46.2991 27.12V17.58C46.2991 17.2867 46.3924 17.0467 46.5791 16.86C46.7657 16.6733 47.0057 16.58 47.2991 16.58C47.5924 16.58 47.8324 16.6733 48.0191 16.86C48.2057 17.0467 48.2991 17.2867 48.2991 17.58V27.12C48.2991 27.6533 48.4457 28.1 48.7391 28.46C49.0324 28.82 49.3924 29 49.8191 29H50.4991C50.7391 29 50.9391 29.0933 51.0991 29.28C51.2724 29.4667 51.3591 29.7067 51.3591 30C51.3591 30.2933 51.2457 30.5333 51.0191 30.72C50.8057 30.9067 50.5257 31 50.1791 31H49.8191ZM45.3791 22.18C45.0991 22.18 44.8724 22.1 44.6991 21.94C44.5257 21.78 44.4391 21.58 44.4391 21.34C44.4391 21.0733 44.5257 20.86 44.6991 20.7C44.8724 20.54 45.0991 20.46 45.3791 20.46H49.9991C50.2791 20.46 50.5057 20.54 50.6791 20.7C50.8524 20.86 50.9391 21.0733 50.9391 21.34C50.9391 21.58 50.8524 21.78 50.6791 21.94C50.5057 22.1 50.2791 22.18 49.9991 22.18H45.3791ZM55.0864 31C54.7931 31 54.5464 30.9067 54.3464 30.72C54.1597 30.52 54.0664 30.2733 54.0664 29.98V21.08C54.0664 20.7733 54.1597 20.5267 54.3464 20.34C54.5464 20.1533 54.7931 20.06 55.0864 20.06C55.3931 20.06 55.6397 20.1533 55.8264 20.34C56.0131 20.5267 56.1064 20.7733 56.1064 21.08V29.98C56.1064 30.2733 56.0131 30.52 55.8264 30.72C55.6397 30.9067 55.3931 31 55.0864 31ZM55.0864 18.28C54.7264 18.28 54.4131 18.1533 54.1464 17.9C53.8931 17.6333 53.7664 17.32 53.7664 16.96C53.7664 16.6 53.8931 16.2933 54.1464 16.04C54.4131 15.7733 54.7264 15.64 55.0864 15.64C55.4464 15.64 55.7531 15.7733 56.0064 16.04C56.2731 16.2933 56.4064 16.6 56.4064 16.96C56.4064 17.32 56.2731 17.6333 56.0064 17.9C55.7531 18.1533 55.4464 18.28 55.0864 18.28ZM64.4616 31.08C63.4882 31.08 62.6149 30.84 61.8416 30.36C61.0682 29.8667 60.4549 29.2067 60.0016 28.38C59.5616 27.54 59.3416 26.5933 59.3416 25.54C59.3416 24.4867 59.5816 23.54 60.0616 22.7C60.5549 21.86 61.2149 21.2 62.0416 20.72C62.8816 20.2267 63.8216 19.98 64.8616 19.98C65.9016 19.98 66.8349 20.2267 67.6616 20.72C68.4882 21.2 69.1416 21.86 69.6216 22.7C70.1149 23.54 70.3616 24.4867 70.3616 25.54H69.5816C69.5816 26.5933 69.3549 27.54 68.9016 28.38C68.4616 29.2067 67.8549 29.8667 67.0816 30.36C66.3082 30.84 65.4349 31.08 64.4616 31.08ZM64.8616 29.28C65.5416 29.28 66.1482 29.12 66.6816 28.8C67.2149 28.4667 67.6349 28.02 67.9416 27.46C68.2482 26.8867 68.4016 26.2467 68.4016 25.54C68.4016 24.82 68.2482 24.18 67.9416 23.62C67.6349 23.0467 67.2149 22.6 66.6816 22.28C66.1482 21.9467 65.5416 21.78 64.8616 21.78C64.1949 21.78 63.5882 21.9467 63.0416 22.28C62.5082 22.6 62.0816 23.0467 61.7616 23.62C61.4549 24.18 61.3016 24.82 61.3016 25.54C61.3016 26.2467 61.4549 26.8867 61.7616 27.46C62.0816 28.02 62.5082 28.4667 63.0416 28.8C63.5882 29.12 64.1949 29.28 64.8616 29.28ZM69.3416 31.02C69.0482 31.02 68.8016 30.9267 68.6016 30.74C68.4149 30.54 68.3216 30.2933 68.3216 30V26.94L68.7016 24.82L70.3616 25.54V30C70.3616 30.2933 70.2616 30.54 70.0616 30.74C69.8749 30.9267 69.6349 31.02 69.3416 31.02ZM77.3777 31.08C76.4443 31.08 75.5777 30.94 74.7777 30.66C73.991 30.3667 73.3777 30 72.9377 29.56C72.7377 29.3467 72.651 29.1067 72.6777 28.84C72.7177 28.56 72.851 28.3333 73.0777 28.16C73.3443 27.9467 73.6043 27.86 73.8577 27.9C74.1243 27.9267 74.351 28.04 74.5377 28.24C74.7643 28.4933 75.1243 28.7333 75.6177 28.96C76.1243 29.1733 76.6843 29.28 77.2977 29.28C78.071 29.28 78.6577 29.1533 79.0577 28.9C79.471 28.6467 79.6843 28.32 79.6977 27.92C79.711 27.52 79.5177 27.1733 79.1177 26.88C78.731 26.5867 78.0177 26.3467 76.9777 26.16C75.631 25.8933 74.651 25.4933 74.0377 24.96C73.4377 24.4267 73.1377 23.7733 73.1377 23C73.1377 22.32 73.3377 21.76 73.7377 21.32C74.1377 20.8667 74.651 20.5333 75.2777 20.32C75.9043 20.0933 76.5577 19.98 77.2377 19.98C78.1177 19.98 78.8977 20.12 79.5777 20.4C80.2577 20.68 80.7977 21.0667 81.1977 21.56C81.3843 21.7733 81.471 22 81.4577 22.24C81.4443 22.4667 81.331 22.66 81.1177 22.82C80.9043 22.9667 80.651 23.0133 80.3577 22.96C80.0643 22.9067 79.8177 22.7867 79.6177 22.6C79.2843 22.28 78.9243 22.06 78.5377 21.94C78.151 21.82 77.7043 21.76 77.1977 21.76C76.611 21.76 76.111 21.86 75.6977 22.06C75.2977 22.26 75.0977 22.5533 75.0977 22.94C75.0977 23.18 75.1577 23.4 75.2777 23.6C75.411 23.7867 75.6643 23.96 76.0377 24.12C76.411 24.2667 76.9577 24.4133 77.6777 24.56C78.6777 24.76 79.4643 25.0133 80.0377 25.32C80.6243 25.6267 81.0443 25.9867 81.2977 26.4C81.551 26.8 81.6777 27.2667 81.6777 27.8C81.6777 28.4133 81.511 28.9667 81.1777 29.46C80.8577 29.9533 80.3777 30.3467 79.7377 30.64C79.111 30.9333 78.3243 31.08 77.3777 31.08ZM85.477 31C85.1837 31 84.937 30.9 84.737 30.7C84.5504 30.5 84.457 30.2533 84.457 29.96V16.42C84.457 16.1133 84.5504 15.8667 84.737 15.68C84.937 15.48 85.1837 15.38 85.477 15.38C85.797 15.38 86.0637 15.5067 86.277 15.76L94.997 27.36V16.42C94.997 16.1133 95.097 15.8667 95.297 15.68C95.497 15.48 95.7437 15.38 96.037 15.38C96.3437 15.38 96.5904 15.48 96.777 15.68C96.9637 15.8667 97.057 16.1133 97.057 16.42V29.96C97.057 30.2533 96.9637 30.5 96.777 30.7C96.5904 30.9 96.3437 31 96.037 31C95.9037 31 95.757 30.9733 95.597 30.92C95.4504 30.8533 95.3304 30.76 95.237 30.64L86.517 19.04V29.96C86.517 30.2533 86.417 30.5 86.217 30.7C86.0304 30.9 85.7837 31 85.477 31ZM104.379 31C104.139 31 103.925 30.9267 103.739 30.78C103.552 30.6333 103.419 30.4333 103.339 30.18L99.3186 16.82C99.1853 16.38 99.1919 16.0333 99.3386 15.78C99.4986 15.5133 99.7519 15.38 100.099 15.38C100.325 15.38 100.532 15.4467 100.719 15.58C100.905 15.7 101.039 15.8933 101.119 16.16L104.619 28.36H104.179L107.419 16.28C107.472 16.08 107.592 15.9133 107.779 15.78C107.965 15.6467 108.179 15.58 108.419 15.58C108.632 15.58 108.832 15.64 109.019 15.76C109.219 15.8667 109.345 16.0333 109.399 16.26L112.659 28.36H112.259L115.779 16.06C115.912 15.6067 116.252 15.38 116.799 15.38C117.172 15.38 117.412 15.5267 117.519 15.82C117.625 16.1 117.625 16.4333 117.519 16.82L113.499 30.16C113.405 30.4133 113.265 30.62 113.079 30.78C112.905 30.9267 112.699 31 112.459 31C112.205 31 111.985 30.92 111.799 30.76C111.625 30.6 111.499 30.4067 111.419 30.18L108.199 17.74H108.679L105.419 30.16C105.325 30.4133 105.185 30.62 104.999 30.78C104.825 30.9267 104.619 31 104.379 31ZM122.561 31.08C121.454 31.08 120.468 30.8467 119.601 30.38C118.748 29.9 118.074 29.2467 117.581 28.42C117.101 27.58 116.861 26.62 116.861 25.54C116.861 24.4467 117.088 23.4867 117.541 22.66C118.008 21.82 118.648 21.1667 119.461 20.7C120.274 20.22 121.208 19.98 122.261 19.98C123.301 19.98 124.194 20.2133 124.941 20.68C125.688 21.1333 126.254 21.7667 126.641 22.58C127.041 23.38 127.241 24.3067 127.241 25.36C127.241 25.6133 127.154 25.8267 126.981 26C126.808 26.16 126.588 26.24 126.321 26.24H118.261V24.64H126.261L125.441 25.2C125.428 24.5333 125.294 23.94 125.041 23.42C124.788 22.8867 124.428 22.4667 123.961 22.16C123.494 21.8533 122.928 21.7 122.261 21.7C121.501 21.7 120.848 21.8667 120.301 22.2C119.768 22.5333 119.361 22.9933 119.081 23.58C118.801 24.1533 118.661 24.8067 118.661 25.54C118.661 26.2733 118.828 26.9267 119.161 27.5C119.494 28.0733 119.954 28.5267 120.541 28.86C121.128 29.1933 121.801 29.36 122.561 29.36C122.974 29.36 123.394 29.2867 123.821 29.14C124.261 28.98 124.614 28.8 124.881 28.6C125.081 28.4533 125.294 28.38 125.521 28.38C125.761 28.3667 125.968 28.4333 126.141 28.58C126.368 28.78 126.488 29 126.501 29.24C126.514 29.48 126.408 29.6867 126.181 29.86C125.728 30.22 125.161 30.5133 124.481 30.74C123.814 30.9667 123.174 31.08 122.561 31.08ZM135.343 31.08C134.303 31.08 133.37 30.84 132.543 30.36C131.716 29.8667 131.063 29.2 130.583 28.36C130.103 27.52 129.856 26.5733 129.843 25.52V16.4C129.843 16.0933 129.936 15.8467 130.123 15.66C130.323 15.4733 130.57 15.38 130.863 15.38C131.17 15.38 131.416 15.4733 131.603 15.66C131.79 15.8467 131.883 16.0933 131.883 16.4V21.8C132.35 21.24 132.91 20.8 133.563 20.48C134.23 20.1467 134.956 19.98 135.743 19.98C136.716 19.98 137.59 20.2267 138.363 20.72C139.136 21.2 139.743 21.86 140.183 22.7C140.636 23.5267 140.863 24.4667 140.863 25.52C140.863 26.5733 140.616 27.52 140.123 28.36C139.643 29.2 138.99 29.8667 138.163 30.36C137.336 30.84 136.396 31.08 135.343 31.08ZM135.343 29.28C136.023 29.28 136.63 29.12 137.163 28.8C137.696 28.4667 138.116 28.0133 138.423 27.44C138.743 26.8667 138.903 26.2267 138.903 25.52C138.903 24.8 138.743 24.16 138.423 23.6C138.116 23.04 137.696 22.6 137.163 22.28C136.63 21.9467 136.023 21.78 135.343 21.78C134.676 21.78 134.07 21.9467 133.523 22.28C132.99 22.6 132.57 23.04 132.263 23.6C131.956 24.16 131.803 24.8 131.803 25.52C131.803 26.2267 131.956 26.8667 132.263 27.44C132.57 28.0133 132.99 28.4667 133.523 28.8C134.07 29.12 134.676 29.28 135.343 29.28Z" fill="url(#paint0_linear_34_1402)" fill-opacity="0.88"/>
<defs>
<linearGradient id="paint0_linear_34_1402" x1="9.98913" y1="23.9143" x2="144.272" y2="23.9143" gradientUnits="userSpaceOnUse">
<stop offset="0.00101106" stop-color="#A3DDEF" stop-opacity="0.53"/>
<stop offset="0.479167" stop-color="#C7C2F6"/>
<stop offset="0.833333" stop-color="#E8ABF2"/>
<stop offset="0.927083" stop-color="#F1A4F1" stop-opacity="0.66"/>
<stop offset="1" stop-color="#F7A0F0" stop-opacity="0.59"/>
</linearGradient>
</defs>
</svg>
