<svg width="199" height="43" viewBox="0 0 199 43" fill="none" xmlns="http://www.w3.org/2000/svg">
<circle cx="17.5" cy="21.5" r="7.5" fill="#455D65"/>
<path d="M46.12 27V15.48H49.616C49.7387 15.48 49.9467 15.4827 50.24 15.488C50.5387 15.4933 50.824 15.5147 51.096 15.552C51.9707 15.6747 52.7013 16 53.288 16.528C53.8747 17.056 54.3147 17.728 54.608 18.544C54.9013 19.36 55.048 20.2587 55.048 21.24C55.048 22.2213 54.9013 23.12 54.608 23.936C54.3147 24.752 53.8747 25.424 53.288 25.952C52.7013 26.48 51.9707 26.8053 51.096 26.928C50.8293 26.96 50.544 26.9813 50.24 26.992C49.936 26.9973 49.728 27 49.616 27H46.12ZM47.336 25.872H49.616C49.8347 25.872 50.0693 25.8667 50.32 25.856C50.576 25.84 50.7947 25.8133 50.976 25.776C51.648 25.6587 52.1893 25.3867 52.6 24.96C53.016 24.5333 53.32 24 53.512 23.36C53.704 22.7147 53.8 22.008 53.8 21.24C53.8 20.4667 53.704 19.7573 53.512 19.112C53.32 18.4667 53.016 17.9333 52.6 17.512C52.184 17.0907 51.6427 16.8213 50.976 16.704C50.7947 16.6667 50.5733 16.6427 50.312 16.632C50.056 16.616 49.824 16.608 49.616 16.608H47.336V25.872ZM60.526 27.24C59.6833 27.24 58.9527 27.0533 58.334 26.68C57.7207 26.3067 57.2433 25.7813 56.902 25.104C56.5607 24.4267 56.39 23.632 56.39 22.72C56.39 21.776 56.558 20.96 56.894 20.272C57.23 19.584 57.702 19.0533 58.31 18.68C58.9233 18.3067 59.646 18.12 60.478 18.12C61.3313 18.12 62.0593 18.3173 62.662 18.712C63.2647 19.1013 63.7207 19.6613 64.03 20.392C64.3393 21.1227 64.4807 21.9947 64.454 23.008H63.254V22.592C63.2327 21.472 62.99 20.6267 62.526 20.056C62.0673 19.4853 61.3953 19.2 60.51 19.2C59.582 19.2 58.87 19.5013 58.374 20.104C57.8833 20.7067 57.638 21.5653 57.638 22.68C57.638 23.768 57.8833 24.6133 58.374 25.216C58.87 25.8133 59.5713 26.112 60.478 26.112C61.0967 26.112 61.6353 25.9707 62.094 25.688C62.558 25.4 62.9233 24.9867 63.19 24.448L64.286 24.872C63.9447 25.624 63.4407 26.208 62.774 26.624C62.1127 27.0347 61.3633 27.24 60.526 27.24ZM57.222 23.008V22.024H63.822V23.008H57.222ZM69.4534 27.232C68.44 27.232 67.6054 27.0133 66.9494 26.576C66.2987 26.1387 65.8987 25.5307 65.7494 24.752L66.9494 24.552C67.0774 25.0427 67.368 25.4347 67.8214 25.728C68.28 26.016 68.8454 26.16 69.5174 26.16C70.1734 26.16 70.6907 26.024 71.0694 25.752C71.448 25.4747 71.6374 25.0987 71.6374 24.624C71.6374 24.3573 71.576 24.1413 71.4534 23.976C71.336 23.8053 71.0934 23.648 70.7254 23.504C70.3574 23.36 69.808 23.1893 69.0774 22.992C68.2934 22.7787 67.68 22.5653 67.2374 22.352C66.7947 22.1387 66.48 21.8933 66.2934 21.616C66.1067 21.3333 66.0134 20.9893 66.0134 20.584C66.0134 20.0933 66.152 19.664 66.4294 19.296C66.7067 18.9227 67.0907 18.6347 67.5814 18.432C68.072 18.224 68.6427 18.12 69.2934 18.12C69.944 18.12 70.5254 18.2267 71.0374 18.44C71.5547 18.648 71.9707 18.9413 72.2854 19.32C72.6 19.6987 72.7867 20.1387 72.8454 20.64L71.6454 20.856C71.5654 20.3493 71.312 19.9493 70.8854 19.656C70.464 19.3573 69.928 19.2027 69.2774 19.192C68.664 19.176 68.1654 19.2933 67.7814 19.544C67.3974 19.7893 67.2054 20.1173 67.2054 20.528C67.2054 20.7573 67.2747 20.9547 67.4134 21.12C67.552 21.28 67.8027 21.432 68.1654 21.576C68.5334 21.72 69.056 21.8773 69.7334 22.048C70.528 22.2507 71.152 22.464 71.6054 22.688C72.0587 22.912 72.3814 23.176 72.5734 23.48C72.7654 23.784 72.8614 24.16 72.8614 24.608C72.8614 25.424 72.5574 26.0667 71.9494 26.536C71.3467 27 70.5147 27.232 69.4534 27.232ZM78.2196 27.24C77.3503 27.24 76.6143 27.0453 76.0116 26.656C75.409 26.2667 74.9503 25.7307 74.6356 25.048C74.3263 24.36 74.1663 23.5707 74.1556 22.68C74.1663 21.7733 74.3316 20.9787 74.6516 20.296C74.9716 19.608 75.433 19.0747 76.0356 18.696C76.6383 18.312 77.369 18.12 78.2276 18.12C79.1023 18.12 79.8623 18.3333 80.5076 18.76C81.1583 19.1867 81.6036 19.7707 81.8436 20.512L80.6916 20.88C80.489 20.3627 80.1663 19.9627 79.7236 19.68C79.2863 19.392 78.785 19.248 78.2196 19.248C77.585 19.248 77.0596 19.3947 76.6436 19.688C76.2276 19.976 75.9183 20.3787 75.7156 20.896C75.513 21.4133 75.409 22.008 75.4036 22.68C75.4143 23.7147 75.6543 24.5467 76.1236 25.176C76.593 25.8 77.2916 26.112 78.2196 26.112C78.8063 26.112 79.305 25.9787 79.7156 25.712C80.1316 25.44 80.4463 25.0453 80.6596 24.528L81.8436 24.88C81.5236 25.648 81.0543 26.2347 80.4356 26.64C79.817 27.04 79.0783 27.24 78.2196 27.24ZM86.8686 27.24C86.01 27.24 85.2766 27.0453 84.6686 26.656C84.0606 26.2667 83.594 25.728 83.2686 25.04C82.9433 24.352 82.7806 23.5627 82.7806 22.672C82.7806 21.7653 82.946 20.9707 83.2766 20.288C83.6073 19.6053 84.0766 19.0747 84.6846 18.696C85.298 18.312 86.026 18.12 86.8686 18.12C87.7326 18.12 88.4686 18.3147 89.0766 18.704C89.69 19.088 90.1566 19.624 90.4766 20.312C90.802 20.9947 90.9646 21.7813 90.9646 22.672C90.9646 23.5787 90.802 24.376 90.4766 25.064C90.1513 25.7467 89.682 26.28 89.0686 26.664C88.4553 27.048 87.722 27.24 86.8686 27.24ZM86.8686 26.112C87.8286 26.112 88.5433 25.7947 89.0126 25.16C89.482 24.52 89.7166 23.6907 89.7166 22.672C89.7166 21.6267 89.4793 20.7947 89.0046 20.176C88.5353 19.5573 87.8233 19.248 86.8686 19.248C86.2233 19.248 85.69 19.3947 85.2686 19.688C84.8526 19.976 84.5406 20.3787 84.3326 20.896C84.13 21.408 84.0286 22 84.0286 22.672C84.0286 23.712 84.2686 24.5467 84.7486 25.176C85.2286 25.8 85.9353 26.112 86.8686 26.112ZM98.9694 27V22.592C98.9694 22.112 98.924 21.672 98.8334 21.272C98.7427 20.8667 98.596 20.5147 98.3934 20.216C98.196 19.912 97.9374 19.6773 97.6174 19.512C97.3027 19.3467 96.9187 19.264 96.4654 19.264C96.0494 19.264 95.6814 19.336 95.3614 19.48C95.0467 19.624 94.78 19.832 94.5614 20.104C94.348 20.3707 94.1854 20.696 94.0734 21.08C93.9614 21.464 93.9054 21.9013 93.9054 22.392L93.0734 22.208C93.0734 21.3227 93.228 20.5787 93.5374 19.976C93.8467 19.3733 94.2734 18.9173 94.8174 18.608C95.3614 18.2987 95.9854 18.144 96.6894 18.144C97.2067 18.144 97.6574 18.224 98.0414 18.384C98.4307 18.544 98.7587 18.76 99.0254 19.032C99.2974 19.304 99.516 19.616 99.6814 19.968C99.8467 20.3147 99.9667 20.6853 100.041 21.08C100.116 21.4693 100.153 21.8587 100.153 22.248V27H98.9694ZM92.7214 27V18.36H93.7854V20.488H93.9054V27H92.7214ZM105.839 27.24C104.996 27.24 104.265 27.0533 103.647 26.68C103.033 26.3067 102.556 25.7813 102.215 25.104C101.873 24.4267 101.703 23.632 101.703 22.72C101.703 21.776 101.871 20.96 102.207 20.272C102.543 19.584 103.015 19.0533 103.623 18.68C104.236 18.3067 104.959 18.12 105.791 18.12C106.644 18.12 107.372 18.3173 107.975 18.712C108.577 19.1013 109.033 19.6613 109.343 20.392C109.652 21.1227 109.793 21.9947 109.767 23.008H108.567V22.592C108.545 21.472 108.303 20.6267 107.839 20.056C107.38 19.4853 106.708 19.2 105.823 19.2C104.895 19.2 104.183 19.5013 103.687 20.104C103.196 20.7067 102.951 21.5653 102.951 22.68C102.951 23.768 103.196 24.6133 103.687 25.216C104.183 25.8133 104.884 26.112 105.791 26.112C106.409 26.112 106.948 25.9707 107.407 25.688C107.871 25.4 108.236 24.9867 108.503 24.448L109.599 24.872C109.257 25.624 108.753 26.208 108.087 26.624C107.425 27.0347 106.676 27.24 105.839 27.24ZM102.535 23.008V22.024H109.135V23.008H102.535ZM115.126 27.24C114.257 27.24 113.521 27.0453 112.918 26.656C112.315 26.2667 111.857 25.7307 111.542 25.048C111.233 24.36 111.073 23.5707 111.062 22.68C111.073 21.7733 111.238 20.9787 111.558 20.296C111.878 19.608 112.339 19.0747 112.942 18.696C113.545 18.312 114.275 18.12 115.134 18.12C116.009 18.12 116.769 18.3333 117.414 18.76C118.065 19.1867 118.51 19.7707 118.75 20.512L117.598 20.88C117.395 20.3627 117.073 19.9627 116.63 19.68C116.193 19.392 115.691 19.248 115.126 19.248C114.491 19.248 113.966 19.3947 113.55 19.688C113.134 19.976 112.825 20.3787 112.622 20.896C112.419 21.4133 112.315 22.008 112.31 22.68C112.321 23.7147 112.561 24.5467 113.03 25.176C113.499 25.8 114.198 26.112 115.126 26.112C115.713 26.112 116.211 25.9787 116.622 25.712C117.038 25.44 117.353 25.0453 117.566 24.528L118.75 24.88C118.43 25.648 117.961 26.2347 117.342 26.64C116.723 27.04 115.985 27.24 115.126 27.24ZM125.105 27C124.62 27.1013 124.14 27.1413 123.665 27.12C123.196 27.0987 122.775 26.9973 122.401 26.816C122.033 26.6347 121.753 26.352 121.561 25.968C121.407 25.648 121.321 25.3253 121.305 25C121.295 24.6693 121.289 24.2933 121.289 23.872V15.96H122.457V23.824C122.457 24.1867 122.46 24.4907 122.465 24.736C122.476 24.976 122.532 25.1893 122.633 25.376C122.825 25.7333 123.129 25.9467 123.545 26.016C123.967 26.0853 124.487 26.0693 125.105 25.968V27ZM119.441 19.368V18.36H125.105V19.368H119.441ZM129.28 27.24C128.629 27.24 128.082 27.1227 127.64 26.888C127.202 26.6533 126.874 26.3413 126.656 25.952C126.437 25.5627 126.328 25.1387 126.328 24.68C126.328 24.2107 126.421 23.8107 126.608 23.48C126.8 23.144 127.058 22.8693 127.384 22.656C127.714 22.4427 128.096 22.28 128.528 22.168C128.965 22.0613 129.448 21.968 129.976 21.888C130.509 21.8027 131.029 21.7307 131.536 21.672C132.048 21.608 132.496 21.5467 132.88 21.488L132.464 21.744C132.48 20.8907 132.314 20.2587 131.968 19.848C131.621 19.4373 131.018 19.232 130.16 19.232C129.568 19.232 129.066 19.3653 128.656 19.632C128.25 19.8987 127.965 20.32 127.799 20.896L126.656 20.56C126.853 19.7867 127.25 19.1867 127.848 18.76C128.445 18.3333 129.221 18.12 130.176 18.12C130.965 18.12 131.634 18.2693 132.184 18.568C132.738 18.8613 133.13 19.288 133.36 19.848C133.466 20.0987 133.536 20.3787 133.568 20.688C133.6 20.9973 133.616 21.312 133.616 21.632V27H132.568V24.832L132.872 24.96C132.578 25.7013 132.122 26.2667 131.504 26.656C130.885 27.0453 130.144 27.24 129.28 27.24ZM129.416 26.224C129.965 26.224 130.445 26.1253 130.856 25.928C131.266 25.7307 131.597 25.4613 131.848 25.12C132.098 24.7733 132.261 24.384 132.336 23.952C132.4 23.6747 132.434 23.3707 132.44 23.04C132.445 22.704 132.448 22.4533 132.448 22.288L132.896 22.52C132.496 22.5733 132.061 22.6267 131.592 22.68C131.128 22.7333 130.669 22.7947 130.216 22.864C129.768 22.9333 129.362 23.016 129 23.112C128.754 23.1813 128.517 23.28 128.288 23.408C128.058 23.5307 127.869 23.696 127.72 23.904C127.576 24.112 127.504 24.3707 127.504 24.68C127.504 24.9307 127.565 25.1733 127.688 25.408C127.816 25.6427 128.018 25.8373 128.296 25.992C128.578 26.1467 128.952 26.224 129.416 26.224ZM139.05 27.24C138.245 27.24 137.557 27.04 136.986 26.64C136.415 26.2347 135.978 25.688 135.674 25C135.37 24.312 135.218 23.536 135.218 22.672C135.218 21.8133 135.367 21.04 135.666 20.352C135.97 19.664 136.405 19.12 136.97 18.72C137.535 18.32 138.213 18.12 139.002 18.12C139.813 18.12 140.495 18.3173 141.05 18.712C141.605 19.1067 142.023 19.648 142.306 20.336C142.594 21.0187 142.738 21.7973 142.738 22.672C142.738 23.5307 142.597 24.3067 142.314 25C142.031 25.688 141.615 26.2347 141.066 26.64C140.517 27.04 139.845 27.24 139.05 27.24ZM139.17 26.144C139.783 26.144 140.29 25.9947 140.69 25.696C141.09 25.3973 141.389 24.9867 141.586 24.464C141.783 23.936 141.882 23.3387 141.882 22.672C141.882 21.9947 141.783 21.3973 141.586 20.88C141.389 20.3573 141.09 19.9493 140.69 19.656C140.295 19.3627 139.797 19.216 139.194 19.216C138.575 19.216 138.063 19.368 137.658 19.672C137.253 19.976 136.951 20.3893 136.754 20.912C136.562 21.4347 136.466 22.0213 136.466 22.672C136.466 23.328 136.565 23.92 136.762 24.448C136.965 24.9707 137.266 25.384 137.666 25.688C138.066 25.992 138.567 26.144 139.17 26.144ZM141.882 27V20.496H141.754V15.48H142.938V27H141.882ZM148.791 27.24C147.932 27.24 147.199 27.0453 146.591 26.656C145.983 26.2667 145.516 25.728 145.191 25.04C144.865 24.352 144.703 23.5627 144.703 22.672C144.703 21.7653 144.868 20.9707 145.199 20.288C145.529 19.6053 145.999 19.0747 146.607 18.696C147.22 18.312 147.948 18.12 148.791 18.12C149.655 18.12 150.391 18.3147 150.999 18.704C151.612 19.088 152.079 19.624 152.399 20.312C152.724 20.9947 152.887 21.7813 152.887 22.672C152.887 23.5787 152.724 24.376 152.399 25.064C152.073 25.7467 151.604 26.28 150.991 26.664C150.377 27.048 149.644 27.24 148.791 27.24ZM148.791 26.112C149.751 26.112 150.465 25.7947 150.935 25.16C151.404 24.52 151.639 23.6907 151.639 22.672C151.639 21.6267 151.401 20.7947 150.927 20.176C150.457 19.5573 149.745 19.248 148.791 19.248C148.145 19.248 147.612 19.3947 147.191 19.688C146.775 19.976 146.463 20.3787 146.255 20.896C146.052 21.408 145.951 22 145.951 22.672C145.951 23.712 146.191 24.5467 146.671 25.176C147.151 25.8 147.857 26.112 148.791 26.112Z" fill="white"/>
<rect x="0.5" y="0.5" width="167" height="42" rx="21" stroke="#7C7B84"/>
</svg>
