<svg width="32" height="32" viewBox="0 0 32 32" fill="none" xmlns="http://www.w3.org/2000/svg">
<path d="M17.5245 25L16.6005 23.9967L23.5023 16.5024C23.6264 16.3676 23.6931 16.1902 23.6931 16C23.6931 15.8098 23.6251 15.6325 23.5023 15.4976L16.6005 8.00331L17.5245 7L24.4263 14.4943C24.7961 14.8959 25 15.4309 25 16C25 16.5691 24.7961 17.1026 24.4263 17.5057L17.5245 25ZM15.5968 16.6684C15.9366 16.2994 15.9366 15.6991 15.5968 15.3316L7.92398 7L7 8.00331L14.3644 16L7 23.9967L7.92398 25L15.5968 16.6684Z" fill="white"/>
</svg>
