<svg width="42" height="42" viewBox="0 0 42 42" fill="none" xmlns="http://www.w3.org/2000/svg">
<circle cx="21" cy="21" r="21" fill="#454546"/>
<path d="M21.0001 9C14.3735 9 9 14.5085 9 21.3038C9 26.74 12.4384 31.3519 17.2064 32.9789C17.8061 33.0927 18.0263 32.7119 18.0263 32.387C18.0263 32.0936 18.0152 31.1244 18.01 30.0963C14.6716 30.8405 13.9671 28.6446 13.9671 28.6446C13.4212 27.2224 12.6347 26.8443 12.6347 26.8443C11.546 26.0806 12.7168 26.0963 12.7168 26.0963C13.9218 26.1831 14.5563 27.3642 14.5563 27.3642C15.6266 29.2452 17.3636 28.7014 18.0484 28.387C18.1561 27.5918 18.4671 27.049 18.8102 26.7418C16.1449 26.4307 13.343 25.3757 13.343 20.6612C13.343 19.3179 13.8117 18.2203 14.5794 17.3587C14.4548 17.0488 14.044 15.7974 14.6956 14.1026C14.6956 14.1026 15.7033 13.7719 17.9965 15.3638C18.9537 15.0912 19.9803 14.9545 21.0001 14.9498C22.0199 14.9545 23.0473 15.0912 24.0063 15.3638C26.2967 13.7719 27.303 14.1026 27.303 14.1026C27.9562 15.7974 27.5452 17.0488 27.4206 17.3587C28.1901 18.2203 28.6557 19.3179 28.6557 20.6612C28.6557 25.3869 25.8484 26.4274 23.1762 26.732C23.6067 27.1138 23.9902 27.8626 23.9902 29.0105C23.9902 30.6568 23.9763 31.9817 23.9763 32.387C23.9763 32.7144 24.1923 33.098 24.8006 32.9772C29.566 31.3485 33 26.7381 33 21.3038C33 14.5085 27.6273 9 21.0001 9ZM13.4944 26.527C13.468 26.5882 13.3742 26.6065 13.2888 26.5645C13.2017 26.5244 13.1528 26.4411 13.1811 26.3797C13.2069 26.3168 13.3009 26.2992 13.3877 26.3414C13.475 26.3816 13.5246 26.4657 13.4944 26.527ZM14.0847 27.0671C14.0275 27.1215 13.9156 27.0962 13.8397 27.0102C13.7612 26.9244 13.7465 26.8097 13.8045 26.7545C13.8635 26.7001 13.972 26.7256 14.0507 26.8114C14.1292 26.8981 14.1445 27.012 14.0847 27.0671ZM14.4896 27.758C14.4161 27.8104 14.2959 27.7613 14.2216 27.6518C14.1481 27.5424 14.1481 27.4112 14.2232 27.3587C14.2977 27.3061 14.4161 27.3534 14.4914 27.462C14.5648 27.5732 14.5648 27.7044 14.4896 27.758ZM15.1745 28.5582C15.1087 28.6326 14.9686 28.6126 14.8661 28.5111C14.7612 28.4119 14.732 28.2711 14.7979 28.1968C14.8645 28.1222 15.0054 28.1432 15.1087 28.2438C15.2129 28.3428 15.2446 28.4846 15.1745 28.5582ZM16.0596 28.8283C16.0306 28.9247 15.8957 28.9685 15.7597 28.9276C15.624 28.8854 15.5352 28.7725 15.5626 28.6751C15.5908 28.5781 15.7264 28.5325 15.8633 28.5763C15.9988 28.6183 16.0878 28.7303 16.0596 28.8283ZM17.0669 28.9429C17.0703 29.0444 16.955 29.1285 16.8123 29.1304C16.6689 29.1336 16.5528 29.0515 16.5512 28.9517C16.5512 28.8492 16.6639 28.7659 16.8074 28.7634C16.9501 28.7606 17.0669 28.8421 17.0669 28.9429ZM18.0565 28.904C18.0735 29.0031 17.9744 29.1047 17.8327 29.1318C17.6934 29.1579 17.5644 29.0968 17.5467 28.9986C17.5295 28.8971 17.6304 28.7954 17.7695 28.7692C17.9114 28.7439 18.0384 28.8034 18.0565 28.904Z" fill="white"/>
</svg>
