<svg width="42" height="42" viewBox="0 0 42 42" fill="none" xmlns="http://www.w3.org/2000/svg">
<circle cx="21" cy="21" r="21" fill="#454546"/>
<path d="M29.4491 29.4496H25.8931V23.8805C25.8931 22.5525 25.8694 20.8429 24.0436 20.8429C22.1915 20.8429 21.9081 22.2899 21.9081 23.7838V29.4492H18.352V17.9969H21.7658V19.562H21.8136C22.1553 18.9778 22.649 18.4973 23.2421 18.1715C23.8352 17.8457 24.5056 17.6869 25.1819 17.712C28.7861 17.712 29.4506 20.0828 29.4506 23.167L29.4491 29.4496ZM14.3396 16.4314C13.9315 16.4315 13.5325 16.3106 13.1931 16.0839C12.8537 15.8572 12.5891 15.5349 12.4329 15.1578C12.2766 14.7808 12.2357 14.3658 12.3152 13.9655C12.3948 13.5652 12.5912 13.1974 12.8798 12.9088C13.1684 12.6201 13.536 12.4235 13.9363 12.3438C14.3366 12.2641 14.7515 12.3049 15.1286 12.461C15.5057 12.6171 15.8281 12.8816 16.0549 13.2209C16.2817 13.5602 16.4028 13.9592 16.4029 14.3674C16.4029 14.6384 16.3496 14.9067 16.2459 15.1571C16.1423 15.4075 15.9903 15.6351 15.7987 15.8267C15.6071 16.0184 15.3797 16.1705 15.1293 16.2742C14.879 16.378 14.6106 16.4314 14.3396 16.4314ZM16.1176 29.4496H12.5579V17.9969H16.1176V29.4496ZM31.222 9.00164H10.771C10.3068 8.9964 9.85952 9.17566 9.52744 9.50004C9.19536 9.82442 9.00567 10.2674 9 10.7316V31.2681C9.00547 31.7325 9.19506 32.1758 9.52712 32.5005C9.85919 32.8252 10.3066 33.0048 10.771 32.9999H31.222C31.6873 33.0057 32.1359 32.8266 32.4693 32.5019C32.8027 32.1772 32.9936 31.7334 33 31.2681V10.7301C32.9934 10.265 32.8024 9.82152 32.469 9.49714C32.1356 9.17277 31.6871 8.99402 31.222 9.00015" fill="white"/>
</svg>
