<svg width="300" height="204" viewBox="0 0 300 204" fill="none" xmlns="http://www.w3.org/2000/svg">
<rect x="1" y="1" width="298" height="202" rx="15" fill="#1C1C1F"/>
<path d="M57.6667 67.5C55.8293 67.5 54.3333 68.996 54.3333 70.8333C54.3333 72.6707 55.8293 74.1667 57.6667 74.1667C59.504 74.1667 61 72.6707 61 70.8333C61 68.996 59.504 67.5 57.6667 67.5ZM57.6667 72.8333C56.564 72.8333 55.6667 71.936 55.6667 70.8333C55.6667 69.7307 56.564 68.8333 57.6667 68.8333C58.7693 68.8333 59.6667 69.7307 59.6667 70.8333C59.6667 71.936 58.7693 72.8333 57.6667 72.8333ZM69 62.8333C69 60.996 67.504 59.5 65.648 59.5C59.0587 59.688 53.056 62.9027 48.1667 68.8347C46.052 68.86 43.9427 69.3733 42.0533 70.3213C38.984 71.8613 37 75.2027 37 78.8333V79.5H43.6667C45.0907 79.5 46.4307 80.0547 47.4387 81.0613C48.4453 82.0693 49 83.408 49 84.8333V91.5H49.6667C53.2973 91.5 56.6387 89.5173 58.1787 86.448C59.128 84.5587 59.64 82.448 59.6653 80.3333C65.596 75.444 68.812 69.44 69 62.8333ZM42.6507 71.5133C44.0293 70.8213 45.5373 70.3867 47.0733 70.232C46.9427 70.408 46.812 70.5853 46.6827 70.7653C44.612 73.6547 43.0667 77.0107 42.56 78.1667H38.3587C38.58 75.3 40.216 72.7347 42.6507 71.5133ZM56.9867 85.8493C55.764 88.284 53.2 89.92 50.3333 90.1413V85.94C51.4907 85.4333 54.8453 83.888 57.736 81.8173C57.916 81.688 58.0933 81.5587 58.2693 81.428C58.1147 82.964 57.68 84.472 56.988 85.8507L56.9867 85.8493ZM56.9587 80.7333C54.5547 82.456 51.74 83.8333 50.324 84.4813C50.2387 82.8333 49.556 81.296 48.3813 80.12C47.2053 78.944 45.668 78.2627 44.02 78.1773C44.668 76.7613 46.0453 73.9467 47.768 71.5427C51.172 66.792 57.044 61.0787 65.6667 60.8333C66.7693 60.8333 67.6667 61.7307 67.6667 62.8147C67.4213 71.456 61.708 77.328 56.9587 80.7333ZM39.3093 84.476C38.176 85.608 37.4173 89.6507 37.2773 90.4493L37.112 91.3867L38.0493 91.2213C38.848 91.0813 42.8907 90.3227 44.0227 89.1893C44.652 88.56 44.9987 87.7227 44.9987 86.832C44.9987 85.9413 44.652 85.104 44.0227 84.4747C42.7653 83.216 40.5667 83.2173 39.3093 84.476ZM43.08 88.2467C42.5653 88.7613 40.5013 89.3547 38.7773 89.7213C39.144 87.9973 39.7373 85.9333 40.252 85.4187C40.6293 85.0413 41.132 84.8333 41.6667 84.8333C42.2013 84.8333 42.7027 85.0413 43.0813 85.4187C43.46 85.796 43.6667 86.2987 43.6667 86.8333C43.6667 87.368 43.4587 87.8693 43.0813 88.248L43.08 88.2467Z" fill="#7C7B84"/>
<path d="M33.4 141.5V127.1H37.91C38.0433 127.1 38.29 127.103 38.65 127.11C39.0167 127.117 39.3667 127.143 39.7 127.19C40.8267 127.33 41.7733 127.733 42.54 128.4C43.3133 129.067 43.8967 129.913 44.29 130.94C44.6833 131.96 44.88 133.08 44.88 134.3C44.88 135.527 44.6833 136.653 44.29 137.68C43.8967 138.7 43.3133 139.543 42.54 140.21C41.7733 140.87 40.8267 141.27 39.7 141.41C39.3667 141.457 39.0167 141.483 38.65 141.49C38.29 141.497 38.0433 141.5 37.91 141.5H33.4ZM35.54 139.51H37.91C38.1367 139.51 38.4067 139.503 38.72 139.49C39.0333 139.477 39.31 139.45 39.55 139.41C40.2833 139.27 40.8767 138.953 41.33 138.46C41.79 137.96 42.1267 137.347 42.34 136.62C42.5533 135.893 42.66 135.12 42.66 134.3C42.66 133.453 42.55 132.67 42.33 131.95C42.11 131.223 41.77 130.617 41.31 130.13C40.8567 129.637 40.27 129.323 39.55 129.19C39.31 129.143 39.03 129.117 38.71 129.11C38.3967 129.097 38.13 129.09 37.91 129.09H35.54V139.51ZM51.9986 141.8C50.9253 141.8 49.9819 141.567 49.1686 141.1C48.3619 140.627 47.7319 139.97 47.2786 139.13C46.8319 138.283 46.6086 137.303 46.6086 136.19C46.6086 135.01 46.8286 133.987 47.2686 133.12C47.7153 132.253 48.3353 131.583 49.1286 131.11C49.9219 130.637 50.8453 130.4 51.8986 130.4C52.9986 130.4 53.9353 130.657 54.7086 131.17C55.4819 131.677 56.0586 132.4 56.4386 133.34C56.8253 134.28 56.9786 135.397 56.8986 136.69H54.8086V135.93C54.7953 134.677 54.5553 133.75 54.0886 133.15C53.6286 132.55 52.9253 132.25 51.9786 132.25C50.9319 132.25 50.1453 132.58 49.6186 133.24C49.0919 133.9 48.8286 134.853 48.8286 136.1C48.8286 137.287 49.0919 138.207 49.6186 138.86C50.1453 139.507 50.9053 139.83 51.8986 139.83C52.5519 139.83 53.1153 139.683 53.5886 139.39C54.0686 139.09 54.4419 138.663 54.7086 138.11L56.7586 138.76C56.3386 139.727 55.7019 140.477 54.8486 141.01C53.9953 141.537 53.0453 141.8 51.9986 141.8ZM48.1486 136.69V135.06H55.8586V136.69H48.1486ZM63.2722 141.79C61.9589 141.79 60.8889 141.5 60.0622 140.92C59.2355 140.34 58.7289 139.523 58.5422 138.47L60.6822 138.14C60.8155 138.7 61.1222 139.143 61.6022 139.47C62.0889 139.79 62.6922 139.95 63.4122 139.95C64.0655 139.95 64.5755 139.817 64.9422 139.55C65.3155 139.283 65.5022 138.917 65.5022 138.45C65.5022 138.177 65.4355 137.957 65.3022 137.79C65.1755 137.617 64.9055 137.453 64.4922 137.3C64.0789 137.147 63.4489 136.957 62.6022 136.73C61.6755 136.49 60.9389 136.233 60.3922 135.96C59.8522 135.68 59.4655 135.357 59.2322 134.99C59.0055 134.617 58.8922 134.167 58.8922 133.64C58.8922 132.987 59.0655 132.417 59.4122 131.93C59.7589 131.443 60.2455 131.067 60.8722 130.8C61.5055 130.533 62.2455 130.4 63.0922 130.4C63.9189 130.4 64.6555 130.53 65.3022 130.79C65.9489 131.05 66.4722 131.42 66.8722 131.9C67.2722 132.373 67.5122 132.93 67.5922 133.57L65.4522 133.96C65.3789 133.44 65.1355 133.03 64.7222 132.73C64.3089 132.43 63.7722 132.267 63.1122 132.24C62.4789 132.213 61.9655 132.32 61.5722 132.56C61.1789 132.793 60.9822 133.117 60.9822 133.53C60.9822 133.77 61.0555 133.973 61.2022 134.14C61.3555 134.307 61.6489 134.467 62.0822 134.62C62.5155 134.773 63.1555 134.957 64.0022 135.17C64.9089 135.403 65.6289 135.663 66.1622 135.95C66.6955 136.23 67.0755 136.567 67.3022 136.96C67.5355 137.347 67.6522 137.817 67.6522 138.37C67.6522 139.437 67.2622 140.273 66.4822 140.88C65.7089 141.487 64.6389 141.79 63.2722 141.79ZM72.9148 141.8C72.1148 141.8 71.4448 141.653 70.9048 141.36C70.3648 141.06 69.9548 140.667 69.6748 140.18C69.4015 139.687 69.2648 139.147 69.2648 138.56C69.2648 138.013 69.3615 137.533 69.5548 137.12C69.7482 136.707 70.0348 136.357 70.4148 136.07C70.7948 135.777 71.2615 135.54 71.8148 135.36C72.2948 135.22 72.8382 135.097 73.4448 134.99C74.0515 134.883 74.6882 134.783 75.3548 134.69C76.0282 134.597 76.6948 134.503 77.3548 134.41L76.5948 134.83C76.6082 133.983 76.4282 133.357 76.0548 132.95C75.6882 132.537 75.0548 132.33 74.1548 132.33C73.5882 132.33 73.0682 132.463 72.5948 132.73C72.1215 132.99 71.7915 133.423 71.6048 134.03L69.6548 133.43C69.9215 132.503 70.4282 131.767 71.1748 131.22C71.9282 130.673 72.9282 130.4 74.1748 130.4C75.1415 130.4 75.9815 130.567 76.6948 130.9C77.4148 131.227 77.9415 131.747 78.2748 132.46C78.4482 132.813 78.5548 133.187 78.5948 133.58C78.6348 133.973 78.6548 134.397 78.6548 134.85V141.5H76.8048V139.03L77.1648 139.35C76.7182 140.177 76.1482 140.793 75.4548 141.2C74.7682 141.6 73.9215 141.8 72.9148 141.8ZM73.2848 140.09C73.8782 140.09 74.3882 139.987 74.8148 139.78C75.2415 139.567 75.5848 139.297 75.8448 138.97C76.1048 138.643 76.2748 138.303 76.3548 137.95C76.4682 137.63 76.5315 137.27 76.5448 136.87C76.5648 136.47 76.5748 136.15 76.5748 135.91L77.2548 136.16C76.5948 136.26 75.9948 136.35 75.4548 136.43C74.9148 136.51 74.4248 136.59 73.9848 136.67C73.5515 136.743 73.1648 136.833 72.8248 136.94C72.5382 137.04 72.2815 137.16 72.0548 137.3C71.8348 137.44 71.6582 137.61 71.5248 137.81C71.3982 138.01 71.3348 138.253 71.3348 138.54C71.3348 138.82 71.4048 139.08 71.5448 139.32C71.6848 139.553 71.8982 139.74 72.1848 139.88C72.4715 140.02 72.8382 140.09 73.2848 140.09ZM81.2516 141.5V130.7H83.1116V133.32L82.8516 132.98C82.9849 132.633 83.1582 132.317 83.3716 132.03C83.5849 131.737 83.8316 131.497 84.1116 131.31C84.3849 131.11 84.6882 130.957 85.0216 130.85C85.3616 130.737 85.7082 130.67 86.0616 130.65C86.4149 130.623 86.7549 130.64 87.0816 130.7V132.66C86.7282 132.567 86.3349 132.54 85.9016 132.58C85.4749 132.62 85.0816 132.757 84.7216 132.99C84.3816 133.21 84.1116 133.477 83.9116 133.79C83.7182 134.103 83.5782 134.453 83.4916 134.84C83.4049 135.22 83.3616 135.623 83.3616 136.05V141.5H81.2516ZM88.9859 141.5V130.7H90.8459V133.32L90.5859 132.98C90.7193 132.633 90.8926 132.317 91.1059 132.03C91.3193 131.737 91.5659 131.497 91.8459 131.31C92.1193 131.11 92.4226 130.957 92.7559 130.85C93.0959 130.737 93.4426 130.67 93.7959 130.65C94.1493 130.623 94.4893 130.64 94.8159 130.7V132.66C94.4626 132.567 94.0693 132.54 93.6359 132.58C93.2093 132.62 92.8159 132.757 92.4559 132.99C92.1159 133.21 91.8459 133.477 91.6459 133.79C91.4526 134.103 91.3126 134.453 91.2259 134.84C91.1393 135.22 91.0959 135.623 91.0959 136.05V141.5H88.9859ZM101.215 141.8C100.135 141.8 99.1983 141.557 98.405 141.07C97.6117 140.583 96.9983 139.913 96.565 139.06C96.1383 138.2 95.925 137.21 95.925 136.09C95.925 134.963 96.145 133.973 96.585 133.12C97.025 132.26 97.6417 131.593 98.435 131.12C99.2283 130.64 100.155 130.4 101.215 130.4C102.295 130.4 103.232 130.643 104.025 131.13C104.818 131.617 105.432 132.287 105.865 133.14C106.298 133.993 106.515 134.977 106.515 136.09C106.515 137.217 106.295 138.21 105.855 139.07C105.422 139.923 104.808 140.593 104.015 141.08C103.222 141.56 102.288 141.8 101.215 141.8ZM101.215 139.83C102.248 139.83 103.018 139.483 103.525 138.79C104.038 138.09 104.295 137.19 104.295 136.09C104.295 134.963 104.035 134.063 103.515 133.39C103.002 132.71 102.235 132.37 101.215 132.37C100.515 132.37 99.9383 132.53 99.485 132.85C99.0317 133.163 98.695 133.6 98.475 134.16C98.255 134.713 98.145 135.357 98.145 136.09C98.145 137.223 98.405 138.13 98.925 138.81C99.445 139.49 100.208 139.83 101.215 139.83ZM108.913 141.5V126.8H111.003V141.5H108.913ZM114.205 141.5V126.8H116.295V141.5H114.205ZM122.348 141.8C121.548 141.8 120.878 141.653 120.338 141.36C119.798 141.06 119.388 140.667 119.108 140.18C118.835 139.687 118.698 139.147 118.698 138.56C118.698 138.013 118.795 137.533 118.988 137.12C119.182 136.707 119.468 136.357 119.848 136.07C120.228 135.777 120.695 135.54 121.248 135.36C121.728 135.22 122.272 135.097 122.878 134.99C123.485 134.883 124.122 134.783 124.788 134.69C125.462 134.597 126.128 134.503 126.788 134.41L126.028 134.83C126.042 133.983 125.862 133.357 125.488 132.95C125.122 132.537 124.488 132.33 123.588 132.33C123.022 132.33 122.502 132.463 122.028 132.73C121.555 132.99 121.225 133.423 121.038 134.03L119.088 133.43C119.355 132.503 119.862 131.767 120.608 131.22C121.362 130.673 122.362 130.4 123.608 130.4C124.575 130.4 125.415 130.567 126.128 130.9C126.848 131.227 127.375 131.747 127.708 132.46C127.882 132.813 127.988 133.187 128.028 133.58C128.068 133.973 128.088 134.397 128.088 134.85V141.5H126.238V139.03L126.598 139.35C126.152 140.177 125.582 140.793 124.888 141.2C124.202 141.6 123.355 141.8 122.348 141.8ZM122.718 140.09C123.312 140.09 123.822 139.987 124.248 139.78C124.675 139.567 125.018 139.297 125.278 138.97C125.538 138.643 125.708 138.303 125.788 137.95C125.902 137.63 125.965 137.27 125.978 136.87C125.998 136.47 126.008 136.15 126.008 135.91L126.688 136.16C126.028 136.26 125.428 136.35 124.888 136.43C124.348 136.51 123.858 136.59 123.418 136.67C122.985 136.743 122.598 136.833 122.258 136.94C121.972 137.04 121.715 137.16 121.488 137.3C121.268 137.44 121.092 137.61 120.958 137.81C120.832 138.01 120.768 138.253 120.768 138.54C120.768 138.82 120.838 139.08 120.978 139.32C121.118 139.553 121.332 139.74 121.618 139.88C121.905 140.02 122.272 140.09 122.718 140.09ZM134.975 141.8C133.968 141.8 133.098 141.55 132.365 141.05C131.638 140.55 131.075 139.87 130.675 139.01C130.282 138.143 130.085 137.17 130.085 136.09C130.085 135.003 130.285 134.033 130.685 133.18C131.085 132.32 131.652 131.643 132.385 131.15C133.125 130.65 134.002 130.4 135.015 130.4C136.035 130.4 136.892 130.65 137.585 131.15C138.285 131.643 138.812 132.32 139.165 133.18C139.525 134.04 139.705 135.01 139.705 136.09C139.705 137.17 139.525 138.14 139.165 139C138.805 139.86 138.275 140.543 137.575 141.05C136.875 141.55 136.008 141.8 134.975 141.8ZM135.265 139.91C135.952 139.91 136.512 139.747 136.945 139.42C137.378 139.093 137.695 138.643 137.895 138.07C138.095 137.497 138.195 136.837 138.195 136.09C138.195 135.343 138.092 134.683 137.885 134.11C137.685 133.537 137.372 133.09 136.945 132.77C136.525 132.45 135.988 132.29 135.335 132.29C134.642 132.29 134.072 132.46 133.625 132.8C133.178 133.14 132.845 133.597 132.625 134.17C132.412 134.743 132.305 135.383 132.305 136.09C132.305 136.803 132.412 137.45 132.625 138.03C132.845 138.603 133.172 139.06 133.605 139.4C134.045 139.74 134.598 139.91 135.265 139.91ZM138.195 141.5V133.73H137.955V127.1H140.055V141.5H138.195ZM147.543 141.8C146.463 141.8 145.526 141.557 144.733 141.07C143.94 140.583 143.326 139.913 142.893 139.06C142.466 138.2 142.253 137.21 142.253 136.09C142.253 134.963 142.473 133.973 142.913 133.12C143.353 132.26 143.97 131.593 144.763 131.12C145.556 130.64 146.483 130.4 147.543 130.4C148.623 130.4 149.56 130.643 150.353 131.13C151.146 131.617 151.76 132.287 152.193 133.14C152.626 133.993 152.843 134.977 152.843 136.09C152.843 137.217 152.623 138.21 152.183 139.07C151.75 139.923 151.136 140.593 150.343 141.08C149.55 141.56 148.616 141.8 147.543 141.8ZM147.543 139.83C148.576 139.83 149.346 139.483 149.853 138.79C150.366 138.09 150.623 137.19 150.623 136.09C150.623 134.963 150.363 134.063 149.843 133.39C149.33 132.71 148.563 132.37 147.543 132.37C146.843 132.37 146.266 132.53 145.813 132.85C145.36 133.163 145.023 133.6 144.803 134.16C144.583 134.713 144.473 135.357 144.473 136.09C144.473 137.223 144.733 138.13 145.253 138.81C145.773 139.49 146.536 139.83 147.543 139.83ZM155.041 141.5V130.7H156.901V133.32L156.641 132.98C156.774 132.633 156.947 132.317 157.161 132.03C157.374 131.737 157.621 131.497 157.901 131.31C158.174 131.11 158.477 130.957 158.811 130.85C159.151 130.737 159.497 130.67 159.851 130.65C160.204 130.623 160.544 130.64 160.871 130.7V132.66C160.517 132.567 160.124 132.54 159.691 132.58C159.264 132.62 158.871 132.757 158.511 132.99C158.171 133.21 157.901 133.477 157.701 133.79C157.507 134.103 157.367 134.453 157.281 134.84C157.194 135.22 157.151 135.623 157.151 136.05V141.5H155.041ZM169.829 141.5L165.649 127.1H167.839L170.869 137.99L173.899 127.11L176.099 127.1L179.129 137.99L182.159 127.1H184.359L180.169 141.5H178.089L174.999 130.73L171.909 141.5H169.829ZM189.635 141.8C188.562 141.8 187.619 141.567 186.805 141.1C185.999 140.627 185.369 139.97 184.915 139.13C184.469 138.283 184.245 137.303 184.245 136.19C184.245 135.01 184.465 133.987 184.905 133.12C185.352 132.253 185.972 131.583 186.765 131.11C187.559 130.637 188.482 130.4 189.535 130.4C190.635 130.4 191.572 130.657 192.345 131.17C193.119 131.677 193.695 132.4 194.075 133.34C194.462 134.28 194.615 135.397 194.535 136.69H192.445V135.93C192.432 134.677 192.192 133.75 191.725 133.15C191.265 132.55 190.562 132.25 189.615 132.25C188.569 132.25 187.782 132.58 187.255 133.24C186.729 133.9 186.465 134.853 186.465 136.1C186.465 137.287 186.729 138.207 187.255 138.86C187.782 139.507 188.542 139.83 189.535 139.83C190.189 139.83 190.752 139.683 191.225 139.39C191.705 139.09 192.079 138.663 192.345 138.11L194.395 138.76C193.975 139.727 193.339 140.477 192.485 141.01C191.632 141.537 190.682 141.8 189.635 141.8ZM185.785 136.69V135.06H193.495V136.69H185.785ZM201.849 141.8C200.816 141.8 199.949 141.55 199.249 141.05C198.549 140.543 198.019 139.86 197.659 139C197.299 138.14 197.119 137.17 197.119 136.09C197.119 135.01 197.296 134.04 197.649 133.18C198.009 132.32 198.536 131.643 199.229 131.15C199.929 130.65 200.789 130.4 201.809 130.4C202.822 130.4 203.696 130.65 204.429 131.15C205.169 131.643 205.739 132.32 206.139 133.18C206.539 134.033 206.739 135.003 206.739 136.09C206.739 137.17 206.539 138.143 206.139 139.01C205.746 139.87 205.182 140.55 204.449 141.05C203.722 141.55 202.856 141.8 201.849 141.8ZM196.769 141.5V127.1H198.869V133.73H198.629V141.5H196.769ZM201.559 139.91C202.226 139.91 202.776 139.74 203.209 139.4C203.649 139.06 203.976 138.603 204.189 138.03C204.409 137.45 204.519 136.803 204.519 136.09C204.519 135.383 204.409 134.743 204.189 134.17C203.976 133.597 203.646 133.14 203.199 132.8C202.752 132.46 202.182 132.29 201.489 132.29C200.836 132.29 200.296 132.45 199.869 132.77C199.449 133.09 199.136 133.537 198.929 134.11C198.729 134.683 198.629 135.343 198.629 136.09C198.629 136.837 198.729 137.497 198.929 138.07C199.129 138.643 199.446 139.093 199.879 139.42C200.312 139.747 200.872 139.91 201.559 139.91Z" fill="white"/>
<rect x="1" y="1" width="298" height="202" rx="15" stroke="#7C7B84" stroke-width="2"/>
</svg>
