<svg width="300" height="204" viewBox="0 0 300 204" fill="none" xmlns="http://www.w3.org/2000/svg">
<rect x="1" y="1" width="298" height="202" rx="15" fill="#1C1C1F"/>
<path d="M59.6667 59.5C54.4333 59.5 50.3333 61.8427 50.3333 64.8333V70.6707C49.1253 70.3507 47.7747 70.1667 46.3333 70.1667C41.1 70.1667 37 72.5093 37 75.5V86.1667C37 89.1573 41.1 91.5 46.3333 91.5C51.5667 91.5 55.6667 89.1573 55.6667 86.1667V85.6533C56.9107 85.984 58.2733 86.1667 59.6667 86.1667C64.9 86.1667 69 83.824 69 80.8333V64.8333C69 61.8427 64.9 59.5 59.6667 59.5ZM59.6667 60.8333C64.0027 60.8333 67.6667 62.6653 67.6667 64.8333C67.6667 67.0013 64.0027 68.8333 59.6667 68.8333C55.3307 68.8333 51.6667 67.0013 51.6667 64.8333C51.6667 62.6653 55.3307 60.8333 59.6667 60.8333ZM46.3333 71.5C50.6693 71.5 54.3333 73.332 54.3333 75.5C54.3333 77.668 50.6693 79.5 46.3333 79.5C41.9973 79.5 38.3333 77.668 38.3333 75.5C38.3333 73.332 41.9973 71.5 46.3333 71.5ZM38.3333 78.2733C39.9507 79.8173 42.892 80.8333 46.3333 80.8333C49.7747 80.8333 52.716 79.8173 54.3333 78.2733V80.8333C54.3333 83.0013 50.6693 84.8333 46.3333 84.8333C41.9973 84.8333 38.3333 83.0013 38.3333 80.8333V78.2733ZM46.3333 90.1667C41.9973 90.1667 38.3333 88.3347 38.3333 86.1667V83.6067C39.9507 85.1507 42.892 86.1667 46.3333 86.1667C49.7747 86.1667 52.716 85.1507 54.3333 83.6067V86.1667C54.3333 88.3347 50.6693 90.1667 46.3333 90.1667ZM59.6667 84.8333C58.2573 84.8333 56.8853 84.6347 55.6667 84.2707V80.3213C56.9093 80.652 58.2707 80.832 59.6667 80.832C63.108 80.832 66.0493 79.816 67.6667 78.272V80.832C67.6667 83 64.0027 84.8333 59.6667 84.8333ZM59.6667 79.5C58.252 79.5 56.8853 79.2987 55.6667 78.9347V75.5C55.6667 75.3227 55.6507 75.148 55.6213 74.976C56.872 75.3147 58.2387 75.5 59.6667 75.5C63.108 75.5 66.0493 74.484 67.6667 72.94V75.5C67.6667 77.668 64.0027 79.5 59.6667 79.5ZM59.6667 74.1667C57.9213 74.1667 56.2827 73.8733 54.8853 73.3347C54.1947 72.424 53.0773 71.6533 51.6667 71.1V67.608C53.284 69.152 56.2253 70.168 59.6667 70.168C63.108 70.168 66.0493 69.152 67.6667 67.608V70.168C67.6667 72.336 64.0027 74.168 59.6667 74.168V74.1667Z" fill="#7C7B84"/>
<path d="M33.4 141.5V127.1H39.06C39.9733 127.1 40.74 127.287 41.36 127.66C41.98 128.033 42.4467 128.517 42.76 129.11C43.0733 129.697 43.23 130.317 43.23 130.97C43.23 131.763 43.0333 132.443 42.64 133.01C42.2533 133.577 41.73 133.963 41.07 134.17L41.05 133.68C41.97 133.907 42.6767 134.35 43.17 135.01C43.6633 135.663 43.91 136.427 43.91 137.3C43.91 138.147 43.74 138.883 43.4 139.51C43.0667 140.137 42.5767 140.627 41.93 140.98C41.29 141.327 40.5133 141.5 39.6 141.5H33.4ZM35.52 139.51H39.28C39.7533 139.51 40.1767 139.42 40.55 139.24C40.93 139.06 41.2267 138.803 41.44 138.47C41.66 138.13 41.77 137.727 41.77 137.26C41.77 136.827 41.6733 136.437 41.48 136.09C41.2933 135.737 41.02 135.46 40.66 135.26C40.3067 135.053 39.89 134.95 39.41 134.95H35.52V139.51ZM35.52 132.98H39.03C39.4167 132.98 39.7633 132.903 40.07 132.75C40.3833 132.59 40.63 132.363 40.81 132.07C40.9967 131.77 41.09 131.41 41.09 130.99C41.09 130.43 40.9033 129.97 40.53 129.61C40.1567 129.25 39.6567 129.07 39.03 129.07H35.52V132.98ZM48.95 141.8C48.15 141.8 47.48 141.653 46.94 141.36C46.4 141.06 45.99 140.667 45.71 140.18C45.4367 139.687 45.3 139.147 45.3 138.56C45.3 138.013 45.3967 137.533 45.59 137.12C45.7833 136.707 46.07 136.357 46.45 136.07C46.83 135.777 47.2967 135.54 47.85 135.36C48.33 135.22 48.8733 135.097 49.48 134.99C50.0867 134.883 50.7233 134.783 51.39 134.69C52.0633 134.597 52.73 134.503 53.39 134.41L52.63 134.83C52.6433 133.983 52.4633 133.357 52.09 132.95C51.7233 132.537 51.09 132.33 50.19 132.33C49.6233 132.33 49.1033 132.463 48.63 132.73C48.1567 132.99 47.8267 133.423 47.64 134.03L45.69 133.43C45.9567 132.503 46.4633 131.767 47.21 131.22C47.9633 130.673 48.9633 130.4 50.21 130.4C51.1767 130.4 52.0167 130.567 52.73 130.9C53.45 131.227 53.9767 131.747 54.31 132.46C54.4833 132.813 54.59 133.187 54.63 133.58C54.67 133.973 54.69 134.397 54.69 134.85V141.5H52.84V139.03L53.2 139.35C52.7533 140.177 52.1833 140.793 51.49 141.2C50.8033 141.6 49.9567 141.8 48.95 141.8ZM49.32 140.09C49.9133 140.09 50.4233 139.987 50.85 139.78C51.2767 139.567 51.62 139.297 51.88 138.97C52.14 138.643 52.31 138.303 52.39 137.95C52.5033 137.63 52.5667 137.27 52.58 136.87C52.6 136.47 52.61 136.15 52.61 135.91L53.29 136.16C52.63 136.26 52.03 136.35 51.49 136.43C50.95 136.51 50.46 136.59 50.02 136.67C49.5867 136.743 49.2 136.833 48.86 136.94C48.5733 137.04 48.3167 137.16 48.09 137.3C47.87 137.44 47.6933 137.61 47.56 137.81C47.4333 138.01 47.37 138.253 47.37 138.54C47.37 138.82 47.44 139.08 47.58 139.32C47.72 139.553 47.9333 139.74 48.22 139.88C48.5067 140.02 48.8733 140.09 49.32 140.09ZM61.4167 141.79C60.1034 141.79 59.0334 141.5 58.2067 140.92C57.3801 140.34 56.8734 139.523 56.6867 138.47L58.8267 138.14C58.9601 138.7 59.2667 139.143 59.7467 139.47C60.2334 139.79 60.8367 139.95 61.5567 139.95C62.2101 139.95 62.7201 139.817 63.0867 139.55C63.4601 139.283 63.6467 138.917 63.6467 138.45C63.6467 138.177 63.5801 137.957 63.4467 137.79C63.3201 137.617 63.0501 137.453 62.6367 137.3C62.2234 137.147 61.5934 136.957 60.7467 136.73C59.8201 136.49 59.0834 136.233 58.5367 135.96C57.9967 135.68 57.6101 135.357 57.3767 134.99C57.1501 134.617 57.0367 134.167 57.0367 133.64C57.0367 132.987 57.2101 132.417 57.5567 131.93C57.9034 131.443 58.3901 131.067 59.0167 130.8C59.6501 130.533 60.3901 130.4 61.2367 130.4C62.0634 130.4 62.8001 130.53 63.4467 130.79C64.0934 131.05 64.6167 131.42 65.0167 131.9C65.4167 132.373 65.6567 132.93 65.7367 133.57L63.5967 133.96C63.5234 133.44 63.2801 133.03 62.8667 132.73C62.4534 132.43 61.9167 132.267 61.2567 132.24C60.6234 132.213 60.1101 132.32 59.7167 132.56C59.3234 132.793 59.1267 133.117 59.1267 133.53C59.1267 133.77 59.2001 133.973 59.3467 134.14C59.5001 134.307 59.7934 134.467 60.2267 134.62C60.6601 134.773 61.3001 134.957 62.1467 135.17C63.0534 135.403 63.7734 135.663 64.3067 135.95C64.8401 136.23 65.2201 136.567 65.4467 136.96C65.6801 137.347 65.7967 137.817 65.7967 138.37C65.7967 139.437 65.4067 140.273 64.6267 140.88C63.8534 141.487 62.7834 141.79 61.4167 141.79ZM72.7994 141.8C71.726 141.8 70.7827 141.567 69.9694 141.1C69.1627 140.627 68.5327 139.97 68.0794 139.13C67.6327 138.283 67.4094 137.303 67.4094 136.19C67.4094 135.01 67.6294 133.987 68.0694 133.12C68.516 132.253 69.136 131.583 69.9294 131.11C70.7227 130.637 71.646 130.4 72.6994 130.4C73.7994 130.4 74.736 130.657 75.5094 131.17C76.2827 131.677 76.8594 132.4 77.2394 133.34C77.626 134.28 77.7794 135.397 77.6994 136.69H75.6094V135.93C75.596 134.677 75.356 133.75 74.8894 133.15C74.4294 132.55 73.726 132.25 72.7794 132.25C71.7327 132.25 70.946 132.58 70.4194 133.24C69.8927 133.9 69.6294 134.853 69.6294 136.1C69.6294 137.287 69.8927 138.207 70.4194 138.86C70.946 139.507 71.706 139.83 72.6994 139.83C73.3527 139.83 73.916 139.683 74.3894 139.39C74.8694 139.09 75.2427 138.663 75.5094 138.11L77.5594 138.76C77.1394 139.727 76.5027 140.477 75.6494 141.01C74.796 141.537 73.846 141.8 72.7994 141.8ZM68.9494 136.69V135.06H76.6594V136.69H68.9494ZM88.2369 141.8C87.2302 141.8 86.3602 141.55 85.6269 141.05C84.9002 140.55 84.3369 139.87 83.9369 139.01C83.5435 138.143 83.3469 137.17 83.3469 136.09C83.3469 135.003 83.5469 134.033 83.9469 133.18C84.3469 132.32 84.9135 131.643 85.6469 131.15C86.3869 130.65 87.2635 130.4 88.2769 130.4C89.2969 130.4 90.1535 130.65 90.8469 131.15C91.5469 131.643 92.0735 132.32 92.4269 133.18C92.7869 134.04 92.9669 135.01 92.9669 136.09C92.9669 137.17 92.7869 138.14 92.4269 139C92.0669 139.86 91.5369 140.543 90.8369 141.05C90.1369 141.55 89.2702 141.8 88.2369 141.8ZM88.5269 139.91C89.2135 139.91 89.7735 139.747 90.2069 139.42C90.6402 139.093 90.9569 138.643 91.1569 138.07C91.3569 137.497 91.4569 136.837 91.4569 136.09C91.4569 135.343 91.3535 134.683 91.1469 134.11C90.9469 133.537 90.6335 133.09 90.2069 132.77C89.7869 132.45 89.2502 132.29 88.5969 132.29C87.9035 132.29 87.3335 132.46 86.8869 132.8C86.4402 133.14 86.1069 133.597 85.8869 134.17C85.6735 134.743 85.5669 135.383 85.5669 136.09C85.5669 136.803 85.6735 137.45 85.8869 138.03C86.1069 138.603 86.4335 139.06 86.8669 139.4C87.3069 139.74 87.8602 139.91 88.5269 139.91ZM91.4569 141.5V133.73H91.2169V127.1H93.3169V141.5H91.4569ZM100.905 141.8C99.8315 141.8 98.8882 141.567 98.0748 141.1C97.2682 140.627 96.6382 139.97 96.1848 139.13C95.7382 138.283 95.5148 137.303 95.5148 136.19C95.5148 135.01 95.7348 133.987 96.1748 133.12C96.6215 132.253 97.2415 131.583 98.0348 131.11C98.8282 130.637 99.7515 130.4 100.805 130.4C101.905 130.4 102.842 130.657 103.615 131.17C104.388 131.677 104.965 132.4 105.345 133.34C105.732 134.28 105.885 135.397 105.805 136.69H103.715V135.93C103.702 134.677 103.462 133.75 102.995 133.15C102.535 132.55 101.832 132.25 100.885 132.25C99.8382 132.25 99.0515 132.58 98.5248 133.24C97.9982 133.9 97.7348 134.853 97.7348 136.1C97.7348 137.287 97.9982 138.207 98.5248 138.86C99.0515 139.507 99.8115 139.83 100.805 139.83C101.458 139.83 102.022 139.683 102.495 139.39C102.975 139.09 103.348 138.663 103.615 138.11L105.665 138.76C105.245 139.727 104.608 140.477 103.755 141.01C102.902 141.537 101.952 141.8 100.905 141.8ZM97.0548 136.69V135.06H104.765V136.69H97.0548ZM112.052 141.5V127.1H116.562C116.696 127.1 116.942 127.103 117.302 127.11C117.669 127.117 118.019 127.143 118.352 127.19C119.479 127.33 120.426 127.733 121.192 128.4C121.966 129.067 122.549 129.913 122.942 130.94C123.336 131.96 123.532 133.08 123.532 134.3C123.532 135.527 123.336 136.653 122.942 137.68C122.549 138.7 121.966 139.543 121.192 140.21C120.426 140.87 119.479 141.27 118.352 141.41C118.019 141.457 117.669 141.483 117.302 141.49C116.942 141.497 116.696 141.5 116.562 141.5H112.052ZM114.192 139.51H116.562C116.789 139.51 117.059 139.503 117.372 139.49C117.686 139.477 117.962 139.45 118.202 139.41C118.936 139.27 119.529 138.953 119.982 138.46C120.442 137.96 120.779 137.347 120.992 136.62C121.206 135.893 121.312 135.12 121.312 134.3C121.312 133.453 121.202 132.67 120.982 131.95C120.762 131.223 120.422 130.617 119.962 130.13C119.509 129.637 118.922 129.323 118.202 129.19C117.962 129.143 117.682 129.117 117.362 129.11C117.049 129.097 116.782 129.09 116.562 129.09H114.192V139.51ZM128.911 141.8C128.111 141.8 127.441 141.653 126.901 141.36C126.361 141.06 125.951 140.667 125.671 140.18C125.398 139.687 125.261 139.147 125.261 138.56C125.261 138.013 125.358 137.533 125.551 137.12C125.744 136.707 126.031 136.357 126.411 136.07C126.791 135.777 127.258 135.54 127.811 135.36C128.291 135.22 128.834 135.097 129.441 134.99C130.048 134.883 130.684 134.783 131.351 134.69C132.024 134.597 132.691 134.503 133.351 134.41L132.591 134.83C132.604 133.983 132.424 133.357 132.051 132.95C131.684 132.537 131.051 132.33 130.151 132.33C129.584 132.33 129.064 132.463 128.591 132.73C128.118 132.99 127.788 133.423 127.601 134.03L125.651 133.43C125.918 132.503 126.424 131.767 127.171 131.22C127.924 130.673 128.924 130.4 130.171 130.4C131.138 130.4 131.978 130.567 132.691 130.9C133.411 131.227 133.938 131.747 134.271 132.46C134.444 132.813 134.551 133.187 134.591 133.58C134.631 133.973 134.651 134.397 134.651 134.85V141.5H132.801V139.03L133.161 139.35C132.714 140.177 132.144 140.793 131.451 141.2C130.764 141.6 129.918 141.8 128.911 141.8ZM129.281 140.09C129.874 140.09 130.384 139.987 130.811 139.78C131.238 139.567 131.581 139.297 131.841 138.97C132.101 138.643 132.271 138.303 132.351 137.95C132.464 137.63 132.528 137.27 132.541 136.87C132.561 136.47 132.571 136.15 132.571 135.91L133.251 136.16C132.591 136.26 131.991 136.35 131.451 136.43C130.911 136.51 130.421 136.59 129.981 136.67C129.548 136.743 129.161 136.833 128.821 136.94C128.534 137.04 128.278 137.16 128.051 137.3C127.831 137.44 127.654 137.61 127.521 137.81C127.394 138.01 127.331 138.253 127.331 138.54C127.331 138.82 127.401 139.08 127.541 139.32C127.681 139.553 127.894 139.74 128.181 139.88C128.468 140.02 128.834 140.09 129.281 140.09ZM143.428 141.5C142.748 141.633 142.081 141.69 141.428 141.67C140.774 141.65 140.191 141.523 139.678 141.29C139.164 141.057 138.778 140.69 138.518 140.19C138.284 139.743 138.158 139.29 138.138 138.83C138.124 138.363 138.118 137.837 138.118 137.25V127.7H140.218V137.15C140.218 137.583 140.221 137.96 140.228 138.28C140.241 138.6 140.311 138.87 140.438 139.09C140.678 139.503 141.058 139.74 141.578 139.8C142.104 139.853 142.721 139.83 143.428 139.73V141.5ZM136.048 132.38V130.7H143.428V132.38H136.048ZM149.906 141.8C148.826 141.8 147.89 141.557 147.096 141.07C146.303 140.583 145.69 139.913 145.256 139.06C144.83 138.2 144.616 137.21 144.616 136.09C144.616 134.963 144.836 133.973 145.276 133.12C145.716 132.26 146.333 131.593 147.126 131.12C147.92 130.64 148.846 130.4 149.906 130.4C150.986 130.4 151.923 130.643 152.716 131.13C153.51 131.617 154.123 132.287 154.556 133.14C154.99 133.993 155.206 134.977 155.206 136.09C155.206 137.217 154.986 138.21 154.546 139.07C154.113 139.923 153.5 140.593 152.706 141.08C151.913 141.56 150.98 141.8 149.906 141.8ZM149.906 139.83C150.94 139.83 151.71 139.483 152.216 138.79C152.73 138.09 152.986 137.19 152.986 136.09C152.986 134.963 152.726 134.063 152.206 133.39C151.693 132.71 150.926 132.37 149.906 132.37C149.206 132.37 148.63 132.53 148.176 132.85C147.723 133.163 147.386 133.6 147.166 134.16C146.946 134.713 146.836 135.357 146.836 136.09C146.836 137.223 147.096 138.13 147.616 138.81C148.136 139.49 148.9 139.83 149.906 139.83ZM161.339 141.79C160.025 141.79 158.955 141.5 158.129 140.92C157.302 140.34 156.795 139.523 156.609 138.47L158.749 138.14C158.882 138.7 159.189 139.143 159.669 139.47C160.155 139.79 160.759 139.95 161.479 139.95C162.132 139.95 162.642 139.817 163.009 139.55C163.382 139.283 163.569 138.917 163.569 138.45C163.569 138.177 163.502 137.957 163.369 137.79C163.242 137.617 162.972 137.453 162.559 137.3C162.145 137.147 161.515 136.957 160.669 136.73C159.742 136.49 159.005 136.233 158.459 135.96C157.919 135.68 157.532 135.357 157.299 134.99C157.072 134.617 156.959 134.167 156.959 133.64C156.959 132.987 157.132 132.417 157.479 131.93C157.825 131.443 158.312 131.067 158.939 130.8C159.572 130.533 160.312 130.4 161.159 130.4C161.985 130.4 162.722 130.53 163.369 130.79C164.015 131.05 164.539 131.42 164.939 131.9C165.339 132.373 165.579 132.93 165.659 133.57L163.519 133.96C163.445 133.44 163.202 133.03 162.789 132.73C162.375 132.43 161.839 132.267 161.179 132.24C160.545 132.213 160.032 132.32 159.639 132.56C159.245 132.793 159.049 133.117 159.049 133.53C159.049 133.77 159.122 133.973 159.269 134.14C159.422 134.307 159.715 134.467 160.149 134.62C160.582 134.773 161.222 134.957 162.069 135.17C162.975 135.403 163.695 135.663 164.229 135.95C164.762 136.23 165.142 136.567 165.369 136.96C165.602 137.347 165.719 137.817 165.719 138.37C165.719 139.437 165.329 140.273 164.549 140.88C163.775 141.487 162.705 141.79 161.339 141.79Z" fill="white"/>
<rect x="1" y="1" width="298" height="202" rx="15" stroke="#7C7B84" stroke-width="2"/>
</svg>
