<svg width="300" height="204" viewBox="0 0 300 204" fill="none" xmlns="http://www.w3.org/2000/svg">
<rect x="1" y="1" width="298" height="202" rx="15" fill="#1C1C1F"/>
<path d="M62.3889 59.5H43.6111C41.6207 59.5 40 60.996 40 62.8333V91.5H66V62.8333C66 60.996 64.3808 59.5 62.3889 59.5ZM64.5556 90.1667H41.4444V62.8333C41.4444 61.7307 42.4166 60.8333 43.6111 60.8333H62.3889C63.5834 60.8333 64.5556 61.7307 64.5556 62.8333V90.1667ZM50.1111 86.1667H55.8889V87.5H50.1111V86.1667Z" fill="#7C7B84"/>
<path d="M32.4 141.5L37.08 127.1H40.09L44.77 141.5H42.6L38.29 128.36H38.83L34.57 141.5H32.4ZM34.83 138.25V136.29H42.35V138.25H34.83ZM51.6341 141.8C50.6007 141.8 49.7341 141.55 49.0341 141.05C48.3341 140.543 47.8041 139.86 47.4441 139C47.0841 138.14 46.9041 137.17 46.9041 136.09C46.9041 135.01 47.0807 134.04 47.4341 133.18C47.7941 132.32 48.3207 131.643 49.0141 131.15C49.7141 130.65 50.5741 130.4 51.5941 130.4C52.6074 130.4 53.4807 130.65 54.2141 131.15C54.9541 131.643 55.5241 132.32 55.9241 133.18C56.3241 134.033 56.5241 135.003 56.5241 136.09C56.5241 137.17 56.3241 138.143 55.9241 139.01C55.5307 139.87 54.9674 140.55 54.2341 141.05C53.5074 141.55 52.6407 141.8 51.6341 141.8ZM46.5541 146.3V130.7H48.4141V138.47H48.6541V146.3H46.5541ZM51.3441 139.91C52.0107 139.91 52.5607 139.74 52.9941 139.4C53.4341 139.06 53.7607 138.603 53.9741 138.03C54.1941 137.45 54.3041 136.803 54.3041 136.09C54.3041 135.383 54.1941 134.743 53.9741 134.17C53.7607 133.597 53.4307 133.14 52.9841 132.8C52.5374 132.46 51.9674 132.29 51.2741 132.29C50.6207 132.29 50.0807 132.45 49.6541 132.77C49.2341 133.09 48.9207 133.537 48.7141 134.11C48.5141 134.683 48.4141 135.343 48.4141 136.09C48.4141 136.837 48.5141 137.497 48.7141 138.07C48.9141 138.643 49.2307 139.093 49.6641 139.42C50.0974 139.747 50.6574 139.91 51.3441 139.91ZM58.932 141.5V126.8H61.022V141.5H58.932ZM64.225 128.93V126.9H66.315V128.93H64.225ZM64.225 141.5V130.7H66.315V141.5H64.225ZM73.938 141.8C72.8313 141.8 71.8913 141.553 71.118 141.06C70.3446 140.567 69.7513 139.89 69.338 139.03C68.9313 138.17 68.7246 137.193 68.718 136.1C68.7246 134.987 68.938 134.003 69.358 133.15C69.778 132.29 70.378 131.617 71.158 131.13C71.938 130.643 72.8746 130.4 73.968 130.4C75.148 130.4 76.1546 130.693 76.988 131.28C77.828 131.867 78.3813 132.67 78.648 133.69L76.568 134.29C76.3613 133.683 76.0213 133.213 75.548 132.88C75.0813 132.54 74.5446 132.37 73.938 132.37C73.2513 132.37 72.688 132.533 72.248 132.86C71.808 133.18 71.4813 133.62 71.268 134.18C71.0546 134.74 70.9446 135.38 70.938 136.1C70.9446 137.213 71.198 138.113 71.698 138.8C72.2046 139.487 72.9513 139.83 73.938 139.83C74.6113 139.83 75.1546 139.677 75.568 139.37C75.988 139.057 76.308 138.61 76.528 138.03L78.648 138.53C78.2946 139.583 77.7113 140.393 76.898 140.96C76.0846 141.52 75.098 141.8 73.938 141.8ZM83.5984 141.8C82.7984 141.8 82.1284 141.653 81.5884 141.36C81.0484 141.06 80.6384 140.667 80.3584 140.18C80.0851 139.687 79.9484 139.147 79.9484 138.56C79.9484 138.013 80.0451 137.533 80.2384 137.12C80.4318 136.707 80.7184 136.357 81.0984 136.07C81.4784 135.777 81.9451 135.54 82.4984 135.36C82.9784 135.22 83.5218 135.097 84.1284 134.99C84.7351 134.883 85.3718 134.783 86.0384 134.69C86.7118 134.597 87.3784 134.503 88.0384 134.41L87.2784 134.83C87.2918 133.983 87.1118 133.357 86.7384 132.95C86.3718 132.537 85.7384 132.33 84.8384 132.33C84.2718 132.33 83.7518 132.463 83.2784 132.73C82.8051 132.99 82.4751 133.423 82.2884 134.03L80.3384 133.43C80.6051 132.503 81.1118 131.767 81.8584 131.22C82.6118 130.673 83.6118 130.4 84.8584 130.4C85.8251 130.4 86.6651 130.567 87.3784 130.9C88.0984 131.227 88.6251 131.747 88.9584 132.46C89.1318 132.813 89.2384 133.187 89.2784 133.58C89.3184 133.973 89.3384 134.397 89.3384 134.85V141.5H87.4884V139.03L87.8484 139.35C87.4018 140.177 86.8318 140.793 86.1384 141.2C85.4518 141.6 84.6051 141.8 83.5984 141.8ZM83.9684 140.09C84.5618 140.09 85.0718 139.987 85.4984 139.78C85.9251 139.567 86.2684 139.297 86.5284 138.97C86.7884 138.643 86.9584 138.303 87.0384 137.95C87.1518 137.63 87.2151 137.27 87.2284 136.87C87.2484 136.47 87.2584 136.15 87.2584 135.91L87.9384 136.16C87.2784 136.26 86.6784 136.35 86.1384 136.43C85.5984 136.51 85.1084 136.59 84.6684 136.67C84.2351 136.743 83.8484 136.833 83.5084 136.94C83.2218 137.04 82.9651 137.16 82.7384 137.3C82.5184 137.44 82.3418 137.61 82.2084 137.81C82.0818 138.01 82.0184 138.253 82.0184 138.54C82.0184 138.82 82.0884 139.08 82.2284 139.32C82.3684 139.553 82.5818 139.74 82.8684 139.88C83.1551 140.02 83.5218 140.09 83.9684 140.09ZM96.5552 141.8C95.4485 141.8 94.5085 141.553 93.7352 141.06C92.9618 140.567 92.3685 139.89 91.9552 139.03C91.5485 138.17 91.3418 137.193 91.3352 136.1C91.3418 134.987 91.5552 134.003 91.9752 133.15C92.3952 132.29 92.9952 131.617 93.7752 131.13C94.5552 130.643 95.4918 130.4 96.5852 130.4C97.7652 130.4 98.7718 130.693 99.6052 131.28C100.445 131.867 100.998 132.67 101.265 133.69L99.1852 134.29C98.9785 133.683 98.6385 133.213 98.1652 132.88C97.6985 132.54 97.1618 132.37 96.5552 132.37C95.8685 132.37 95.3052 132.533 94.8652 132.86C94.4252 133.18 94.0985 133.62 93.8852 134.18C93.6718 134.74 93.5618 135.38 93.5552 136.1C93.5618 137.213 93.8152 138.113 94.3152 138.8C94.8218 139.487 95.5685 139.83 96.5552 139.83C97.2285 139.83 97.7718 139.677 98.1852 139.37C98.6052 139.057 98.9252 138.61 99.1452 138.03L101.265 138.53C100.912 139.583 100.328 140.393 99.5152 140.96C98.7018 141.52 97.7152 141.8 96.5552 141.8ZM103.209 128.93V126.9H105.299V128.93H103.209ZM103.209 141.5V130.7H105.299V141.5H103.209ZM112.992 141.8C111.912 141.8 110.976 141.557 110.182 141.07C109.389 140.583 108.776 139.913 108.342 139.06C107.916 138.2 107.702 137.21 107.702 136.09C107.702 134.963 107.922 133.973 108.362 133.12C108.802 132.26 109.419 131.593 110.212 131.12C111.006 130.64 111.932 130.4 112.992 130.4C114.072 130.4 115.009 130.643 115.802 131.13C116.596 131.617 117.209 132.287 117.642 133.14C118.076 133.993 118.292 134.977 118.292 136.09C118.292 137.217 118.072 138.21 117.632 139.07C117.199 139.923 116.586 140.593 115.792 141.08C114.999 141.56 114.066 141.8 112.992 141.8ZM112.992 139.83C114.026 139.83 114.796 139.483 115.302 138.79C115.816 138.09 116.072 137.19 116.072 136.09C116.072 134.963 115.812 134.063 115.292 133.39C114.779 132.71 114.012 132.37 112.992 132.37C112.292 132.37 111.716 132.53 111.262 132.85C110.809 133.163 110.472 133.6 110.252 134.16C110.032 134.713 109.922 135.357 109.922 136.09C109.922 137.223 110.182 138.13 110.702 138.81C111.222 139.49 111.986 139.83 112.992 139.83ZM128.07 141.5V136.19C128.07 135.77 128.033 135.34 127.96 134.9C127.893 134.453 127.76 134.04 127.56 133.66C127.367 133.28 127.09 132.973 126.73 132.74C126.377 132.507 125.913 132.39 125.34 132.39C124.967 132.39 124.613 132.453 124.28 132.58C123.947 132.7 123.653 132.897 123.4 133.17C123.153 133.443 122.957 133.803 122.81 134.25C122.67 134.697 122.6 135.24 122.6 135.88L121.3 135.39C121.3 134.41 121.483 133.547 121.85 132.8C122.217 132.047 122.743 131.46 123.43 131.04C124.117 130.62 124.947 130.41 125.92 130.41C126.667 130.41 127.293 130.53 127.8 130.77C128.307 131.01 128.717 131.327 129.03 131.72C129.35 132.107 129.593 132.53 129.76 132.99C129.927 133.45 130.04 133.9 130.1 134.34C130.16 134.78 130.19 135.167 130.19 135.5V141.5H128.07ZM120.48 141.5V130.7H122.35V133.82H122.6V141.5H120.48ZM137.448 141.8C136.374 141.8 135.431 141.567 134.618 141.1C133.811 140.627 133.181 139.97 132.728 139.13C132.281 138.283 132.058 137.303 132.058 136.19C132.058 135.01 132.278 133.987 132.718 133.12C133.164 132.253 133.784 131.583 134.578 131.11C135.371 130.637 136.294 130.4 137.348 130.4C138.448 130.4 139.384 130.657 140.158 131.17C140.931 131.677 141.508 132.4 141.888 133.34C142.274 134.28 142.428 135.397 142.348 136.69H140.258V135.93C140.244 134.677 140.004 133.75 139.538 133.15C139.078 132.55 138.374 132.25 137.428 132.25C136.381 132.25 135.594 132.58 135.068 133.24C134.541 133.9 134.278 134.853 134.278 136.1C134.278 137.287 134.541 138.207 135.068 138.86C135.594 139.507 136.354 139.83 137.348 139.83C138.001 139.83 138.564 139.683 139.038 139.39C139.518 139.09 139.891 138.663 140.158 138.11L142.208 138.76C141.788 139.727 141.151 140.477 140.298 141.01C139.444 141.537 138.494 141.8 137.448 141.8ZM133.598 136.69V135.06H141.308V136.69H133.598ZM148.721 141.79C147.408 141.79 146.338 141.5 145.511 140.92C144.685 140.34 144.178 139.523 143.991 138.47L146.131 138.14C146.265 138.7 146.571 139.143 147.051 139.47C147.538 139.79 148.141 139.95 148.861 139.95C149.515 139.95 150.025 139.817 150.391 139.55C150.765 139.283 150.951 138.917 150.951 138.45C150.951 138.177 150.885 137.957 150.751 137.79C150.625 137.617 150.355 137.453 149.941 137.3C149.528 137.147 148.898 136.957 148.051 136.73C147.125 136.49 146.388 136.233 145.841 135.96C145.301 135.68 144.915 135.357 144.681 134.99C144.455 134.617 144.341 134.167 144.341 133.64C144.341 132.987 144.515 132.417 144.861 131.93C145.208 131.443 145.695 131.067 146.321 130.8C146.955 130.533 147.695 130.4 148.541 130.4C149.368 130.4 150.105 130.53 150.751 130.79C151.398 131.05 151.921 131.42 152.321 131.9C152.721 132.373 152.961 132.93 153.041 133.57L150.901 133.96C150.828 133.44 150.585 133.03 150.171 132.73C149.758 132.43 149.221 132.267 148.561 132.24C147.928 132.213 147.415 132.32 147.021 132.56C146.628 132.793 146.431 133.117 146.431 133.53C146.431 133.77 146.505 133.973 146.651 134.14C146.805 134.307 147.098 134.467 147.531 134.62C147.965 134.773 148.605 134.957 149.451 135.17C150.358 135.403 151.078 135.663 151.611 135.95C152.145 136.23 152.525 136.567 152.751 136.96C152.985 137.347 153.101 137.817 153.101 138.37C153.101 139.437 152.711 140.273 151.931 140.88C151.158 141.487 150.088 141.79 148.721 141.79ZM159.318 141.5V127.1H161.208L166.428 137.93L171.618 127.1H173.528V141.49H171.548V131.64L166.898 141.5H165.948L161.288 131.64V141.5H159.318ZM181.85 129.1H180.21L181.64 125.6H183.28L181.85 129.1ZM181.02 141.8C179.94 141.8 179.003 141.557 178.21 141.07C177.416 140.583 176.803 139.913 176.37 139.06C175.943 138.2 175.73 137.21 175.73 136.09C175.73 134.963 175.95 133.973 176.39 133.12C176.83 132.26 177.446 131.593 178.24 131.12C179.033 130.64 179.96 130.4 181.02 130.4C182.1 130.4 183.036 130.643 183.83 131.13C184.623 131.617 185.236 132.287 185.67 133.14C186.103 133.993 186.32 134.977 186.32 136.09C186.32 137.217 186.1 138.21 185.66 139.07C185.226 139.923 184.613 140.593 183.82 141.08C183.026 141.56 182.093 141.8 181.02 141.8ZM181.02 139.83C182.053 139.83 182.823 139.483 183.33 138.79C183.843 138.09 184.1 137.19 184.1 136.09C184.1 134.963 183.84 134.063 183.32 133.39C182.806 132.71 182.04 132.37 181.02 132.37C180.32 132.37 179.743 132.53 179.29 132.85C178.836 133.163 178.5 133.6 178.28 134.16C178.06 134.713 177.95 135.357 177.95 136.09C177.95 137.223 178.21 138.13 178.73 138.81C179.25 139.49 180.013 139.83 181.02 139.83ZM191.047 141.5L187.127 130.7H189.237L192.107 138.88L194.977 130.7H197.087L193.167 141.5H191.047ZM199.088 128.93V126.9H201.178V128.93H199.088ZM199.088 141.5V130.7H201.178V141.5H199.088ZM204.381 141.5V126.8H206.471V141.5H204.381ZM214.264 141.8C213.191 141.8 212.248 141.567 211.434 141.1C210.628 140.627 209.998 139.97 209.544 139.13C209.098 138.283 208.874 137.303 208.874 136.19C208.874 135.01 209.094 133.987 209.534 133.12C209.981 132.253 210.601 131.583 211.394 131.11C212.188 130.637 213.111 130.4 214.164 130.4C215.264 130.4 216.201 130.657 216.974 131.17C217.748 131.677 218.324 132.4 218.704 133.34C219.091 134.28 219.244 135.397 219.164 136.69H217.074V135.93C217.061 134.677 216.821 133.75 216.354 133.15C215.894 132.55 215.191 132.25 214.244 132.25C213.198 132.25 212.411 132.58 211.884 133.24C211.358 133.9 211.094 134.853 211.094 136.1C211.094 137.287 211.358 138.207 211.884 138.86C212.411 139.507 213.171 139.83 214.164 139.83C214.818 139.83 215.381 139.683 215.854 139.39C216.334 139.09 216.708 138.663 216.974 138.11L219.024 138.76C218.604 139.727 217.968 140.477 217.114 141.01C216.261 141.537 215.311 141.8 214.264 141.8ZM210.414 136.69V135.06H218.124V136.69H210.414ZM225.538 141.79C224.224 141.79 223.154 141.5 222.328 140.92C221.501 140.34 220.994 139.523 220.808 138.47L222.948 138.14C223.081 138.7 223.388 139.143 223.868 139.47C224.354 139.79 224.958 139.95 225.678 139.95C226.331 139.95 226.841 139.817 227.208 139.55C227.581 139.283 227.768 138.917 227.768 138.45C227.768 138.177 227.701 137.957 227.568 137.79C227.441 137.617 227.171 137.453 226.758 137.3C226.344 137.147 225.714 136.957 224.868 136.73C223.941 136.49 223.204 136.233 222.658 135.96C222.118 135.68 221.731 135.357 221.498 134.99C221.271 134.617 221.158 134.167 221.158 133.64C221.158 132.987 221.331 132.417 221.678 131.93C222.024 131.443 222.511 131.067 223.138 130.8C223.771 130.533 224.511 130.4 225.358 130.4C226.184 130.4 226.921 130.53 227.568 130.79C228.214 131.05 228.738 131.42 229.138 131.9C229.538 132.373 229.778 132.93 229.858 133.57L227.718 133.96C227.644 133.44 227.401 133.03 226.988 132.73C226.574 132.43 226.038 132.267 225.378 132.24C224.744 132.213 224.231 132.32 223.838 132.56C223.444 132.793 223.248 133.117 223.248 133.53C223.248 133.77 223.321 133.973 223.468 134.14C223.621 134.307 223.914 134.467 224.348 134.62C224.781 134.773 225.421 134.957 226.268 135.17C227.174 135.403 227.894 135.663 228.428 135.95C228.961 136.23 229.341 136.567 229.568 136.96C229.801 137.347 229.918 137.817 229.918 138.37C229.918 139.437 229.528 140.273 228.748 140.88C227.974 141.487 226.904 141.79 225.538 141.79Z" fill="white"/>
<rect x="1" y="1" width="298" height="202" rx="15" stroke="#7C7B84" stroke-width="2"/>
</svg>
