<svg width="300" height="204" viewBox="0 0 300 204" fill="none" xmlns="http://www.w3.org/2000/svg">
<rect x="1" y="1" width="298" height="202" rx="15" fill="#1C1C1F"/>
<path d="M53.5927 69.1885C53.6476 68.9185 53.9107 68.7438 54.1809 68.798L54.5304 68.8681C54.8017 68.9225 54.9772 69.1869 54.922 69.4581L52.4073 81.8115C52.3524 82.0815 52.0893 82.2562 51.8191 82.202L51.4696 82.1319C51.1983 82.0775 51.0228 81.8131 51.078 81.5419L53.5927 69.1885ZM49.3766 72.24C49.3766 72.2425 49.3736 72.2437 49.3718 72.242L48.6942 71.5762C48.5381 71.4229 48.288 71.4229 48.1319 71.5762L45.4411 74.22C44.6539 74.9933 44.6539 76.2467 45.4411 77.02L48.0219 79.5557C48.2165 79.7468 48.5282 79.7468 48.7228 79.5557L48.9729 79.31C49.1723 79.114 49.1723 78.7926 48.9729 78.5967L46.4046 76.0733C46.1467 75.82 46.1467 75.4067 46.4046 75.1533L49.3718 72.238C49.3736 72.2363 49.3766 72.2375 49.3766 72.24V72.24ZM57.6141 71.258C57.6141 71.2538 57.609 71.2517 57.606 71.2546L56.9388 71.9101C56.7804 72.0657 56.7804 72.3209 56.9388 72.4765L59.609 75.1C59.8668 75.3533 59.8668 75.7667 59.609 76.02L57.0136 78.57C56.8141 78.766 56.8141 79.0874 57.0136 79.2833L57.2637 79.529C57.4582 79.7202 57.77 79.7202 57.9645 79.529L60.5725 76.9667C61.3596 76.1933 61.3596 74.94 60.5725 74.1667L57.6155 71.2614C57.6146 71.2605 57.6141 71.2593 57.6141 71.258V71.258ZM65.0016 77.6819C64.9612 77.8926 65.0523 78.1082 65.2357 78.2193L68.5656 80.2368C68.8044 80.3815 68.8785 80.6937 68.7301 80.9302L64.9868 86.8964C64.8417 87.1277 64.5377 87.1998 64.3042 87.0583L60.9523 85.0274C60.7731 84.9188 60.5457 84.9344 60.3782 85.0604C59.462 85.7501 58.471 86.2936 57.4053 86.6985C57.2063 86.7741 57.0712 86.9626 57.0712 87.1754V91C57.0712 91.2761 56.8474 91.5 56.5712 91.5H49.4288C49.1526 91.5 48.9288 91.2761 48.9288 91V87.1742C48.9288 86.962 48.7944 86.7738 48.5963 86.6979C47.5386 86.2931 46.5394 85.7497 45.6219 85.0603C45.4543 84.9344 45.2269 84.9188 45.0477 85.0274L41.6958 87.0583C41.4622 87.1998 41.1583 87.1277 41.0132 86.8964L37.2699 80.9302C37.1215 80.6937 37.1956 80.3815 37.4344 80.2368L40.7643 78.2193C40.9477 78.1082 41.0388 77.8926 40.9984 77.6819C40.857 76.9462 40.7863 76.2132 40.7863 75.5C40.7863 74.7868 40.857 74.0538 40.9984 73.3181C41.0388 73.1074 40.9477 72.8918 40.7643 72.7807L37.4344 70.7632C37.1956 70.6185 37.1215 70.3063 37.2699 70.0698L41.0132 64.1036C41.1583 63.8723 41.4622 63.8002 41.6958 63.9417L45.0477 65.9726C45.2269 66.0812 45.4543 66.0656 45.6218 65.9396C46.538 65.2499 47.529 64.7064 48.5947 64.3015C48.7937 64.2259 48.9288 64.0374 48.9288 63.8246V60C48.9288 59.7239 49.1526 59.5 49.4288 59.5H56.5712C56.8474 59.5 57.0712 59.7239 57.0712 60V63.8258C57.0712 64.038 57.2056 64.2262 57.4037 64.3021C58.4614 64.7069 59.4606 65.2503 60.3781 65.9397C60.5457 66.0656 60.7731 66.0812 60.9523 65.9726L64.3042 63.9417C64.5377 63.8002 64.8417 63.8723 64.9868 64.1036L68.7301 70.0698C68.8785 70.3063 68.8044 70.6185 68.5656 70.7632L65.2357 72.7807C65.0523 72.8918 64.9612 73.1074 65.0016 73.3181C65.143 74.0538 65.2137 74.7868 65.2137 75.5C65.2137 76.2132 65.143 76.9462 65.0016 77.6819ZM63.6847 78.852C63.4966 78.7379 63.4052 78.5144 63.4594 78.3012L63.4902 78.18C63.7345 77.2733 63.8567 76.38 63.8567 75.5C63.8567 74.62 63.7345 73.7267 63.4902 72.82L63.4594 72.6988C63.4052 72.4856 63.4966 72.2621 63.6847 72.148L66.6928 70.3235C66.9316 70.1787 67.0055 69.8663 66.8568 69.6299L64.5392 65.9432C64.3939 65.7121 64.0901 65.6403 63.8566 65.7818L60.8251 67.6205C60.6417 67.7318 60.4078 67.7137 60.2437 67.5755L60.1383 67.4867C58.9712 66.4867 57.6412 65.7533 56.1891 65.3133L56.0666 65.2755C55.8571 65.2108 55.7142 65.0171 55.7142 64.7978V61.3333C55.7142 61.0572 55.4903 60.8333 55.2142 60.8333H50.7858C50.5097 60.8333 50.2858 61.0572 50.2858 61.3333V64.7844C50.2858 65.0038 50.1429 65.1975 49.9334 65.2622L49.8109 65.3C48.3588 65.74 47.0288 66.4733 45.8617 67.4733L45.7563 67.5622C45.5922 67.7003 45.3583 67.7184 45.1749 67.6072L42.1439 65.7688C41.9103 65.6271 41.6061 65.6993 41.461 65.9308L39.1423 69.6301C38.9941 69.8665 39.068 70.1784 39.3066 70.3231L42.3153 72.148C42.5034 72.2621 42.5948 72.4856 42.5406 72.6988L42.5098 72.82C42.2655 73.7267 42.1433 74.62 42.1433 75.5C42.1433 76.38 42.2655 77.2733 42.5098 78.18L42.5406 78.3012C42.5948 78.5144 42.5034 78.7379 42.3153 78.852L39.3072 80.6765C39.0684 80.8213 38.9945 81.1337 39.1432 81.3701L41.4608 85.0568C41.6061 85.2879 41.9099 85.3597 42.1434 85.2182L45.1749 83.3795C45.3583 83.2682 45.5922 83.2863 45.7563 83.4245L45.8617 83.5133C47.0288 84.5133 48.3588 85.2467 49.8109 85.6867L49.9334 85.7245C50.1429 85.7892 50.2858 85.9829 50.2858 86.2022V89.6533C50.2858 89.9295 50.5097 90.1533 50.7858 90.1533H55.2142C55.4903 90.1533 55.7142 89.9295 55.7142 89.6533V86.2022C55.7142 85.9829 55.8571 85.7892 56.0666 85.7245L56.1891 85.6867C57.6412 85.2467 58.9712 84.5133 60.1383 83.5133L60.2437 83.4245C60.4078 83.2863 60.6417 83.2682 60.8251 83.3795L63.8566 85.2182C64.0901 85.3597 64.3939 85.2879 64.5392 85.0568L66.8568 81.3701C67.0055 81.1337 66.9316 80.8213 66.6928 80.6765L63.6847 78.852Z" fill="#7C7B84"/>
<path d="M38.62 141.8C37.5867 141.8 36.6533 141.623 35.82 141.27C34.9933 140.91 34.31 140.4 33.77 139.74C33.2367 139.073 32.89 138.283 32.73 137.37L34.91 137.04C35.13 137.92 35.59 138.607 36.29 139.1C36.99 139.587 37.8067 139.83 38.74 139.83C39.32 139.83 39.8533 139.74 40.34 139.56C40.8267 139.373 41.2167 139.11 41.51 138.77C41.81 138.423 41.96 138.01 41.96 137.53C41.96 137.27 41.9133 137.04 41.82 136.84C41.7333 136.64 41.61 136.467 41.45 136.32C41.2967 136.167 41.1067 136.037 40.88 135.93C40.66 135.817 40.4167 135.72 40.15 135.64L36.46 134.55C36.1 134.443 35.7333 134.307 35.36 134.14C34.9867 133.967 34.6433 133.743 34.33 133.47C34.0233 133.19 33.7733 132.847 33.58 132.44C33.3867 132.027 33.29 131.527 33.29 130.94C33.29 130.053 33.5167 129.303 33.97 128.69C34.43 128.07 35.05 127.603 35.83 127.29C36.61 126.97 37.4833 126.81 38.45 126.81C39.4233 126.823 40.2933 126.997 41.06 127.33C41.8333 127.663 42.4733 128.143 42.98 128.77C43.4933 129.39 43.8467 130.143 44.04 131.03L41.8 131.41C41.7 130.87 41.4867 130.407 41.16 130.02C40.8333 129.627 40.4333 129.327 39.96 129.12C39.4867 128.907 38.9733 128.797 38.42 128.79C37.8867 128.777 37.3967 128.857 36.95 129.03C36.51 129.203 36.1567 129.447 35.89 129.76C35.63 130.073 35.5 130.433 35.5 130.84C35.5 131.24 35.6167 131.563 35.85 131.81C36.0833 132.057 36.37 132.253 36.71 132.4C37.0567 132.54 37.4 132.657 37.74 132.75L40.4 133.5C40.7333 133.593 41.11 133.72 41.53 133.88C41.9567 134.033 42.3667 134.25 42.76 134.53C43.16 134.81 43.49 135.183 43.75 135.65C44.01 136.11 44.14 136.69 44.14 137.39C44.14 138.117 43.9933 138.757 43.7 139.31C43.4067 139.857 43.0033 140.317 42.49 140.69C41.9833 141.057 41.3967 141.333 40.73 141.52C40.0633 141.707 39.36 141.8 38.62 141.8ZM50.9611 141.8C49.8811 141.8 48.9444 141.557 48.1511 141.07C47.3578 140.583 46.7444 139.913 46.3111 139.06C45.8844 138.2 45.6711 137.21 45.6711 136.09C45.6711 134.963 45.8911 133.973 46.3311 133.12C46.7711 132.26 47.3878 131.593 48.1811 131.12C48.9744 130.64 49.9011 130.4 50.9611 130.4C52.0411 130.4 52.9778 130.643 53.7711 131.13C54.5644 131.617 55.1778 132.287 55.6111 133.14C56.0444 133.993 56.2611 134.977 56.2611 136.09C56.2611 137.217 56.0411 138.21 55.6011 139.07C55.1678 139.923 54.5544 140.593 53.7611 141.08C52.9678 141.56 52.0344 141.8 50.9611 141.8ZM50.9611 139.83C51.9944 139.83 52.7644 139.483 53.2711 138.79C53.7844 138.09 54.0411 137.19 54.0411 136.09C54.0411 134.963 53.7811 134.063 53.2611 133.39C52.7478 132.71 51.9811 132.37 50.9611 132.37C50.2611 132.37 49.6844 132.53 49.2311 132.85C48.7778 133.163 48.4411 133.6 48.2211 134.16C48.0011 134.713 47.8911 135.357 47.8911 136.09C47.8911 137.223 48.1511 138.13 48.6711 138.81C49.1911 139.49 49.9544 139.83 50.9611 139.83ZM63.5286 141.8C62.4953 141.8 61.6286 141.55 60.9286 141.05C60.2286 140.543 59.6986 139.86 59.3386 139C58.9786 138.14 58.7986 137.17 58.7986 136.09C58.7986 135.01 58.9753 134.04 59.3286 133.18C59.6886 132.32 60.2153 131.643 60.9086 131.15C61.6086 130.65 62.4686 130.4 63.4886 130.4C64.5019 130.4 65.3753 130.65 66.1086 131.15C66.8486 131.643 67.4186 132.32 67.8186 133.18C68.2186 134.033 68.4186 135.003 68.4186 136.09C68.4186 137.17 68.2186 138.143 67.8186 139.01C67.4253 139.87 66.8619 140.55 66.1286 141.05C65.4019 141.55 64.5353 141.8 63.5286 141.8ZM58.4486 146.3V130.7H60.3086V138.47H60.5486V146.3H58.4486ZM63.2386 139.91C63.9053 139.91 64.4553 139.74 64.8886 139.4C65.3286 139.06 65.6553 138.603 65.8686 138.03C66.0886 137.45 66.1986 136.803 66.1986 136.09C66.1986 135.383 66.0886 134.743 65.8686 134.17C65.6553 133.597 65.3253 133.14 64.8786 132.8C64.4319 132.46 63.8619 132.29 63.1686 132.29C62.5153 132.29 61.9753 132.45 61.5486 132.77C61.1286 133.09 60.8153 133.537 60.6086 134.11C60.4086 134.683 60.3086 135.343 60.3086 136.09C60.3086 136.837 60.4086 137.497 60.6086 138.07C60.8086 138.643 61.1253 139.093 61.5586 139.42C61.9919 139.747 62.5519 139.91 63.2386 139.91ZM75.3166 141.8C74.2366 141.8 73.2999 141.557 72.5066 141.07C71.7132 140.583 71.0999 139.913 70.6666 139.06C70.2399 138.2 70.0266 137.21 70.0266 136.09C70.0266 134.963 70.2466 133.973 70.6866 133.12C71.1266 132.26 71.7432 131.593 72.5366 131.12C73.3299 130.64 74.2566 130.4 75.3166 130.4C76.3966 130.4 77.3332 130.643 78.1266 131.13C78.9199 131.617 79.5332 132.287 79.9666 133.14C80.3999 133.993 80.6166 134.977 80.6166 136.09C80.6166 137.217 80.3966 138.21 79.9566 139.07C79.5232 139.923 78.9099 140.593 78.1166 141.08C77.3232 141.56 76.3899 141.8 75.3166 141.8ZM75.3166 139.83C76.3499 139.83 77.1199 139.483 77.6266 138.79C78.1399 138.09 78.3966 137.19 78.3966 136.09C78.3966 134.963 78.1366 134.063 77.6166 133.39C77.1032 132.71 76.3366 132.37 75.3166 132.37C74.6166 132.37 74.0399 132.53 73.5866 132.85C73.1332 133.163 72.7966 133.6 72.5766 134.16C72.3566 134.713 72.2466 135.357 72.2466 136.09C72.2466 137.223 72.5066 138.13 73.0266 138.81C73.5466 139.49 74.3099 139.83 75.3166 139.83ZM82.8141 141.5V130.7H84.6741V133.32L84.4141 132.98C84.5474 132.633 84.7207 132.317 84.9341 132.03C85.1474 131.737 85.3941 131.497 85.6741 131.31C85.9474 131.11 86.2507 130.957 86.5841 130.85C86.9241 130.737 87.2707 130.67 87.6241 130.65C87.9774 130.623 88.3174 130.64 88.6441 130.7V132.66C88.2907 132.567 87.8974 132.54 87.4641 132.58C87.0374 132.62 86.6441 132.757 86.2841 132.99C85.9441 133.21 85.6741 133.477 85.4741 133.79C85.2807 134.103 85.1407 134.453 85.0541 134.84C84.9674 135.22 84.9241 135.623 84.9241 136.05V141.5H82.8141ZM96.7284 141.5C96.0484 141.633 95.3818 141.69 94.7284 141.67C94.0751 141.65 93.4918 141.523 92.9784 141.29C92.4651 141.057 92.0784 140.69 91.8184 140.19C91.5851 139.743 91.4584 139.29 91.4384 138.83C91.4251 138.363 91.4184 137.837 91.4184 137.25V127.7H93.5184V137.15C93.5184 137.583 93.5218 137.96 93.5284 138.28C93.5418 138.6 93.6118 138.87 93.7384 139.09C93.9784 139.503 94.3584 139.74 94.8784 139.8C95.4051 139.853 96.0218 139.83 96.7284 139.73V141.5ZM89.3484 132.38V130.7H96.7284V132.38H89.3484ZM103.307 141.8C102.234 141.8 101.291 141.567 100.477 141.1C99.6705 140.627 99.0405 139.97 98.5872 139.13C98.1405 138.283 97.9172 137.303 97.9172 136.19C97.9172 135.01 98.1372 133.987 98.5772 133.12C99.0239 132.253 99.6439 131.583 100.437 131.11C101.231 130.637 102.154 130.4 103.207 130.4C104.307 130.4 105.244 130.657 106.017 131.17C106.791 131.677 107.367 132.4 107.747 133.34C108.134 134.28 108.287 135.397 108.207 136.69H106.117V135.93C106.104 134.677 105.864 133.75 105.397 133.15C104.937 132.55 104.234 132.25 103.287 132.25C102.241 132.25 101.454 132.58 100.927 133.24C100.401 133.9 100.137 134.853 100.137 136.1C100.137 137.287 100.401 138.207 100.927 138.86C101.454 139.507 102.214 139.83 103.207 139.83C103.861 139.83 104.424 139.683 104.897 139.39C105.377 139.09 105.751 138.663 106.017 138.11L108.067 138.76C107.647 139.727 107.011 140.477 106.157 141.01C105.304 141.537 104.354 141.8 103.307 141.8ZM99.4572 136.69V135.06H107.167V136.69H99.4572ZM115.915 146.3L118.005 140.61L118.035 142.29L113.325 130.7H115.505L119.025 139.65H118.385L121.745 130.7H123.865L117.905 146.3H115.915ZM129.435 141.5V127.1H131.325L136.545 137.93L141.735 127.1H143.645V141.49H141.665V131.64L137.015 141.5H136.065L131.405 131.64V141.5H129.435ZM149.497 141.8C148.697 141.8 148.027 141.653 147.487 141.36C146.947 141.06 146.537 140.667 146.257 140.18C145.984 139.687 145.847 139.147 145.847 138.56C145.847 138.013 145.944 137.533 146.137 137.12C146.33 136.707 146.617 136.357 146.997 136.07C147.377 135.777 147.844 135.54 148.397 135.36C148.877 135.22 149.42 135.097 150.027 134.99C150.634 134.883 151.27 134.783 151.937 134.69C152.61 134.597 153.277 134.503 153.937 134.41L153.177 134.83C153.19 133.983 153.01 133.357 152.637 132.95C152.27 132.537 151.637 132.33 150.737 132.33C150.17 132.33 149.65 132.463 149.177 132.73C148.704 132.99 148.374 133.423 148.187 134.03L146.237 133.43C146.504 132.503 147.01 131.767 147.757 131.22C148.51 130.673 149.51 130.4 150.757 130.4C151.724 130.4 152.564 130.567 153.277 130.9C153.997 131.227 154.524 131.747 154.857 132.46C155.03 132.813 155.137 133.187 155.177 133.58C155.217 133.973 155.237 134.397 155.237 134.85V141.5H153.387V139.03L153.747 139.35C153.3 140.177 152.73 140.793 152.037 141.2C151.35 141.6 150.504 141.8 149.497 141.8ZM149.867 140.09C150.46 140.09 150.97 139.987 151.397 139.78C151.824 139.567 152.167 139.297 152.427 138.97C152.687 138.643 152.857 138.303 152.937 137.95C153.05 137.63 153.114 137.27 153.127 136.87C153.147 136.47 153.157 136.15 153.157 135.91L153.837 136.16C153.177 136.26 152.577 136.35 152.037 136.43C151.497 136.51 151.007 136.59 150.567 136.67C150.134 136.743 149.747 136.833 149.407 136.94C149.12 137.04 148.864 137.16 148.637 137.3C148.417 137.44 148.24 137.61 148.107 137.81C147.98 138.01 147.917 138.253 147.917 138.54C147.917 138.82 147.987 139.08 148.127 139.32C148.267 139.553 148.48 139.74 148.767 139.88C149.054 140.02 149.42 140.09 149.867 140.09ZM165.414 141.5V136.19C165.414 135.77 165.377 135.34 165.304 134.9C165.237 134.453 165.104 134.04 164.904 133.66C164.71 133.28 164.434 132.973 164.074 132.74C163.72 132.507 163.257 132.39 162.684 132.39C162.31 132.39 161.957 132.453 161.624 132.58C161.29 132.7 160.997 132.897 160.744 133.17C160.497 133.443 160.3 133.803 160.154 134.25C160.014 134.697 159.944 135.24 159.944 135.88L158.644 135.39C158.644 134.41 158.827 133.547 159.194 132.8C159.56 132.047 160.087 131.46 160.774 131.04C161.46 130.62 162.29 130.41 163.264 130.41C164.01 130.41 164.637 130.53 165.144 130.77C165.65 131.01 166.06 131.327 166.374 131.72C166.694 132.107 166.937 132.53 167.104 132.99C167.27 133.45 167.384 133.9 167.444 134.34C167.504 134.78 167.534 135.167 167.534 135.5V141.5H165.414ZM157.824 141.5V130.7H159.694V133.82H159.944V141.5H157.824ZM176.318 141.5C175.638 141.633 174.972 141.69 174.318 141.67C173.665 141.65 173.082 141.523 172.568 141.29C172.055 141.057 171.668 140.69 171.408 140.19C171.175 139.743 171.048 139.29 171.028 138.83C171.015 138.363 171.008 137.837 171.008 137.25V127.7H173.108V137.15C173.108 137.583 173.112 137.96 173.118 138.28C173.132 138.6 173.202 138.87 173.328 139.09C173.568 139.503 173.948 139.74 174.468 139.8C174.995 139.853 175.612 139.83 176.318 139.73V141.5ZM168.938 132.38V130.7H176.318V132.38H168.938ZM182.897 141.8C181.824 141.8 180.88 141.567 180.067 141.1C179.26 140.627 178.63 139.97 178.177 139.13C177.73 138.283 177.507 137.303 177.507 136.19C177.507 135.01 177.727 133.987 178.167 133.12C178.614 132.253 179.234 131.583 180.027 131.11C180.82 130.637 181.744 130.4 182.797 130.4C183.897 130.4 184.834 130.657 185.607 131.17C186.38 131.677 186.957 132.4 187.337 133.34C187.724 134.28 187.877 135.397 187.797 136.69H185.707V135.93C185.694 134.677 185.454 133.75 184.987 133.15C184.527 132.55 183.824 132.25 182.877 132.25C181.83 132.25 181.044 132.58 180.517 133.24C179.99 133.9 179.727 134.853 179.727 136.1C179.727 137.287 179.99 138.207 180.517 138.86C181.044 139.507 181.804 139.83 182.797 139.83C183.45 139.83 184.014 139.683 184.487 139.39C184.967 139.09 185.34 138.663 185.607 138.11L187.657 138.76C187.237 139.727 186.6 140.477 185.747 141.01C184.894 141.537 183.944 141.8 182.897 141.8ZM179.047 136.69V135.06H186.757V136.69H179.047ZM197.328 141.5V136.19C197.328 135.77 197.291 135.34 197.218 134.9C197.151 134.453 197.018 134.04 196.818 133.66C196.624 133.28 196.348 132.973 195.988 132.74C195.634 132.507 195.171 132.39 194.598 132.39C194.224 132.39 193.871 132.453 193.538 132.58C193.204 132.7 192.911 132.897 192.658 133.17C192.411 133.443 192.214 133.803 192.068 134.25C191.928 134.697 191.858 135.24 191.858 135.88L190.558 135.39C190.558 134.41 190.741 133.547 191.108 132.8C191.474 132.047 192.001 131.46 192.688 131.04C193.374 130.62 194.204 130.41 195.178 130.41C195.924 130.41 196.551 130.53 197.058 130.77C197.564 131.01 197.974 131.327 198.288 131.72C198.608 132.107 198.851 132.53 199.018 132.99C199.184 133.45 199.298 133.9 199.358 134.34C199.418 134.78 199.448 135.167 199.448 135.5V141.5H197.328ZM189.738 141.5V130.7H191.608V133.82H191.858V141.5H189.738ZM202.252 128.93V126.9H204.342V128.93H202.252ZM202.252 141.5V130.7H204.342V141.5H202.252ZM220.285 141.5L220.295 134.77C220.295 133.99 220.095 133.383 219.695 132.95C219.295 132.51 218.769 132.29 218.115 132.29C217.715 132.29 217.349 132.383 217.015 132.57C216.689 132.75 216.422 133.023 216.215 133.39C216.015 133.75 215.915 134.203 215.915 134.75L214.905 134.24C214.892 133.48 215.052 132.813 215.385 132.24C215.725 131.667 216.185 131.223 216.765 130.91C217.345 130.59 217.995 130.43 218.715 130.43C219.882 130.43 220.785 130.78 221.425 131.48C222.065 132.18 222.385 133.11 222.385 134.27L222.375 141.5H220.285ZM207.335 141.5V130.7H209.195V133.82H209.435V141.5H207.335ZM213.815 141.5L213.825 134.81C213.825 134.023 213.625 133.407 213.225 132.96C212.832 132.513 212.302 132.29 211.635 132.29C210.975 132.29 210.442 132.517 210.035 132.97C209.635 133.423 209.435 134.017 209.435 134.75L208.435 134.11C208.435 133.403 208.605 132.773 208.945 132.22C209.285 131.667 209.745 131.23 210.325 130.91C210.905 130.59 211.562 130.43 212.295 130.43C213.062 130.43 213.715 130.593 214.255 130.92C214.795 131.24 215.205 131.69 215.485 132.27C215.772 132.85 215.915 133.523 215.915 134.29L215.905 141.5H213.815ZM225.182 128.93V126.9H227.272V128.93H225.182ZM225.182 141.5V130.7H227.272V141.5H225.182ZM235.065 141.8C233.992 141.8 233.048 141.567 232.235 141.1C231.428 140.627 230.798 139.97 230.345 139.13C229.898 138.283 229.675 137.303 229.675 136.19C229.675 135.01 229.895 133.987 230.335 133.12C230.782 132.253 231.402 131.583 232.195 131.11C232.988 130.637 233.912 130.4 234.965 130.4C236.065 130.4 237.002 130.657 237.775 131.17C238.548 131.677 239.125 132.4 239.505 133.34C239.892 134.28 240.045 135.397 239.965 136.69H237.875V135.93C237.862 134.677 237.622 133.75 237.155 133.15C236.695 132.55 235.992 132.25 235.045 132.25C233.998 132.25 233.212 132.58 232.685 133.24C232.158 133.9 231.895 134.853 231.895 136.1C231.895 137.287 232.158 138.207 232.685 138.86C233.212 139.507 233.972 139.83 234.965 139.83C235.618 139.83 236.182 139.683 236.655 139.39C237.135 139.09 237.508 138.663 237.775 138.11L239.825 138.76C239.405 139.727 238.768 140.477 237.915 141.01C237.062 141.537 236.112 141.8 235.065 141.8ZM231.215 136.69V135.06H238.925V136.69H231.215ZM249.496 141.5V136.19C249.496 135.77 249.459 135.34 249.386 134.9C249.319 134.453 249.186 134.04 248.986 133.66C248.792 133.28 248.516 132.973 248.156 132.74C247.802 132.507 247.339 132.39 246.766 132.39C246.392 132.39 246.039 132.453 245.706 132.58C245.372 132.7 245.079 132.897 244.826 133.17C244.579 133.443 244.382 133.803 244.236 134.25C244.096 134.697 244.026 135.24 244.026 135.88L242.726 135.39C242.726 134.41 242.909 133.547 243.276 132.8C243.642 132.047 244.169 131.46 244.856 131.04C245.542 130.62 246.372 130.41 247.346 130.41C248.092 130.41 248.719 130.53 249.226 130.77C249.732 131.01 250.142 131.327 250.456 131.72C250.776 132.107 251.019 132.53 251.186 132.99C251.352 133.45 251.466 133.9 251.526 134.34C251.586 134.78 251.616 135.167 251.616 135.5V141.5H249.496ZM241.906 141.5V130.7H243.776V133.82H244.026V141.5H241.906ZM260.4 141.5C259.72 141.633 259.054 141.69 258.4 141.67C257.747 141.65 257.164 141.523 256.65 141.29C256.137 141.057 255.75 140.69 255.49 140.19C255.257 139.743 255.13 139.29 255.11 138.83C255.097 138.363 255.09 137.837 255.09 137.25V127.7H257.19V137.15C257.19 137.583 257.194 137.96 257.2 138.28C257.214 138.6 257.284 138.87 257.41 139.09C257.65 139.503 258.03 139.74 258.55 139.8C259.077 139.853 259.694 139.83 260.4 139.73V141.5ZM253.02 132.38V130.7H260.4V132.38H253.02ZM266.879 141.8C265.799 141.8 264.862 141.557 264.069 141.07C263.276 140.583 262.662 139.913 262.229 139.06C261.802 138.2 261.589 137.21 261.589 136.09C261.589 134.963 261.809 133.973 262.249 133.12C262.689 132.26 263.306 131.593 264.099 131.12C264.892 130.64 265.819 130.4 266.879 130.4C267.959 130.4 268.896 130.643 269.689 131.13C270.482 131.617 271.096 132.287 271.529 133.14C271.962 133.993 272.179 134.977 272.179 136.09C272.179 137.217 271.959 138.21 271.519 139.07C271.086 139.923 270.472 140.593 269.679 141.08C268.886 141.56 267.952 141.8 266.879 141.8ZM266.879 139.83C267.912 139.83 268.682 139.483 269.189 138.79C269.702 138.09 269.959 137.19 269.959 136.09C269.959 134.963 269.699 134.063 269.179 133.39C268.666 132.71 267.899 132.37 266.879 132.37C266.179 132.37 265.602 132.53 265.149 132.85C264.696 133.163 264.359 133.6 264.139 134.16C263.919 134.713 263.809 135.357 263.809 136.09C263.809 137.223 264.069 138.13 264.589 138.81C265.109 139.49 265.872 139.83 266.879 139.83Z" fill="white"/>
<rect x="1" y="1" width="298" height="202" rx="15" stroke="#7C7B84" stroke-width="2"/>
</svg>
