<svg width="901" height="32" viewBox="0 0 901 32" fill="none" xmlns="http://www.w3.org/2000/svg">
<mask id="mask0_84_985" style="mask-type:luminance" maskUnits="userSpaceOnUse" x="4" y="4" width="25" height="24">
<path d="M4.5 4H28.5V28H4.5V4Z" fill="white"/>
</mask>
<g mask="url(#mask0_84_985)">
<path d="M9.58002 4H10.662V5.069H11.652V4H12.734V7.236H11.652V6.153H10.662V7.236H9.58102L9.58002 4ZM14.156 5.073H13.204V4H16.191V5.073H15.238V7.236H14.156V5.073ZM16.665 4H17.793L18.487 5.137L19.18 4H20.308V7.236H19.231V5.632L18.487 6.783H18.468L17.723 5.633V7.236H16.665V4ZM20.846 4H21.929V6.167H23.449V7.237H20.846V4Z" fill="#E2E2E2"/>
<path fill-rule="evenodd" clip-rule="evenodd" d="M9.546 24.9173L7.5 8.71704H25.5L23.453 24.9155L16.49 26.717L9.546 24.9173ZM13.683 16.0494L13.489 14.0145H21.634L21.824 12.028H11.164L11.738 18.0368H19.115L18.868 20.6131L16.494 21.2124H16.492L14.122 20.615L13.97 19.0309H11.832L12.13 22.1505L16.49 23.28L20.857 22.1505L21.389 16.5833L21.441 16.0503H13.683V16.0494Z" fill="#E2E2E2"/>
</g>
<path d="M62 4H64.578V5.11129H63.078V6.22258H64.578V7.33388H62V4ZM65.093 4H67.672V4.96697H66.172V5.15974H67.672V7.38233H65.093V6.36794H66.593V6.17413H65.093V4ZM68.188 4H70.765V4.96697H69.265V5.15974H70.765V7.38233H68.188V6.36794H69.688V6.17413H68.188V4Z" fill="#E2E2E2"/>
<path fill-rule="evenodd" clip-rule="evenodd" d="M66.991 28L60.047 26.1447L58 9.44409H76L73.954 26.1428L66.991 28ZM62.047 17.0039L62.238 19.0516H69.615L69.368 21.7076L66.994 22.3253H66.992L64.622 21.7095L64.47 20.0765H62.333L62.631 23.2925L66.991 24.4568L71.358 23.2925L71.89 17.5533L71.942 17.0039L72.326 12.8573H61.664L61.858 14.9061H69.994L69.8 17.0039H62.047Z" fill="#E2E2E2"/>
<path d="M118.779 21.4067L117.635 22.9907C118.72 23.9587 120.069 24.4427 121.683 24.4427C122.915 24.4133 123.853 24.096 124.499 23.4893C125.155 22.8733 125.481 22.14 125.481 21.2893C125.481 20.4587 125.252 19.7733 124.792 19.236C124.333 18.6987 123.56 18.268 122.475 17.9453C121.576 17.672 120.941 17.4227 120.568 17.1973C120.197 16.9627 120.011 16.6787 120.011 16.3467C120.011 16.044 120.163 15.8 120.465 15.6133C120.769 15.4267 121.175 15.3347 121.683 15.3347C122.056 15.3347 122.475 15.408 122.944 15.5547C123.413 15.6813 123.829 15.888 124.191 16.1707L125.217 14.572C124.319 13.848 123.125 13.4867 121.639 13.4867C120.573 13.4867 119.699 13.76 119.013 14.308C118.309 14.8547 117.957 15.5347 117.957 16.3467C117.968 17.2067 118.251 17.8773 118.808 18.356C119.376 18.836 120.181 19.2267 121.228 19.5293C122.099 19.8027 122.691 20.076 123.003 20.3507C123.147 20.4735 123.262 20.6265 123.341 20.7988C123.419 20.9712 123.459 21.1586 123.457 21.348C123.465 21.5214 123.427 21.6937 123.347 21.848C123.268 22.0023 123.149 22.1333 123.004 22.228C122.691 22.4427 122.24 22.5507 121.653 22.5507C120.696 22.56 119.737 22.1787 118.779 21.4067ZM111.405 22.2573C111.083 22.0545 110.804 21.7904 110.584 21.48L109.205 22.6093C109.616 23.3027 110.125 23.788 110.731 24.0613C111.297 24.3147 111.948 24.4427 112.681 24.4427C113.081 24.4427 113.497 24.3787 113.928 24.252C114.365 24.1217 114.769 23.9019 115.116 23.6067C115.752 23.0987 116.084 22.2667 116.113 21.1133V13.6627H114.133V20.732C114.133 21.4067 113.981 21.8813 113.68 22.1547C113.376 22.4187 112.995 22.5507 112.535 22.5507C112.095 22.5507 111.719 22.4533 111.405 22.2573ZM105 8C105 6.93913 105.421 5.92172 106.172 5.17157C106.922 4.42143 107.939 4 109 4H125C126.061 4 127.078 4.42143 127.828 5.17157C128.579 5.92172 129 6.93913 129 8V24C129 25.0609 128.579 26.0783 127.828 26.8284C127.078 27.5786 126.061 28 125 28H109C107.939 28 106.922 27.5786 106.172 26.8284C105.421 26.0783 105 25.0609 105 24V8ZM109 6.66667C108.646 6.66667 108.307 6.80714 108.057 7.05719C107.807 7.30724 107.667 7.64638 107.667 8V24C107.667 24.3536 107.807 24.6928 108.057 24.9428C108.307 25.1929 108.646 25.3333 109 25.3333H125C125.354 25.3333 125.693 25.1929 125.943 24.9428C126.193 24.6928 126.333 24.3536 126.333 24V8C126.333 7.64638 126.193 7.30724 125.943 7.05719C125.693 6.80714 125.354 6.66667 125 6.66667H109Z" fill="#E2E2E2"/>
<path d="M178.703 9.99887C178.528 9.71614 178.271 9.47998 177.959 9.31474L168.041 4.22577C167.719 4.07744 167.362 4 167 4C166.638 4 166.281 4.07744 165.959 4.22577L156.041 9.31474C155.737 9.48811 155.484 9.72338 155.303 10.001C155.122 10.2787 155.018 10.5906 155 10.911V21.089C155.01 21.4106 155.112 21.7246 155.297 22.0011C155.472 22.2839 155.729 22.52 156.041 22.6853L165.959 27.7742C166.281 27.9226 166.638 28 167 28C167.362 28 167.719 27.9226 168.041 27.7742L177.959 22.6853C178.271 22.52 178.528 22.2839 178.703 22.0011C178.888 21.7246 178.99 21.4106 179 21.089V10.911C178.99 10.5894 178.888 10.2754 178.703 9.99887ZM167 23.1053C165.6 23.0998 164.226 22.768 163.015 22.143C161.805 21.5181 160.8 20.622 160.102 19.5442C159.404 18.4663 159.036 17.2446 159.036 16.0011C159.036 14.7575 159.403 13.5357 160.101 12.4577C160.799 11.3798 161.803 10.4834 163.013 9.85813C164.224 9.23289 165.598 8.90072 166.998 8.89481C168.398 8.88889 169.775 9.20944 170.992 9.82443C172.209 10.4394 173.223 11.3273 173.932 12.3993L172.405 13.2515L171.919 13.4915L170.568 14.2237C170.136 13.5131 169.448 12.9519 168.615 12.6302C167.781 12.3085 166.85 12.245 165.97 12.45C165.091 12.6549 164.315 13.1163 163.766 13.7601C163.218 14.4039 162.929 15.1928 162.946 16C162.942 16.6246 163.129 17.2385 163.486 17.7763C163.848 18.3054 164.357 18.7429 164.964 19.0465C165.571 19.3501 166.256 19.5096 166.953 19.5096C167.649 19.5096 168.334 19.3501 168.942 19.0465C169.549 18.7429 170.058 18.3054 170.419 17.7763L173.932 19.6007C173.221 20.6708 172.207 21.5572 170.991 22.172C169.775 22.7867 168.399 23.1085 167 23.1053ZM175 16.3961H174.108V17.2002H173.23V16.4081H172.405V15.6159H173.297V14.7998H174.176V15.5919H175.068L175 16.3961ZM178.338 16.3961H177.446V17.2002H176.554V16.4081H175.676V15.6159H176.554V14.7998H177.446V15.5919H178.338V16.3961Z" fill="#E2E2E2"/>
<path d="M228.545 14.9305L218.066 4.4528C217.922 4.30925 217.752 4.19537 217.564 4.11768C217.377 4.03999 217.176 4 216.973 4C216.77 4 216.569 4.03999 216.382 4.11768C216.194 4.19537 216.024 4.30925 215.88 4.4528L213.705 6.62784L216.465 9.38788C216.791 9.27675 217.141 9.25936 217.476 9.33771C217.811 9.41606 218.117 9.58698 218.359 9.83098C218.602 10.075 218.771 10.3822 218.847 10.7176C218.923 11.0531 218.904 11.4031 218.79 11.7279L221.45 14.389C221.843 14.2504 222.272 14.25 222.666 14.3878C223.06 14.5256 223.395 14.7933 223.616 15.1469C223.837 15.5006 223.932 15.919 223.883 16.3334C223.835 16.7477 223.647 17.1333 223.35 17.4265C223.05 17.7287 222.654 17.9172 222.23 17.9599C221.806 18.0026 221.381 17.8968 221.026 17.6605C220.672 17.4243 220.41 17.0723 220.286 16.6646C220.163 16.257 220.184 15.819 220.347 15.4255L217.868 12.9444V19.4741C218.245 19.6606 218.546 19.9707 218.722 20.3527C218.898 20.7346 218.938 21.1653 218.835 21.5731C218.732 21.9808 218.492 22.3408 218.156 22.5932C217.819 22.8456 217.407 22.9751 216.986 22.9601C216.566 22.9451 216.164 22.7865 215.846 22.5107C215.529 22.235 215.315 21.8587 215.241 21.4447C215.168 21.0307 215.238 20.6039 215.441 20.2355C215.644 19.8671 215.967 19.5793 216.356 19.4201V12.8304C216.131 12.7384 215.927 12.6029 215.755 12.4316C215.583 12.2603 215.447 12.0567 215.354 11.8325C215.261 11.6082 215.214 11.3678 215.214 11.1252C215.215 10.8825 215.263 10.6423 215.357 10.4184L212.637 7.69735L205.452 14.8825C205.163 15.1724 205 15.5655 205 15.9753C205 16.385 205.163 16.7781 205.452 17.068L215.931 27.5472C216.075 27.6908 216.245 27.8046 216.433 27.8823C216.62 27.96 216.821 28 217.024 28C217.227 28 217.428 27.96 217.615 27.8823C217.803 27.8046 217.973 27.6908 218.117 27.5472L228.546 17.1175C228.69 16.974 228.804 16.8036 228.882 16.6159C228.96 16.4283 229 16.2271 229 16.024C229 15.8209 228.96 15.6197 228.882 15.4321C228.804 15.2444 228.69 15.074 228.546 14.9305" fill="#E2E2E2"/>
<path d="M267 13.695C265.82 13.695 264.859 14.7298 264.859 16.0005C264.859 17.2713 265.82 18.3061 267 18.3061C268.18 18.3061 269.141 17.2713 269.141 16.0005C269.141 14.7298 268.18 13.695 267 13.695ZM261.008 20.5826L260.535 20.4565C257.019 19.4968 255 17.8731 255 15.9965C255 14.1199 257.02 12.4962 260.535 11.5365L261.008 11.4105L261.14 11.9154C261.497 13.2378 261.953 14.5268 262.504 15.7695L262.605 15.9965L262.504 16.2275C261.952 17.4698 261.496 18.7588 261.14 20.0817L261.008 20.5826ZM260.317 12.7143C257.645 13.5221 256.004 14.763 256.004 15.9965C256.004 17.2301 257.645 18.466 260.317 19.2787C260.644 18.158 261.04 17.0615 261.5 15.9965C261.039 14.9318 260.644 13.8353 260.317 12.7143ZM272.993 20.5826L272.86 20.0777C272.504 18.7563 272.048 17.4686 271.496 16.2275L271.395 15.9965L271.496 15.7655C272.048 14.5233 272.504 13.2342 272.86 11.9113L272.993 11.4105L273.465 11.5365C276.981 12.4962 279 14.1199 279 15.9965C279 17.8731 276.98 19.4968 273.465 20.4565L272.993 20.5826ZM272.5 15.9965C272.962 17.0608 273.357 18.1574 273.683 19.2787C276.359 18.4669 277.996 17.2301 277.996 15.9965C277.996 14.763 276.355 13.527 273.683 12.7143C273.355 13.8348 272.96 14.9311 272.5 15.9965ZM260.309 12.7103L260.176 12.2054C259.187 8.45219 259.488 5.7597 261 4.821C262.484 3.89927 264.863 4.98903 267.359 7.74938L267.699 8.12421L267.359 8.49905C266.473 9.49237 265.663 10.5617 264.938 11.6964L264.801 11.9024L264.566 11.9234C263.29 12.0319 262.024 12.2516 260.781 12.5802L260.309 12.7103ZM262.207 5.57067C261.937 5.57067 261.699 5.62964 261.5 5.75566C260.507 6.37446 260.332 8.52005 261.015 11.4145C262.081 11.1576 263.162 10.9763 264.25 10.8716C264.876 9.91064 265.561 8.99551 266.3 8.13229C264.742 6.49563 263.265 5.57067 262.207 5.57067ZM271.797 27.4992C271.793 27.4992 271.793 27.4992 271.797 27.4992C270.371 27.4992 268.539 26.3464 266.641 24.2428L266.301 23.868L266.641 23.4932C267.527 22.4998 268.337 21.4305 269.062 20.2958L269.195 20.0898L269.43 20.0647C270.708 19.9599 271.975 19.7402 273.219 19.408L273.692 19.282L273.824 19.7868C274.813 23.54 274.512 26.2285 273 27.1664C272.634 27.3927 272.219 27.5083 271.797 27.4992ZM267.699 23.8599C269.257 25.4966 270.734 26.4224 271.792 26.4224H271.796C272.062 26.4224 272.3 26.3593 272.5 26.2374C273.492 25.6186 273.672 23.473 272.984 20.5785C271.918 20.8356 270.838 21.0157 269.75 21.1173C269.123 22.0796 268.438 22.9953 267.699 23.8599ZM273.692 12.7103L273.219 12.5802C271.974 12.2527 270.707 12.033 269.43 11.9234L269.195 11.9024L269.062 11.6964C268.337 10.5617 267.527 9.49237 266.641 8.49905L266.301 8.12421L266.641 7.74938C269.137 4.98903 271.516 3.89927 273 4.821C274.512 5.75889 274.813 8.45219 273.824 12.2054L273.692 12.7103ZM269.75 10.8716C270.838 10.976 271.919 11.1574 272.985 11.4145C273.673 8.52005 273.493 6.37365 272.5 5.75566C271.512 5.14171 269.653 6.08364 267.7 8.1331C268.437 8.99817 269.122 9.91315 269.75 10.8725V10.8716ZM262.207 27.4992C261.784 27.5073 261.367 27.3942 261 27.1672C259.488 26.2293 259.187 23.54 260.176 19.7877L260.309 19.2828L260.781 19.4088C261.938 19.7246 263.211 19.9428 264.566 20.0655L264.801 20.0906L264.934 20.2966C265.659 21.4313 266.469 22.5006 267.356 23.494L267.695 23.8688L267.356 24.2436C265.461 26.3472 263.629 27.5 262.207 27.5V27.4992ZM261.016 20.5785C260.328 23.473 260.508 25.6194 261.5 26.2374C262.489 26.8432 264.344 25.9094 266.301 23.8599C265.562 22.9953 264.877 22.0788 264.25 21.1165C263.162 21.0152 262.082 20.8359 261.016 20.5785ZM267 21.2555C266.176 21.2555 265.332 21.2175 264.484 21.1416L264.25 21.1206L264.113 20.9105C263.635 20.1697 263.185 19.4075 262.766 18.626C262.345 17.8445 261.956 17.0443 261.598 16.2275L261.497 15.9965L261.598 15.7655C262.315 14.1323 263.156 12.566 264.113 11.0825L264.25 10.8725L264.484 10.8514C266.159 10.6996 267.841 10.6996 269.516 10.8514L269.75 10.8725L269.887 11.0825C270.845 12.5652 271.687 14.1316 272.402 15.7655L272.503 15.9965L272.402 16.2275C271.688 17.8622 270.846 19.4288 269.887 20.9105L269.75 21.1206L269.516 21.1416C268.679 21.217 267.84 21.255 267 21.2555ZM264.805 20.0857C266.282 20.2077 267.718 20.2077 269.199 20.0857C270.025 18.7834 270.758 17.4163 271.394 15.9957C270.761 14.5728 270.026 13.2053 269.195 11.9057C267.734 11.7837 266.266 11.7837 264.805 11.9057C263.973 13.2049 263.238 14.5724 262.606 15.9957C263.242 17.417 263.977 18.7842 264.805 20.0857Z" fill="#E2E2E2"/>
<path d="M325.5 8C325.5 10.2091 323.622 12 321.304 12H317V4H321.304C323.622 4 325.5 5.79086 325.5 8Z" stroke="#E2E2E2" stroke-width="2"/>
<path d="M308.5 8C308.5 10.2091 310.378 12 312.696 12H317V4H312.696C310.378 4 308.5 5.79086 308.5 8Z" stroke="#E2E2E2" stroke-width="2"/>
<path d="M308.5 16.0002C308.5 18.2094 310.378 20.0002 312.696 20.0002H317V12.0002H312.696C310.378 12.0002 308.5 13.7911 308.5 16.0002Z" stroke="#E2E2E2" stroke-width="2"/>
<path d="M308.5 23.9998C308.5 26.2089 310.405 27.9998 312.723 27.9998C315.07 27.9998 317 26.1856 317 23.9478V19.9998H312.696C310.378 19.9998 308.5 21.7906 308.5 23.9998Z" stroke="#E2E2E2" stroke-width="2"/>
<path d="M317 16.0002C317 18.2094 318.878 20.0002 321.196 20.0002H321.304C323.622 20.0002 325.5 18.2094 325.5 16.0002C325.5 13.7911 323.622 12.0002 321.304 12.0002H321.196C318.878 12.0002 317 13.7911 317 16.0002Z" stroke="#E2E2E2" stroke-width="2"/>
<path d="M359.985 7C358.615 7 357.603 8.12877 357.649 9.35193C357.691 10.5279 357.635 12.0503 357.227 13.2926C356.819 14.5378 356.129 15.3272 355 15.4286V16.5714C356.129 16.6728 356.819 17.4622 357.227 18.7074C357.635 19.9487 357.691 21.4721 357.647 22.6471C357.603 23.8712 358.615 25 359.986 25H374.017C375.386 25 376.399 23.8712 376.355 22.6471C376.311 21.4721 376.367 19.9487 376.774 18.7074C377.183 17.4622 377.873 16.6728 379 16.5714V15.4286C377.871 15.3272 377.183 14.5378 376.774 13.2926C376.367 12.0513 376.311 10.5279 376.355 9.35193C376.399 8.12877 375.386 7 374.017 7H359.985ZM371.271 18.0798C371.271 19.7649 369.937 20.7872 367.721 20.7872H363.949C363.896 20.7873 363.843 20.7775 363.793 20.7584C363.744 20.7392 363.699 20.711 363.661 20.6755C363.623 20.64 363.593 20.5977 363.573 20.5513C363.552 20.5048 363.542 20.4549 363.542 20.4046V11.5954C363.542 11.5451 363.552 11.4952 363.573 11.4487C363.593 11.4023 363.623 11.36 363.661 11.3245C363.699 11.289 363.744 11.2608 363.793 11.2416C363.843 11.2225 363.896 11.2127 363.949 11.2128H367.699C369.546 11.2128 370.759 12.1548 370.759 13.6019C370.759 14.6162 369.943 15.526 368.904 15.6847V15.7379C370.318 15.8835 371.271 16.8064 371.271 18.0798ZM367.309 12.4259H365.159V15.286H366.97C368.371 15.286 369.142 14.7557 369.142 13.8067C369.142 12.918 368.478 12.4269 367.309 12.4269V12.4259ZM365.159 16.4208V19.5731H367.388C368.846 19.5731 369.618 19.0218 369.618 17.9864C369.618 16.952 368.825 16.4208 367.294 16.4208H365.159Z" fill="#E2E2E2"/>
<path d="M417 4C423.627 4 429 9.373 429 16C429 22.627 423.627 28 417 28C410.373 28 405 22.627 405 16C405 9.373 410.373 4 417 4ZM414.615 19.998C414.79 20.643 414.771 21.246 414.591 21.79L414.526 21.97C414.502 22.031 414.474 22.09 414.448 22.146C414.308 22.436 414.122 22.706 413.893 22.956C413.195 23.715 412.221 24.003 411.803 23.761C411.353 23.499 411.577 22.426 412.387 21.571C413.258 20.653 414.507 20.062 414.507 20.062V20.059L414.615 19.998ZM424.526 9.137C423.984 7.004 420.449 6.303 417.104 7.492C415.115 8.199 412.96 9.31 411.411 10.759C409.568 12.48 409.275 13.98 409.396 14.607C409.823 16.818 412.853 18.264 414.099 19.337V19.343C413.732 19.523 411.043 20.872 410.413 22.268C409.738 23.738 410.518 24.789 411.028 24.923C412.603 25.359 414.223 24.563 415.093 23.274C415.933 22.013 415.859 20.393 415.497 19.598C415.993 19.463 416.577 19.403 417.327 19.494C419.428 19.734 419.848 21.054 419.757 21.594C419.667 22.133 419.234 22.448 419.083 22.538C418.933 22.629 418.888 22.658 418.902 22.719C418.917 22.809 418.993 22.809 419.112 22.794C419.277 22.764 420.208 22.344 420.253 21.323C420.298 20.033 419.067 18.594 416.878 18.623C415.978 18.639 415.407 18.714 415.003 18.879C414.976 18.8371 414.94 18.8014 414.898 18.774C413.548 17.319 411.043 16.299 411.148 14.364C411.178 13.659 411.433 11.8 415.948 9.55C419.653 7.704 422.609 8.215 423.119 9.34C423.852 10.944 421.543 13.93 417.688 14.364C416.218 14.529 415.453 13.96 415.257 13.749C415.048 13.524 415.018 13.509 414.943 13.555C414.823 13.615 414.898 13.81 414.943 13.93C415.063 14.23 415.528 14.755 416.339 15.025C417.043 15.25 418.769 15.384 420.839 14.575C423.163 13.676 424.978 11.17 424.453 9.07L424.526 9.137Z" fill="#E2E2E2"/>
<path d="M467 4C463.796 4 461.804 6.66 461 12C462.2 9.34 463.604 8.34 465.2 9C466.112 9.38 466.772 10.48 467.492 11.7C468.668 13.7 470 16 473 16C476.204 16 478.196 13.34 479 8C477.8 10.66 476.396 11.66 474.8 11C473.888 10.62 473.24 9.52 472.508 8.3C471.332 6.3 470 4 467 4ZM461 16C457.796 16 455.804 18.66 455 24C456.2 21.34 457.604 20.34 459.2 21C460.112 21.38 460.76 22.48 461.492 23.7C462.668 25.7 464 28 467 28C470.204 28 472.196 25.34 473 20C471.8 22.66 470.396 23.66 468.8 23C467.888 22.62 467.24 21.52 466.508 20.3C465.332 18.3 464 16 461 16Z" fill="#E2E2E2"/>
<path d="M524.543 20.0229C524.636 19.9612 524.713 19.8723 524.767 19.7652C524.821 19.6579 524.849 19.5361 524.849 19.4121L524.86 15.3207C524.861 15.1967 524.889 15.0749 524.943 14.9676C524.997 14.8603 525.074 14.7715 525.167 14.7099L527.083 13.4341C527.176 13.3726 527.282 13.3404 527.389 13.3408C527.496 13.3411 527.601 13.374 527.694 13.4362C527.787 13.498 527.864 13.5869 527.917 13.6939C527.971 13.8013 527.999 13.9231 527.999 14.0471V21.4854C527.999 21.6097 527.971 21.7319 527.917 21.8395C527.863 21.9471 527.785 22.0364 527.692 22.0983L520.457 26.9066C520.364 26.9678 520.26 27 520.153 27C520.047 27 519.942 26.9678 519.85 26.9066L514.172 23.1503C514.079 23.0886 514.001 22.9993 513.947 22.8916C513.892 22.7836 513.864 22.6611 513.864 22.5363V18.7853C513.864 18.7811 513.868 18.779 513.871 18.7811C513.875 18.7832 513.879 18.7811 513.879 18.7758V18.7716C513.879 18.7684 513.881 18.7663 513.882 18.7641L518.559 15.6569C518.563 15.6537 518.561 15.6463 518.557 15.6463C518.556 15.6463 518.555 15.6461 518.554 15.6457C518.554 15.6454 518.553 15.6448 518.553 15.6442C518.552 15.6436 518.552 15.6429 518.552 15.6422C518.552 15.6414 518.552 15.6407 518.552 15.6399L518.561 11.9632C518.562 11.8387 518.534 11.7162 518.48 11.6082C518.426 11.5002 518.349 11.4105 518.256 11.3481C518.163 11.286 518.057 11.2533 517.95 11.2533C517.843 11.2533 517.737 11.286 517.644 11.3481L514.169 13.6663C514.077 13.728 513.972 13.7605 513.865 13.7605C513.758 13.7605 513.652 13.728 513.56 13.6663L510.073 11.3439C509.98 11.2822 509.875 11.2498 509.768 11.25C509.66 11.2502 509.555 11.2829 509.463 11.3448C509.37 11.4068 509.293 11.4958 509.239 11.6031C509.186 11.7103 509.157 11.8319 509.157 11.9558V18.6019C509.157 18.7258 509.129 18.8475 509.076 18.9549C509.022 19.0623 508.945 19.1516 508.853 19.2138C508.76 19.2759 508.655 19.3088 508.548 19.3092C508.441 19.3096 508.336 19.2774 508.243 19.2159L506.308 17.9359C506.214 17.8741 506.137 17.7849 506.083 17.6771C506.028 17.5689 506 17.4459 506 17.3208L506.017 5.70523C506.018 5.58151 506.046 5.46006 506.1 5.35299C506.153 5.24592 506.23 5.15699 506.323 5.09506C506.415 5.03314 506.52 5.00039 506.627 5.00008C506.734 4.99978 506.839 5.03193 506.932 5.09333L513.56 9.49755C513.652 9.55924 513.758 9.59171 513.865 9.59171C513.972 9.59171 514.077 9.55924 514.169 9.49755L520.795 5.09333C520.888 5.03179 520.993 4.99961 521.1 5C521.207 5.00025 521.313 5.03317 521.405 5.09545C521.498 5.15751 521.576 5.24675 521.629 5.35421C521.682 5.46172 521.71 5.5835 521.71 5.70735V17.3261C521.71 17.4502 521.682 17.5721 521.628 17.6803C521.574 17.7879 521.497 17.8772 521.404 17.9391L517.934 20.2509C517.841 20.3132 517.763 20.4028 517.71 20.5108C517.656 20.6185 517.628 20.7407 517.628 20.865C517.628 20.9894 517.656 21.1116 517.71 21.2192C517.765 21.3271 517.843 21.4164 517.937 21.4779L519.851 22.7389C519.943 22.7993 520.047 22.8311 520.153 22.8311C520.26 22.831 520.365 22.7984 520.458 22.7367L524.543 20.0219V20.0229ZM524.945 9.60042C524.945 9.72519 524.973 9.84777 525.027 9.95568C525.082 10.0637 525.16 10.153 525.255 10.2144C525.349 10.2758 525.455 10.3074 525.563 10.3059C525.671 10.3044 525.776 10.2699 525.869 10.206L527.703 8.93337C527.793 8.87062 527.868 8.78184 527.92 8.67567C527.972 8.5693 528 8.44909 528 8.32677V5.73492C528 5.61006 527.971 5.48749 527.917 5.37966C527.862 5.27182 527.784 5.18263 527.69 5.12116C527.596 5.05969 527.489 5.02813 527.381 5.0297C527.273 5.0311 527.168 5.06549 527.075 5.12938L525.242 6.40197C525.151 6.46458 525.076 6.55338 525.024 6.65967C524.972 6.76616 524.945 6.88636 524.945 7.00858V9.60042Z" fill="#E2E2E2"/>
<path d="M571.49 8C571.429 8 571.37 8.0257 571.326 8.07144C571.283 8.11718 571.258 8.17922 571.258 8.24391V12.7132L570.293 12.1222C570.234 12.0852 570.166 12.0657 570.097 12.0657C570.028 12.0657 569.96 12.0852 569.9 12.1222L567.582 13.5417C567.523 13.5777 567.474 13.6293 567.439 13.6916C567.405 13.7538 567.387 13.8244 567.387 13.8962V16.7386C567.387 16.885 567.461 17.02 567.582 17.0931L569.9 18.5127C569.96 18.5497 570.028 18.5692 570.097 18.5692C570.166 18.5692 570.234 18.5497 570.293 18.5127L572.611 17.0931C572.671 17.0572 572.72 17.0055 572.754 16.9433C572.788 16.8811 572.806 16.8105 572.806 16.7386V9.00005C572.806 8.92914 572.788 8.85952 572.755 8.79806C572.721 8.7366 572.673 8.68543 572.614 8.64963L571.606 8.03333C571.571 8.01179 571.531 8.00029 571.491 8H571.49ZM563.903 12.0669C563.834 12.0668 563.766 12.0858 563.707 12.1222L561.389 13.5417C561.329 13.5777 561.28 13.6293 561.246 13.6916C561.212 13.7538 561.194 13.8244 561.194 13.8962V16.7386C561.194 16.885 561.268 17.02 561.389 17.0931L563.707 18.5127C563.828 18.5859 563.978 18.5859 564.1 18.5127L566.418 17.0931C566.477 17.0572 566.526 17.0055 566.561 16.9433C566.595 16.8811 566.613 16.8105 566.613 16.7386V13.8962C566.613 13.8243 566.595 13.7537 566.561 13.6914C566.526 13.6292 566.477 13.5775 566.418 13.5417L564.1 12.1222C564.04 12.0858 563.972 12.0668 563.903 12.0669ZM576.29 12.0669C576.221 12.0665 576.153 12.0856 576.094 12.1222L573.776 13.5417C573.716 13.5777 573.667 13.6293 573.633 13.6916C573.599 13.7538 573.581 13.8244 573.581 13.8962V16.7386C573.581 16.885 573.655 17.02 573.776 17.0931L576.024 18.52C576.083 18.5579 576.151 18.5782 576.221 18.5788C576.29 18.5793 576.359 18.5602 576.419 18.5233L577.524 17.8485C577.55 17.8324 577.572 17.8094 577.587 17.7819C577.602 17.7544 577.61 17.7232 577.61 17.6915C577.61 17.6598 577.602 17.6287 577.587 17.6012C577.572 17.5736 577.55 17.5507 577.524 17.5346L575.129 16.0524V14.5938L576.29 13.884L577.452 14.5938V15.6101C577.452 15.7459 577.56 15.7671 577.633 15.7215C578.024 15.4815 578.416 15.2422 578.808 15.0036C578.866 14.9679 578.915 14.9167 578.948 14.8552C578.982 14.7938 579 14.7241 579 14.6532V13.897C579 13.8251 578.982 13.7545 578.948 13.6922C578.914 13.63 578.864 13.5784 578.805 13.5426L576.487 12.123C576.427 12.0865 576.359 12.0674 576.29 12.0677V12.0669ZM557.71 12.0685C557.641 12.0681 557.573 12.0872 557.513 12.1238L555.195 13.5417C555.136 13.578 555.087 13.63 555.052 13.6925C555.018 13.7549 555 13.8258 555 13.8979V17.5265C555 17.7037 555.183 17.8135 555.328 17.7249L556.356 17.0964C556.415 17.0605 556.463 17.0092 556.497 16.9476C556.531 16.886 556.548 16.8162 556.548 16.7451V14.5963L557.71 13.8848L558.871 14.5963V16.7451C558.871 16.8161 558.889 16.8857 558.923 16.9472C558.956 17.0087 559.005 17.0598 559.063 17.0956L560.091 17.7249C560.124 17.7452 560.162 17.7559 560.2 17.7561C560.239 17.7562 560.277 17.7456 560.31 17.7255C560.343 17.7054 560.371 17.6764 560.39 17.6414C560.409 17.6065 560.419 17.5668 560.419 17.5265V13.8979C560.419 13.8258 560.401 13.7549 560.367 13.6925C560.333 13.63 560.284 13.578 560.224 13.5417L557.906 12.1238C557.847 12.0872 557.779 12.0681 557.71 12.0685ZM570.097 13.8832L571.258 14.5946V16.0402L570.097 16.7517L568.935 16.0402V14.5938L570.097 13.8824V13.8832ZM576.29 14.5076L575.627 14.9142V15.7256L576.29 16.1305L576.954 15.7256V14.9142L576.29 14.5076ZM566.927 17.755C566.847 17.7545 566.768 17.7758 566.697 17.8167L564.52 19.1388C564.45 19.1805 564.392 19.241 564.352 19.3142C564.311 19.3873 564.29 19.4705 564.29 19.555V22.1942C564.29 22.3641 564.381 22.5243 564.52 22.6105L565.093 22.9536C565.368 23.0959 565.469 23.0959 565.594 23.0959C566.004 23.0959 566.238 22.8381 566.238 22.3828V19.7754C566.238 19.7665 566.237 19.7576 566.234 19.7494C566.231 19.7411 566.226 19.7335 566.22 19.7272C566.214 19.7208 566.207 19.7158 566.199 19.7123C566.192 19.7089 566.183 19.7071 566.175 19.7071H565.899C565.882 19.7071 565.865 19.7143 565.853 19.7271C565.841 19.7399 565.834 19.7573 565.834 19.7754V22.3828C565.834 22.5804 565.635 22.7837 565.311 22.6137L564.715 22.2527C564.705 22.2463 564.697 22.2374 564.691 22.2269C564.685 22.2164 564.682 22.2046 564.682 22.1926V19.5534C564.682 19.5298 564.693 19.5022 564.715 19.49L566.892 18.172C566.903 18.166 566.915 18.1628 566.926 18.1628C566.938 18.1628 566.95 18.166 566.961 18.172L569.14 19.4892C569.162 19.5022 569.173 19.5258 569.173 19.5534V22.1926C569.173 22.2052 569.17 22.2177 569.164 22.2287C569.158 22.2398 569.15 22.2492 569.14 22.256L566.961 23.5788C566.95 23.5849 566.938 23.588 566.926 23.588C566.915 23.588 566.903 23.5849 566.892 23.5788L566.337 23.2308C566.321 23.2227 566.298 23.2186 566.283 23.2268C566.181 23.2954 566.071 23.3487 565.955 23.3853C565.917 23.3975 565.866 23.4219 565.975 23.4853L566.697 23.9366C566.768 23.9769 566.847 23.9987 566.927 24C567.007 24.0008 567.086 23.9777 567.154 23.9333L569.332 22.6105C569.402 22.5688 569.46 22.5082 569.501 22.4351C569.541 22.3619 569.562 22.2788 569.562 22.1942V19.555C569.561 19.4707 569.539 19.3882 569.499 19.3152C569.459 19.2423 569.401 19.1815 569.332 19.1388L567.154 17.8176C567.085 17.7764 567.007 17.7551 566.927 17.7558V17.755ZM570.324 18.9729C570.269 18.973 570.214 18.9845 570.164 19.0066C570.113 19.0288 570.067 19.0612 570.028 19.1021C569.95 19.1846 569.906 19.2963 569.906 19.4128C569.907 19.5292 569.951 19.6408 570.029 19.723C570.108 19.8052 570.214 19.8512 570.325 19.851C570.436 19.8508 570.542 19.8043 570.621 19.7218C570.699 19.6393 570.743 19.5276 570.742 19.4111C570.742 19.2947 570.698 19.1831 570.619 19.1009C570.541 19.0187 570.434 18.9727 570.324 18.9729ZM570.319 19.0428C570.516 19.0428 570.675 19.2054 570.675 19.4111C570.674 19.5099 570.636 19.6041 570.569 19.674C570.503 19.7438 570.413 19.7837 570.319 19.7851C570.225 19.7841 570.136 19.7441 570.071 19.674C570.005 19.6038 569.969 19.5093 569.97 19.4111C569.969 19.3628 569.978 19.3149 569.996 19.2702C570.013 19.2255 570.039 19.1848 570.071 19.1506C570.104 19.1163 570.142 19.0892 570.185 19.0707C570.227 19.0522 570.273 19.0427 570.319 19.0428ZM570.166 19.1623V19.6559H570.255V19.4591H570.339C570.373 19.4591 570.381 19.4737 570.389 19.5014C570.389 19.5054 570.403 19.6339 570.406 19.6575H570.503C570.491 19.6146 570.483 19.5704 570.481 19.5258C570.47 19.4624 570.467 19.4185 570.403 19.4144C570.437 19.4022 570.493 19.3835 570.493 19.2924C570.493 19.1615 570.385 19.1623 570.328 19.1623H570.166ZM570.255 19.2412H570.331C570.355 19.2412 570.399 19.2412 570.399 19.3079C570.399 19.3355 570.388 19.3811 570.327 19.3794H570.255V19.2412ZM567.511 19.6445C566.889 19.6445 566.52 19.9234 566.52 20.3819C566.52 20.8844 566.89 21.0185 567.485 21.0811C568.198 21.1567 568.253 21.2641 568.253 21.4104C568.253 21.6673 568.057 21.7739 567.597 21.7739C567.02 21.7739 566.894 21.6242 566.852 21.3234C566.848 21.2909 566.821 21.2673 566.787 21.2673H566.504C566.495 21.2673 566.487 21.2691 566.479 21.2725C566.471 21.276 566.464 21.2811 566.458 21.2874C566.452 21.2938 566.448 21.3013 566.445 21.3096C566.442 21.3179 566.44 21.3267 566.44 21.3356C566.44 21.7194 566.64 22.1787 567.593 22.1787C568.292 22.1787 568.688 21.8942 568.688 21.395C568.688 20.9006 568.37 20.7689 567.7 20.6738C567.022 20.5787 566.954 20.5307 566.954 20.364C566.954 20.2258 567.01 20.0445 567.512 20.0445C567.959 20.0445 568.126 20.1478 568.195 20.464C568.202 20.4966 568.223 20.5153 568.253 20.5153H568.536C568.555 20.5153 568.571 20.5071 568.582 20.4957C568.593 20.4803 568.6 20.4648 568.597 20.4453C568.552 19.899 568.209 19.6445 567.511 19.6445Z" fill="#E2E2E2"/>
<path d="M628.894 4.09048C628.832 4.02815 628.754 3.99605 628.674 4.00039C628.455 4.00039 628.171 4.18265 628.018 4.28032L627.958 4.31825C627.702 4.47018 627.424 4.55623 627.14 4.57106C626.848 4.58232 626.597 4.60324 626.271 4.64507C624.334 4.88869 623.471 6.70781 622.639 8.46718C622.186 9.4242 621.718 10.4182 621.077 11.1776C620.944 11.3353 620.803 11.4822 620.655 11.6173C619.991 12.2219 619.157 12.6538 618.509 12.9595C617.885 13.2521 617.203 13.515 616.545 13.7694C615.942 14.002 615.372 14.2222 614.849 14.4607C614.645 14.5526 614.44 14.6399 614.235 14.7227C613.757 14.9124 613.414 15.0578 612.911 15.4821C612.731 15.6321 612.555 15.7905 612.385 15.9569C611.986 16.3472 611.633 16.803 611.336 17.3116C611.08 17.7807 610.784 18.2154 610.454 18.6083C610.348 18.7356 610.16 18.7981 609.878 18.7981C609.548 18.7981 609.147 18.7147 608.724 18.6264C608.287 18.5315 607.836 18.4414 607.448 18.4414C607.134 18.4414 606.893 18.5042 606.713 18.6313C606.713 18.6313 606.41 18.8478 606.282 19.1277L606.408 19.1971C606.603 19.3264 606.783 19.4859 606.944 19.6717C607.112 19.8622 607.3 20.0255 607.502 20.1578C607.566 20.1867 607.625 20.2324 607.674 20.2916C607.621 20.3865 607.544 20.509 607.462 20.64C607.015 21.3569 606.754 21.8099 606.904 22.0565C606.975 22.102 607.055 22.1242 607.136 22.1208C608.11 22.1208 608.634 21.8105 609.296 21.4175C609.488 21.3038 609.684 21.1868 609.916 21.0663C610.303 20.8604 610.72 20.532 611.162 20.1842C611.74 19.7223 612.345 19.2475 612.933 19.0185C613.415 18.8382 613.918 18.7518 614.422 18.7623C615.042 18.7623 615.694 18.8636 616.323 18.9627C616.791 19.0367 617.277 19.1125 617.753 19.1477C617.938 19.1608 618.11 19.1675 618.276 19.1675C618.499 19.1683 618.721 19.1541 618.943 19.125L618.996 19.102C619.33 18.8505 619.487 18.3104 619.638 17.788C619.736 17.452 619.818 17.1502 619.948 16.9583C619.956 16.9491 619.964 16.9406 619.973 16.933C619.979 16.9289 619.986 16.9274 619.993 16.9287C620 16.9301 620.006 16.9342 620.011 16.9404V16.9556C619.933 18.9976 619.263 20.2943 618.584 21.4472L618.131 22.0424C618.131 22.0424 618.765 22.0424 619.126 21.8714C620.443 21.389 621.437 20.3258 622.16 18.6301C622.339 18.1949 622.498 17.7484 622.638 17.2925C622.65 17.2546 622.764 17.1845 622.754 17.3808C622.75 17.4387 622.746 17.5033 622.743 17.5708C622.743 17.6106 622.743 17.6513 622.736 17.6922C622.718 17.9772 622.663 18.5791 622.663 18.5791L623.07 18.312C624.05 17.5527 624.806 16.0206 625.379 13.6366C625.618 12.6435 625.793 11.657 625.947 10.7885C626.131 9.74389 626.29 8.8487 626.472 8.50119C626.758 7.95649 627.194 7.58807 627.616 7.23022C627.673 7.18173 627.731 7.13507 627.788 7.08382C628.318 6.62737 628.846 6.10036 628.962 5.1176V5.09577C629.046 4.36283 628.975 4.17575 628.894 4.09048ZM627.528 27.9303H625.592V23.7958H627.339C628.006 23.7958 628.642 23.9498 628.633 24.8668C628.633 25.5134 628.305 25.6919 627.96 25.76C628.45 25.8115 628.745 26.1948 628.745 26.814C628.748 27.7414 628.084 27.9305 627.528 27.9305V27.9303ZM627.384 25.5998C628.052 25.5998 628.201 25.2845 628.201 24.8839C628.201 24.2819 627.902 24.1452 627.384 24.1452H625.996V25.5996L627.384 25.5998ZM627.402 25.9491H625.996V27.5809H627.462C627.874 27.5809 628.308 27.4148 628.308 26.7797C628.308 26.0466 627.809 25.9491 627.402 25.9491ZM621.496 23.7956H623.02C624.3 23.7956 624.94 24.6607 624.93 25.8627C624.94 27.1121 624.234 27.9305 623.132 27.9305H621.496L621.496 23.7956ZM621.917 24.1624V27.5697H623.079C624.097 27.5697 624.485 26.7273 624.485 25.8512C624.485 24.8609 624 24.1624 623.079 24.1624H621.917ZM619.885 25.3936V24.9121H620.523V27.9303H619.887V27.4444C619.719 27.7938 619.373 27.9939 618.953 27.9939C618.075 27.9939 617.583 27.2344 617.583 26.361C617.583 25.5189 618.048 24.842 618.859 24.842C619.319 24.8487 619.703 25.0385 619.885 25.3936ZM618.258 26.4019C618.258 26.9572 618.543 27.4327 619.095 27.4327C619.627 27.4327 619.917 26.9684 619.917 26.4189C619.917 25.8691 619.617 25.3994 619.065 25.3994C618.535 25.3994 618.259 25.8682 618.259 26.4019H618.258ZM616.381 24.1158C616.379 24.061 616.387 24.0065 616.404 23.9557C616.421 23.905 616.446 23.859 616.478 23.8208C616.51 23.7826 616.549 23.753 616.59 23.7338C616.632 23.7147 616.677 23.7063 616.722 23.7094C616.767 23.7076 616.812 23.7171 616.855 23.7374C616.897 23.7577 616.936 23.7883 616.968 23.8275C617 23.8667 617.026 23.9135 617.043 23.9651C617.06 24.0168 617.069 24.0722 617.068 24.1279C617.069 24.1829 617.06 24.2375 617.043 24.2883C617.026 24.339 617 24.3847 616.967 24.4225C616.935 24.4602 616.896 24.4892 616.854 24.5075C616.811 24.5258 616.766 24.533 616.722 24.5288C616.677 24.5312 616.632 24.5222 616.59 24.5023C616.548 24.4825 616.51 24.4522 616.478 24.4135C616.446 24.3747 616.42 24.3282 616.404 24.277C616.387 24.2258 616.379 24.1709 616.381 24.1158ZM616.409 24.9121H617.044V27.1176C617.044 27.2543 617.068 27.352 617.161 27.352C617.201 27.3509 617.242 27.3453 617.282 27.3352L617.381 27.9048C617.247 27.9695 617.104 28.0018 616.96 27.9999C616.694 27.9999 616.409 27.9048 616.409 27.1633L616.409 24.9121ZM614.778 27.9305H614.143V24.9124H614.778V25.5885C614.851 25.3722 614.974 25.1868 615.131 25.0554C615.289 24.9239 615.475 24.8521 615.666 24.8489C615.801 24.8466 615.936 24.8736 616.063 24.9287L615.928 25.4984C615.818 25.4626 615.705 25.4434 615.591 25.4412C615.133 25.4412 614.778 25.8648 614.778 26.4858V27.9305ZM612.709 25.3939V24.9124H613.345V27.9305H612.709V27.4446C612.541 27.794 612.195 27.9942 611.775 27.9942C610.896 27.9942 610.405 27.2346 610.405 26.3612C610.405 25.5191 610.87 24.8423 611.681 24.8423C612.143 24.8489 612.527 25.0388 612.709 25.3939ZM611.082 26.4021C611.082 26.9574 611.367 27.4329 611.919 27.4329C612.451 27.4329 612.741 26.9687 612.741 26.4191C612.741 25.8696 612.441 25.3996 611.889 25.3996C611.359 25.3996 611.083 25.8685 611.083 26.4021H611.082ZM609.35 23.7958L610.222 27.9305H609.564L608.982 24.9519L607.887 27.9305H607.332L606.243 24.9696L605.644 27.9305H605L605.864 23.7958H606.434L607.612 26.9974L608.784 23.7958H609.35Z" fill="#E2E2E2"/>
<path fill-rule="evenodd" clip-rule="evenodd" d="M670.673 10.1341C670.164 8.53649 669.348 7.12252 668.198 5.90579C667.908 5.59801 667.585 5.31604 667.382 4.93319C667.254 4.69083 667.132 4.44512 667.007 4.20118L666.928 4L666.905 4.07921C666.895 4.47723 666.672 4.74698 666.394 4.999C666.08 5.28235 665.789 5.59012 665.488 5.88746L664.563 7.11483L663.815 8.5024L663.315 9.86494L663.3 9.88602C663.024 10.7981 662.889 11.736 662.822 12.683C662.797 13.0391 662.826 13.4001 662.846 13.7579C662.874 14.2694 662.962 14.7721 663.094 15.2672C663.574 17.0654 664.548 18.5568 665.88 19.8242C666.127 20.0597 666.395 20.2739 666.653 20.4977L666.767 20.8934L666.873 21.5073L666.924 22.1483C666.923 22.2784 666.918 22.409 666.926 22.5386C666.928 22.5719 666.971 22.6027 666.995 22.6346L667.211 22.7111L667.435 22.7991L667.397 22.2295L667.395 21.6683L667.473 20.8136L667.529 20.6275L667.69 20.3397C667.889 20.1785 668.102 20.0319 668.283 19.8524C668.61 19.5279 668.937 19.1988 669.231 18.8431C669.612 18.3821 669.938 17.8771 670.201 17.3385C670.377 16.9774 670.542 16.6089 670.679 16.2315C670.8 15.8989 670.875 15.5492 670.97 15.2069L670.995 15.133C671.191 14.2093 671.224 13.2761 671.152 12.337C671.094 11.5802 670.918 10.8498 670.673 10.1341ZM666.786 20.0404C666.816 19.8884 666.853 19.7373 666.88 19.5848C666.853 19.7373 666.816 19.8884 666.786 20.0404ZM675.296 23.6775C675.135 23.3656 674.898 23.1288 674.585 22.9733C674.323 22.8433 674.041 22.7861 673.751 22.7779C673.534 22.7716 673.316 22.7828 673.099 22.7855C672.905 22.7879 672.712 22.7913 672.519 22.7895C672.292 22.7871 672.065 22.7802 671.837 22.7737C671.8 22.7725 671.773 22.7802 671.755 22.8188C671.728 22.8789 671.695 22.9369 671.661 23.0027L671.699 23.0149C671.812 23.035 671.925 23.0521 672.037 23.0748C672.182 23.1038 672.246 23.1873 672.253 23.3099C672.263 23.4844 672.267 23.6594 672.266 23.8344C672.263 24.5268 672.258 25.2192 672.253 25.9114C672.253 25.9571 672.252 26.0048 672.24 26.0478C672.225 26.0974 672.21 26.1617 672.173 26.1861C672.107 26.2289 672.033 26.2574 671.956 26.2698C671.846 26.288 671.828 26.2929 671.793 26.4016L671.779 26.456C671.762 26.5153 671.771 26.527 671.832 26.5276C672.184 26.5315 672.536 26.5392 672.888 26.538C673.209 26.5368 673.53 26.5565 673.849 26.4956C674.152 26.4383 674.434 26.3378 674.691 26.1678C675.025 25.9469 675.265 25.6517 675.392 25.2665C675.494 24.9554 675.517 24.6379 675.483 24.3126C675.461 24.0909 675.398 23.8754 675.296 23.6775ZM674.68 25.5812C674.491 25.9347 674.21 26.1707 673.809 26.233C673.558 26.2718 673.306 26.2606 673.066 26.1646C672.914 26.1039 672.858 25.9717 672.853 25.8155C672.849 25.6623 672.847 25.5091 672.847 25.3559C672.846 24.8172 672.846 24.2785 672.847 23.74C672.847 23.5704 672.85 23.4003 672.853 23.2305C672.855 23.1111 672.88 23.0711 672.995 23.0614C673.502 23.0184 673.986 23.0736 674.388 23.4336C674.636 23.6563 674.778 23.9402 674.836 24.2663C674.861 24.4023 674.868 24.5414 674.884 24.6793C674.871 24.9942 674.829 25.3006 674.68 25.5812ZM678.936 24.9977C678.836 24.7522 678.646 24.5983 678.408 24.4998C678.327 24.4661 678.243 24.4383 678.155 24.4056L678.186 24.3859C678.281 24.3246 678.386 24.2752 678.468 24.1997C678.666 24.0163 678.749 23.7855 678.71 23.5114C678.673 23.2508 678.544 23.0594 678.314 22.9353C678.105 22.823 677.88 22.782 677.646 22.7822C677.243 22.7826 676.839 22.7887 676.436 22.7895C676.297 22.7897 676.157 22.7792 676.018 22.7773C675.991 22.7769 675.951 22.7838 675.94 22.8019C675.908 22.8512 675.887 22.9079 675.864 22.9627C675.851 22.9946 675.864 23.0121 675.9 23.0169C675.997 23.0303 676.094 23.047 676.191 23.0616C676.326 23.0819 676.391 23.1524 676.399 23.289L676.401 23.37C676.401 23.7946 676.402 24.2192 676.401 24.6438C676.398 25.0679 676.394 25.4919 676.389 25.9159C676.388 25.9693 676.381 26.0229 676.373 26.0759C676.362 26.1559 676.319 26.2111 676.238 26.2284L676.008 26.2742C675.981 26.2797 675.942 26.2789 675.931 26.2958C675.888 26.3595 675.854 26.429 675.859 26.513L675.883 26.5195L676.655 26.5386L676.81 26.538C677.077 26.5348 677.345 26.5402 677.611 26.5264C677.9 26.5118 678.172 26.4253 678.422 26.2765C678.689 26.1179 678.895 25.9088 678.968 25.5944C679.015 25.3936 679.015 25.1916 678.936 24.9977ZM676.974 23.1887C676.975 23.1034 677.012 23.0663 677.096 23.0642C677.303 23.0584 677.509 23.0596 677.708 23.1315C677.967 23.2246 678.125 23.4492 678.122 23.7237C678.121 23.8291 678.123 23.9335 678.084 24.0348C678.008 24.2342 677.862 24.3394 677.656 24.3599C677.548 24.3709 677.439 24.3721 677.343 24.3772L677.022 24.3631C676.98 24.3615 676.961 24.3426 676.961 24.2984L676.974 23.1887ZM678.303 25.8476C678.2 26.0744 678.012 26.1936 677.776 26.235C677.588 26.2675 677.395 26.2589 677.211 26.2099C677.073 26.1743 677.017 26.0625 676.989 25.9386C676.971 25.8556 676.974 25.7569 676.972 25.6706C676.97 25.5374 676.972 25.261 676.972 25.261H676.969C676.969 25.0639 676.97 24.8933 676.968 24.7043C676.968 24.6635 676.975 24.6432 677.025 24.6448C677.2 24.6501 677.376 24.6531 677.551 24.66C677.708 24.6661 677.855 24.713 677.993 24.7881C678.203 24.9024 678.33 25.0773 678.365 25.3177C678.391 25.5 678.38 25.6793 678.303 25.8476ZM659.046 26.06L659.05 24.9887C659.051 24.8275 659.03 24.6695 658.978 24.5166C658.834 24.0955 658.436 23.9038 658.021 24.0549C657.833 24.1237 657.664 24.2279 657.502 24.3461C657.408 24.4151 657.408 24.4151 657.34 24.3168C657.148 24.0385 656.873 23.9434 656.553 24.046C656.346 24.1122 656.165 24.2255 655.994 24.3571C655.978 24.3694 655.946 24.383 655.936 24.3757C655.92 24.3636 655.909 24.3351 655.91 24.3136L655.921 24.1233C655.922 24.0833 655.915 24.0431 655.911 24.0011C655.833 24.0281 655.772 24.0551 655.707 24.0708C655.507 24.1201 655.306 24.1654 655.105 24.2117C655.056 24.223 655.005 24.2377 655 24.2941C654.995 24.3495 655.048 24.3587 655.089 24.3753C655.176 24.4103 655.261 24.4476 655.347 24.4854C655.419 24.5173 655.445 24.5751 655.445 24.6527C655.444 24.9847 655.446 25.3163 655.444 25.6484C655.443 25.7833 655.437 25.9181 655.431 26.0531C655.425 26.1727 655.385 26.2227 655.27 26.2529C655.209 26.269 655.147 26.2799 655.086 26.2945C655.072 26.2976 655.049 26.3063 655.049 26.313C655.046 26.3715 655.043 26.4314 655.053 26.4883C655.055 26.4986 655.116 26.4986 655.15 26.5025L655.173 26.5012C655.41 26.4976 655.647 26.4939 655.884 26.4913C656.009 26.4899 656.135 26.4911 656.271 26.4911L656.286 26.3C656.207 26.2856 656.138 26.2748 656.069 26.2596C655.962 26.2359 655.916 26.1786 655.913 26.0694L655.911 25.9132C655.91 25.5079 655.909 25.1028 655.909 24.6974C655.909 24.6385 655.933 24.5918 655.984 24.5566C656.093 24.4825 656.208 24.4235 656.335 24.3906C656.603 24.3215 656.835 24.4176 656.939 24.6476C656.971 24.7201 656.997 24.8003 657.004 24.8791C657.042 25.2854 657.025 25.6921 657.003 26.0984C656.998 26.1861 656.957 26.2302 656.871 26.2517L656.67 26.2947C656.653 26.2988 656.63 26.2878 656.629 26.3014C656.624 26.3575 656.627 26.4436 656.627 26.4436H656.675L657.288 26.4639C657.457 26.4635 657.625 26.484 657.793 26.4883C657.823 26.4889 657.85 26.4935 657.852 26.4584C657.853 26.4039 657.853 26.3494 657.849 26.295L657.817 26.2893L657.644 26.2501C657.528 26.2223 657.488 26.1776 657.487 26.0586C657.486 25.7652 657.49 25.472 657.487 25.1788C657.486 25.0111 657.48 24.8435 657.469 24.6762C657.466 24.6316 657.473 24.6025 657.508 24.5774C657.61 24.5023 657.724 24.4465 657.846 24.4129C658.224 24.3124 658.533 24.5215 658.553 24.9146C658.572 25.2937 658.564 25.6742 658.561 26.0541C658.56 26.1863 658.517 26.2263 658.388 26.2617L658.343 26.2734C658.211 26.3053 658.212 26.3053 658.22 26.447C658.222 26.4913 658.235 26.5027 658.281 26.5015C658.551 26.4954 658.82 26.4939 659.09 26.4915C659.2 26.4905 659.31 26.4915 659.43 26.4915L659.454 26.3071C659.349 26.2789 659.252 26.258 659.158 26.2271C659.075 26.1987 659.046 26.1483 659.046 26.06ZM668.322 24.4362C668.433 24.3323 668.434 24.1952 668.403 24.0429C668.315 24.1357 668.217 24.1784 668.104 24.1865C667.954 24.1973 667.806 24.1841 667.666 24.1237C667.286 23.9593 666.913 23.9709 666.541 24.1512C666.227 24.3026 666.035 24.5384 666.016 24.8961C666.003 25.1252 666.046 25.3422 666.197 25.5244C666.288 25.6336 666.405 25.7043 666.536 25.7532C666.593 25.7743 666.597 25.8015 666.55 25.8379C666.515 25.8646 666.478 25.8896 666.441 25.9128C666.362 25.9631 666.282 26.0126 666.201 26.0614C666.154 26.0901 666.138 26.1268 666.154 26.1829C666.199 26.3481 666.315 26.4434 666.46 26.513L666.513 26.5502L666.467 26.5969C666.325 26.7134 666.177 26.8233 666.04 26.9469C665.926 27.0507 665.889 27.1898 665.924 27.3433C665.993 27.6497 666.195 27.8393 666.48 27.9264C666.98 28.0789 667.449 27.9914 667.876 27.6929C668.13 27.5157 668.312 27.2852 668.367 26.9679C668.429 26.6115 668.233 26.3021 667.881 26.2383C667.649 26.1957 667.411 26.1835 667.176 26.1563C667.066 26.1437 666.955 26.1362 666.848 26.1108C666.757 26.0891 666.712 26.0145 666.72 25.9416C666.729 25.8698 666.804 25.803 666.891 25.7961C667.065 25.782 667.236 25.7546 667.396 25.6805C667.822 25.4842 668.019 25.1406 667.97 24.6779C667.963 24.6157 667.949 24.5542 667.937 24.4817C668.073 24.5047 668.212 24.5396 668.322 24.4362ZM667.031 26.607C667.205 26.6121 667.401 26.6229 667.592 26.6791C667.759 26.7283 667.897 26.8146 667.937 27.0032C667.986 27.231 667.878 27.4576 667.659 27.5794C667.455 27.6933 667.232 27.7027 667.007 27.6793C666.814 27.6592 666.64 27.5918 666.501 27.4479C666.318 27.2586 666.317 26.9965 666.5 26.8078C666.664 26.6391 666.752 26.6042 667.031 26.607ZM667.464 25.2352C667.364 25.5605 667.07 25.6054 666.84 25.5014C666.644 25.4129 666.559 25.2387 666.514 25.0399C666.497 24.9634 666.493 24.884 666.483 24.8058C666.487 24.6937 666.505 24.5861 666.553 24.4852C666.7 24.1745 667.06 24.193 667.26 24.3337C667.345 24.394 667.405 24.476 667.442 24.5731C667.525 24.7846 667.533 25.0185 667.464 25.2352ZM665.634 26.2722C665.564 26.2614 665.495 26.2459 665.428 26.2257C665.309 26.189 665.295 26.1666 665.293 26.0399C665.29 25.6868 665.287 25.3337 665.283 24.9808C665.281 24.822 665.263 24.6653 665.214 24.5136C665.088 24.1136 664.699 23.8988 664.31 24.0169C664.094 24.0825 663.909 24.2044 663.736 24.3477L663.673 24.3964L663.674 24.3311C663.678 24.2561 663.686 24.181 663.685 24.1059C663.685 24.0667 663.67 24.0273 663.663 23.9928C663.516 24.0375 663.384 24.0825 663.249 24.1168C663.114 24.151 662.976 24.1743 662.84 24.2023C662.772 24.2161 662.722 24.2574 662.723 24.3045C662.725 24.3709 662.78 24.3837 662.827 24.4036C662.914 24.4393 663 24.4754 663.085 24.5136C663.146 24.541 663.171 24.5918 663.17 24.6578C663.166 25.1167 663.163 25.5758 663.157 26.035C663.155 26.18 663.118 26.2182 662.977 26.2501L662.915 26.2625C662.784 26.2852 662.781 26.2905 662.79 26.4298L662.79 26.4529C662.789 26.5065 662.812 26.5238 662.867 26.5232C663.215 26.5191 663.562 26.5171 663.91 26.5185C664.059 26.5191 664.075 26.5073 664.072 26.3528L664.065 26.2864C663.98 26.272 663.898 26.2616 663.819 26.2438C663.735 26.2251 663.705 26.1906 663.698 26.1051C663.69 26.0269 663.688 25.9475 663.687 25.8687C663.683 25.5079 663.68 25.1471 663.678 24.7865C663.678 24.6957 663.695 24.6113 663.777 24.5528C663.899 24.4649 664.043 24.413 664.193 24.4027C664.503 24.3812 664.738 24.5666 664.755 24.8785C664.776 25.2633 664.77 25.6495 664.775 26.0352C664.775 26.0639 664.77 26.0929 664.766 26.1215C664.759 26.1778 664.731 26.2202 664.675 26.2348C664.619 26.2493 664.563 26.2623 664.507 26.271C664.423 26.2836 664.421 26.283 664.414 26.3687L664.417 26.4265C664.427 26.5262 664.427 26.5232 664.527 26.5222C664.863 26.5195 665.199 26.5177 665.535 26.5181C665.676 26.5185 665.686 26.5118 665.687 26.3656L665.687 26.3309C665.689 26.2935 665.672 26.2783 665.634 26.2722ZM670.332 24.0411C669.98 23.9542 669.645 24.0188 669.328 24.1845C669.019 24.3455 668.813 24.5944 668.734 24.938C668.655 25.2854 668.693 25.6243 668.845 25.9469C668.944 26.1563 669.096 26.3183 669.304 26.4235C669.79 26.6702 670.383 26.5583 670.764 26.2283C671.065 25.968 671.175 25.6214 671.182 25.1924C671.178 25.1494 671.174 25.0667 671.162 24.9847C671.099 24.5177 670.778 24.151 670.332 24.0411ZM670.599 25.845C670.506 26.2166 670.187 26.3817 669.828 26.2541C669.644 26.189 669.507 26.0647 669.415 25.8966C669.203 25.5104 669.162 25.0998 669.283 24.6785C669.363 24.3979 669.592 24.2444 669.865 24.2637C670.108 24.2809 670.295 24.3987 670.432 24.5985C670.577 24.8094 670.633 25.0492 670.648 25.301C670.65 25.3414 670.648 25.3818 670.648 25.4224L670.665 25.4243C670.644 25.5648 670.634 25.7081 670.599 25.845ZM661.465 24.035C661.094 23.9495 660.747 24.034 660.425 24.2241C660.146 24.3885 659.966 24.634 659.897 24.9548C659.833 25.2545 659.859 25.549 659.964 25.8361C660.028 26.0111 660.126 26.165 660.268 26.285C660.568 26.5374 660.918 26.6013 661.291 26.5309C661.607 26.4712 661.884 26.3297 662.086 26.0651C662.274 25.8176 662.346 25.5335 662.354 25.2255C662.343 25.128 662.34 25.0287 662.319 24.9335C662.217 24.4584 661.942 24.1447 661.465 24.035ZM661.768 25.8438C661.677 26.2135 661.353 26.3827 660.997 26.255C660.767 26.1729 660.618 26.0036 660.524 25.7867C660.373 25.4381 660.342 25.0754 660.44 24.7077C660.515 24.4265 660.741 24.2194 661.087 24.2691C661.299 24.2994 661.465 24.4088 661.588 24.5828C661.755 24.8174 661.81 25.0862 661.817 25.3686V25.4263L661.831 25.4285C661.811 25.5672 661.801 25.7083 661.768 25.8438Z" fill="#E2E2E2"/>
<path d="M705.156 21.0359V14.1191H708.491V13.7146H705.156V7.40447H708.702V7H705V21.4404H708.733V21.0359H705.156ZM711.74 11.0449L710.358 15.7573L709.006 11.045H708.803L710.264 16.0607L708.663 21.4403H708.85L710.357 16.3638L711.873 21.4403H712.068L710.459 16.0605L711.927 11.0448L711.74 11.0449ZM712.537 25V18.5282H712.553C712.646 19.472 712.831 20.2304 713.107 20.8035C713.383 21.3764 713.735 21.663 714.161 21.663C714.437 21.663 714.682 21.5181 714.895 21.2283C715.108 20.9384 715.287 20.544 715.43 20.0451C715.573 19.5462 715.683 18.9664 715.758 18.3057C715.834 17.6451 715.871 16.9506 715.871 16.2227C715.871 15.4406 715.832 14.7191 715.754 14.0585C715.676 13.3979 715.563 12.8248 715.414 12.3395C715.266 11.8541 715.087 11.4764 714.876 11.2069C714.665 10.9372 714.427 10.8024 714.161 10.8024C713.958 10.8024 713.769 10.8799 713.595 11.0349C713.42 11.1901 713.266 11.409 713.13 11.6922C712.994 11.9776 712.876 12.3152 712.779 12.6933C712.68 13.0776 712.604 13.499 712.553 13.9574H712.537V11.0449H712.381V25H712.537ZM714.161 21.2786C713.672 21.2786 713.279 20.8438 712.982 19.9742C712.685 19.1046 712.537 17.8539 712.537 16.2225C712.537 15.5483 712.573 14.9079 712.646 14.3011C712.719 13.6944 712.824 13.1618 712.962 12.7034C713.1 12.2449 713.271 11.8809 713.473 11.6113C713.677 11.3416 713.906 11.2067 714.161 11.2067C714.422 11.2067 714.649 11.3416 714.844 11.6113C715.039 11.8809 715.201 12.2484 715.329 12.7135C715.456 13.1787 715.552 13.7113 715.618 14.3112C715.683 14.9112 715.715 15.5483 715.715 16.2225C715.715 16.8293 715.685 17.4327 715.625 18.0326C715.565 18.6326 715.473 19.1719 715.348 19.6507C715.223 20.1292 715.063 20.5202 714.868 20.8236C714.673 21.127 714.437 21.2786 714.161 21.2786ZM716.731 21.4404V15.555C716.731 14.9888 716.761 14.4359 716.824 13.8966C716.887 13.3573 716.983 12.882 717.113 12.4708C717.244 12.0596 717.409 11.7359 717.609 11.5C717.81 11.264 718.048 11.1663 718.324 11.2067V10.8022C718.085 10.7889 717.875 10.8561 717.695 11.0045C717.515 11.1528 717.361 11.355 717.23 11.6113C717.101 11.8674 716.996 12.1673 716.918 12.5112C716.84 12.8546 716.782 13.226 716.746 13.6134H716.731V11.0449H716.574V21.4406L716.731 21.4404ZM718.519 16.3236H721.877C721.888 15.609 721.861 14.9214 721.795 14.2607C721.73 13.6 721.626 13.0134 721.483 12.5012C721.339 11.9888 721.155 11.5775 720.928 11.2674C720.702 10.9572 720.433 10.8022 720.12 10.8022C719.896 10.8022 719.677 10.9236 719.464 11.1664C719.251 11.409 719.063 11.7629 718.902 12.228C718.74 12.6932 718.61 13.2629 718.511 13.9372C718.412 14.6112 718.363 15.3798 718.363 16.2427C718.363 17.0112 718.397 17.7292 718.464 18.3966C718.532 19.064 718.637 19.6439 718.777 20.136C718.917 20.6281 719.099 21.009 719.32 21.2786C719.541 21.5483 719.808 21.6764 720.12 21.663C720.578 21.663 720.964 21.3291 721.276 20.6618C721.588 19.9943 721.773 19.0539 721.831 17.8404H721.674C721.606 18.9866 721.433 19.8461 721.155 20.4191C720.876 20.9921 720.526 21.2786 720.104 21.2786C719.818 21.2786 719.576 21.1505 719.378 20.8944C719.18 20.6383 719.019 20.2876 718.894 19.8427C718.769 19.3977 718.676 18.8753 718.617 18.2752C718.557 17.6753 718.524 17.0247 718.519 16.3236ZM721.721 15.9191H718.519C718.535 15.191 718.587 14.5371 718.676 13.9574C718.764 13.3775 718.88 12.882 719.023 12.4708C719.166 12.0596 719.333 11.7461 719.523 11.5303C719.713 11.3146 719.917 11.2067 720.136 11.2067C720.396 11.2067 720.625 11.3315 720.823 11.5809C721.021 11.8304 721.186 12.1709 721.319 12.6023C721.452 13.0337 721.552 13.536 721.619 14.1089C721.687 14.682 721.721 15.2855 721.721 15.9191ZM725.119 14.1191H725.275C725.275 12.9595 725.144 12.1169 724.884 11.591C724.624 11.0652 724.27 10.8022 723.822 10.8022C723.572 10.8022 723.361 10.8832 723.19 11.045C723.017 11.2067 722.877 11.4157 722.768 11.6718C722.658 11.928 722.58 12.2112 722.533 12.5214C722.486 12.8315 722.463 13.1282 722.463 13.4112C722.463 13.9775 722.502 14.4292 722.58 14.7662C722.658 15.1034 722.781 15.3663 722.947 15.555C723.061 15.6898 723.192 15.8111 723.338 15.9192C723.484 16.027 723.653 16.1416 723.845 16.2629C724.017 16.3709 724.187 16.4787 724.353 16.5865C724.52 16.6944 724.667 16.8393 724.794 17.0213C724.922 17.2034 725.026 17.436 725.107 17.7192C725.188 18.0022 725.227 18.3731 725.227 18.8314C725.227 19.2764 725.188 19.6539 725.107 19.964C725.027 20.2725 724.922 20.5315 724.799 20.7225C724.673 20.918 724.534 21.0595 724.381 21.1472C724.227 21.2348 724.077 21.2786 723.932 21.2786C723.458 21.2786 723.095 21.0056 722.842 20.4596C722.589 19.9135 722.463 19.0539 722.463 17.8808H722.307C722.307 19.1888 722.444 20.1461 722.717 20.7529C722.99 21.3596 723.395 21.663 723.932 21.663C724.103 21.663 724.277 21.6123 724.451 21.5112C724.625 21.4101 724.781 21.245 724.919 21.0157C725.056 20.7896 725.171 20.4852 725.255 20.1259C725.341 19.7618 725.384 19.3169 725.384 18.791C725.384 18.2921 725.346 17.8877 725.271 17.5775C725.195 17.2675 725.096 17.0112 724.974 16.809C724.852 16.6067 724.714 16.4483 724.56 16.3337C724.406 16.2185 724.251 16.1072 724.095 15.9999C723.905 15.87 723.713 15.742 723.521 15.6158C723.357 15.5079 723.205 15.3797 723.064 15.2314C722.929 15.0831 722.821 14.8708 722.74 14.5944C722.659 14.318 722.619 13.9236 722.619 13.4112C722.619 13.3169 722.629 13.1483 722.65 12.9056C722.671 12.6629 722.721 12.4168 722.799 12.1674C722.877 11.9181 722.997 11.6955 723.158 11.5C723.319 11.3045 723.541 11.2067 723.822 11.2067C724.015 11.2067 724.19 11.2607 724.349 11.3685C724.508 11.4764 724.645 11.6483 724.76 11.8843C724.874 12.1202 724.962 12.4202 725.025 12.7842C725.087 13.1484 725.119 13.5933 725.119 14.1191ZM728.734 14.1191H728.891C728.891 12.9595 728.761 12.1169 728.5 11.591C728.239 11.0652 727.885 10.8022 727.438 10.8022C727.188 10.8022 726.977 10.8832 726.805 11.045C726.634 11.2067 726.493 11.4157 726.384 11.6718C726.275 11.928 726.196 12.2112 726.149 12.5214C726.103 12.8315 726.079 13.1282 726.079 13.4112C726.079 13.9775 726.119 14.4292 726.197 14.7662C726.275 15.1034 726.397 15.3663 726.563 15.555C726.678 15.6898 726.808 15.8111 726.954 15.9192C727.099 16.027 727.269 16.1416 727.462 16.2629C727.633 16.3709 727.802 16.4787 727.969 16.5865C728.136 16.6944 728.283 16.8393 728.41 17.0213C728.538 17.2034 728.642 17.436 728.723 17.7192C728.804 18.0022 728.844 18.3731 728.844 18.8314C728.844 19.2764 728.804 19.6539 728.723 19.964C728.643 20.2725 728.537 20.5315 728.414 20.7225C728.289 20.918 728.15 21.0595 727.996 21.1472C727.843 21.2348 727.693 21.2786 727.547 21.2786C727.073 21.2786 726.71 21.0056 726.458 20.4596C726.206 19.9135 726.079 19.0539 726.079 17.8808H725.923C725.923 19.1888 726.059 20.1461 726.333 20.7529C726.606 21.3596 727.011 21.663 727.547 21.663C727.719 21.663 727.892 21.6123 728.067 21.5112C728.241 21.4101 728.397 21.245 728.535 21.0157C728.672 20.7896 728.787 20.4852 728.871 20.1259C728.957 19.7618 729 19.3169 729 18.791C729 18.2921 728.962 17.8877 728.887 17.5775C728.811 17.2675 728.712 17.0112 728.59 16.809C728.468 16.6067 728.33 16.4483 728.176 16.3337C728.021 16.2185 727.867 16.1072 727.711 15.9999C727.52 15.87 727.329 15.742 727.137 15.6158C726.973 15.5079 726.821 15.3797 726.68 15.2314C726.545 15.0831 726.437 14.8708 726.356 14.5944C726.275 14.318 726.236 13.9236 726.236 13.4112C726.236 13.3169 726.246 13.1483 726.266 12.9056C726.287 12.6629 726.337 12.4168 726.415 12.1674C726.493 11.9181 726.613 11.6955 726.774 11.5C726.935 11.3045 727.156 11.2067 727.438 11.2067C727.63 11.2067 727.807 11.2607 727.965 11.3685C728.124 11.4764 728.26 11.6483 728.375 11.8843C728.49 12.1202 728.578 12.4202 728.641 12.7842C728.703 13.1484 728.734 13.5933 728.734 14.1191Z" fill="#E2E2E2"/>
<path d="M777.335 15.835C777.333 15.204 777.102 14.5911 776.678 14.092C776.253 13.5929 775.659 13.2356 774.988 13.0758L778 5H763.072L766.092 13.1015C765.44 13.2743 764.867 13.6346 764.46 14.1284C764.052 14.6222 763.831 15.2229 763.83 15.8405C763.831 16.2958 763.952 16.7443 764.182 17.1486C764.412 17.553 764.746 17.9015 765.154 18.1652C764.832 18.5774 764.466 18.9594 764.061 19.3055C763.316 19.9509 762.444 20.463 761.49 20.8152C760.649 20.2992 760.285 19.3889 760.614 18.5731C761.329 18.3711 761.941 17.9429 762.339 17.3662C762.738 16.7894 762.896 16.1021 762.785 15.4286C762.674 14.7551 762.302 14.1399 761.735 13.6944C761.169 13.2489 760.445 13.0025 759.696 12.9997C758.864 13.0007 758.067 13.3017 757.478 13.8366C756.89 14.3716 756.559 15.0968 756.558 15.8533C756.558 16.6307 756.908 17.3438 757.468 17.8535C757.42 17.9424 757.371 18.0322 757.321 18.1276C756.852 19.0067 756.32 20.0003 756.116 21.115C755.71 23.3443 756.376 25.1337 757.981 26.1466C758.849 26.7036 759.887 27.0018 760.95 27C762.792 27 764.662 26.1594 766.469 25.3436C767.759 24.7642 769.09 24.1592 770.399 23.8659C770.883 23.7577 771.387 23.6945 771.92 23.6239C772.998 23.4837 774.112 23.3379 775.114 22.8081C775.685 22.5102 776.178 22.1022 776.558 21.6128C776.938 21.1233 777.196 20.5642 777.313 19.9747C777.489 19.0635 777.313 18.1468 776.866 17.3438C777.166 16.9038 777.335 16.3896 777.335 15.835ZM775.969 15.835C775.969 16.7196 775.177 17.4392 774.204 17.4392C773.838 17.4382 773.481 17.3338 773.183 17.1403C772.884 16.9468 772.66 16.6739 772.54 16.3592C772.419 16.0445 772.41 15.7036 772.512 15.3837C772.614 15.0638 772.823 14.7808 773.11 14.5737L773.117 14.5672C773.174 14.5287 773.236 14.4902 773.299 14.4527C773.299 14.4527 773.307 14.4527 773.307 14.4462C773.335 14.4334 773.362 14.4142 773.391 14.4004C773.398 14.4004 773.405 14.3949 773.412 14.3949C773.44 14.3821 773.475 14.3692 773.51 14.3564C773.545 14.3436 773.58 14.3317 773.608 14.3188C773.615 14.3188 773.621 14.3124 773.629 14.3124C773.657 14.306 773.685 14.2932 773.713 14.2867C773.72 14.2867 773.733 14.2803 773.741 14.2803C773.776 14.2739 773.804 14.2675 773.839 14.262H773.846L773.951 14.2418C773.958 14.2418 773.971 14.2418 773.979 14.2354C774.008 14.2354 774.035 14.229 774.063 14.229H774.098C774.134 14.229 774.169 14.2226 774.21 14.2226H774.301C774.329 14.2226 774.351 14.2226 774.379 14.229H774.393C774.448 14.2354 774.505 14.2418 774.561 14.2547C774.959 14.3321 775.315 14.5311 775.571 14.8185C775.828 15.1058 775.968 15.4652 775.969 15.835ZM765.027 6.27417H776.046L773.517 13.0575C773.412 13.0758 773.307 13.1079 773.202 13.14L770.54 8.20375L767.871 13.1079C767.766 13.0767 767.653 13.0575 767.541 13.0382L765.027 6.27417ZM770.035 15.2804C769.907 14.6924 769.575 14.157 769.09 13.7514L770.539 11.0894L772.003 13.8092C771.57 14.2033 771.254 14.7075 771.128 15.2804H770.035ZM766.526 14.2739C766.56 14.2675 766.588 14.2611 766.624 14.2556H766.644C766.673 14.2482 766.7 14.2482 766.729 14.2418H766.757C766.785 14.2418 766.806 14.2354 766.833 14.2354H767.107C767.135 14.2354 767.156 14.2418 767.177 14.2418C767.191 14.2418 767.197 14.2418 767.212 14.2482C767.24 14.2547 767.261 14.2547 767.289 14.2611C767.296 14.2611 767.303 14.2611 767.317 14.2675L767.415 14.2858H767.422C767.45 14.2932 767.479 14.2996 767.506 14.3124C767.513 14.3124 767.52 14.3188 767.534 14.3188C767.555 14.3252 767.583 14.3317 767.605 14.3436C767.612 14.3436 767.619 14.35 767.625 14.35C767.653 14.3628 767.681 14.3692 767.71 14.3821H767.717C767.749 14.3932 767.779 14.4083 767.807 14.427H767.814C767.843 14.4398 767.871 14.4582 767.899 14.471C767.906 14.471 767.906 14.4774 767.912 14.4774C767.94 14.4902 767.963 14.5095 767.99 14.5223L767.997 14.5287C768.081 14.5856 768.158 14.6497 768.235 14.713L768.242 14.7194C768.554 15.0184 768.727 15.4154 768.726 15.8277C768.71 16.244 768.518 16.6385 768.188 16.928C767.859 17.2176 767.419 17.3794 766.96 17.3794C766.502 17.3794 766.062 17.2176 765.733 16.928C765.403 16.6385 765.211 16.244 765.195 15.8277C765.194 15.4707 765.324 15.1237 765.566 14.8421C765.807 14.5604 766.145 14.3604 766.526 14.2739ZM759.632 14.229C760.606 14.229 761.397 14.9495 761.397 15.8341C761.397 16.7187 760.606 17.4392 759.633 17.4392C758.66 17.4392 757.867 16.7196 757.867 15.835C757.867 14.9504 758.659 14.229 759.632 14.229ZM775.927 19.7519C775.848 20.1594 775.67 20.5459 775.407 20.8839C775.144 21.2219 774.803 21.503 774.407 21.7072C773.643 22.1087 772.704 22.2361 771.716 22.3635C771.16 22.4282 770.609 22.5172 770.063 22.6302C768.606 22.9557 767.205 23.5927 765.846 24.2042C764.108 24.987 762.469 25.7258 760.95 25.7258C760.171 25.7302 759.41 25.5094 758.778 25.0952C757.237 24.1272 757.313 22.3122 757.496 21.3185C757.664 20.3881 758.133 19.5163 758.581 18.6812C758.61 18.6308 758.631 18.5859 758.659 18.5346C758.812 18.5859 758.974 18.6244 759.142 18.6501C758.876 20.0003 759.632 21.3946 761.104 22.083L761.37 22.2104L761.656 22.1151C762.882 21.72 764.018 21.0765 765.02 20.2167C765.573 19.7475 766.062 19.2193 766.477 18.6437C766.638 18.6684 766.799 18.6748 766.96 18.6748C767.654 18.6734 768.327 18.4634 768.876 18.0775C769.425 17.6917 769.817 17.1517 769.993 16.5417H771.17C771.344 17.1526 771.737 17.6936 772.286 18.0796C772.835 18.4657 773.51 18.675 774.204 18.6748C774.785 18.6748 775.323 18.5282 775.787 18.2807C775.969 18.7573 776.025 19.2551 775.927 19.7519Z" fill="#E2E2E2"/>
<path d="M817.601 11.5837H816.337L815.998 11.0997V7.29419H817.922V11.0997L817.601 11.5837ZM815.893 11.9379L815.503 13.2664L814.98 13.4739L811.708 12.3004L812.301 10.2782L815.575 11.4538L815.893 11.9379ZM815.668 13.8071L816.691 14.6285L816.709 15.2425L814.686 18.3187L813.13 17.0698L815.152 13.9915L815.668 13.8071ZM817.235 14.6348L818.259 13.8154L818.792 13.9852L820.814 17.0635L819.258 18.3124L817.235 15.2341V14.6348ZM818.45 13.2895L818.06 11.9609L818.371 11.4538L821.644 10.2782L822.238 12.3004L818.966 13.4739L818.45 13.2895Z" fill="#E2E2E2"/>
<path d="M817 4C815.344 4 813.726 4.54285 812.349 5.5599C810.972 6.57695 809.899 8.02253 809.265 9.71383C808.632 11.4051 808.466 13.2662 808.789 15.0616C809.112 16.8571 809.909 18.5064 811.08 19.8008C812.251 21.0953 813.743 21.9768 815.367 22.334C816.991 22.6911 818.675 22.5078 820.204 21.8073C821.734 21.1067 823.042 19.9203 823.962 18.3982C824.882 16.8761 825.373 15.0866 825.373 13.2559C825.373 10.8011 824.491 8.44681 822.921 6.71099C821.351 4.97517 819.221 4 817 4ZM816.955 20.4896C815.645 20.4896 814.365 20.0604 813.276 19.2561C812.188 18.4518 811.339 17.3086 810.838 15.9711C810.337 14.6336 810.206 13.1619 810.461 11.742C810.717 10.3221 811.347 9.01789 812.273 7.99422C813.199 6.97055 814.379 6.27342 815.663 5.99099C816.948 5.70856 818.279 5.85351 819.489 6.40752C820.699 6.96153 821.733 7.8997 822.46 9.10341C823.188 10.3071 823.576 11.7223 823.576 13.17C823.576 14.1312 823.405 15.083 823.072 15.9711C822.739 16.8592 822.252 17.6661 821.637 18.3458C821.022 19.0255 820.292 19.5646 819.489 19.9325C818.685 20.3003 817.824 20.4896 816.955 20.4896Z" fill="#E2E2E2"/>
<path d="M816.676 16.0638H817.199V18.9493H816.676V16.0638ZM819.52 14.282L819.681 13.7321L822.164 14.6237L822.002 15.1738L819.52 14.282ZM818.841 10.7491L818.417 10.409L819.952 8.0746L820.375 8.41471L818.841 10.7491ZM815.575 10.4086L815.152 10.7485L813.618 8.41408L814.041 8.07397L815.575 10.4086ZM814.244 13.7308L814.406 14.2809L811.923 15.1725L811.762 14.6225L814.244 13.7308ZM805.83 26.6126C805.825 26.6834 805.834 26.7546 805.854 26.8219C805.874 26.8892 805.907 26.9514 805.949 27.0048C805.991 27.0582 806.043 27.1018 806.101 27.133C806.158 27.1643 806.221 27.1825 806.285 27.1868C806.365 27.1888 806.443 27.1664 806.512 27.122C806.581 27.0776 806.638 27.013 806.676 26.9353C806.744 26.7517 806.772 26.5528 806.757 26.3549V24.0498H806.304V23.3038H808.01V24.0393H807.551V26.4638C807.551 26.8829 807.528 27.1994 807.265 27.5346C807.14 27.6821 806.989 27.7996 806.822 27.8796C806.654 27.9597 806.473 28.0006 806.291 27.9999C805.544 27.9999 804.964 27.4508 805.002 26.6126H805.83ZM810.649 26.1663C810.647 26.0302 810.622 25.8956 810.573 25.7704C810.525 25.6452 810.455 25.5318 810.367 25.4366C810.279 25.3414 810.175 25.2664 810.06 25.2157C809.946 25.1651 809.824 25.1399 809.701 25.1416C809.575 25.1415 809.451 25.1692 809.335 25.2229C809.219 25.2766 809.113 25.3553 809.025 25.4543C808.937 25.5534 808.867 25.6709 808.821 25.8C808.774 25.929 808.751 26.0671 808.753 26.2061C808.758 26.476 808.858 26.7333 809.03 26.9242C809.203 27.1151 809.436 27.2249 809.68 27.2308C809.807 27.2339 809.934 27.2086 810.053 27.1562C810.171 27.1039 810.279 27.0257 810.369 26.9264C810.46 26.827 810.531 26.7084 810.579 26.5778C810.627 26.4472 810.651 26.3072 810.649 26.1663ZM810.637 27.4424C810.527 27.6217 810.376 27.7669 810.201 27.864C810.026 27.9612 809.83 28.0072 809.634 27.9978C809.208 27.9933 808.8 27.8023 808.501 27.4666C808.201 27.1308 808.034 26.6776 808.036 26.2061C808.035 25.7253 808.206 25.2636 808.512 24.9216C808.818 24.5797 809.234 24.3853 809.669 24.3809C809.862 24.377 810.052 24.4284 810.222 24.5301C810.392 24.6318 810.535 24.7804 810.637 24.9613V24.4647H811.752V25.2002H811.361V27.1742H811.752V27.9097H810.637V27.4445M812.69 26.9081C812.691 26.9788 812.705 27.0486 812.731 27.1131C812.757 27.1777 812.795 27.2358 812.842 27.2839C812.889 27.332 812.944 27.3692 813.004 27.3932C813.064 27.4172 813.128 27.4275 813.192 27.4236C813.299 27.4299 813.404 27.3894 813.483 27.311C813.563 27.2325 813.612 27.1224 813.619 27.0045C813.619 26.6629 813.327 26.6042 813.088 26.533C812.546 26.3779 811.951 26.1914 811.951 25.437C811.951 24.779 812.453 24.3893 813.007 24.3893C813.138 24.3753 813.27 24.3961 813.393 24.4501C813.516 24.504 813.625 24.5895 813.712 24.6994V24.4647H814.237V25.3993H813.549C813.547 25.3432 813.536 25.2879 813.514 25.2368C813.493 25.1857 813.463 25.1399 813.426 25.1019C813.388 25.064 813.344 25.0348 813.296 25.0161C813.248 24.9973 813.198 24.9894 813.147 24.9928C813.099 24.987 813.051 24.9918 813.005 25.0069C812.96 25.022 812.917 25.0471 812.88 25.0807C812.843 25.1142 812.813 25.1557 812.79 25.2025C812.768 25.2493 812.755 25.3005 812.751 25.3532C812.751 25.6759 813.037 25.7472 813.264 25.8037C813.833 25.9462 814.424 26.139 814.424 26.9123C814.424 27.608 813.894 27.9957 813.31 27.9957C813.159 28.0038 813.008 27.9745 812.869 27.91C812.729 27.8454 812.605 27.7473 812.504 27.6227V27.9056H811.962V26.906H812.692M815.018 25.2002H814.616V24.4647H815.674V24.9802C815.76 24.8022 815.889 24.653 816.045 24.5477C816.201 24.4424 816.38 24.3848 816.563 24.3809C816.77 24.3831 816.973 24.4528 817.145 24.5814C817.317 24.7099 817.452 24.8916 817.531 25.1038C817.621 24.8875 817.764 24.7042 817.946 24.5759C818.127 24.4477 818.338 24.38 818.553 24.3809C818.722 24.3798 818.89 24.4183 819.044 24.4938C819.199 24.5693 819.338 24.68 819.451 24.8189C819.696 25.1353 819.696 25.4768 819.696 25.8666V27.17H820.098V27.9056H818.581V27.17H818.983V26.0573C819 25.8425 818.968 25.6263 818.89 25.4287C818.833 25.3394 818.756 25.2671 818.668 25.2178C818.579 25.1685 818.481 25.1438 818.382 25.1458C818.283 25.1445 818.185 25.1669 818.094 25.2113C818.004 25.2558 817.923 25.3214 817.857 25.4035C817.737 25.593 817.685 25.8255 817.711 26.0552V27.1637H818.113V27.8993H816.597V27.1637H817V26.116C817.017 25.8957 816.985 25.6742 816.908 25.4706C816.856 25.3711 816.781 25.289 816.691 25.2332C816.6 25.1775 816.497 25.1501 816.394 25.1541C816.299 25.1504 816.205 25.1711 816.119 25.2148C816.032 25.2585 815.957 25.3238 815.897 25.4056C815.764 25.6082 815.704 25.8585 815.729 26.1076V27.1721H816.13V27.9077H814.614V27.1721H815.016V25.1981M821.445 24.1357H820.735V23.2975H821.445V24.1357ZM821.445 27.1721H821.847V27.9077H820.331V27.1721H820.735V25.1981H820.331V24.4647H821.445V27.1721ZM822.467 25.2002H822.063V24.4647H823.178V24.9551C823.269 24.7756 823.403 24.6276 823.566 24.5274C823.729 24.4271 823.913 24.3786 824.099 24.3872C824.267 24.3859 824.433 24.4224 824.587 24.4944C824.742 24.5665 824.881 24.6726 824.998 24.8063C825.254 25.1227 825.259 25.4349 825.259 25.8184V27.1658H825.661V27.9014H824.145V27.1658H824.546V26.0573C824.569 25.8385 824.526 25.6174 824.423 25.4287C824.357 25.3392 824.274 25.2677 824.179 25.2197C824.084 25.1717 823.98 25.1486 823.875 25.152C823.767 25.1481 823.659 25.1722 823.56 25.2224C823.462 25.2726 823.375 25.3475 823.307 25.4412C823.195 25.6609 823.148 25.9136 823.172 26.1642V27.1637H823.574V27.8993H822.058V27.1637H822.46V25.1898M828.339 25.8771C828.282 25.6401 828.154 25.4314 827.976 25.2841C827.798 25.1367 827.581 25.0593 827.359 25.064C827.148 25.0707 826.945 25.1538 826.78 25.3007C826.616 25.4476 826.5 25.6501 826.45 25.8771H828.339ZM828.882 26.8955C828.763 27.2192 828.56 27.4967 828.298 27.6929C828.037 27.8891 827.729 27.9952 827.413 27.9978C826.976 28.0003 826.557 27.811 826.247 27.4717C825.936 27.1323 825.761 26.6707 825.759 26.1883C825.756 25.7059 825.928 25.2422 826.235 24.8994C826.542 24.5565 826.959 24.3624 827.395 24.3599C827.835 24.368 828.254 24.5675 828.561 24.9152C828.707 25.0877 828.821 25.2903 828.896 25.5115C828.971 25.7326 829.006 25.9679 828.999 26.204L828.976 26.4806H826.455C826.504 26.7144 826.622 26.9232 826.791 27.0731C826.961 27.223 827.171 27.3052 827.388 27.3062C827.536 27.3141 827.684 27.2796 827.817 27.2062C827.949 27.1328 828.063 27.023 828.146 26.8871H828.887" fill="#E2E2E2"/>
<path d="M867 4C866.748 4 866.495 4.05813 866.268 4.174L855.732 9.53313C855.278 9.76506 855 10.1772 855 10.6409V21.3591C855 21.8101 855.278 22.2351 855.732 22.4669L866.268 27.826C866.49 27.9399 866.743 28 867 28C867.257 28 867.51 27.9399 867.732 27.826L878.268 22.4669C878.707 22.2351 878.985 21.8101 879 21.3591V10.6409C879 10.1899 878.722 9.76506 878.268 9.53313L867.732 4.174C867.51 4.06012 867.257 4.00009 867 4ZM866.986 5.62975C867.205 5.62975 867.425 5.68112 867.615 5.78425L876.717 10.4091C877.112 10.6022 877.346 10.963 877.346 11.3624V20.6118C877.346 20.9982 877.112 21.3721 876.717 21.5654L867.615 26.1902C867.425 26.2919 867.207 26.3454 866.986 26.3447C866.764 26.3454 866.546 26.2919 866.356 26.1902L857.253 21.5654C856.858 21.3722 856.624 21.0111 856.624 20.6118V11.3624C856.624 10.9759 856.858 10.6022 857.253 10.4091L866.356 5.78425C866.546 5.68259 866.764 5.62912 866.986 5.62975ZM866.986 6.016C866.854 6.016 866.707 6.05481 866.576 6.11913L857.473 10.7444C857.349 10.8097 857.246 10.9021 857.174 11.0126C857.102 11.1231 857.064 11.248 857.063 11.3753V20.6251C857.063 20.8827 857.224 21.1276 857.473 21.2564L866.576 25.8809C866.693 25.9454 866.839 25.9842 866.985 25.9842C867.132 25.9842 867.263 25.9454 867.395 25.8811L876.497 21.2564C876.621 21.191 876.724 21.0986 876.796 20.988C876.868 20.8774 876.906 20.7524 876.907 20.6251V11.3751C876.906 11.2478 876.868 11.1229 876.796 11.0124C876.724 10.9018 876.621 10.8095 876.497 10.7442L867.395 6.11931C867.263 6.05481 867.132 6.01619 866.986 6.01619V6.016ZM867.037 9.64881C866.963 9.739 867.051 9.95819 867.241 10.2156C867.563 10.7052 867.037 10.9756 867.037 10.9756C867.051 10.8983 866.993 10.6536 866.876 10.5376C866.524 10.0739 866.846 9.85506 867.037 9.64881ZM866.451 10.1256C866.393 10.1772 866.451 10.3317 866.583 10.4991C866.803 10.8342 866.451 11.0144 866.451 11.0144C866.451 10.9628 866.422 10.7954 866.349 10.7311C866.115 10.4089 866.32 10.2674 866.451 10.1256ZM865.383 11.2338H868.134C868.222 11.2338 868.281 11.2979 868.281 11.3624C868.281 11.8131 868.207 13.3204 867.475 14.0417C867.463 14.0544 867.447 14.0644 867.429 14.0711C867.411 14.0779 867.392 14.0812 867.373 14.0807H866.144C866.125 14.0812 866.105 14.0779 866.088 14.0712C866.07 14.0645 866.054 14.0545 866.042 14.0419C865.31 13.3075 865.236 11.8004 865.236 11.3624C865.236 11.2849 865.31 11.2338 865.383 11.2338ZM865.807 11.6331C865.768 11.6333 865.731 11.6469 865.704 11.671C865.677 11.6951 865.661 11.7278 865.661 11.7619C865.676 12.1225 865.734 13.1532 866.232 13.6684C866.245 13.681 866.26 13.691 866.278 13.6977C866.296 13.7044 866.315 13.7077 866.334 13.7072H867.198C867.242 13.7072 867.271 13.6941 867.315 13.6684C867.812 13.1402 867.885 12.1225 867.885 11.7619C867.885 11.7278 867.87 11.695 867.842 11.6708C867.815 11.6467 867.778 11.633 867.739 11.6329L865.807 11.6331ZM867.651 12.5089C867.593 12.8568 867.475 13.2561 867.227 13.5139C867.197 13.5396 867.168 13.5522 867.139 13.5522H866.407C866.378 13.5522 866.334 13.5396 866.319 13.5138C866.144 13.3206 866.027 13.063 865.954 12.7924C865.954 12.7924 866.803 12.8954 867.285 12.7407C867.637 12.6248 867.651 12.5089 867.651 12.5089ZM857.671 13.1399H865.134C865.134 13.1914 865.149 13.2304 865.149 13.282H857.671V13.1399ZM868.398 13.1399H876.329V13.282H868.383C868.383 13.2304 868.398 13.1914 868.398 13.1399H868.398ZM863.568 14.5443C863.779 14.5449 863.987 14.5799 864.183 14.6474C864.373 14.7117 864.534 14.8148 864.666 14.9307C864.797 15.0466 864.9 15.1883 864.973 15.3559C865.05 15.5193 865.09 15.6944 865.09 15.8712V15.8839C865.09 16.0643 865.046 16.2321 864.973 16.3996C864.899 16.5587 864.79 16.7033 864.651 16.8248C864.519 16.9407 864.358 17.0438 864.168 17.1081C863.978 17.1856 863.773 17.2107 863.554 17.2107C863.343 17.2102 863.135 17.1755 862.939 17.1081C862.749 17.0438 862.588 16.9407 862.456 16.8248C862.324 16.7088 862.222 16.567 862.149 16.3996C862.072 16.236 862.032 16.0609 862.032 15.8839V15.8712C862.032 15.6908 862.075 15.5234 862.149 15.3559C862.223 15.1968 862.332 15.0522 862.471 14.9307C862.602 14.8148 862.763 14.7117 862.954 14.6472C863.144 14.5699 863.349 14.5443 863.568 14.5443ZM867.607 14.5443C867.739 14.5443 867.856 14.557 867.973 14.5699C868.09 14.5958 868.178 14.6215 868.281 14.6472C868.368 14.6858 868.456 14.7246 868.529 14.7762C868.602 14.8277 868.676 14.8793 868.749 14.9438L868.412 15.2785C868.3 15.1899 868.177 15.1122 868.046 15.0468C867.915 14.9824 867.768 14.9568 867.593 14.9568C867.446 14.9568 867.329 14.9824 867.212 15.034C867.099 15.0834 866.995 15.1487 866.905 15.2273C866.817 15.3046 866.759 15.4073 866.7 15.5104C866.656 15.6263 866.627 15.7424 866.627 15.8582V15.8712C866.627 16 866.656 16.1159 866.7 16.2318C866.744 16.3478 866.817 16.438 866.905 16.528C866.993 16.6054 867.095 16.6829 867.212 16.7215C867.329 16.7601 867.461 16.7988 867.593 16.7988C867.768 16.7988 867.929 16.7731 868.046 16.7087C868.181 16.6368 868.308 16.555 868.427 16.4641L868.763 16.7599C868.69 16.8372 868.617 16.8889 868.529 16.9532C868.441 17.0177 868.354 17.0564 868.266 17.095C868.178 17.1336 868.061 17.1726 867.958 17.1854C867.827 17.2111 867.695 17.2107 867.563 17.2107C867.362 17.2116 867.163 17.1767 866.978 17.1081C866.802 17.0438 866.641 16.9407 866.509 16.8248C866.378 16.7088 866.276 16.567 866.203 16.3996C866.129 16.2321 866.086 16.0643 866.086 15.8839V15.8712C866.086 15.6908 866.129 15.5104 866.203 15.3559C866.277 15.1998 866.38 15.056 866.509 14.9307C866.641 14.8148 866.803 14.7117 866.993 14.6472C867.188 14.5785 867.397 14.5436 867.607 14.5443ZM874.486 14.5831H874.954L876.242 17.1724H875.7L875.407 16.5541H874.032L873.724 17.1722H873.198L874.486 14.5831ZM858.037 14.596H858.578L859.471 15.8067L860.364 14.596H860.905V17.1722H860.393V15.3303L859.471 16.5413H859.456L858.549 15.3432V17.1854H858.037V14.596ZM869.788 14.596H870.3V15.6653H871.705V14.596H872.217V17.1722H871.705V16.0902H870.3V17.1722H869.788V14.596ZM863.554 14.9568C863.407 14.9568 863.276 14.9824 863.159 15.034C863.045 15.0834 862.941 15.1487 862.851 15.2273C862.763 15.3046 862.705 15.4073 862.647 15.5104C862.603 15.6263 862.573 15.7424 862.573 15.8582V15.8712C862.573 16 862.603 16.1159 862.647 16.2318C862.691 16.3478 862.763 16.438 862.851 16.528C862.939 16.6054 863.042 16.6699 863.159 16.7215C863.276 16.7731 863.422 16.7988 863.554 16.7988C863.7 16.7988 863.832 16.7731 863.949 16.7215C864.063 16.6721 864.166 16.6068 864.256 16.5282C864.344 16.4508 864.403 16.3476 864.461 16.2447C864.505 16.1286 864.534 16.0128 864.534 15.8967V15.8839C864.534 15.7551 864.505 15.6391 864.461 15.5232C864.417 15.4073 864.344 15.3175 864.256 15.2273C864.166 15.1487 864.063 15.0834 863.949 15.034C863.832 14.9824 863.7 14.9568 863.554 14.9568ZM874.719 15.124L874.222 16.1545H875.217L874.719 15.124ZM857.671 17.9841H876.33V18.1255H857.671L857.671 17.9841Z" fill="#E2E2E2"/>
</svg>
