<svg width="337" height="158" viewBox="0 0 337 158" fill="none" xmlns="http://www.w3.org/2000/svg">
<mask id="mask0_249_1083" style="mask-type:luminance" maskUnits="userSpaceOnUse" x="7" y="13" width="33" height="32">
<path d="M7.5 13H39.5V45H7.5V13Z" fill="white"/>
</mask>
<g mask="url(#mask0_249_1083)">
<path d="M14.2734 13H15.7161V14.4253H17.0361V13H18.4788V17.3147H17.0361V15.8707H15.7161V17.3147H14.2748L14.2734 13ZM20.3748 14.4307H19.1054V13H23.0881V14.4307H21.8174V17.3147H20.3748V14.4307ZM23.7201 13H25.2241L26.1494 14.516L27.0734 13H28.5774V17.3147H27.1414V15.176L26.1494 16.7107H26.1241L25.1308 15.1773V17.3147H23.7201V13ZM29.2948 13H30.7388V15.8893H32.7654V17.316H29.2948V13Z" fill="#E2E2E2"/>
<path fill-rule="evenodd" clip-rule="evenodd" d="M14.228 40.8894L11.5 19.2891H35.5L32.7707 40.8869L23.4867 43.2891L14.228 40.8894ZM19.744 29.0655L19.4853 26.3523H30.3453L30.5987 23.7037H16.3853L17.1507 31.7153H26.9867L26.6573 35.1505L23.492 35.9495H23.4893L20.3293 35.153L20.1267 33.0409H17.276L17.6733 37.2004L23.4867 38.7064L29.3093 37.2004L30.0187 29.7775L30.088 29.0668H19.744V29.0655Z" fill="#E2E2E2"/>
</g>
<path d="M74.2778 13H78.0016V14.4817H75.8349V15.9634H78.0016V17.4452H74.2778V13ZM78.7455 13H82.4707V14.2893H80.3041V14.5463H82.4707V17.5098H78.7455V16.1573H80.9122V15.8988H78.7455V13ZM83.2161 13H86.9384V14.2893H84.7717V14.5463H86.9384V17.5098H83.2161V16.1573H85.3827V15.8988H83.2161V13Z" fill="#E2E2E2"/>
<path fill-rule="evenodd" clip-rule="evenodd" d="M81.487 45L71.4568 42.5263L68.5 20.2588H94.5L91.5447 42.5237L81.487 45ZM74.3457 30.3385L74.6216 33.0688H85.2772L84.9204 36.6101L81.4913 37.4338H81.4884L78.0651 36.6126L77.8456 34.4353H74.7588L75.1892 38.7233L81.487 40.2758L87.7949 38.7233L88.5633 31.0711L88.6384 30.3385L89.1931 24.8098H73.7924L74.0727 27.5414H85.8247L85.5444 30.3385H74.3457Z" fill="#E2E2E2"/>
<path d="M141.872 36.2089L140.346 38.3209C141.793 39.6116 143.592 40.2569 145.744 40.2569C147.386 40.2178 148.638 39.7947 149.498 38.9858C150.373 38.1644 150.808 37.1867 150.808 36.0524C150.808 34.9449 150.503 34.0311 149.889 33.3147C149.278 32.5982 148.247 32.024 146.8 31.5938C145.601 31.2293 144.755 30.8969 144.257 30.5964C143.763 30.2836 143.514 29.9049 143.514 29.4622C143.514 29.0587 143.717 28.7333 144.12 28.4844C144.526 28.2356 145.066 28.1129 145.744 28.1129C146.241 28.1129 146.8 28.2107 147.425 28.4062C148.051 28.5751 148.606 28.8507 149.088 29.2276L150.456 27.096C149.258 26.1307 147.667 25.6489 145.685 25.6489C144.264 25.6489 143.098 26.0133 142.184 26.744C141.246 27.4729 140.776 28.3796 140.776 29.4622C140.791 30.6089 141.168 31.5031 141.911 32.1413C142.668 32.7813 143.742 33.3022 145.137 33.7058C146.298 34.0702 147.088 34.4347 147.504 34.8009C147.696 34.9647 147.85 35.1687 147.954 35.3985C148.059 35.6282 148.112 35.8782 148.11 36.1307C148.12 36.3619 148.069 36.5916 147.963 36.7974C147.857 37.0031 147.699 37.1777 147.505 37.304C147.088 37.5902 146.487 37.7342 145.704 37.7342C144.428 37.7467 143.15 37.2382 141.872 36.2089ZM132.04 37.3431C131.611 37.0727 131.239 36.7205 130.945 36.3067L129.107 37.8124C129.655 38.7369 130.334 39.384 131.141 39.7484C131.896 40.0862 132.764 40.2569 133.742 40.2569C134.275 40.2569 134.83 40.1716 135.404 40.0027C135.986 39.829 136.525 39.5359 136.988 39.1422C137.836 38.4649 138.279 37.3556 138.318 35.8178V25.8836H135.678V35.3093C135.678 36.2089 135.475 36.8418 135.073 37.2062C134.668 37.5582 134.16 37.7342 133.546 37.7342C132.96 37.7342 132.458 37.6044 132.04 37.3431ZM123.5 18.3333C123.5 16.9188 124.062 15.5623 125.062 14.5621C126.062 13.5619 127.419 13 128.833 13H150.167C151.581 13 152.938 13.5619 153.938 14.5621C154.938 15.5623 155.5 16.9188 155.5 18.3333V39.6667C155.5 41.0812 154.938 42.4377 153.938 43.4379C152.938 44.4381 151.581 45 150.167 45H128.833C127.419 45 126.062 44.4381 125.062 43.4379C124.062 42.4377 123.5 41.0812 123.5 39.6667V18.3333ZM128.833 16.5556C128.362 16.5556 127.91 16.7429 127.576 17.0763C127.243 17.4097 127.056 17.8618 127.056 18.3333V39.6667C127.056 40.1382 127.243 40.5903 127.576 40.9237C127.91 41.2571 128.362 41.4444 128.833 41.4444H150.167C150.638 41.4444 151.09 41.2571 151.424 40.9237C151.757 40.5903 151.944 40.1382 151.944 39.6667V18.3333C151.944 17.8618 151.757 17.4097 151.424 17.0763C151.09 16.7429 150.638 16.5556 150.167 16.5556H128.833Z" fill="#E2E2E2"/>
<path d="M213.104 20.9985C212.871 20.6215 212.528 20.3066 212.113 20.0863L198.887 13.301C198.459 13.1033 197.983 13 197.5 13C197.017 13 196.541 13.1033 196.113 13.301L182.887 20.0863C182.482 20.3175 182.145 20.6312 181.904 21.0014C181.662 21.3715 181.524 21.7875 181.5 22.2147V35.7853C181.513 36.2141 181.65 36.6328 181.896 37.0015C182.129 37.3785 182.472 37.6934 182.887 37.9137L196.113 44.699C196.541 44.8967 197.017 45 197.5 45C197.983 45 198.459 44.8967 198.887 44.699L212.113 37.9137C212.528 37.6934 212.871 37.3785 213.104 37.0015C213.35 36.6328 213.487 36.2141 213.5 35.7853V22.2147C213.487 21.7859 213.35 21.3672 213.104 20.9985ZM197.5 38.4738C195.633 38.4664 193.801 38.0239 192.187 37.1907C190.573 36.3575 189.234 35.1626 188.303 33.7255C187.371 32.2885 186.881 30.6595 186.881 29.0014C186.881 27.3434 187.37 25.7143 188.301 24.277C189.232 22.8397 190.571 21.6445 192.185 20.8108C193.798 19.9772 195.63 19.5343 197.497 19.5264C199.364 19.5185 201.2 19.9459 202.823 20.7659C204.445 21.5859 205.797 22.7697 206.743 24.1991L204.707 25.3353L204.059 25.6554L202.257 26.6316C201.681 25.6841 200.764 24.9358 199.653 24.5069C198.541 24.078 197.299 23.9934 196.127 24.2666C194.955 24.5398 193.92 25.1551 193.189 26.0135C192.457 26.8719 192.072 27.9237 192.095 29C192.089 29.8328 192.339 30.6513 192.815 31.3684C193.297 32.0739 193.976 32.6572 194.785 33.062C195.595 33.4668 196.508 33.6795 197.437 33.6795C198.366 33.6795 199.279 33.4668 200.089 33.062C200.898 32.6572 201.577 32.0739 202.059 31.3684L206.743 33.8009C205.795 35.2278 204.443 36.4096 202.821 37.2293C201.2 38.049 199.366 38.478 197.5 38.4738ZM208.167 29.5281H206.977V30.6003H205.806V29.5441H204.707V28.4879H205.896V27.3997H207.068V28.4559H208.257L208.167 29.5281ZM212.617 29.5281H211.428V30.6003H210.239V29.5441H209.068V28.4879H210.239V27.3997H211.428V28.4559H212.617V29.5281Z" fill="#E2E2E2"/>
<path d="M270.893 27.574L256.921 13.6037C256.73 13.4123 256.503 13.2605 256.253 13.1569C256.003 13.0533 255.735 13 255.464 13C255.193 13 254.926 13.0533 254.676 13.1569C254.426 13.2605 254.198 13.4123 254.007 13.6037L251.107 16.5038L254.787 20.1838C255.221 20.0357 255.688 20.0125 256.135 20.1169C256.581 20.2214 256.989 20.4493 257.313 20.7746C257.636 21.1 257.861 21.5096 257.963 21.9569C258.064 22.4041 258.038 22.8708 257.887 23.3039L261.433 26.852C261.958 26.6672 262.53 26.6667 263.055 26.8504C263.58 27.0341 264.026 27.3911 264.321 27.8626C264.616 28.3341 264.742 28.892 264.678 29.4445C264.613 29.9969 264.363 30.511 263.967 30.902C263.567 31.3049 263.039 31.5563 262.474 31.6132C261.908 31.6701 261.341 31.529 260.868 31.214C260.396 30.899 260.047 30.4297 259.882 29.8862C259.717 29.3427 259.745 28.7587 259.963 28.234L256.657 24.9259V33.6321C257.16 33.8808 257.562 34.2943 257.796 34.8036C258.031 35.3128 258.084 35.8871 257.947 36.4307C257.809 36.9743 257.489 37.4544 257.041 37.791C256.592 38.1275 256.042 38.3001 255.482 38.2801C254.921 38.2601 254.385 38.0486 253.962 37.681C253.538 37.3133 253.254 36.8117 253.155 36.2596C253.057 35.7076 253.151 35.1385 253.421 34.6473C253.692 34.1561 254.122 33.7723 254.641 33.5601V24.7739C254.342 24.6512 254.069 24.4705 253.84 24.2421C253.611 24.0137 253.429 23.7422 253.305 23.4433C253.182 23.1443 253.118 22.8238 253.119 22.5002C253.119 22.1766 253.184 21.8563 253.309 21.5579L249.683 17.9298L240.103 27.51C239.717 27.8966 239.5 28.4206 239.5 28.967C239.5 29.5134 239.717 30.0374 240.103 30.424L254.075 44.3963C254.266 44.5877 254.494 44.7395 254.744 44.8431C254.994 44.9467 255.261 45 255.532 45C255.803 45 256.071 44.9467 256.321 44.8431C256.571 44.7395 256.798 44.5877 256.989 44.3963L270.895 30.49C271.087 30.2987 271.239 30.0714 271.343 29.8212C271.447 29.571 271.5 29.3029 271.5 29.032C271.5 28.7611 271.447 28.493 271.343 28.2428C271.239 27.9926 271.087 27.7653 270.895 27.574" fill="#E2E2E2"/>
<path d="M313.5 25.9935C311.927 25.9935 310.646 27.3433 310.646 29.0007C310.646 30.6582 311.927 32.0079 313.5 32.0079C315.073 32.0079 316.354 30.6582 316.354 29.0007C316.354 27.3433 315.073 25.9935 313.5 25.9935ZM305.51 34.9772L304.88 34.8129C300.192 33.5611 297.5 31.4432 297.5 28.9954C297.5 26.5477 300.193 24.4298 304.88 23.178L305.51 23.0136L305.687 23.6722C306.163 25.3971 306.771 27.0784 307.505 28.6994L307.64 28.9954L307.505 29.2968C306.769 30.9171 306.161 32.5985 305.687 34.324L305.51 34.9772ZM304.589 24.7143C301.026 25.768 298.839 27.3865 298.839 28.9954C298.839 30.6044 301.027 32.2166 304.589 33.2766C305.026 31.8147 305.553 30.3846 306.167 28.9954C305.552 27.6067 305.025 26.1765 304.589 24.7143ZM321.49 34.9772L321.313 34.3187C320.838 32.5952 320.23 30.9156 319.495 29.2968L319.36 28.9954L319.495 28.6941C320.231 27.0738 320.839 25.3924 321.313 23.6669L321.49 23.0136L322.12 23.178C326.808 24.4298 329.5 26.5477 329.5 28.9954C329.5 31.4432 326.807 33.5611 322.12 34.8129L321.49 34.9772ZM320.833 28.9954C321.449 30.3837 321.976 31.814 322.411 33.2766C325.979 32.2176 328.161 30.6044 328.161 28.9954C328.161 27.3865 325.973 25.7743 322.411 24.7143C321.973 26.1758 321.446 27.6058 320.833 28.9954ZM304.578 24.709L304.401 24.0505C303.083 19.155 303.484 15.6431 305.5 14.4187C307.479 13.2164 310.651 14.6379 313.979 18.2383L314.432 18.7272L313.979 19.2161C312.797 20.5118 311.717 21.9066 310.75 23.3867L310.568 23.6553L310.255 23.6827C308.553 23.8243 306.866 24.1107 305.208 24.5394L304.578 24.709ZM307.109 15.3965C306.75 15.3965 306.432 15.4734 306.166 15.6378C304.843 16.4449 304.609 19.2435 305.52 23.0189C306.941 22.6839 308.382 22.4473 309.833 22.3108C310.668 21.0574 311.582 19.8637 312.567 18.7378C310.489 16.603 308.52 15.3965 307.109 15.3965ZM319.896 43.9989C319.891 43.9989 319.891 43.9989 319.896 43.9989C317.995 43.9989 315.552 42.4953 313.021 39.7515L312.568 39.2626L313.021 38.7737C314.203 37.4781 315.283 36.0833 316.25 34.6032L316.427 34.3345L316.74 34.3018C318.444 34.1651 320.134 33.8785 321.792 33.4452L322.422 33.2808L322.599 33.9394C323.917 38.8348 323.516 42.3415 321.5 43.5648C321.013 43.86 320.458 44.0108 319.896 43.9989ZM314.432 39.2521C316.51 41.3868 318.479 42.5944 319.89 42.5944H319.895C320.249 42.5944 320.567 42.5122 320.833 42.3531C322.156 41.546 322.396 38.7474 321.479 34.972C320.058 35.3074 318.617 35.5422 317.166 35.6748C316.331 36.93 315.417 38.1243 314.432 39.2521ZM322.422 24.709L321.792 24.5394C320.132 24.1122 318.443 23.8257 316.74 23.6827L316.427 23.6553L316.25 23.3867C315.283 21.9066 314.203 20.5118 313.021 19.2161L312.568 18.7272L313.021 18.2383C316.349 14.6379 319.521 13.2164 321.5 14.4187C323.516 15.642 323.917 19.155 322.599 24.0505L322.422 24.709ZM317.167 22.3108C318.618 22.447 320.059 22.6835 321.48 23.0189C322.397 19.2435 322.157 16.4439 320.834 15.6378C319.516 14.837 317.037 16.0656 314.433 18.7388C315.416 19.8672 316.329 21.0606 317.167 22.3119V22.3108ZM307.109 43.9989C306.546 44.0095 305.989 43.862 305.5 43.5659C303.484 42.3425 303.083 38.8348 304.401 33.9404L304.578 33.2819L305.208 33.4462C306.75 33.8582 308.448 34.1427 310.255 34.3029L310.568 34.3356L310.745 34.6042C311.712 36.0843 312.792 37.4791 313.974 38.7747L314.427 39.2637L313.974 39.7526C311.448 42.4964 309.005 44 307.109 44V43.9989ZM305.521 34.972C304.604 38.7474 304.844 41.547 306.167 42.3531C307.485 43.1433 309.959 41.9253 312.568 39.2521C311.583 38.1243 310.669 36.9289 309.834 35.6737C308.383 35.5415 306.942 35.3078 305.521 34.972ZM313.5 35.855C312.401 35.855 311.276 35.8055 310.146 35.7064L309.833 35.679L309.651 35.405C309.013 34.4387 308.413 33.4445 307.854 32.4252C307.294 31.4058 306.774 30.3621 306.297 29.2968L306.162 28.9954L306.297 28.6941C307.253 26.5639 308.375 24.5209 309.651 22.5859L309.833 22.3119L310.146 22.2845C312.378 22.0864 314.622 22.0864 316.854 22.2845L317.167 22.3119L317.349 22.5859C318.627 24.5198 319.749 26.563 320.703 28.6941L320.838 28.9954L320.703 29.2968C319.751 31.429 318.629 33.4724 317.349 35.405L317.167 35.679L316.854 35.7064C315.738 35.8048 314.619 35.8543 313.5 35.855ZM310.573 34.3292C312.542 34.4883 314.458 34.4883 316.432 34.3292C317.533 32.6306 318.511 30.8473 319.359 28.9944C318.515 27.1384 317.535 25.3547 316.427 23.6596C314.479 23.5005 312.521 23.5005 310.573 23.6596C309.465 25.3542 308.484 27.138 307.641 28.9944C308.489 30.8482 309.469 32.6316 310.573 34.3292Z" fill="#E2E2E2"/>
<path d="M35.25 68.3334C35.25 71.2789 32.6534 73.6668 29.4503 73.6668H23.5V63H29.4503C32.6534 63 35.25 65.3878 35.25 68.3334Z" stroke="#E2E2E2" stroke-width="2"/>
<path d="M11.75 68.3334C11.75 71.2789 14.3466 73.6668 17.5497 73.6668H23.5V63H17.5497C14.3466 63 11.75 65.3878 11.75 68.3334Z" stroke="#E2E2E2" stroke-width="2"/>
<path d="M11.75 79.0004C11.75 81.9459 14.3466 84.3338 17.5497 84.3338H23.5V73.667H17.5497C14.3466 73.667 11.75 76.0548 11.75 79.0004Z" stroke="#E2E2E2" stroke-width="2"/>
<path d="M11.75 89.6666C11.75 92.6122 14.384 95 17.5871 95C20.8318 95 23.5 92.5812 23.5 89.5974V84.3333H17.5497C14.3466 84.3333 11.75 86.7211 11.75 89.6666Z" stroke="#E2E2E2" stroke-width="2"/>
<path d="M23.5 79.0004C23.5 81.9459 26.0966 84.3338 29.2997 84.3338H29.4503C32.6534 84.3338 35.25 81.9459 35.25 79.0004C35.25 76.0548 32.6534 73.667 29.4503 73.667H29.2997C26.0966 73.667 23.5 76.0548 23.5 79.0004Z" stroke="#E2E2E2" stroke-width="2"/>
<path d="M72.146 65C70.3199 65 68.9702 66.7559 69.0314 68.6586C69.0883 70.4878 69.0129 72.8561 68.4696 74.7884C67.9249 76.7255 67.0047 77.9534 65.5 78.1111V79.8889C67.0047 80.0466 67.9249 81.2745 68.4696 83.2116C69.0129 85.1424 69.0883 87.5122 69.03 89.3399C68.9702 91.2441 70.3199 93 72.1475 93H90.8554C92.6815 93 94.0326 91.2441 93.9729 89.3399C93.9146 87.5122 93.99 85.1424 94.5318 83.2116C95.078 81.2745 95.9967 80.0466 97.5 79.8889V78.1111C95.9953 77.9534 95.078 76.7255 94.5318 74.7884C93.99 72.8576 93.9146 70.4878 93.9729 68.6586C94.0326 66.7559 92.6815 65 90.8554 65H72.146ZM87.1946 82.2352C87.1946 84.8565 85.4154 86.4468 82.4614 86.4468H77.4324C77.3612 86.447 77.2906 86.4317 77.2246 86.4019C77.1587 86.3721 77.0988 86.3283 77.0484 86.273C76.9979 86.2177 76.9579 86.152 76.9305 86.0797C76.9032 86.0074 76.8892 85.9299 76.8892 85.8516V72.1484C76.8892 72.0701 76.9032 71.9926 76.9305 71.9203C76.9579 71.848 76.9979 71.7823 77.0484 71.727C77.0988 71.6717 77.1587 71.6279 77.2246 71.5981C77.2906 71.5683 77.3612 71.553 77.4324 71.5532H82.4316C84.8948 71.5532 86.5119 73.0185 86.5119 75.2696C86.5119 76.8474 85.4239 78.2627 84.0387 78.5095V78.5923C85.9245 78.8188 87.1946 80.2544 87.1946 82.2352ZM81.9124 73.4403H79.0452V77.8893H81.4602C83.3276 77.8893 84.3558 77.0645 84.3558 75.5883C84.3558 74.2058 83.4712 73.4419 81.9124 73.4419V73.4403ZM79.0452 79.6545V84.5581H82.0177C83.9619 84.5581 84.9901 83.7005 84.9901 82.0899C84.9901 80.4809 83.9334 79.6545 81.8925 79.6545H79.0452Z" fill="#E2E2E2"/>
<path d="M139.5 63C148.336 63 155.5 70.164 155.5 79C155.5 87.836 148.336 95 139.5 95C130.664 95 123.5 87.836 123.5 79C123.5 70.164 130.664 63 139.5 63ZM136.32 84.3307C136.553 85.1907 136.528 85.9947 136.288 86.72L136.201 86.96C136.169 87.0413 136.132 87.12 136.097 87.1947C135.911 87.5813 135.663 87.9413 135.357 88.2747C134.427 89.2867 133.128 89.6707 132.571 89.348C131.971 88.9987 132.269 87.568 133.349 86.428C134.511 85.204 136.176 84.416 136.176 84.416V84.412L136.32 84.3307ZM149.535 69.8493C148.812 67.0053 144.099 66.0707 139.639 67.656C136.987 68.5987 134.113 70.08 132.048 72.012C129.591 74.3067 129.2 76.3067 129.361 77.1427C129.931 80.0907 133.971 82.0187 135.632 83.4493V83.4573C135.143 83.6973 131.557 85.496 130.717 87.3573C129.817 89.3173 130.857 90.7187 131.537 90.8973C133.637 91.4787 135.797 90.4173 136.957 88.6987C138.077 87.0173 137.979 84.8573 137.496 83.7973C138.157 83.6173 138.936 83.5373 139.936 83.6587C142.737 83.9787 143.297 85.7387 143.176 86.4587C143.056 87.1773 142.479 87.5973 142.277 87.7173C142.077 87.8387 142.017 87.8773 142.036 87.9587C142.056 88.0787 142.157 88.0787 142.316 88.0587C142.536 88.0187 143.777 87.4587 143.837 86.0973C143.897 84.3773 142.256 82.4587 139.337 82.4973C138.137 82.5187 137.376 82.6187 136.837 82.8387C136.801 82.7828 136.753 82.7352 136.697 82.6987C134.897 80.7587 131.557 79.3987 131.697 76.8187C131.737 75.8787 132.077 73.4 138.097 70.4C143.037 67.9387 146.979 68.62 147.659 70.12C148.636 72.2587 145.557 76.24 140.417 76.8187C138.457 77.0387 137.437 76.28 137.176 75.9987C136.897 75.6987 136.857 75.6787 136.757 75.74C136.597 75.82 136.697 76.08 136.757 76.24C136.917 76.64 137.537 77.34 138.619 77.7C139.557 78 141.859 78.1787 144.619 77.1C147.717 75.9013 150.137 72.56 149.437 69.76L149.535 69.8493Z" fill="#E2E2E2"/>
<path d="M197.5 63C193.228 63 190.572 66.5467 189.5 73.6667C191.1 70.12 192.972 68.7867 195.1 69.6667C196.316 70.1733 197.196 71.64 198.156 73.2667C199.724 75.9333 201.5 79 205.5 79C209.772 79 212.428 75.4533 213.5 68.3333C211.9 71.88 210.028 73.2133 207.9 72.3333C206.684 71.8267 205.82 70.36 204.844 68.7333C203.276 66.0667 201.5 63 197.5 63ZM189.5 79C185.228 79 182.572 82.5467 181.5 89.6667C183.1 86.12 184.972 84.7867 187.1 85.6667C188.316 86.1733 189.18 87.64 190.156 89.2667C191.724 91.9333 193.5 95 197.5 95C201.772 95 204.428 91.4533 205.5 84.3333C203.9 87.88 202.028 89.2133 199.9 88.3333C198.684 87.8267 197.82 86.36 196.844 84.7333C195.276 82.0667 193.5 79 189.5 79Z" fill="#E2E2E2"/>
<path d="M266.472 84.8515C266.607 84.7618 266.719 84.6325 266.797 84.4767C266.876 84.3207 266.917 84.1435 266.917 83.963L266.933 78.0119C266.934 77.8315 266.975 77.6543 267.053 77.4983C267.132 77.3423 267.245 77.213 267.38 77.1234L270.167 75.2678C270.302 75.1783 270.455 75.1315 270.611 75.132C270.767 75.1325 270.92 75.1803 271.055 75.2709C271.19 75.3607 271.302 75.49 271.38 75.6457C271.458 75.8019 271.499 75.9791 271.499 76.1594V86.9787C271.499 87.1596 271.457 87.3373 271.379 87.4939C271.3 87.6504 271.188 87.7802 271.052 87.8703L260.528 94.8641C260.394 94.9532 260.242 95 260.087 95C259.932 95 259.78 94.9532 259.645 94.8641L251.387 89.4005C251.251 89.3106 251.137 89.1808 251.059 89.0241C250.98 88.8671 250.939 88.6888 250.939 88.5074V83.0514C250.939 83.0452 250.944 83.0422 250.949 83.0452C250.955 83.0483 250.96 83.0452 250.96 83.0375V83.0314C250.96 83.0267 250.963 83.0236 250.965 83.0206L257.768 78.5009C257.773 78.4963 257.771 78.4855 257.764 78.4855C257.763 78.4855 257.762 78.4852 257.761 78.4847C257.76 78.4842 257.759 78.4834 257.759 78.4824C257.758 78.4816 257.758 78.4806 257.757 78.4795C257.757 78.4784 257.757 78.4773 257.757 78.4763L257.771 73.1283C257.771 72.9471 257.731 72.769 257.653 72.6119C257.575 72.4548 257.462 72.3243 257.327 72.2336C257.191 72.1433 257.038 72.0958 256.882 72.0958C256.726 72.0958 256.573 72.1433 256.437 72.2336L251.383 75.6056C251.248 75.6953 251.095 75.7425 250.939 75.7425C250.784 75.7425 250.631 75.6953 250.496 75.6056L245.424 72.2274C245.289 72.1378 245.136 72.0907 244.98 72.0909C244.824 72.0912 244.671 72.1387 244.537 72.2289C244.402 72.319 244.29 72.4485 244.212 72.6044C244.134 72.7604 244.092 72.9373 244.092 73.1175V82.7845C244.092 82.9648 244.051 83.1418 243.974 83.298C243.896 83.4542 243.784 83.5841 243.649 83.6746C243.515 83.7649 243.362 83.8128 243.207 83.8134C243.051 83.8139 242.898 83.7671 242.763 83.6777L239.948 81.8158C239.812 81.726 239.699 81.5962 239.62 81.4395C239.541 81.282 239.5 81.1032 239.5 80.9212L239.525 64.0258C239.526 63.8458 239.567 63.6692 239.645 63.5134C239.723 63.3577 239.835 63.2283 239.97 63.1383C240.104 63.0482 240.257 63.0006 240.412 63.0001C240.568 62.9997 240.721 63.0464 240.856 63.1357L250.496 69.5419C250.631 69.6316 250.784 69.6788 250.939 69.6788C251.095 69.6788 251.248 69.6316 251.383 69.5419L261.02 63.1357C261.155 63.0462 261.308 62.9994 261.464 63C261.62 63.0004 261.773 63.0482 261.908 63.1388C262.043 63.2291 262.155 63.3589 262.233 63.5152C262.311 63.6716 262.351 63.8487 262.351 64.0289V80.9289C262.351 81.1094 262.311 81.2867 262.232 81.4441C262.154 81.6006 262.041 81.7304 261.905 81.8205L256.859 85.1832C256.723 85.2737 256.61 85.404 256.532 85.5611C256.454 85.7178 256.413 85.8955 256.413 86.0763C256.413 86.2573 256.455 86.435 256.533 86.5915C256.612 86.7485 256.726 86.8783 256.863 86.9679L259.647 88.802C259.781 88.8899 259.932 88.9361 260.087 88.9362C260.242 88.9359 260.395 88.8886 260.529 88.7989L266.472 84.85V84.8515ZM267.056 69.6915C267.056 69.873 267.097 70.0513 267.176 70.2083C267.255 70.3654 267.37 70.4953 267.507 70.5846C267.643 70.6739 267.798 70.7198 267.955 70.7177C268.112 70.7155 268.265 70.6654 268.4 70.5723L271.068 68.7213C271.2 68.63 271.308 68.5009 271.384 68.3464C271.46 68.1917 271.5 68.0169 271.5 67.8389V64.069C271.5 63.8874 271.458 63.7091 271.379 63.5522C271.299 63.3954 271.185 63.2656 271.049 63.1762C270.912 63.0868 270.757 63.0409 270.6 63.0432C270.443 63.0452 270.289 63.0953 270.155 63.1882L267.488 65.0392C267.356 65.1303 267.247 65.2595 267.171 65.4141C267.095 65.569 267.056 65.7438 267.056 65.9216V69.6915Z" fill="#E2E2E2"/>
<path d="M319.487 67.5C319.405 67.5 319.326 67.5369 319.268 67.6027C319.21 67.6685 319.177 67.7576 319.177 67.8506V74.2753L317.891 73.4256C317.812 73.3724 317.721 73.3444 317.629 73.3444C317.537 73.3444 317.446 73.3724 317.367 73.4256L314.276 75.4662C314.197 75.5179 314.132 75.5922 314.086 75.6816C314.04 75.7711 314.016 75.8725 314.016 75.9758V80.0618C314.016 80.2722 314.115 80.4662 314.276 80.5714L317.367 82.612C317.446 82.6652 317.537 82.6932 317.629 82.6932C317.721 82.6932 317.812 82.6652 317.891 82.612L320.982 80.5714C321.061 80.5197 321.126 80.4455 321.172 80.356C321.218 80.2666 321.242 80.1651 321.242 80.0618V68.9376C321.242 68.8356 321.218 68.7356 321.173 68.6472C321.128 68.5589 321.064 68.4853 320.986 68.4338L319.641 67.5479C319.595 67.517 319.542 67.5004 319.488 67.5H319.487ZM309.371 73.3461C309.279 73.346 309.188 73.3734 309.109 73.4256L306.018 75.4662C305.939 75.5179 305.874 75.5922 305.828 75.6816C305.782 75.7711 305.758 75.8725 305.758 75.9758V80.0618C305.758 80.2722 305.857 80.4662 306.018 80.5714L309.109 82.612C309.271 82.7172 309.47 82.7172 309.633 82.612L312.724 80.5714C312.803 80.5197 312.868 80.4455 312.914 80.356C312.96 80.2666 312.984 80.1651 312.984 80.0618V75.9758C312.984 75.8725 312.96 75.7709 312.914 75.6814C312.869 75.592 312.803 75.5177 312.724 75.4662L309.633 73.4256C309.553 73.3734 309.463 73.346 309.371 73.3461ZM325.887 73.3461C325.795 73.3456 325.704 73.373 325.625 73.4256L322.534 75.4662C322.455 75.5179 322.39 75.5922 322.344 75.6816C322.298 75.7711 322.274 75.8725 322.274 75.9758V80.0618C322.274 80.2722 322.373 80.4662 322.534 80.5714L325.532 82.6225C325.611 82.677 325.702 82.7062 325.795 82.707C325.887 82.7078 325.978 82.6802 326.058 82.6272L327.533 81.6572C327.567 81.634 327.596 81.6011 327.616 81.5615C327.636 81.5219 327.646 81.4771 327.646 81.4316C327.646 81.386 327.636 81.3412 327.616 81.3017C327.596 81.2621 327.567 81.2291 327.533 81.206L324.339 79.0754V76.9786L325.887 75.9583L327.435 76.9786V78.4396C327.435 78.6347 327.58 78.6651 327.677 78.5997C328.199 78.2547 328.721 77.9107 329.244 77.5677C329.322 77.5163 329.386 77.4428 329.431 77.3544C329.476 77.266 329.5 77.1659 329.5 77.0639V75.977C329.5 75.8736 329.476 75.7721 329.43 75.6826C329.385 75.5931 329.319 75.5189 329.24 75.4674L326.149 73.4268C326.07 73.3744 325.979 73.3469 325.887 73.3473V73.3461ZM301.113 73.3485C301.021 73.3479 300.93 73.3754 300.851 73.4279L297.76 75.4662C297.681 75.5184 297.615 75.5931 297.57 75.6829C297.524 75.7727 297.5 75.8745 297.5 75.9782V81.1943C297.5 81.4491 297.744 81.6069 297.938 81.4795L299.309 80.5761C299.386 80.5245 299.451 80.4507 299.496 80.3622C299.541 80.2736 299.564 80.1733 299.565 80.0712V76.9821L301.113 75.9595L302.661 76.9821V80.0712C302.661 80.1731 302.685 80.2732 302.73 80.3616C302.775 80.45 302.84 80.5235 302.917 80.5749L304.288 81.4795C304.332 81.5087 304.383 81.5242 304.434 81.5243C304.485 81.5245 304.535 81.5093 304.58 81.4804C304.624 81.4515 304.661 81.4098 304.687 81.3596C304.712 81.3093 304.726 81.2523 304.726 81.1943V75.9782C304.726 75.8745 304.702 75.7727 304.656 75.6829C304.61 75.5931 304.545 75.5184 304.466 75.4662L301.375 73.4279C301.296 73.3754 301.205 73.3479 301.113 73.3485ZM317.629 75.9571L319.177 76.9798V79.0578L317.629 80.0805L316.081 79.0578V76.9786L317.629 75.956V75.9571ZM325.887 76.8547L325.002 77.4391V78.6055L325.887 79.1876L326.772 78.6055V77.4391L325.887 76.8547ZM313.403 81.5227C313.296 81.5221 313.19 81.5527 313.096 81.6116L310.194 83.512C310.1 83.5719 310.023 83.659 309.969 83.7641C309.915 83.8693 309.887 83.9888 309.887 84.1104V87.9042C309.887 88.1484 310.008 88.3787 310.194 88.5026L310.958 88.9958C311.324 89.2003 311.459 89.2003 311.625 89.2003C312.173 89.2003 312.484 88.8298 312.484 88.1753V84.4271C312.485 84.4143 312.483 84.4016 312.478 84.3897C312.474 84.3778 312.468 84.367 312.46 84.3578C312.452 84.3487 312.443 84.3414 312.432 84.3364C312.422 84.3315 312.411 84.3289 312.4 84.3289H312.032C312.009 84.3289 311.987 84.3393 311.971 84.3577C311.955 84.3761 311.945 84.4011 311.945 84.4271V88.1753C311.945 88.4593 311.68 88.7515 311.248 88.5072L310.453 87.9883C310.44 87.9791 310.429 87.9663 310.421 87.9512C310.414 87.9361 310.41 87.9192 310.409 87.9018V84.108C310.409 84.0741 310.424 84.0344 310.454 84.0169L313.357 82.1223C313.37 82.1136 313.386 82.1091 313.402 82.1091C313.418 82.1091 313.433 82.1136 313.447 82.1223L316.353 84.0157C316.383 84.0344 316.398 84.0683 316.398 84.108V87.9018C316.397 87.92 316.393 87.9379 316.386 87.9538C316.378 87.9697 316.367 87.9832 316.353 87.993L313.447 89.8946C313.433 89.9032 313.418 89.9078 313.402 89.9078C313.386 89.9078 313.37 89.9032 313.357 89.8946L312.615 89.3943C312.595 89.3826 312.564 89.3768 312.544 89.3885C312.408 89.4871 312.261 89.5638 312.106 89.6164C312.056 89.6339 311.988 89.669 312.133 89.7601L313.096 90.4088C313.191 90.4668 313.296 90.4981 313.403 90.5C313.51 90.5012 313.615 90.4679 313.705 90.4041L316.609 88.5026C316.703 88.4426 316.78 88.3556 316.834 88.2504C316.888 88.1452 316.916 88.0257 316.916 87.9042V84.1104C316.914 83.9892 316.885 83.8705 316.832 83.7656C316.778 83.6608 316.701 83.5735 316.609 83.512L313.705 81.6127C313.613 81.5536 313.509 81.5229 313.403 81.5239V81.5227ZM317.931 83.2735C317.858 83.2737 317.786 83.2902 317.718 83.322C317.651 83.3539 317.589 83.4005 317.538 83.4592C317.433 83.5778 317.375 83.7385 317.375 83.9058C317.375 84.0732 317.434 84.2336 317.539 84.3518C317.644 84.4699 317.786 84.5361 317.934 84.5358C318.081 84.5355 318.223 84.4687 318.327 84.3501C318.432 84.2315 318.49 84.0709 318.49 83.9035C318.49 83.7361 318.431 83.5757 318.326 83.4576C318.221 83.3394 318.079 83.2732 317.931 83.2735ZM317.925 83.3741C318.187 83.3741 318.4 83.6078 318.4 83.9035C318.398 84.0454 318.348 84.181 318.259 84.2813C318.17 84.3817 318.051 84.439 317.925 84.4411C317.801 84.4396 317.682 84.3821 317.594 84.2813C317.507 84.1805 317.459 84.0447 317.46 83.9035C317.459 83.834 317.471 83.7652 317.494 83.7009C317.518 83.6366 317.552 83.5781 317.595 83.5289C317.638 83.4797 317.69 83.4407 317.746 83.4141C317.803 83.3875 317.864 83.3739 317.925 83.3741ZM317.722 83.5459V84.2553H317.841V83.9725H317.952C317.998 83.9725 318.008 83.9935 318.018 84.0332C318.018 84.0391 318.037 84.2237 318.042 84.2576H318.171C318.155 84.196 318.145 84.1325 318.141 84.0683C318.127 83.9771 318.122 83.914 318.037 83.9082C318.082 83.8906 318.158 83.8638 318.158 83.7329C318.158 83.5447 318.013 83.5459 317.938 83.5459H317.722ZM317.841 83.6592H317.942C317.973 83.6592 318.033 83.6592 318.033 83.7551C318.033 83.7948 318.017 83.8603 317.936 83.8579H317.841V83.6592ZM314.181 84.2389C313.352 84.2389 312.86 84.6398 312.86 85.299C312.86 86.0213 313.353 86.2141 314.147 86.3041C315.097 86.4128 315.171 86.5671 315.171 86.7775C315.171 87.1468 314.909 87.2999 314.296 87.2999C313.527 87.2999 313.359 87.0849 313.303 86.6524C313.298 86.6057 313.262 86.5718 313.216 86.5718H312.838C312.827 86.5718 312.816 86.5743 312.805 86.5793C312.795 86.5842 312.786 86.5915 312.778 86.6007C312.77 86.6098 312.764 86.6207 312.76 86.6326C312.755 86.6445 312.753 86.6572 312.754 86.67C312.754 87.2216 313.02 87.882 314.291 87.882C315.223 87.882 315.75 87.4729 315.75 86.7553C315.75 86.0447 315.327 85.8553 314.433 85.7186C313.529 85.5818 313.439 85.5129 313.439 85.2733C313.439 85.0746 313.513 84.814 314.182 84.814C314.779 84.814 315.002 84.9624 315.093 85.417C315.103 85.4638 315.131 85.4907 315.171 85.4907H315.548C315.573 85.4907 315.594 85.479 315.609 85.4626C315.624 85.4404 315.634 85.4182 315.63 85.3902C315.57 84.6048 315.111 84.2389 314.181 84.2389Z" fill="#E2E2E2"/>
<path d="M39.3584 113.121C39.276 113.038 39.1715 112.995 39.0649 113.001C38.7729 113.001 38.3949 113.244 38.1911 113.374L38.1106 113.424C37.7695 113.627 37.3981 113.742 37.0194 113.761C36.6309 113.776 36.2964 113.804 35.8606 113.86C33.2789 114.185 32.1274 116.61 31.0182 118.956C30.4142 120.232 29.7907 121.558 28.9357 122.57C28.7587 122.78 28.5706 122.976 28.3727 123.156C27.4877 123.963 26.3764 124.538 25.5119 124.946C24.6797 125.336 23.7709 125.687 22.8934 126.026C22.0887 126.336 21.3297 126.63 20.6315 126.948C20.3603 127.07 20.0873 127.187 19.8127 127.297C19.1765 127.55 18.7182 127.744 18.0477 128.309C17.8075 128.509 17.5737 128.721 17.3467 128.943C16.8147 129.463 16.3439 130.071 15.9475 130.749C15.6066 131.374 15.2126 131.954 14.7722 132.478C14.6307 132.647 14.3797 132.731 14.0037 132.731C13.5637 132.731 13.03 132.62 12.4652 132.502C11.8827 132.375 11.2807 132.255 10.7645 132.255C10.3452 132.255 10.024 132.339 9.78449 132.508C9.78449 132.508 9.38024 132.797 9.20999 133.17L9.37749 133.263C9.63696 133.435 9.8772 133.648 10.0922 133.896C10.3165 134.15 10.5662 134.367 10.8355 134.544C10.9215 134.582 10.9998 134.643 11.065 134.722C10.9947 134.849 10.8915 135.012 10.7827 135.187C10.1867 136.142 9.83924 136.746 10.0385 137.075C10.134 137.136 10.2407 137.166 10.3482 137.161C11.6472 137.161 12.3455 136.747 13.2282 136.223C13.4842 136.072 13.7447 135.916 14.0545 135.755C14.5707 135.481 15.1265 135.043 15.7162 134.579C16.4872 133.963 17.2937 133.33 18.0767 133.025C18.72 132.784 19.39 132.669 20.0625 132.683C20.8887 132.683 21.7582 132.818 22.5969 132.95C23.2217 133.049 23.8692 133.15 24.5044 133.197C24.7509 133.214 24.9794 133.223 25.2012 133.223C25.4982 133.224 25.7951 133.206 26.0904 133.167L26.1614 133.136C26.6067 132.801 26.8157 132.081 27.0177 131.384C27.1477 130.936 27.2577 130.534 27.4307 130.278C27.4409 130.265 27.452 130.254 27.4637 130.244C27.4718 130.239 27.4812 130.237 27.4903 130.238C27.4995 130.24 27.5079 130.246 27.5142 130.254V130.274C27.4112 132.997 26.5167 134.726 25.6122 136.263L25.0082 137.057C25.0082 137.057 25.8539 137.057 26.3349 136.829C28.0909 136.185 29.4159 134.768 30.3802 132.507C30.6181 131.927 30.8308 131.331 31.0174 130.723C31.0337 130.673 31.1857 130.579 31.1714 130.841C31.1662 130.918 31.1619 131.004 31.1567 131.094C31.1567 131.147 31.1567 131.202 31.1484 131.256C31.1234 131.636 31.0504 132.439 31.0504 132.439L31.5927 132.083C32.8999 131.07 33.9077 129.027 34.6722 125.849C34.9902 124.525 35.2234 123.209 35.4289 122.051C35.6747 120.659 35.8864 119.465 36.1291 119.002C36.5101 118.275 37.0916 117.784 37.6544 117.307C37.7309 117.242 37.8084 117.18 37.8836 117.112C38.5911 116.503 39.2944 115.8 39.4494 114.49V114.461C39.5619 113.484 39.4669 113.234 39.3584 113.121ZM37.5376 144.907H34.9559V139.394H37.2846C38.1746 139.394 39.0226 139.6 39.0101 140.822C39.0101 141.684 38.5734 141.923 38.1129 142.013C38.7666 142.082 39.1599 142.593 39.1599 143.419C39.1641 144.655 38.2791 144.907 37.5376 144.907V144.907ZM37.3446 141.8C38.2359 141.8 38.4351 141.379 38.4351 140.845C38.4351 140.043 38.0364 139.86 37.3446 139.86H35.4942V141.799L37.3446 141.8ZM37.3694 142.266H35.4942V144.441H37.4499C37.9984 144.441 38.5776 144.22 38.5776 143.373C38.5776 142.395 37.9114 142.266 37.3694 142.266ZM29.4952 139.394H31.5264C33.2334 139.394 34.0864 140.548 34.0739 142.15C34.0864 143.816 33.1449 144.907 31.6762 144.907H29.4949L29.4952 139.394ZM30.0557 139.883V144.426H31.6049C32.9629 144.426 33.4802 143.303 33.4802 142.135C33.4802 140.814 32.8327 139.883 31.6052 139.883H30.0557ZM27.3462 141.525V140.883H28.1972V144.907H27.3492V144.259C27.1252 144.725 26.6644 144.992 26.1037 144.992C24.9327 144.992 24.2779 143.979 24.2779 142.815C24.2779 141.692 24.8977 140.789 25.9789 140.789C26.5924 140.798 27.1034 141.051 27.3462 141.525ZM25.1774 142.869C25.1774 143.61 25.5574 144.244 26.2929 144.244C27.0032 144.244 27.3894 143.625 27.3894 142.892C27.3894 142.159 26.9897 141.532 26.2534 141.532C25.5464 141.532 25.1784 142.158 25.1784 142.869H25.1774ZM22.6742 139.821C22.6725 139.748 22.6832 139.675 22.7056 139.608C22.728 139.54 22.7617 139.479 22.8044 139.428C22.8471 139.377 22.898 139.337 22.9538 139.312C23.0096 139.286 23.0692 139.275 23.1287 139.279C23.1893 139.277 23.2497 139.289 23.3062 139.317C23.3627 139.344 23.4142 139.384 23.4574 139.437C23.5006 139.489 23.5346 139.551 23.5575 139.62C23.5804 139.689 23.5916 139.763 23.5904 139.837C23.5917 139.911 23.5804 139.983 23.5572 140.051C23.5341 140.119 23.4997 140.18 23.4562 140.23C23.4127 140.28 23.3611 140.319 23.3047 140.343C23.2483 140.368 23.1883 140.377 23.1287 140.372C23.0688 140.375 23.0089 140.363 22.953 140.336C22.897 140.31 22.8461 140.27 22.8034 140.218C22.7607 140.166 22.7272 140.104 22.705 140.036C22.6828 139.968 22.6723 139.895 22.6742 139.821ZM22.7117 140.883H23.5592V143.823C23.5592 144.006 23.5904 144.136 23.7142 144.136C23.7686 144.135 23.8228 144.127 23.8762 144.114L24.0074 144.873C23.8291 144.959 23.6387 145.002 23.4469 145C23.0917 145 22.7114 144.873 22.7114 143.884L22.7117 140.883ZM20.5375 144.907H19.691V140.883H20.5375V141.785C20.6343 141.496 20.7981 141.249 21.0086 141.074C21.219 140.899 21.4668 140.803 21.7212 140.799C21.9015 140.796 22.0808 140.832 22.2509 140.905L22.0702 141.665C21.9239 141.617 21.7733 141.591 21.6219 141.588C21.0107 141.588 20.5375 142.153 20.5375 142.981V144.907ZM17.7782 141.525V140.883H18.6262V144.907H17.7782V144.26C17.5542 144.725 17.0937 144.992 16.5327 144.992C15.3607 144.992 14.707 143.979 14.707 142.815C14.707 141.692 15.3267 140.79 16.408 140.79C17.0245 140.799 17.5355 141.052 17.7782 141.525ZM15.6095 142.87C15.6095 143.61 15.9895 144.244 16.725 144.244C17.4345 144.244 17.8207 143.625 17.8207 142.892C17.8207 142.159 17.422 141.533 16.6847 141.533C15.9782 141.533 15.6107 142.158 15.6107 142.87H15.6095ZM13.2995 139.394L14.4622 144.907H13.5847L12.81 140.936L11.35 144.907H10.6087L9.15674 140.959L8.35925 144.907H7.5L8.6525 139.394H9.41249L10.9825 143.663L12.5457 139.394H13.2995Z" fill="#E2E2E2"/>
<path fill-rule="evenodd" clip-rule="evenodd" d="M86.3968 121.179C85.7186 119.049 84.6307 117.163 83.0978 115.541C82.7103 115.131 82.2795 114.755 82.0092 114.244C81.8383 113.921 81.6755 113.593 81.5091 113.268L81.4034 113L81.3739 113.106C81.3601 113.636 81.0622 113.996 80.6913 114.332C80.2736 114.71 79.885 115.12 79.4839 115.517L78.2505 117.153L77.2533 119.003L76.5863 120.82L76.5662 120.848C76.1993 122.064 76.0183 123.315 75.9295 124.577C75.8959 125.052 75.9344 125.533 75.9607 126.011C75.9985 126.693 76.1159 127.363 76.292 128.023C76.9319 130.421 78.2307 132.409 80.0066 134.099C80.3364 134.413 80.6929 134.698 81.0369 134.997L81.1893 135.524L81.331 136.343L81.3987 137.198C81.3979 137.371 81.3909 137.545 81.401 137.718C81.4039 137.763 81.4612 137.804 81.4935 137.846L81.781 137.948L82.0803 138.066L82.029 137.306L82.0266 136.558L82.13 135.418L82.205 135.17L82.4199 134.786C82.685 134.571 82.9691 134.376 83.2106 134.137C83.6473 133.704 84.0833 133.265 84.4742 132.791C84.9828 132.176 85.4172 131.503 85.7683 130.785C86.0025 130.303 86.2233 129.812 86.4059 129.309C86.5668 128.865 86.6666 128.399 86.7934 127.943L86.8268 127.844C87.0885 126.612 87.1325 125.368 87.0364 124.116C86.9591 123.107 86.7239 122.133 86.3968 121.179ZM81.214 134.387C81.2541 134.185 81.3039 133.983 81.3401 133.78C81.3039 133.983 81.2544 134.185 81.214 134.387ZM92.5616 139.237C92.3465 138.821 92.0309 138.505 91.6136 138.298C91.2641 138.124 90.8883 138.048 90.5018 138.037C90.2122 138.029 89.9216 138.044 89.6314 138.047C89.3739 138.051 89.116 138.055 88.8585 138.053C88.5556 138.049 88.2527 138.04 87.9498 138.032C87.8995 138.03 87.8638 138.04 87.8404 138.092C87.8037 138.172 87.7602 138.249 87.7151 138.337L87.7656 138.353C87.9159 138.38 88.067 138.403 88.2165 138.433C88.4087 138.472 88.4951 138.583 88.504 138.746C88.517 138.979 88.5222 139.213 88.5214 139.446C88.5175 140.369 88.511 141.292 88.5043 142.215C88.5037 142.276 88.5027 142.34 88.4863 142.397C88.4673 142.463 88.4467 142.549 88.3977 142.581C88.3096 142.639 88.2108 142.677 88.1073 142.693C87.9612 142.717 87.9368 142.724 87.8912 142.869L87.8714 142.941C87.8495 143.02 87.8612 143.036 87.943 143.037C88.4123 143.042 88.8814 143.052 89.3504 143.051C89.7783 143.049 90.2062 143.075 90.6326 142.994C91.0355 142.918 91.4115 142.784 91.7548 142.557C92.2002 142.263 92.5205 141.869 92.6895 141.355C92.826 140.94 92.8565 140.517 92.8101 140.083C92.7812 139.788 92.6969 139.501 92.5616 139.237ZM91.7394 141.775C91.4884 142.246 91.1139 142.561 90.5787 142.644C90.2435 142.696 89.9078 142.681 89.5882 142.553C89.3858 142.472 89.3106 142.296 89.3043 142.087C89.2986 141.883 89.2957 141.679 89.2957 141.475C89.2947 140.756 89.2947 140.038 89.2957 139.32C89.2963 139.094 89.3002 138.867 89.3038 138.641C89.3064 138.481 89.3395 138.428 89.4934 138.415C90.1695 138.358 90.8146 138.431 91.3503 138.911C91.6816 139.208 91.8702 139.587 91.9486 140.022C91.9811 140.203 91.991 140.389 92.0113 140.572C91.9949 140.992 91.9387 141.401 91.7394 141.775ZM97.4142 140.997C97.2808 140.67 97.0282 140.464 96.7107 140.333C96.6024 140.288 96.4906 140.251 96.3737 140.207L96.4146 140.181C96.5409 140.1 96.6815 140.034 96.7904 139.933C97.055 139.688 97.1649 139.381 97.1133 139.015C97.0644 138.668 96.8925 138.413 96.5854 138.247C96.3068 138.097 96.0062 138.043 95.6953 138.043C95.1572 138.043 94.6189 138.052 94.0808 138.053C93.8954 138.053 93.7099 138.039 93.5245 138.036C93.4885 138.036 93.4352 138.045 93.4198 138.069C93.3773 138.135 93.3492 138.211 93.319 138.284C93.3016 138.326 93.3187 138.35 93.3669 138.356C93.4964 138.374 93.6255 138.396 93.7552 138.415C93.9344 138.443 94.0211 138.537 94.0321 138.719L94.0344 138.827C94.0347 139.393 94.0365 139.959 94.0342 140.525C94.0308 141.091 94.0255 141.656 94.0183 142.221C94.0175 142.292 94.0079 142.364 93.9977 142.435C93.9823 142.541 93.9258 142.615 93.8175 142.638L93.5109 142.699C93.4747 142.706 93.4224 142.705 93.4076 142.728C93.3513 142.813 93.306 142.905 93.3122 143.017L93.3437 143.026L94.3733 143.051L94.5798 143.051C94.9361 143.046 95.2929 143.054 95.6486 143.035C96.0338 143.016 96.3956 142.9 96.73 142.702C97.086 142.491 97.36 142.212 97.4574 141.792C97.5199 141.525 97.5202 141.255 97.4142 140.997ZM94.7986 138.585C94.8001 138.471 94.8499 138.422 94.9619 138.419C95.2377 138.411 95.5116 138.413 95.7778 138.509C96.1221 138.633 96.3339 138.932 96.3299 139.298C96.3281 139.439 96.3302 139.578 96.2789 139.713C96.1776 139.979 95.9833 140.119 95.7078 140.147C95.564 140.161 95.4189 140.163 95.2908 140.17L94.8631 140.151C94.8064 140.149 94.7816 140.123 94.7819 140.065L94.7986 138.585ZM96.5711 142.13C96.4333 142.432 96.1823 142.591 95.8679 142.647C95.6174 142.69 95.3605 142.679 95.1147 142.613C94.9309 142.566 94.8559 142.417 94.8191 142.251C94.7944 142.141 94.7986 142.009 94.7965 141.894C94.7931 141.717 94.7957 141.348 94.7957 141.348H94.792C94.792 141.085 94.7928 140.858 94.7913 140.606C94.791 140.551 94.8001 140.524 94.866 140.526C95.0999 140.534 95.3345 140.537 95.5684 140.547C95.7775 140.555 95.9734 140.617 96.1575 140.717C96.4378 140.87 96.6065 141.103 96.6529 141.424C96.6883 141.667 96.6732 141.906 96.5711 142.13ZM70.8952 142.413L70.9001 140.985C70.9009 140.77 70.8738 140.559 70.804 140.355C70.6115 139.794 70.0808 139.538 69.5281 139.74C69.2768 139.832 69.0515 139.971 68.8364 140.128C68.7111 140.22 68.7111 140.22 68.6205 140.089C68.364 139.718 67.9975 139.591 67.5709 139.728C67.2951 139.816 67.0539 139.967 66.8255 140.143C66.8042 140.159 66.7612 140.177 66.7484 140.168C66.7271 140.152 66.7122 140.113 66.7128 140.085L66.7284 139.831C66.7297 139.778 66.7195 139.724 66.7143 139.668C66.6112 139.704 66.5289 139.74 66.4427 139.761C66.1763 139.827 65.908 139.887 65.64 139.949C65.5752 139.964 65.5067 139.984 65.5004 140.059C65.4939 140.133 65.5645 140.145 65.6192 140.167C65.7343 140.214 65.8486 140.263 65.9624 140.314C66.058 140.356 66.0937 140.433 66.0932 140.537C66.0914 140.98 66.0942 141.422 66.0916 141.864C66.0906 142.044 66.0822 142.224 66.0742 142.404C66.0669 142.564 66.013 142.63 65.8598 142.671C65.7786 142.692 65.696 142.707 65.6142 142.726C65.5963 142.73 65.5655 142.742 65.5653 142.751C65.5619 142.829 65.5577 142.909 65.5707 142.984C65.5733 142.998 65.6551 142.998 65.7004 143.003L65.7309 143.002C66.0466 142.997 66.3622 142.992 66.6781 142.988C66.8456 142.987 67.0128 142.988 67.1946 142.988L67.2141 142.733C67.1099 142.714 67.017 142.7 66.9253 142.679C66.7823 142.648 66.7214 142.571 66.7177 142.426L66.7151 142.218C66.7135 141.677 66.7115 141.137 66.7115 140.597C66.7115 140.518 66.7438 140.456 66.8123 140.409C66.9573 140.31 67.1105 140.231 67.28 140.188C67.6373 140.095 67.9472 140.224 68.0848 140.53C68.1283 140.627 68.1624 140.734 68.172 140.839C68.2225 141.381 68.2007 141.923 68.1702 142.465C68.1637 142.581 68.1092 142.64 67.9949 142.669L67.7261 142.726C67.7045 142.732 67.673 142.717 67.6714 142.735C67.6655 142.81 67.6688 142.925 67.6688 142.925H67.7329L68.5512 142.952C68.7754 142.951 68.9999 142.979 69.2239 142.984C69.264 142.985 69.2997 142.991 69.3021 142.945C69.3046 142.872 69.3037 142.799 69.2992 142.727L69.2565 142.719L69.026 142.667C68.8705 142.63 68.8169 142.57 68.8163 142.411C68.8145 142.02 68.8197 141.629 68.8163 141.238C68.8143 141.015 68.8061 140.791 68.7916 140.568C68.7877 140.509 68.7968 140.47 68.8437 140.437C68.9796 140.336 69.1324 140.262 69.2948 140.217C69.7987 140.083 70.2112 140.362 70.2373 140.886C70.2628 141.392 70.2521 141.899 70.2482 142.405C70.2469 142.582 70.1891 142.635 70.017 142.682L69.9576 142.698C69.7813 142.74 69.7828 142.74 69.7932 142.929C69.7966 142.988 69.8128 143.004 69.8753 143.002C70.2344 142.994 70.5936 142.992 70.9527 142.989C71.0996 142.987 71.2465 142.989 71.4064 142.989L71.439 142.743C71.2986 142.705 71.1691 142.677 71.0441 142.636C70.9337 142.598 70.8946 142.531 70.8952 142.413ZM83.2632 140.248C83.4111 140.11 83.4121 139.927 83.3707 139.724C83.2535 139.848 83.1223 139.905 82.9725 139.915C82.7717 139.93 82.5746 139.912 82.3876 139.832C81.8818 139.612 81.3838 139.628 80.8874 139.868C80.47 140.07 80.2132 140.385 80.1874 140.861C80.171 141.167 80.2278 141.456 80.4299 141.699C80.551 141.845 80.7064 141.939 80.8817 142.004C80.9572 142.032 80.963 142.069 80.8997 142.117C80.8529 142.153 80.8045 142.186 80.7546 142.217C80.6488 142.284 80.5424 142.35 80.4353 142.415C80.3726 142.454 80.3512 142.502 80.3718 142.577C80.4319 142.797 80.5869 142.925 80.7807 143.017L80.8512 143.067L80.7895 143.129C80.5997 143.284 80.4022 143.431 80.2205 143.596C80.0678 143.734 80.0186 143.92 80.0647 144.124C80.1577 144.533 80.4262 144.786 80.8072 144.902C81.4732 145.105 82.0985 144.989 82.6686 144.59C83.0066 144.354 83.2491 144.047 83.3228 143.624C83.4054 143.149 83.1436 142.736 82.6751 142.651C82.3652 142.594 82.048 142.578 81.7344 142.542C81.588 142.525 81.4396 142.515 81.2971 142.481C81.176 142.452 81.1159 142.353 81.127 142.255C81.1382 142.16 81.239 142.071 81.3544 142.062C81.5867 142.043 81.8143 142.006 82.0284 141.907C82.5957 141.646 82.859 141.187 82.7931 140.571C82.7845 140.488 82.7657 140.406 82.7488 140.309C82.9303 140.34 83.116 140.386 83.2632 140.248ZM81.5419 143.143C81.7727 143.149 82.0352 143.164 82.2889 143.239C82.5121 143.304 82.6957 143.42 82.7498 143.671C82.8152 143.975 82.6704 144.277 82.379 144.439C82.106 144.591 81.8097 144.604 81.5091 144.572C81.2518 144.546 81.0203 144.456 80.8348 144.264C80.5905 144.011 80.5892 143.662 80.8338 143.41C81.0523 143.185 81.1692 143.139 81.5419 143.143ZM82.1193 141.314C81.9849 141.747 81.5938 141.807 81.2872 141.668C81.026 141.551 80.9122 141.318 80.8525 141.053C80.8294 140.951 80.8239 140.845 80.8104 140.741C80.8158 140.592 80.8403 140.448 80.9041 140.314C81.0997 139.899 81.5802 139.924 81.8461 140.112C81.9602 140.192 82.0396 140.301 82.0894 140.431C82.2001 140.713 82.2107 141.025 82.1193 141.314ZM79.679 142.696C79.586 142.682 79.494 142.661 79.4037 142.634C79.2454 142.585 79.2261 142.555 79.2243 142.387C79.2196 141.916 79.2165 141.445 79.2113 140.974C79.2087 140.763 79.1837 140.554 79.1193 140.351C78.95 139.818 78.4315 139.532 77.9127 139.689C77.6252 139.777 77.3783 139.939 77.1483 140.13L77.0645 140.195L77.0647 140.108C77.0702 140.008 77.0809 139.908 77.0801 139.808C77.0796 139.756 77.0598 139.703 77.0501 139.657C76.854 139.717 76.6782 139.777 76.4988 139.822C76.3188 139.868 76.1352 139.899 75.9532 139.936C75.8628 139.955 75.7964 140.01 75.7979 140.073C75.8003 140.161 75.8729 140.178 75.9365 140.205C76.0516 140.252 76.1665 140.3 76.2803 140.351C76.3615 140.388 76.3946 140.456 76.3938 140.544C76.3881 141.156 76.3844 141.768 76.3756 142.38C76.373 142.573 76.3245 142.624 76.136 142.667L76.0537 142.683C75.8792 142.714 75.8742 142.721 75.8862 142.906L75.8873 142.937C75.8852 143.009 75.9162 143.032 75.9891 143.031C76.4527 143.025 76.9165 143.023 77.3801 143.025C77.5788 143.025 77.6002 143.01 77.596 142.804L77.5866 142.715C77.4731 142.696 77.3645 142.682 77.2582 142.658C77.147 142.633 77.1072 142.587 77.0967 142.473C77.0871 142.369 77.084 142.263 77.0829 142.158C77.0777 141.677 77.0736 141.196 77.0712 140.715C77.0707 140.594 77.0928 140.482 77.2033 140.404C77.3658 140.287 77.5574 140.217 77.7567 140.204C78.1703 140.175 78.4846 140.422 78.507 140.838C78.5346 141.351 78.5263 141.866 78.5328 142.38C78.5333 142.419 78.5266 142.457 78.5214 142.495C78.5115 142.57 78.475 142.627 78.3995 142.646C78.3258 142.666 78.251 142.683 78.1757 142.695C78.0635 142.711 78.0612 142.711 78.0526 142.825L78.0554 142.902C78.0687 143.035 78.069 143.031 78.2023 143.03C78.6508 143.026 79.099 143.024 79.5472 143.024C79.7347 143.025 79.748 143.016 79.7496 142.821L79.7491 142.775C79.7519 142.725 79.7298 142.704 79.679 142.696ZM85.9431 139.721C85.473 139.606 85.0271 139.692 84.6037 139.913C84.1922 140.127 83.9171 140.459 83.8124 140.917C83.7067 141.381 83.7572 141.832 83.9601 142.263C84.0922 142.542 84.2953 142.758 84.5719 142.898C85.2193 143.227 86.0113 143.078 86.5192 142.638C86.92 142.291 87.0672 141.828 87.076 141.257C87.0705 141.199 87.0651 141.089 87.05 140.98C86.9648 140.357 86.5374 139.868 85.9431 139.721ZM86.2991 142.127C86.1744 142.622 85.7496 142.842 85.2704 142.672C85.0258 142.585 84.843 142.42 84.7201 142.196C84.4372 141.681 84.3828 141.133 84.5438 140.571C84.6511 140.197 84.9563 139.993 85.3193 140.018C85.6439 140.041 85.8934 140.198 86.0764 140.465C86.2694 140.746 86.3439 141.066 86.3637 141.401C86.3671 141.455 86.3642 141.509 86.3642 141.563L86.3871 141.566C86.3585 141.753 86.345 141.944 86.2991 142.127ZM74.1199 139.713C73.6254 139.599 73.162 139.712 72.7328 139.966C72.3617 140.185 72.1218 140.512 72.0299 140.94C71.9437 141.339 71.9789 141.732 72.1192 142.115C72.2047 142.348 72.3341 142.553 72.524 142.713C72.9237 143.05 73.391 143.135 73.8881 143.041C74.309 142.962 74.6788 142.773 74.9476 142.42C75.1992 142.09 75.295 141.711 75.3049 141.301C75.2901 141.171 75.2864 141.038 75.2591 140.911C75.1231 140.278 74.7559 139.86 74.1199 139.713ZM74.5233 142.125C74.4028 142.618 73.9712 142.844 73.4954 142.673C73.1899 142.564 72.9909 142.338 72.8651 142.049C72.6635 141.584 72.6224 141.1 72.7529 140.61C72.8529 140.235 73.1542 139.959 73.6155 140.025C73.8986 140.066 74.1194 140.212 74.284 140.444C74.5064 140.757 74.5796 141.115 74.5898 141.491V141.568L74.6085 141.571C74.5812 141.756 74.5676 141.944 74.5233 142.125Z" fill="#E2E2E2"/>
<path d="M123.708 135.715V126.492H128.155V125.953H123.708V117.539H128.436V117H123.5V136.254H128.477V135.715H123.708ZM132.487 122.393L130.644 128.676L128.842 122.393H128.571L130.519 129.081L128.384 136.254H128.634L130.643 129.485L132.664 136.254H132.924L130.779 129.081L132.736 122.393L132.487 122.393ZM133.549 141V132.371H133.57C133.695 133.629 133.941 134.641 134.309 135.405C134.677 136.169 135.146 136.551 135.715 136.551C136.083 136.551 136.409 136.358 136.694 135.971C136.978 135.585 137.216 135.059 137.407 134.393C137.598 133.728 137.744 132.955 137.844 132.074C137.945 131.194 137.995 130.268 137.995 129.297C137.995 128.254 137.943 127.292 137.839 126.411C137.735 125.531 137.584 124.766 137.386 124.119C137.188 123.472 136.949 122.969 136.668 122.609C136.386 122.25 136.069 122.07 135.715 122.07C135.444 122.07 135.192 122.173 134.96 122.38C134.727 122.587 134.521 122.879 134.34 123.256C134.159 123.637 134.001 124.087 133.872 124.591C133.74 125.104 133.639 125.665 133.57 126.277H133.549V122.393H133.341V141H133.549ZM135.715 136.038C135.062 136.038 134.538 135.458 134.142 134.299C133.747 133.139 133.549 131.472 133.549 129.297C133.549 128.398 133.597 127.544 133.695 126.735C133.792 125.926 133.932 125.216 134.116 124.604C134.3 123.993 134.528 123.508 134.798 123.148C135.069 122.789 135.375 122.609 135.715 122.609C136.062 122.609 136.366 122.789 136.626 123.148C136.886 123.508 137.102 123.998 137.272 124.618C137.442 125.238 137.57 125.948 137.657 126.748C137.744 127.548 137.787 128.398 137.787 129.297C137.787 130.106 137.747 130.91 137.667 131.71C137.587 132.51 137.464 133.229 137.298 133.868C137.131 134.506 136.918 135.027 136.657 135.431C136.397 135.836 136.083 136.038 135.715 136.038ZM139.141 136.254V128.407C139.141 127.652 139.182 126.915 139.266 126.196C139.349 125.476 139.477 124.843 139.651 124.294C139.825 123.746 140.045 123.315 140.312 123C140.58 122.685 140.897 122.555 141.265 122.609V122.07C140.946 122.052 140.666 122.141 140.427 122.339C140.187 122.537 139.981 122.807 139.807 123.148C139.634 123.49 139.495 123.89 139.391 124.348C139.287 124.806 139.209 125.301 139.162 125.818H139.141V122.393H138.932V136.254L139.141 136.254ZM141.525 129.431H146.003C146.017 128.479 145.981 127.562 145.894 126.681C145.807 125.8 145.668 125.018 145.477 124.335C145.286 123.652 145.04 123.103 144.738 122.69C144.436 122.276 144.077 122.07 143.66 122.07C143.362 122.07 143.07 122.231 142.785 122.555C142.501 122.879 142.251 123.351 142.036 123.971C141.82 124.591 141.647 125.351 141.515 126.25C141.383 127.148 141.317 128.173 141.317 129.324C141.317 130.348 141.362 131.306 141.452 132.195C141.543 133.085 141.682 133.859 141.869 134.515C142.056 135.171 142.298 135.679 142.593 136.038C142.888 136.398 143.244 136.569 143.66 136.551C144.271 136.551 144.785 136.106 145.201 135.216C145.618 134.326 145.864 133.072 145.941 131.454H145.732C145.642 132.982 145.411 134.128 145.04 134.892C144.668 135.656 144.202 136.038 143.639 136.038C143.257 136.038 142.935 135.867 142.671 135.526C142.407 135.184 142.192 134.717 142.025 134.124C141.859 133.53 141.735 132.834 141.656 132.034C141.576 131.234 141.532 130.366 141.525 129.431ZM145.795 128.892H141.525C141.546 127.921 141.616 127.049 141.734 126.276C141.852 125.503 142.006 124.843 142.197 124.294C142.388 123.746 142.61 123.328 142.864 123.04C143.117 122.753 143.389 122.609 143.681 122.609C144.028 122.609 144.333 122.775 144.597 123.108C144.861 123.441 145.081 123.895 145.259 124.47C145.436 125.045 145.569 125.715 145.659 126.479C145.75 127.243 145.795 128.047 145.795 128.892ZM150.325 126.492H150.533C150.533 124.946 150.359 123.822 150.012 123.121C149.665 122.42 149.193 122.07 148.596 122.07C148.263 122.07 147.982 122.178 147.753 122.393C147.523 122.609 147.336 122.888 147.19 123.229C147.044 123.571 146.94 123.948 146.878 124.362C146.815 124.775 146.784 125.171 146.784 125.548C146.784 126.303 146.836 126.906 146.94 127.355C147.044 127.804 147.208 128.155 147.43 128.407C147.582 128.586 147.756 128.748 147.95 128.892C148.145 129.036 148.37 129.189 148.627 129.351C148.856 129.495 149.082 129.638 149.304 129.782C149.526 129.926 149.722 130.119 149.892 130.362C150.063 130.604 150.201 130.915 150.309 131.292C150.417 131.67 150.47 132.164 150.47 132.775C150.47 133.369 150.417 133.872 150.309 134.285C150.202 134.697 150.062 135.042 149.898 135.297C149.731 135.557 149.545 135.746 149.341 135.863C149.136 135.98 148.936 136.038 148.742 136.038C148.11 136.038 147.626 135.674 147.289 134.946C146.952 134.218 146.784 133.072 146.784 131.508H146.576C146.576 133.252 146.758 134.528 147.122 135.337C147.487 136.146 148.027 136.551 148.742 136.551C148.971 136.551 149.202 136.483 149.434 136.348C149.667 136.213 149.875 135.993 150.059 135.688C150.241 135.386 150.395 134.98 150.507 134.501C150.621 134.016 150.679 133.423 150.679 132.721C150.679 132.056 150.628 131.517 150.528 131.103C150.427 130.69 150.295 130.348 150.132 130.079C149.969 129.809 149.785 129.598 149.58 129.445C149.374 129.291 149.168 129.143 148.96 129C148.706 128.827 148.45 128.656 148.195 128.488C147.976 128.344 147.773 128.173 147.586 127.975C147.405 127.778 147.261 127.494 147.154 127.126C147.046 126.757 146.992 126.231 146.992 125.548C146.992 125.422 147.006 125.198 147.034 124.874C147.062 124.551 147.128 124.222 147.232 123.89C147.336 123.557 147.496 123.261 147.711 123C147.926 122.739 148.221 122.609 148.596 122.609C148.853 122.609 149.087 122.681 149.299 122.825C149.511 122.969 149.693 123.198 149.846 123.512C149.998 123.827 150.116 124.227 150.2 124.712C150.283 125.198 150.325 125.791 150.325 126.492ZM155.146 126.492H155.354C155.354 124.946 155.181 123.822 154.834 123.121C154.486 122.42 154.014 122.07 153.417 122.07C153.084 122.07 152.803 122.178 152.574 122.393C152.345 122.609 152.157 122.888 152.012 123.229C151.866 123.571 151.762 123.948 151.699 124.362C151.637 124.775 151.605 125.171 151.605 125.548C151.605 126.303 151.658 126.906 151.762 127.355C151.866 127.804 152.029 128.155 152.251 128.407C152.404 128.586 152.577 128.748 152.772 128.892C152.966 129.036 153.192 129.189 153.449 129.351C153.678 129.495 153.903 129.638 154.125 129.782C154.348 129.926 154.544 130.119 154.714 130.362C154.884 130.604 155.023 130.915 155.13 131.292C155.238 131.67 155.292 132.164 155.292 132.775C155.292 133.369 155.238 133.872 155.13 134.285C155.024 134.697 154.883 135.042 154.719 135.297C154.552 135.557 154.367 135.746 154.162 135.863C153.957 135.98 153.758 136.038 153.563 136.038C152.931 136.038 152.447 135.674 152.111 134.946C151.774 134.218 151.605 133.072 151.605 131.508H151.397C151.397 133.252 151.579 134.528 151.944 135.337C152.308 136.146 152.848 136.551 153.563 136.551C153.792 136.551 154.023 136.483 154.256 136.348C154.488 136.213 154.696 135.993 154.88 135.688C155.063 135.386 155.216 134.98 155.328 134.501C155.443 134.016 155.5 133.423 155.5 132.721C155.5 132.056 155.45 131.517 155.349 131.103C155.248 130.69 155.116 130.348 154.953 130.079C154.79 129.809 154.606 129.598 154.401 129.445C154.195 129.291 153.989 129.143 153.782 129C153.527 128.827 153.272 128.656 153.016 128.488C152.798 128.344 152.595 128.173 152.407 127.975C152.227 127.778 152.083 127.494 151.975 127.126C151.867 126.757 151.814 126.231 151.814 125.548C151.814 125.422 151.828 125.198 151.855 124.874C151.883 124.551 151.949 124.222 152.053 123.89C152.157 123.557 152.317 123.261 152.532 123C152.747 122.739 153.042 122.609 153.417 122.609C153.674 122.609 153.909 122.681 154.12 122.825C154.332 122.969 154.514 123.198 154.667 123.512C154.82 123.827 154.938 124.227 155.021 124.712C155.104 125.198 155.146 125.791 155.146 126.492Z" fill="#E2E2E2"/>
<path d="M212.532 128.76C212.53 127.842 212.194 126.951 211.577 126.225C210.959 125.499 210.095 124.979 209.118 124.747L213.5 113H191.786L196.18 124.784C195.231 125.035 194.398 125.559 193.805 126.278C193.212 126.996 192.89 127.87 192.889 128.768C192.891 129.43 193.066 130.083 193.401 130.671C193.736 131.259 194.221 131.766 194.815 132.149C194.347 132.749 193.814 133.305 193.225 133.808C192.141 134.747 190.872 135.492 189.486 136.004C188.263 135.253 187.733 133.929 188.211 132.743C189.252 132.449 190.142 131.826 190.721 130.987C191.3 130.148 191.53 129.148 191.369 128.169C191.207 127.189 190.666 126.294 189.842 125.646C189.018 124.998 187.966 124.64 186.877 124.636C185.666 124.637 184.506 125.075 183.65 125.853C182.795 126.631 182.313 127.686 182.312 128.787C182.312 129.917 182.821 130.955 183.636 131.696C183.565 131.825 183.494 131.956 183.422 132.095C182.74 133.373 181.966 134.819 181.669 136.44C181.078 139.683 182.046 142.285 184.381 143.759C185.644 144.569 187.153 145.003 188.7 145C191.379 145 194.099 143.777 196.728 142.591C198.604 141.748 200.54 140.868 202.444 140.441C203.148 140.284 203.882 140.192 204.656 140.089C206.225 139.885 207.845 139.673 209.302 138.903C210.133 138.469 210.85 137.876 211.403 137.164C211.956 136.452 212.331 135.639 212.501 134.781C212.757 133.456 212.501 132.123 211.85 130.955C212.287 130.315 212.532 129.567 212.532 128.76ZM210.545 128.76C210.545 130.047 209.394 131.093 207.979 131.093C207.446 131.092 206.927 130.94 206.493 130.659C206.059 130.377 205.732 129.98 205.557 129.522C205.383 129.065 205.369 128.569 205.518 128.104C205.666 127.638 205.97 127.227 206.388 126.925L206.398 126.916C206.48 126.86 206.571 126.804 206.662 126.749C206.662 126.749 206.674 126.749 206.674 126.74C206.715 126.721 206.754 126.693 206.795 126.673C206.806 126.673 206.816 126.665 206.826 126.665C206.867 126.647 206.919 126.628 206.968 126.609C207.02 126.591 207.071 126.573 207.112 126.555C207.122 126.555 207.131 126.545 207.142 126.545C207.183 126.536 207.224 126.517 207.265 126.508C207.275 126.508 207.294 126.499 207.306 126.499C207.356 126.489 207.397 126.48 207.448 126.472H207.458L207.611 126.443C207.621 126.443 207.64 126.443 207.652 126.433C207.693 126.433 207.732 126.424 207.774 126.424H207.825C207.876 126.424 207.928 126.415 207.988 126.415H208.12C208.161 126.415 208.193 126.415 208.233 126.424H208.253C208.334 126.433 208.416 126.443 208.498 126.461C209.076 126.574 209.595 126.863 209.968 127.281C210.34 127.699 210.544 128.222 210.545 128.76ZM194.63 114.853H210.658L206.979 124.72C206.826 124.747 206.674 124.793 206.521 124.84L202.65 117.66L198.767 124.793C198.614 124.748 198.45 124.72 198.287 124.692L194.63 114.853ZM201.915 127.953C201.728 127.098 201.246 126.319 200.54 125.729L202.648 121.857L204.778 125.813C204.147 126.387 203.688 127.12 203.505 127.953H201.915ZM196.81 126.489C196.86 126.48 196.901 126.471 196.953 126.463H196.982C197.025 126.452 197.064 126.452 197.105 126.443H197.146C197.187 126.443 197.218 126.433 197.258 126.433H197.655C197.696 126.433 197.727 126.443 197.758 126.443C197.778 126.443 197.787 126.443 197.809 126.452C197.849 126.461 197.879 126.461 197.92 126.471C197.931 126.471 197.941 126.471 197.962 126.48L198.104 126.507H198.114C198.155 126.517 198.196 126.527 198.236 126.545C198.246 126.545 198.256 126.555 198.277 126.555C198.308 126.564 198.349 126.573 198.379 126.591C198.39 126.591 198.4 126.6 198.409 126.6C198.45 126.619 198.491 126.628 198.532 126.647H198.542C198.589 126.663 198.634 126.685 198.674 126.712H198.685C198.726 126.731 198.767 126.757 198.808 126.776C198.818 126.776 198.818 126.785 198.827 126.785C198.868 126.804 198.9 126.832 198.94 126.851L198.95 126.86C199.072 126.943 199.185 127.036 199.296 127.128L199.306 127.137C199.76 127.572 200.013 128.15 200.01 128.749C199.988 129.355 199.707 129.929 199.228 130.35C198.749 130.771 198.109 131.006 197.442 131.006C196.776 131.006 196.136 130.771 195.657 130.35C195.178 129.929 194.897 129.355 194.875 128.749C194.873 128.23 195.063 127.725 195.414 127.316C195.765 126.906 196.256 126.615 196.81 126.489ZM186.783 126.424C188.199 126.424 189.351 127.472 189.351 128.759C189.351 130.045 188.199 131.093 186.784 131.093C185.369 131.093 184.215 130.047 184.215 128.76C184.215 127.473 185.368 126.424 186.783 126.424ZM210.485 134.457C210.369 135.05 210.111 135.612 209.729 136.104C209.346 136.595 208.85 137.004 208.274 137.301C207.162 137.885 205.797 138.071 204.36 138.256C203.552 138.35 202.749 138.48 201.955 138.644C199.836 139.117 197.799 140.044 195.822 140.933C193.294 142.072 190.909 143.147 188.7 143.147C187.566 143.153 186.46 142.832 185.541 142.229C183.299 140.821 183.41 138.181 183.675 136.736C183.92 135.383 184.602 134.115 185.255 132.9C185.296 132.827 185.327 132.761 185.368 132.687C185.591 132.761 185.825 132.817 186.07 132.855C185.683 134.819 186.783 136.847 188.924 137.848L189.311 138.033L189.727 137.895C191.511 137.32 193.162 136.384 194.62 135.133C195.424 134.451 196.136 133.683 196.739 132.845C196.973 132.881 197.208 132.891 197.442 132.891C198.451 132.889 199.431 132.583 200.229 132.022C201.027 131.461 201.598 130.675 201.854 129.788H203.565C203.819 130.677 204.39 131.463 205.189 132.025C205.988 132.586 206.969 132.891 207.979 132.891C208.824 132.891 209.607 132.677 210.281 132.317C210.545 133.011 210.627 133.735 210.485 134.457Z" fill="#E2E2E2"/>
<path d="M256.301 123.112H254.616L254.163 122.466V117.392H256.729V122.466L256.301 123.112ZM254.024 123.584L253.504 125.355L252.806 125.632L248.444 124.067L249.235 121.371L253.6 122.939L254.024 123.584ZM253.724 126.076L255.088 127.171L255.111 127.99L252.414 132.092L250.339 130.427L253.036 126.322L253.724 126.076ZM255.814 127.18L257.178 126.087L257.889 126.314L260.585 130.418L258.51 132.083L255.814 127.979V127.18ZM257.434 125.386L256.913 123.615L257.328 122.939L261.692 121.371L262.483 124.067L258.121 125.632L257.434 125.386Z" fill="#E2E2E2"/>
<path d="M255.501 113C253.293 113 251.135 113.724 249.299 115.08C247.463 116.436 246.032 118.363 245.187 120.618C244.342 122.874 244.121 125.355 244.552 127.749C244.983 130.143 246.046 132.342 247.607 134.068C249.168 135.794 251.157 136.969 253.323 137.445C255.488 137.922 257.733 137.677 259.773 136.743C261.813 135.809 263.556 134.227 264.783 132.198C266.009 130.168 266.664 127.782 266.664 125.341C266.664 122.068 265.488 118.929 263.394 116.615C261.301 114.3 258.461 113 255.501 113ZM255.44 134.986C253.694 134.986 251.987 134.414 250.535 133.342C249.084 132.269 247.952 130.745 247.284 128.962C246.616 127.178 246.441 125.216 246.782 123.323C247.122 121.43 247.963 119.691 249.198 118.326C250.432 116.961 252.005 116.031 253.718 115.655C255.43 115.278 257.205 115.471 258.818 116.21C260.432 116.949 261.81 118.2 262.78 119.805C263.75 121.41 264.268 123.296 264.268 125.227C264.268 126.508 264.04 127.777 263.596 128.962C263.153 130.146 262.502 131.222 261.683 132.128C260.863 133.034 259.89 133.753 258.818 134.243C257.747 134.734 256.599 134.986 255.44 134.986Z" fill="#E2E2E2"/>
<path d="M255.068 129.085H255.766V132.933H255.068V129.085ZM258.859 126.709L259.075 125.976L262.385 127.165L262.169 127.899L258.859 126.709ZM257.954 121.999L257.39 121.546L259.435 118.433L260 118.886L257.954 121.999ZM253.6 121.545L253.036 121.998L250.99 118.886L251.555 118.432L253.6 121.545ZM251.825 125.975L252.041 126.708L248.731 127.897L248.515 127.164L251.825 125.975ZM240.607 143.15C240.601 143.245 240.611 143.34 240.639 143.429C240.666 143.519 240.709 143.602 240.765 143.673C240.822 143.745 240.89 143.803 240.967 143.844C241.044 143.886 241.128 143.91 241.213 143.916C241.32 143.919 241.425 143.889 241.516 143.83C241.608 143.77 241.684 143.684 241.734 143.581C241.825 143.336 241.862 143.071 241.843 142.807V139.733H241.239V138.739H243.513V139.719H242.902V142.952C242.902 143.511 242.871 143.933 242.52 144.38C242.354 144.576 242.153 144.733 241.929 144.84C241.705 144.947 241.464 145.001 241.221 145C240.225 145 239.452 144.268 239.502 143.15H240.607ZM247.031 142.555C247.03 142.374 246.996 142.194 246.931 142.028C246.867 141.861 246.773 141.709 246.656 141.582C246.538 141.456 246.4 141.355 246.247 141.288C246.095 141.22 245.932 141.187 245.768 141.189C245.6 141.189 245.434 141.226 245.279 141.297C245.125 141.369 244.985 141.474 244.867 141.606C244.749 141.738 244.657 141.895 244.594 142.067C244.532 142.239 244.501 142.423 244.504 142.608C244.511 142.968 244.644 143.311 244.874 143.566C245.104 143.82 245.414 143.967 245.74 143.975C245.91 143.979 246.079 143.945 246.237 143.875C246.395 143.806 246.538 143.701 246.659 143.569C246.779 143.436 246.875 143.278 246.939 143.104C247.003 142.93 247.034 142.743 247.031 142.555ZM247.016 144.257C246.869 144.496 246.669 144.689 246.435 144.819C246.201 144.949 245.941 145.01 245.679 144.997C245.111 144.991 244.567 144.737 244.168 144.289C243.769 143.841 243.546 143.237 243.549 142.608C243.547 141.967 243.775 141.352 244.183 140.896C244.591 140.44 245.145 140.181 245.725 140.175C245.982 140.17 246.236 140.238 246.463 140.374C246.689 140.509 246.88 140.707 247.016 140.949V140.287H248.502V141.267H247.982V143.899H248.502V144.88H247.016V144.26M249.753 143.544C249.755 143.639 249.774 143.732 249.808 143.818C249.843 143.904 249.893 143.981 249.956 144.046C250.019 144.11 250.092 144.159 250.172 144.191C250.253 144.223 250.338 144.237 250.423 144.232C250.565 144.24 250.705 144.186 250.811 144.082C250.918 143.977 250.983 143.83 250.992 143.673C250.992 143.218 250.603 143.139 250.284 143.044C249.561 142.838 248.768 142.589 248.768 141.583C248.768 140.706 249.437 140.186 250.175 140.186C250.351 140.167 250.527 140.195 250.691 140.267C250.854 140.339 251 140.453 251.116 140.6V140.287H251.816V141.533H250.898C250.896 141.458 250.881 141.384 250.853 141.316C250.824 141.248 250.784 141.187 250.734 141.136C250.684 141.086 250.626 141.047 250.562 141.022C250.498 140.997 250.43 140.986 250.362 140.991C250.299 140.983 250.235 140.989 250.174 141.009C250.113 141.03 250.056 141.063 250.007 141.108C249.957 141.153 249.917 141.208 249.887 141.27C249.858 141.333 249.84 141.401 249.834 141.471C249.834 141.902 250.216 141.997 250.519 142.072C251.277 142.262 252.066 142.519 252.066 143.55C252.066 144.478 251.358 144.995 250.58 144.995C250.379 145.005 250.178 144.966 249.992 144.88C249.806 144.794 249.64 144.663 249.506 144.497V144.874H248.783V143.542H249.756M252.857 141.267H252.321V140.287H253.731V140.974C253.847 140.737 254.018 140.538 254.226 140.397C254.435 140.257 254.673 140.18 254.917 140.175C255.194 140.178 255.464 140.271 255.694 140.442C255.923 140.614 256.102 140.856 256.208 141.139C256.327 140.85 256.519 140.606 256.761 140.435C257.002 140.264 257.284 140.174 257.57 140.175C257.796 140.173 258.019 140.225 258.226 140.325C258.432 140.426 258.617 140.574 258.768 140.759C259.094 141.181 259.094 141.636 259.094 142.156V143.894H259.63V144.874H257.608V143.894H258.144V142.41C258.167 142.124 258.125 141.835 258.02 141.572C257.944 141.453 257.842 141.356 257.724 141.291C257.606 141.225 257.475 141.192 257.343 141.195C257.211 141.193 257.08 141.223 256.959 141.282C256.838 141.341 256.73 141.429 256.643 141.538C256.482 141.791 256.413 142.101 256.448 142.407V143.885H256.984V144.866H254.962V143.885H255.501V142.488C255.523 142.195 255.481 141.899 255.377 141.628C255.308 141.495 255.208 141.386 255.087 141.311C254.967 141.237 254.83 141.2 254.692 141.206C254.565 141.201 254.44 141.228 254.325 141.287C254.21 141.345 254.109 141.432 254.03 141.541C253.852 141.811 253.772 142.145 253.805 142.477V143.896H254.341V144.877H252.319V143.896H252.854V141.264M261.427 139.848H260.479V138.73H261.427V139.848ZM261.427 143.896H261.963V144.877H259.941V143.896H260.479V141.264H259.941V140.287H261.427V143.896ZM262.789 141.267H262.251V140.287H263.737V140.94C263.859 140.701 264.038 140.504 264.255 140.37C264.472 140.236 264.718 140.172 264.966 140.183C265.189 140.181 265.411 140.23 265.617 140.326C265.823 140.422 266.009 140.564 266.164 140.742C266.505 141.164 266.512 141.58 266.512 142.092V143.888H267.048V144.869H265.026V143.888H265.562V142.41C265.592 142.118 265.535 141.824 265.398 141.572C265.31 141.453 265.198 141.357 265.071 141.293C264.945 141.229 264.806 141.198 264.667 141.203C264.523 141.198 264.379 141.23 264.247 141.297C264.115 141.364 264 141.464 263.909 141.589C263.76 141.882 263.697 142.218 263.73 142.553V143.885H264.265V144.866H262.244V143.885H262.779V141.253M270.619 142.17C270.542 141.854 270.372 141.575 270.135 141.379C269.898 141.183 269.609 141.079 269.313 141.086C269.031 141.095 268.76 141.205 268.54 141.401C268.321 141.597 268.166 141.867 268.099 142.17H270.619ZM271.342 143.528C271.184 143.959 270.913 144.329 270.564 144.591C270.216 144.853 269.805 144.994 269.383 144.997C268.802 145.001 268.242 144.748 267.829 144.296C267.415 143.843 267.181 143.228 267.178 142.585C267.175 141.941 267.403 141.323 267.813 140.866C268.222 140.409 268.779 140.15 269.361 140.147C269.947 140.158 270.505 140.424 270.915 140.887C271.11 141.117 271.261 141.387 271.362 141.682C271.462 141.977 271.508 142.291 271.499 142.606L271.468 142.974H268.107C268.172 143.286 268.329 143.565 268.555 143.764C268.781 143.964 269.061 144.074 269.351 144.075C269.548 144.086 269.745 144.04 269.922 143.942C270.099 143.844 270.25 143.698 270.361 143.516H271.35" fill="#E2E2E2"/>
<path d="M313.5 113C313.163 113 312.827 113.078 312.524 113.232L298.476 120.378C297.871 120.687 297.5 121.236 297.5 121.855V136.146C297.5 136.747 297.871 137.314 298.476 137.623L312.524 144.768C312.82 144.92 313.157 145 313.5 145C313.843 145 314.18 144.92 314.476 144.768L328.524 137.623C329.11 137.314 329.48 136.747 329.5 136.146V121.855C329.5 121.253 329.129 120.687 328.524 120.378L314.476 113.232C314.18 113.08 313.843 113 313.5 113ZM313.481 115.173C313.773 115.173 314.066 115.242 314.32 115.379L326.456 121.546C326.983 121.803 327.295 122.284 327.295 122.817V135.149C327.295 135.664 326.983 136.163 326.456 136.421L314.32 142.587C314.067 142.723 313.777 142.794 313.481 142.793C313.185 142.794 312.894 142.723 312.641 142.587L300.505 136.421C299.978 136.163 299.666 135.682 299.666 135.149V122.817C299.666 122.301 299.978 121.803 300.505 121.546L312.641 115.379C312.894 115.243 313.185 115.172 313.481 115.173ZM313.481 115.688C313.305 115.688 313.11 115.74 312.934 115.826L300.797 121.993C300.632 122.08 300.494 122.203 300.399 122.35C300.303 122.497 300.252 122.664 300.251 122.834V135.167C300.251 135.51 300.465 135.837 300.797 136.009L312.934 142.175C313.09 142.261 313.285 142.312 313.48 142.312C313.676 142.312 313.851 142.261 314.027 142.175L326.163 136.009C326.328 135.921 326.466 135.798 326.561 135.651C326.657 135.503 326.708 135.337 326.709 135.167V122.834C326.708 122.664 326.657 122.497 326.561 122.35C326.466 122.202 326.328 122.079 326.163 121.992L314.027 115.826C313.851 115.74 313.676 115.688 313.481 115.688V115.688ZM313.549 120.532C313.451 120.652 313.568 120.944 313.821 121.288C314.251 121.94 313.549 122.301 313.549 122.301C313.568 122.198 313.49 121.872 313.334 121.717C312.866 121.099 313.295 120.807 313.549 120.532ZM312.768 121.168C312.69 121.236 312.768 121.442 312.944 121.666C313.237 122.112 312.768 122.353 312.768 122.353C312.768 122.284 312.73 122.061 312.632 121.975C312.32 121.545 312.593 121.357 312.768 121.168ZM311.344 122.645H315.012C315.129 122.645 315.207 122.731 315.207 122.817C315.207 123.418 315.11 125.427 314.134 126.389C314.117 126.406 314.096 126.419 314.072 126.428C314.049 126.437 314.023 126.442 313.998 126.441H312.358C312.333 126.442 312.307 126.437 312.284 126.428C312.26 126.419 312.239 126.406 312.222 126.389C311.247 125.41 311.149 123.401 311.149 122.817C311.149 122.713 311.247 122.645 311.344 122.645ZM311.91 123.178C311.858 123.178 311.808 123.196 311.772 123.228C311.735 123.26 311.715 123.304 311.715 123.349C311.734 123.83 311.812 125.204 312.476 125.891C312.493 125.908 312.514 125.921 312.537 125.93C312.561 125.939 312.586 125.944 312.612 125.943H313.764C313.822 125.943 313.861 125.926 313.919 125.891C314.583 125.187 314.681 123.83 314.681 123.349C314.68 123.304 314.66 123.26 314.623 123.228C314.587 123.196 314.537 123.177 314.485 123.177L311.91 123.178ZM314.368 124.345C314.29 124.809 314.134 125.342 313.802 125.685C313.763 125.72 313.724 125.736 313.685 125.736H312.71C312.67 125.736 312.612 125.72 312.593 125.685C312.358 125.428 312.202 125.084 312.105 124.723C312.105 124.723 313.237 124.861 313.881 124.654C314.349 124.5 314.368 124.345 314.368 124.345ZM301.061 125.187H311.012C311.012 125.255 311.032 125.307 311.032 125.376H301.061V125.187ZM315.364 125.187H325.939V125.376H315.344C315.344 125.307 315.364 125.255 315.364 125.187H315.364ZM308.925 127.059C309.205 127.06 309.483 127.106 309.744 127.197C309.998 127.282 310.212 127.42 310.388 127.574C310.563 127.729 310.7 127.918 310.798 128.141C310.9 128.359 310.953 128.593 310.954 128.828V128.845C310.954 129.086 310.895 129.31 310.798 129.533C310.699 129.745 310.553 129.938 310.368 130.1C310.193 130.254 309.978 130.392 309.724 130.478C309.471 130.581 309.198 130.614 308.905 130.614C308.625 130.614 308.347 130.567 308.085 130.478C307.832 130.392 307.617 130.254 307.441 130.1C307.266 129.945 307.129 129.756 307.032 129.533C306.929 129.315 306.876 129.081 306.875 128.845V128.828C306.875 128.588 306.934 128.365 307.032 128.141C307.13 127.929 307.276 127.736 307.461 127.574C307.636 127.42 307.851 127.282 308.105 127.196C308.358 127.093 308.632 127.059 308.925 127.059ZM314.31 127.059C314.485 127.059 314.641 127.076 314.797 127.093C314.953 127.128 315.071 127.162 315.207 127.196C315.324 127.248 315.441 127.3 315.539 127.368C315.636 127.437 315.734 127.506 315.832 127.592L315.383 128.038C315.233 127.92 315.07 127.816 314.895 127.729C314.719 127.643 314.525 127.609 314.29 127.609C314.095 127.609 313.939 127.643 313.783 127.712C313.631 127.778 313.493 127.865 313.373 127.97C313.256 128.073 313.178 128.21 313.1 128.347C313.042 128.502 313.002 128.657 313.002 128.811V128.828C313.002 129 313.042 129.155 313.1 129.309C313.159 129.464 313.256 129.584 313.373 129.704C313.49 129.807 313.627 129.911 313.783 129.962C313.939 130.014 314.115 130.065 314.29 130.065C314.525 130.065 314.739 130.031 314.895 129.945C315.075 129.849 315.244 129.74 315.402 129.619L315.851 130.013C315.754 130.116 315.656 130.185 315.539 130.271C315.422 130.357 315.305 130.409 315.188 130.46C315.071 130.512 314.915 130.564 314.778 130.581C314.602 130.615 314.427 130.614 314.251 130.614C313.983 130.615 313.718 130.569 313.47 130.478C313.236 130.392 313.022 130.254 312.846 130.1C312.67 129.945 312.534 129.756 312.437 129.533C312.339 129.31 312.281 129.086 312.281 128.845V128.828C312.281 128.588 312.339 128.347 312.437 128.141C312.536 127.933 312.674 127.741 312.846 127.574C313.022 127.42 313.237 127.282 313.491 127.196C313.751 127.105 314.029 127.058 314.31 127.059ZM323.481 127.111H324.105L325.822 130.563H325.1L324.709 129.739H322.876L322.466 130.563H321.764L323.481 127.111ZM301.549 127.128H302.271L303.461 128.742L304.651 127.128H305.374V130.563H304.69V128.107L303.461 129.722H303.442L302.232 128.124V130.581H301.549V127.128ZM317.217 127.128H317.9V128.554H319.773V127.128H320.456V130.563H319.773V129.12H317.9V130.563H317.217V127.128ZM308.905 127.609C308.71 127.609 308.534 127.643 308.378 127.712C308.227 127.778 308.088 127.865 307.968 127.97C307.851 128.073 307.773 128.21 307.696 128.347C307.637 128.502 307.598 128.657 307.598 128.811V128.828C307.598 129 307.637 129.155 307.696 129.309C307.754 129.464 307.851 129.584 307.968 129.704C308.085 129.807 308.222 129.893 308.378 129.962C308.534 130.031 308.73 130.065 308.905 130.065C309.1 130.065 309.276 130.031 309.432 129.962C309.583 129.896 309.722 129.809 309.841 129.704C309.958 129.601 310.037 129.464 310.115 129.326C310.173 129.172 310.213 129.017 310.213 128.862V128.845C310.213 128.674 310.173 128.519 310.115 128.364C310.056 128.21 309.959 128.09 309.841 127.97C309.722 127.865 309.583 127.778 309.432 127.712C309.276 127.643 309.1 127.609 308.905 127.609ZM323.792 127.832L323.129 129.206H324.456L323.792 127.832ZM301.061 131.646H325.939V131.834H301.061L301.061 131.646Z" fill="#E2E2E2"/>
</svg>
