<svg width="799" height="408" viewBox="0 0 799 408" fill="none" xmlns="http://www.w3.org/2000/svg">
<mask id="mask0_232_1144" style="mask-type:luminance" maskUnits="userSpaceOnUse" x="61" y="60" width="25" height="24">
<path d="M61.5 60H85.5V84H61.5V60Z" fill="white"/>
</mask>
<g mask="url(#mask0_232_1144)">
<path d="M66.5801 60H67.6621V61.069H68.6521V60H69.7341V63.236H68.6521V62.153H67.6621V63.236H66.5811L66.5801 60ZM71.1561 61.073H70.2041V60H73.1911V61.073H72.2381V63.236H71.1561V61.073ZM73.6651 60H74.7931L75.4871 61.137L76.1801 60H77.3081V63.236H76.2311V61.632L75.4871 62.783H75.4681L74.7231 61.633V63.236H73.6651V60ZM77.8461 60H78.9291V62.167H80.4491V63.237H77.8461V60Z" fill="#E2E2E2"/>
<path fill-rule="evenodd" clip-rule="evenodd" d="M66.546 80.9173L64.5 64.717H82.5L80.453 80.9155L73.49 82.717L66.546 80.9173ZM70.683 72.0494L70.489 70.0145H78.634L78.824 68.028H68.164L68.738 74.0368H76.115L75.868 76.6131L73.494 77.2124H73.492L71.122 76.615L70.97 75.0309H68.832L69.13 78.1505L73.49 79.28L77.857 78.1505L78.389 72.5833L78.441 72.0503H70.683V72.0494Z" fill="#E2E2E2"/>
</g>
<path d="M200 60H202.578V61.1113H201.078V62.2226H202.578V63.3339H200V60ZM203.093 60H205.672V60.967H204.172V61.1597H205.672V63.3823H203.093V62.3679H204.593V62.1741H203.093V60ZM206.188 60H208.765V60.967H207.265V61.1597H208.765V63.3823H206.188V62.3679H207.688V62.1741H206.188V60Z" fill="#E2E2E2"/>
<path fill-rule="evenodd" clip-rule="evenodd" d="M204.991 84L198.047 82.1447L196 65.4441H214L211.954 82.1428L204.991 84ZM200.047 73.0039L200.238 75.0516H207.615L207.368 77.7076L204.994 78.3253H204.992L202.622 77.7095L202.47 76.0765H200.333L200.631 79.2925L204.991 80.4568L209.358 79.2925L209.89 73.5533L209.942 73.0039L210.326 68.8573H199.664L199.858 70.9061H207.994L207.8 73.0039H200.047Z" fill="#E2E2E2"/>
<path d="M347.203 65.9989C347.028 65.7161 346.771 65.48 346.459 65.3147L336.541 60.2258C336.219 60.0774 335.862 60 335.5 60C335.138 60 334.781 60.0774 334.459 60.2258L324.541 65.3147C324.237 65.4881 323.984 65.7234 323.803 66.001C323.622 66.2787 323.518 66.5906 323.5 66.911V77.089C323.51 77.4106 323.612 77.7246 323.797 78.0011C323.972 78.2839 324.229 78.52 324.541 78.6853L334.459 83.7742C334.781 83.9226 335.138 84 335.5 84C335.862 84 336.219 83.9226 336.541 83.7742L346.459 78.6853C346.771 78.52 347.028 78.2839 347.203 78.0011C347.388 77.7246 347.49 77.4106 347.5 77.089V66.911C347.49 66.5894 347.388 66.2754 347.203 65.9989ZM335.5 79.1053C334.1 79.0998 332.726 78.768 331.515 78.143C330.305 77.5181 329.3 76.622 328.602 75.5442C327.904 74.4663 327.536 73.2446 327.536 72.0011C327.536 70.7575 327.903 69.5357 328.601 68.4577C329.299 67.3798 330.303 66.4834 331.513 65.8581C332.724 65.2329 334.098 64.9007 335.498 64.8948C336.898 64.8889 338.275 65.2094 339.492 65.8244C340.709 66.4394 341.723 67.3273 342.432 68.3993L340.905 69.2515L340.419 69.4915L339.068 70.2237C338.636 69.5131 337.948 68.9519 337.115 68.6302C336.281 68.3085 335.35 68.245 334.47 68.45C333.591 68.6549 332.815 69.1163 332.266 69.7601C331.718 70.4039 331.429 71.1928 331.446 72C331.442 72.6246 331.629 73.2385 331.986 73.7763C332.348 74.3054 332.857 74.7429 333.464 75.0465C334.071 75.3501 334.756 75.5096 335.453 75.5096C336.149 75.5096 336.834 75.3501 337.442 75.0465C338.049 74.7429 338.558 74.3054 338.919 73.7763L342.432 75.6007C341.721 76.6708 340.707 77.5572 339.491 78.172C338.275 78.7867 336.899 79.1085 335.5 79.1053ZM343.5 72.3961H342.608V73.2002H341.73V72.4081H340.905V71.6159H341.797V70.7998H342.676V71.5919H343.568L343.5 72.3961ZM346.838 72.3961H345.946V73.2002H345.054V72.4081H344.176V71.6159H345.054V70.7998H345.946V71.5919H346.838V72.3961Z" fill="#E2E2E2"/>
<path d="M467.779 77.4067L466.635 78.9907C467.72 79.9587 469.069 80.4427 470.683 80.4427C471.915 80.4133 472.853 80.096 473.499 79.4893C474.155 78.8733 474.481 78.14 474.481 77.2893C474.481 76.4587 474.252 75.7733 473.792 75.236C473.333 74.6987 472.56 74.268 471.475 73.9453C470.576 73.672 469.941 73.4227 469.568 73.1973C469.197 72.9627 469.011 72.6787 469.011 72.3467C469.011 72.044 469.163 71.8 469.465 71.6133C469.769 71.4267 470.175 71.3347 470.683 71.3347C471.056 71.3347 471.475 71.408 471.944 71.5547C472.413 71.6813 472.829 71.888 473.191 72.1707L474.217 70.572C473.319 69.848 472.125 69.4867 470.639 69.4867C469.573 69.4867 468.699 69.76 468.013 70.308C467.309 70.8547 466.957 71.5347 466.957 72.3467C466.968 73.2067 467.251 73.8773 467.808 74.356C468.376 74.836 469.181 75.2267 470.228 75.5293C471.099 75.8027 471.691 76.076 472.003 76.3507C472.147 76.4735 472.262 76.6265 472.341 76.7988C472.419 76.9712 472.459 77.1586 472.457 77.348C472.465 77.5214 472.427 77.6937 472.347 77.848C472.268 78.0023 472.149 78.1333 472.004 78.228C471.691 78.4427 471.24 78.5507 470.653 78.5507C469.696 78.56 468.737 78.1787 467.779 77.4067ZM460.405 78.2573C460.083 78.0545 459.804 77.7904 459.584 77.48L458.205 78.6093C458.616 79.3027 459.125 79.788 459.731 80.0613C460.297 80.3147 460.948 80.4427 461.681 80.4427C462.081 80.4427 462.497 80.3787 462.928 80.252C463.365 80.1217 463.769 79.9019 464.116 79.6067C464.752 79.0987 465.084 78.2667 465.113 77.1133V69.6627H463.133V76.732C463.133 77.4067 462.981 77.8813 462.68 78.1547C462.376 78.4187 461.995 78.5507 461.535 78.5507C461.095 78.5507 460.719 78.4533 460.405 78.2573ZM454 64C454 62.9391 454.421 61.9217 455.172 61.1716C455.922 60.4214 456.939 60 458 60H474C475.061 60 476.078 60.4214 476.828 61.1716C477.579 61.9217 478 62.9391 478 64V80C478 81.0609 477.579 82.0783 476.828 82.8284C476.078 83.5786 475.061 84 474 84H458C456.939 84 455.922 83.5786 455.172 82.8284C454.421 82.0783 454 81.0609 454 80V64ZM458 62.6667C457.646 62.6667 457.307 62.8071 457.057 63.0572C456.807 63.3072 456.667 63.6464 456.667 64V80C456.667 80.3536 456.807 80.6928 457.057 80.9428C457.307 81.1929 457.646 81.3333 458 81.3333H474C474.354 81.3333 474.693 81.1929 474.943 80.9428C475.193 80.6928 475.333 80.3536 475.333 80V64C475.333 63.6464 475.193 63.3072 474.943 63.0572C474.693 62.8071 474.354 62.6667 474 62.6667H458Z" fill="#E2E2E2"/>
<path d="M596 69.695C594.82 69.695 593.859 70.7298 593.859 72.0005C593.859 73.2713 594.82 74.3061 596 74.3061C597.18 74.3061 598.141 73.2713 598.141 72.0005C598.141 70.7298 597.18 69.695 596 69.695ZM590.008 76.5826L589.535 76.4565C586.019 75.4968 584 73.8731 584 71.9965C584 70.1199 586.02 68.4962 589.535 67.5365L590.008 67.4105L590.14 67.9154C590.497 69.2378 590.953 70.5268 591.504 71.7695L591.605 71.9965L591.504 72.2275C590.952 73.4698 590.496 74.7588 590.14 76.0817L590.008 76.5826ZM589.317 68.7143C586.645 69.5221 585.004 70.763 585.004 71.9965C585.004 73.2301 586.645 74.466 589.317 75.2787C589.644 74.158 590.04 73.0615 590.5 71.9965C590.039 70.9318 589.644 69.8353 589.317 68.7143ZM601.993 76.5826L601.86 76.0777C601.504 74.7563 601.048 73.4686 600.496 72.2275L600.395 71.9965L600.496 71.7655C601.048 70.5233 601.504 69.2342 601.86 67.9113L601.993 67.4105L602.465 67.5365C605.981 68.4962 608 70.1199 608 71.9965C608 73.8731 605.98 75.4968 602.465 76.4565L601.993 76.5826ZM601.5 71.9965C601.962 73.0608 602.357 74.1574 602.683 75.2787C605.359 74.4669 606.996 73.2301 606.996 71.9965C606.996 70.763 605.355 69.527 602.683 68.7143C602.355 69.8348 601.96 70.9311 601.5 71.9965ZM589.309 68.7103L589.176 68.2054C588.187 64.4522 588.488 61.7597 590 60.821C591.484 59.8993 593.863 60.989 596.359 63.7494L596.699 64.1242L596.359 64.499C595.473 65.4924 594.663 66.5617 593.938 67.6964L593.801 67.9024L593.566 67.9234C592.29 68.0319 591.024 68.2516 589.781 68.5802L589.309 68.7103ZM591.207 61.5707C590.938 61.5707 590.699 61.6296 590.5 61.7557C589.507 62.3745 589.332 64.5201 590.015 67.4145C591.081 67.1576 592.162 66.9763 593.25 66.8716C593.876 65.9106 594.561 64.9955 595.3 64.1323C593.742 62.4956 592.265 61.5707 591.207 61.5707ZM600.797 83.4992C600.793 83.4992 600.793 83.4992 600.797 83.4992C599.371 83.4992 597.539 82.3464 595.641 80.2428L595.301 79.868L595.641 79.4932C596.527 78.4998 597.337 77.4305 598.062 76.2958L598.195 76.0898L598.43 76.0647C599.708 75.9599 600.975 75.7402 602.219 75.408L602.692 75.282L602.824 75.7868C603.813 79.54 603.512 82.2285 602 83.1664C601.634 83.3927 601.219 83.5083 600.797 83.4992ZM596.699 79.8599C598.257 81.4966 599.734 82.4224 600.792 82.4224H600.796C601.062 82.4224 601.3 82.3593 601.5 82.2374C602.492 81.6186 602.672 79.473 601.984 76.5785C600.918 76.8356 599.838 77.0157 598.75 77.1173C598.123 78.0796 597.438 78.9953 596.699 79.8599ZM602.692 68.7103L602.219 68.5802C600.974 68.2527 599.707 68.033 598.43 67.9234L598.195 67.9024L598.062 67.6964C597.337 66.5617 596.527 65.4924 595.641 64.499L595.301 64.1242L595.641 63.7494C598.137 60.989 600.516 59.8993 602 60.821C603.512 61.7589 603.813 64.4522 602.824 68.2054L602.692 68.7103ZM598.75 66.8716C599.838 66.976 600.919 67.1574 601.985 67.4145C602.673 64.5201 602.493 62.3736 601.5 61.7557C600.512 61.1417 598.653 62.0836 596.7 64.1331C597.437 64.9982 598.122 65.9132 598.75 66.8725V66.8716ZM591.207 83.4992C590.785 83.5073 590.367 83.3942 590 83.1672C588.488 82.2293 588.187 79.54 589.176 75.7877L589.309 75.2828L589.781 75.4088C590.938 75.7246 592.211 75.9428 593.566 76.0655L593.801 76.0906L593.934 76.2966C594.659 77.4313 595.469 78.5006 596.356 79.494L596.695 79.8688L596.356 80.2436C594.461 82.3472 592.629 83.5 591.207 83.5V83.4992ZM590.016 76.5785C589.328 79.473 589.508 81.6194 590.5 82.2374C591.489 82.8432 593.344 81.9094 595.301 79.8599C594.562 78.9953 593.877 78.0788 593.25 77.1165C592.162 77.0152 591.082 76.8359 590.016 76.5785ZM596 77.2555C595.176 77.2555 594.332 77.2175 593.484 77.1416L593.25 77.1206L593.113 76.9105C592.635 76.1697 592.185 75.4075 591.766 74.626C591.345 73.8445 590.956 73.0443 590.598 72.2275L590.497 71.9965L590.598 71.7655C591.315 70.1323 592.156 68.566 593.113 67.0825L593.25 66.8725L593.484 66.8514C595.159 66.6996 596.841 66.6996 598.516 66.8514L598.75 66.8725L598.887 67.0825C599.845 68.5652 600.687 70.1316 601.402 71.7655L601.503 71.9965L601.402 72.2275C600.688 73.8622 599.846 75.4288 598.887 76.9105L598.75 77.1206L598.516 77.1416C597.679 77.217 596.84 77.255 596 77.2555ZM593.805 76.0857C595.282 76.2077 596.718 76.2077 598.199 76.0857C599.025 74.7834 599.758 73.4163 600.394 71.9957C599.761 70.5728 599.026 69.2053 598.195 67.9057C596.734 67.7837 595.266 67.7837 593.805 67.9057C592.973 69.2049 592.238 70.5724 591.606 71.9957C592.242 73.417 592.977 74.7842 593.805 76.0857Z" fill="#E2E2E2"/>
<path d="M738.045 70.9305L727.566 60.4528C727.422 60.3092 727.252 60.1954 727.064 60.1177C726.877 60.04 726.676 60 726.473 60C726.27 60 726.069 60.04 725.882 60.1177C725.694 60.1954 725.524 60.3092 725.38 60.4528L723.205 62.6278L725.965 65.3879C726.291 65.2767 726.641 65.2594 726.976 65.3377C727.311 65.4161 727.617 65.587 727.859 65.831C728.102 66.075 728.271 66.3822 728.347 66.7176C728.423 67.0531 728.404 67.4031 728.29 67.7279L730.95 70.389C731.343 70.2504 731.772 70.25 732.166 70.3878C732.56 70.5256 732.895 70.7933 733.116 71.1469C733.337 71.5006 733.432 71.919 733.383 72.3334C733.335 72.7477 733.147 73.1333 732.85 73.4265C732.55 73.7287 732.154 73.9172 731.73 73.9599C731.306 74.0026 730.881 73.8968 730.526 73.6605C730.172 73.4243 729.91 73.0723 729.786 72.6646C729.663 72.257 729.684 71.819 729.847 71.4255L727.368 68.9444V75.4741C727.745 75.6606 728.046 75.9707 728.222 76.3527C728.398 76.7346 728.438 77.1653 728.335 77.5731C728.232 77.9808 727.992 78.3408 727.656 78.5932C727.319 78.8456 726.907 78.9751 726.486 78.9601C726.066 78.9451 725.664 78.7865 725.346 78.5107C725.029 78.235 724.815 77.8587 724.741 77.4447C724.668 77.0307 724.738 76.6039 724.941 76.2355C725.144 75.8671 725.467 75.5793 725.856 75.4201V68.8304C725.631 68.7384 725.427 68.6029 725.255 68.4316C725.083 68.2603 724.947 68.0567 724.854 67.8325C724.761 67.6082 724.714 67.3678 724.714 67.1252C724.715 66.8825 724.763 66.6423 724.857 66.4184L722.137 63.6974L714.952 70.8825C714.663 71.1724 714.5 71.5655 714.5 71.9753C714.5 72.385 714.663 72.7781 714.952 73.068L725.431 83.5472C725.575 83.6908 725.745 83.8046 725.933 83.8823C726.12 83.96 726.321 84 726.524 84C726.727 84 726.928 83.96 727.115 83.8823C727.303 83.8046 727.473 83.6908 727.617 83.5472L738.046 73.1175C738.19 72.974 738.304 72.8036 738.382 72.6159C738.46 72.4283 738.5 72.2271 738.5 72.024C738.5 71.8209 738.46 71.6197 738.382 71.4321C738.304 71.2444 738.19 71.074 738.046 70.9305" fill="#E2E2E2"/>
<path d="M85.3939 192.09C85.3321 192.028 85.2537 191.996 85.1737 192C84.9548 192 84.6712 192.183 84.5184 192.28L84.4581 192.318C84.2022 192.47 83.9237 192.556 83.6396 192.571C83.3483 192.582 83.0974 192.603 82.7706 192.645C80.8342 192.889 79.9706 194.708 79.1387 196.467C78.6857 197.424 78.2181 198.418 77.5768 199.178C77.4441 199.335 77.303 199.482 77.1546 199.617C76.4908 200.222 75.6574 200.654 75.009 200.959C74.3848 201.252 73.7032 201.515 73.0451 201.769C72.4416 202.002 71.8723 202.222 71.3486 202.461C71.1452 202.553 70.9405 202.64 70.7346 202.723C70.2574 202.912 69.9137 203.058 69.4108 203.482C69.2307 203.632 69.0553 203.79 68.8851 203.957C68.4861 204.347 68.1329 204.803 67.8356 205.312C67.5799 205.781 67.2845 206.215 66.9542 206.608C66.8481 206.736 66.6598 206.798 66.3778 206.798C66.0478 206.798 65.6475 206.715 65.2239 206.626C64.7871 206.532 64.3356 206.441 63.9484 206.441C63.6339 206.441 63.393 206.504 63.2134 206.631C63.2134 206.631 62.9102 206.848 62.7825 207.128L62.9081 207.197C63.1027 207.326 63.2829 207.486 63.4442 207.672C63.6124 207.862 63.7997 208.026 64.0016 208.158C64.0662 208.187 64.1249 208.232 64.1737 208.292C64.1211 208.387 64.0436 208.509 63.9621 208.64C63.5151 209.357 63.2544 209.81 63.4039 210.056C63.4755 210.102 63.5555 210.124 63.6362 210.121C64.6104 210.121 65.1341 209.811 65.7962 209.418C65.9882 209.304 66.1836 209.187 66.4159 209.066C66.8031 208.86 67.2199 208.532 67.6622 208.184C68.2404 207.722 68.8453 207.247 69.4326 207.019C69.915 206.838 70.4176 206.752 70.9219 206.762C71.5416 206.762 72.1937 206.864 72.8228 206.963C73.2913 207.037 73.7769 207.113 74.2534 207.148C74.4382 207.161 74.6096 207.167 74.7759 207.167C74.9987 207.168 75.2214 207.154 75.4429 207.125L75.4961 207.102C75.8301 206.851 75.9868 206.31 76.1383 205.788C76.2358 205.452 76.3183 205.15 76.4481 204.958C76.4557 204.949 76.464 204.941 76.4728 204.933C76.4789 204.929 76.4859 204.927 76.4928 204.929C76.4996 204.93 76.5059 204.934 76.5107 204.94V204.956C76.4334 206.998 75.7626 208.294 75.0842 209.447L74.6312 210.042C74.6312 210.042 75.2655 210.042 75.6262 209.871C76.9432 209.389 77.937 208.326 78.6602 206.63C78.8386 206.195 78.9981 205.748 79.1381 205.293C79.1503 205.255 79.2643 205.184 79.2536 205.381C79.2497 205.439 79.2465 205.503 79.2426 205.571C79.2426 205.611 79.2426 205.651 79.2364 205.692C79.2176 205.977 79.1629 206.579 79.1629 206.579L79.5696 206.312C80.55 205.553 81.3058 204.021 81.8792 201.637C82.1177 200.643 82.2926 199.657 82.4468 198.788C82.6311 197.744 82.7899 196.849 82.9719 196.501C83.2577 195.956 83.6938 195.588 84.1159 195.23C84.1733 195.182 84.2314 195.135 84.2878 195.084C84.8184 194.627 85.3459 194.1 85.4621 193.118V193.096C85.5465 192.363 85.4753 192.176 85.3939 192.09ZM84.0283 215.93H82.092V211.796H83.8386C84.5061 211.796 85.1421 211.95 85.1327 212.867C85.1327 213.513 84.8051 213.692 84.4598 213.76C84.9501 213.811 85.245 214.195 85.245 214.814C85.2482 215.741 84.5844 215.931 84.0283 215.931V215.93ZM83.8836 213.6C84.552 213.6 84.7014 213.284 84.7014 212.884C84.7014 212.282 84.4024 212.145 83.8836 212.145H82.4957V213.6L83.8836 213.6ZM83.9021 213.949H82.4957V215.581H83.9625C84.3739 215.581 84.8083 215.415 84.8083 214.78C84.8083 214.047 84.3086 213.949 83.9021 213.949ZM77.9964 211.796H79.5199C80.8001 211.796 81.4399 212.661 81.4305 213.863C81.4399 215.112 80.7337 215.931 79.6322 215.931H77.9963L77.9964 211.796ZM78.4168 212.162V215.57H79.5788C80.5972 215.57 80.9852 214.727 80.9852 213.851C80.9852 212.861 80.4996 212.162 79.5789 212.162H78.4168ZM76.3847 213.394V212.912H77.0229V215.93H76.3869V215.444C76.2189 215.794 75.8734 215.994 75.4528 215.994C74.5746 215.994 74.0835 215.234 74.0835 214.361C74.0835 213.519 74.5483 212.842 75.3593 212.842C75.8194 212.849 76.2026 213.039 76.3847 213.394ZM74.7581 214.402C74.7581 214.957 75.0431 215.433 75.5947 215.433C76.1274 215.433 76.4171 214.968 76.4171 214.419C76.4171 213.869 76.1173 213.399 75.5651 213.399C75.0349 213.399 74.7589 213.868 74.7589 214.402H74.7581ZM72.8807 212.116C72.8794 212.061 72.8874 212.007 72.9043 211.956C72.9211 211.905 72.9463 211.859 72.9783 211.821C73.0104 211.783 73.0485 211.753 73.0904 211.734C73.1323 211.715 73.1769 211.706 73.2216 211.709C73.267 211.708 73.3123 211.717 73.3547 211.737C73.3971 211.758 73.4357 211.788 73.4681 211.827C73.5005 211.867 73.526 211.913 73.5432 211.965C73.5603 212.017 73.5687 212.072 73.5679 212.128C73.5688 212.183 73.5603 212.238 73.543 212.288C73.5256 212.339 73.4998 212.385 73.4672 212.422C73.4346 212.46 73.3959 212.489 73.3536 212.507C73.3113 212.526 73.2663 212.533 73.2216 212.529C73.1766 212.531 73.1317 212.522 73.0898 212.502C73.0478 212.482 73.0096 212.452 72.9776 212.413C72.9456 212.375 72.9205 212.328 72.9038 212.277C72.8871 212.226 72.8793 212.171 72.8807 212.116ZM72.9088 212.912H73.5444V215.118C73.5444 215.254 73.5679 215.352 73.6607 215.352C73.7015 215.351 73.7422 215.345 73.7822 215.335L73.8806 215.905C73.7468 215.97 73.6041 216.002 73.4602 216C73.1938 216 72.9086 215.905 72.9086 215.163L72.9088 212.912ZM71.2781 215.931H70.6432V212.912H71.2781V213.589C71.3508 213.372 71.4736 213.187 71.6315 213.055C71.7893 212.924 71.9751 212.852 72.1659 212.849C72.3012 212.847 72.4357 212.874 72.5633 212.929L72.4277 213.498C72.3179 213.463 72.205 213.443 72.0915 213.441C71.6331 213.441 71.2781 213.865 71.2781 214.486V215.931ZM69.2087 213.394V212.912H69.8447V215.931H69.2087V215.445C69.0407 215.794 68.6953 215.994 68.2746 215.994C67.3956 215.994 66.9052 215.235 66.9052 214.361C66.9052 213.519 67.3701 212.842 68.181 212.842C68.6434 212.849 69.0266 213.039 69.2087 213.394ZM67.5821 214.402C67.5821 214.957 67.8671 215.433 68.4188 215.433C68.9509 215.433 69.2406 214.969 69.2406 214.419C69.2406 213.87 68.9415 213.4 68.3886 213.4C67.8587 213.4 67.5831 213.868 67.5831 214.402H67.5821ZM65.8496 211.796L66.7217 215.931H66.0636L65.4825 212.952L64.3875 215.931H63.8316L62.7426 212.97L62.1444 215.931H61.5L62.3644 211.796H62.9344L64.1119 214.997L65.2843 211.796H65.8496Z" fill="#E2E2E2"/>
<path fill-rule="evenodd" clip-rule="evenodd" d="M207.673 198.134C207.164 196.536 206.348 195.123 205.198 193.906C204.908 193.598 204.585 193.316 204.382 192.933C204.254 192.691 204.132 192.445 204.007 192.201L203.928 192L203.905 192.079C203.895 192.477 203.672 192.747 203.394 192.999C203.08 193.282 202.789 193.59 202.488 193.887L201.563 195.115L200.815 196.502L200.315 197.865L200.3 197.886C200.024 198.798 199.889 199.736 199.822 200.683C199.797 201.039 199.826 201.4 199.846 201.758C199.874 202.269 199.962 202.772 200.094 203.267C200.574 205.065 201.548 206.557 202.88 207.824C203.127 208.06 203.395 208.274 203.653 208.498L203.767 208.893L203.873 209.507L203.924 210.148C203.923 210.278 203.918 210.409 203.926 210.539C203.928 210.572 203.971 210.603 203.995 210.635L204.211 210.711L204.435 210.799L204.397 210.229L204.395 209.668L204.473 208.814L204.529 208.628L204.69 208.34C204.889 208.178 205.102 208.032 205.283 207.852C205.61 207.528 205.937 207.199 206.231 206.843C206.612 206.382 206.938 205.877 207.201 205.339C207.377 204.977 207.542 204.609 207.679 204.232C207.8 203.899 207.875 203.549 207.97 203.207L207.995 203.133C208.191 202.209 208.224 201.276 208.152 200.337C208.094 199.58 207.918 198.85 207.673 198.134ZM203.786 208.04C203.816 207.888 203.853 207.737 203.88 207.585C203.853 207.737 203.816 207.888 203.786 208.04ZM212.296 211.678C212.135 211.366 211.898 211.129 211.585 210.973C211.323 210.843 211.041 210.786 210.751 210.778C210.534 210.772 210.316 210.783 210.099 210.786C209.905 210.788 209.712 210.791 209.519 210.789C209.292 210.787 209.065 210.78 208.837 210.774C208.8 210.773 208.773 210.78 208.755 210.819C208.728 210.879 208.695 210.937 208.661 211.003L208.699 211.015C208.812 211.035 208.925 211.052 209.037 211.075C209.182 211.104 209.246 211.187 209.253 211.31C209.263 211.484 209.267 211.659 209.266 211.834C209.263 212.527 209.258 213.219 209.253 213.911C209.253 213.957 209.252 214.005 209.24 214.048C209.225 214.097 209.21 214.162 209.173 214.186C209.107 214.229 209.033 214.257 208.956 214.27C208.846 214.288 208.828 214.293 208.793 214.402L208.779 214.456C208.762 214.515 208.771 214.527 208.832 214.528C209.184 214.531 209.536 214.539 209.888 214.538C210.209 214.537 210.53 214.557 210.849 214.496C211.152 214.438 211.434 214.338 211.691 214.168C212.025 213.947 212.265 213.652 212.392 213.266C212.494 212.955 212.517 212.638 212.483 212.313C212.461 212.091 212.398 211.875 212.296 211.678ZM211.68 213.581C211.491 213.935 211.21 214.171 210.809 214.233C210.558 214.272 210.306 214.261 210.066 214.165C209.914 214.104 209.858 213.972 209.853 213.815C209.849 213.662 209.847 213.509 209.847 213.356C209.846 212.817 209.846 212.279 209.847 211.74C209.847 211.57 209.85 211.4 209.853 211.23C209.855 211.111 209.88 211.071 209.995 211.061C210.502 211.018 210.986 211.074 211.388 211.434C211.636 211.656 211.778 211.94 211.836 212.266C211.861 212.402 211.868 212.541 211.884 212.679C211.871 212.994 211.829 213.301 211.68 213.581ZM215.936 212.998C215.836 212.752 215.646 212.598 215.408 212.5C215.327 212.466 215.243 212.438 215.155 212.406L215.186 212.386C215.281 212.325 215.386 212.275 215.468 212.2C215.666 212.016 215.749 211.786 215.71 211.511C215.673 211.251 215.544 211.059 215.314 210.935C215.105 210.823 214.88 210.782 214.646 210.782C214.243 210.783 213.839 210.789 213.436 210.789C213.297 210.79 213.157 210.779 213.018 210.777C212.991 210.777 212.951 210.784 212.94 210.802C212.908 210.851 212.887 210.908 212.864 210.963C212.851 210.995 212.864 211.012 212.9 211.017C212.997 211.03 213.094 211.047 213.191 211.062C213.326 211.082 213.391 211.152 213.399 211.289L213.401 211.37C213.401 211.795 213.402 212.219 213.401 212.644C213.398 213.068 213.394 213.492 213.389 213.916C213.388 213.969 213.381 214.023 213.373 214.076C213.362 214.156 213.319 214.211 213.238 214.228L213.008 214.274C212.981 214.28 212.942 214.279 212.931 214.296C212.888 214.359 212.854 214.429 212.859 214.513L212.883 214.519L213.655 214.539L213.81 214.538C214.077 214.535 214.345 214.54 214.611 214.526C214.9 214.512 215.172 214.425 215.422 214.277C215.689 214.118 215.895 213.909 215.968 213.594C216.015 213.394 216.015 213.192 215.936 212.998ZM213.974 211.189C213.975 211.103 214.012 211.066 214.096 211.064C214.303 211.058 214.509 211.06 214.708 211.132C214.967 211.225 215.125 211.449 215.122 211.724C215.121 211.829 215.123 211.934 215.084 212.035C215.008 212.234 214.862 212.339 214.656 212.36C214.548 212.371 214.439 212.372 214.343 212.377L214.022 212.363C213.98 212.361 213.961 212.343 213.961 212.298L213.974 211.189ZM215.303 213.848C215.2 214.074 215.012 214.194 214.776 214.235C214.588 214.267 214.395 214.259 214.211 214.21C214.073 214.174 214.017 214.063 213.989 213.939C213.971 213.856 213.974 213.757 213.972 213.671C213.97 213.537 213.972 213.261 213.972 213.261H213.969C213.969 213.064 213.97 212.893 213.968 212.704C213.968 212.664 213.975 212.643 214.025 212.645C214.2 212.65 214.376 212.653 214.551 212.66C214.708 212.666 214.855 212.713 214.993 212.788C215.203 212.902 215.33 213.077 215.365 213.318C215.391 213.5 215.38 213.679 215.303 213.848ZM196.046 214.06L196.05 212.989C196.051 212.827 196.03 212.669 195.978 212.517C195.834 212.095 195.436 211.904 195.021 212.055C194.833 212.124 194.664 212.228 194.502 212.346C194.408 212.415 194.408 212.415 194.34 212.317C194.148 212.039 193.873 211.943 193.553 212.046C193.346 212.112 193.165 212.226 192.994 212.357C192.978 212.369 192.946 212.383 192.936 212.376C192.92 212.364 192.909 212.335 192.91 212.314L192.921 212.123C192.922 212.083 192.915 212.043 192.911 212.001C192.833 212.028 192.772 212.055 192.707 212.071C192.507 212.12 192.306 212.165 192.105 212.212C192.056 212.223 192.005 212.238 192 212.294C191.995 212.349 192.048 212.359 192.089 212.375C192.176 212.41 192.261 212.448 192.347 212.485C192.419 212.517 192.445 212.575 192.445 212.653C192.444 212.985 192.446 213.316 192.444 213.648C192.443 213.783 192.437 213.918 192.431 214.053C192.425 214.173 192.385 214.223 192.27 214.253C192.209 214.269 192.147 214.28 192.086 214.294C192.072 214.298 192.049 214.306 192.049 214.313C192.046 214.372 192.043 214.431 192.053 214.488C192.055 214.499 192.116 214.499 192.15 214.503L192.173 214.501C192.41 214.498 192.647 214.494 192.884 214.491C193.009 214.49 193.135 214.491 193.271 214.491L193.286 214.3C193.207 214.286 193.138 214.275 193.069 214.26C192.962 214.236 192.916 214.179 192.913 214.069L192.911 213.913C192.91 213.508 192.909 213.103 192.909 212.697C192.909 212.639 192.933 212.592 192.984 212.557C193.093 212.482 193.208 212.424 193.335 212.391C193.603 212.321 193.835 212.418 193.939 212.648C193.971 212.72 193.997 212.8 194.004 212.879C194.042 213.285 194.025 213.692 194.003 214.098C193.998 214.186 193.957 214.23 193.871 214.252L193.67 214.295C193.653 214.299 193.63 214.288 193.629 214.301C193.624 214.358 193.627 214.444 193.627 214.444H193.675L194.288 214.464C194.457 214.464 194.625 214.484 194.793 214.488C194.823 214.489 194.85 214.493 194.852 214.458C194.853 214.404 194.853 214.349 194.849 214.295L194.817 214.289L194.644 214.25C194.528 214.222 194.488 214.178 194.487 214.059C194.486 213.765 194.49 213.472 194.487 213.179C194.486 213.011 194.48 212.843 194.469 212.676C194.466 212.632 194.473 212.602 194.508 212.577C194.61 212.502 194.724 212.447 194.846 212.413C195.224 212.312 195.533 212.521 195.553 212.915C195.572 213.294 195.564 213.674 195.561 214.054C195.56 214.186 195.517 214.226 195.388 214.262L195.343 214.273C195.211 214.305 195.212 214.305 195.22 214.447C195.222 214.491 195.235 214.503 195.281 214.502C195.551 214.495 195.82 214.494 196.09 214.491C196.2 214.491 196.31 214.491 196.43 214.491L196.454 214.307C196.349 214.279 196.252 214.258 196.158 214.227C196.075 214.199 196.046 214.148 196.046 214.06ZM205.322 212.436C205.433 212.332 205.434 212.195 205.403 212.043C205.315 212.136 205.217 212.178 205.104 212.187C204.954 212.197 204.806 212.184 204.666 212.124C204.286 211.959 203.913 211.971 203.541 212.151C203.227 212.303 203.035 212.538 203.016 212.896C203.003 213.125 203.046 213.342 203.197 213.524C203.288 213.634 203.405 213.704 203.536 213.753C203.593 213.774 203.597 213.801 203.55 213.838C203.515 213.865 203.478 213.89 203.441 213.913C203.362 213.963 203.282 214.013 203.201 214.061C203.154 214.09 203.138 214.127 203.154 214.183C203.199 214.348 203.315 214.443 203.46 214.513L203.513 214.55L203.467 214.597C203.325 214.713 203.177 214.823 203.04 214.947C202.926 215.051 202.889 215.19 202.924 215.343C202.993 215.65 203.195 215.839 203.48 215.926C203.98 216.079 204.449 215.991 204.876 215.693C205.13 215.516 205.312 215.285 205.367 214.968C205.429 214.611 205.233 214.302 204.881 214.238C204.649 214.196 204.411 214.184 204.176 214.156C204.066 214.144 203.955 214.136 203.848 214.111C203.757 214.089 203.712 214.014 203.72 213.942C203.729 213.87 203.804 213.803 203.891 213.796C204.065 213.782 204.236 213.755 204.396 213.68C204.822 213.484 205.019 213.141 204.97 212.678C204.963 212.616 204.949 212.554 204.937 212.482C205.073 212.505 205.212 212.54 205.322 212.436ZM204.031 214.607C204.205 214.612 204.401 214.623 204.592 214.679C204.759 214.728 204.897 214.815 204.937 215.003C204.986 215.231 204.878 215.458 204.659 215.579C204.455 215.693 204.232 215.703 204.007 215.679C203.814 215.659 203.64 215.592 203.501 215.448C203.318 215.259 203.317 214.997 203.5 214.808C203.664 214.639 203.752 214.604 204.031 214.607ZM204.464 213.235C204.364 213.56 204.07 213.605 203.84 213.501C203.644 213.413 203.559 213.239 203.514 213.04C203.497 212.963 203.493 212.884 203.483 212.806C203.487 212.694 203.505 212.586 203.553 212.485C203.7 212.174 204.06 212.193 204.26 212.334C204.345 212.394 204.405 212.476 204.442 212.573C204.525 212.785 204.533 213.018 204.464 213.235ZM202.634 214.272C202.564 214.261 202.495 214.246 202.428 214.226C202.309 214.189 202.295 214.167 202.293 214.04C202.29 213.687 202.287 213.334 202.283 212.981C202.281 212.822 202.263 212.665 202.214 212.514C202.088 212.114 201.699 211.899 201.31 212.017C201.094 212.082 200.909 212.204 200.736 212.348L200.673 212.396L200.674 212.331C200.678 212.256 200.686 212.181 200.685 212.106C200.685 212.067 200.67 212.027 200.663 211.993C200.516 212.038 200.384 212.082 200.249 212.117C200.114 212.151 199.976 212.174 199.84 212.202C199.772 212.216 199.722 212.257 199.723 212.305C199.725 212.371 199.78 212.384 199.827 212.404C199.914 212.439 200 212.475 200.085 212.514C200.146 212.541 200.171 212.592 200.17 212.658C200.166 213.117 200.163 213.576 200.157 214.035C200.155 214.18 200.118 214.218 199.977 214.25L199.915 214.263C199.784 214.285 199.781 214.291 199.79 214.43L199.79 214.453C199.789 214.506 199.812 214.524 199.867 214.523C200.215 214.519 200.562 214.517 200.91 214.518C201.059 214.519 201.075 214.507 201.072 214.353L201.065 214.286C200.98 214.272 200.898 214.262 200.819 214.244C200.735 214.225 200.705 214.191 200.698 214.105C200.69 214.027 200.688 213.947 200.687 213.869C200.683 213.508 200.68 213.147 200.678 212.786C200.678 212.696 200.695 212.611 200.777 212.553C200.899 212.465 201.043 212.413 201.193 212.403C201.503 212.381 201.738 212.567 201.755 212.879C201.776 213.263 201.77 213.65 201.775 214.035C201.775 214.064 201.77 214.093 201.766 214.121C201.759 214.178 201.731 214.22 201.675 214.235C201.619 214.249 201.563 214.262 201.507 214.271C201.423 214.284 201.421 214.283 201.414 214.369L201.417 214.426C201.427 214.526 201.427 214.523 201.527 214.522C201.863 214.519 202.199 214.518 202.535 214.518C202.676 214.518 202.686 214.512 202.687 214.366L202.687 214.331C202.689 214.293 202.672 214.278 202.634 214.272ZM207.332 212.041C206.98 211.954 206.645 212.019 206.328 212.185C206.019 212.346 205.813 212.594 205.734 212.938C205.655 213.285 205.693 213.624 205.845 213.947C205.944 214.156 206.096 214.318 206.304 214.424C206.79 214.67 207.383 214.558 207.764 214.228C208.065 213.968 208.175 213.621 208.182 213.192C208.178 213.149 208.174 213.067 208.162 212.985C208.099 212.518 207.778 212.151 207.332 212.041ZM207.599 213.845C207.506 214.217 207.187 214.382 206.828 214.254C206.644 214.189 206.507 214.065 206.415 213.897C206.203 213.51 206.162 213.1 206.283 212.679C206.363 212.398 206.592 212.244 206.865 212.264C207.108 212.281 207.295 212.399 207.432 212.599C207.577 212.809 207.633 213.049 207.648 213.301C207.65 213.341 207.648 213.382 207.648 213.422L207.665 213.424C207.644 213.565 207.634 213.708 207.599 213.845ZM198.465 212.035C198.094 211.949 197.747 212.034 197.425 212.224C197.146 212.388 196.966 212.634 196.897 212.955C196.833 213.254 196.859 213.549 196.964 213.836C197.028 214.011 197.126 214.165 197.268 214.285C197.568 214.537 197.918 214.601 198.291 214.531C198.607 214.471 198.884 214.33 199.086 214.065C199.274 213.818 199.346 213.533 199.354 213.226C199.343 213.128 199.34 213.029 199.319 212.933C199.217 212.458 198.942 212.145 198.465 212.035ZM198.768 213.844C198.677 214.213 198.353 214.383 197.997 214.255C197.767 214.173 197.618 214.004 197.524 213.787C197.373 213.438 197.342 213.075 197.44 212.708C197.515 212.427 197.741 212.219 198.087 212.269C198.299 212.299 198.465 212.409 198.588 212.583C198.755 212.817 198.81 213.086 198.817 213.369V213.426L198.831 213.428C198.811 213.567 198.801 213.708 198.768 213.844Z" fill="#E2E2E2"/>
<path d="M338.99 196C338.929 196 338.87 196.026 338.826 196.071C338.783 196.117 338.758 196.179 338.758 196.244V200.713L337.793 200.122C337.734 200.085 337.666 200.066 337.597 200.066C337.528 200.066 337.46 200.085 337.4 200.122L335.082 201.542C335.023 201.578 334.974 201.629 334.939 201.692C334.905 201.754 334.887 201.824 334.887 201.896V204.739C334.887 204.885 334.961 205.02 335.082 205.093L337.4 206.513C337.46 206.55 337.528 206.569 337.597 206.569C337.666 206.569 337.734 206.55 337.793 206.513L340.111 205.093C340.171 205.057 340.22 205.006 340.254 204.943C340.288 204.881 340.306 204.811 340.306 204.739V197C340.306 196.929 340.288 196.86 340.255 196.798C340.221 196.737 340.173 196.685 340.114 196.65L339.106 196.033C339.071 196.012 339.031 196 338.991 196H338.99ZM331.403 200.067C331.334 200.067 331.266 200.086 331.207 200.122L328.889 201.542C328.829 201.578 328.78 201.629 328.746 201.692C328.712 201.754 328.694 201.824 328.694 201.896V204.739C328.694 204.885 328.768 205.02 328.889 205.093L331.207 206.513C331.328 206.586 331.478 206.586 331.6 206.513L333.918 205.093C333.977 205.057 334.026 205.006 334.061 204.943C334.095 204.881 334.113 204.811 334.113 204.739V201.896C334.113 201.824 334.095 201.754 334.061 201.691C334.026 201.629 333.977 201.578 333.918 201.542L331.6 200.122C331.54 200.086 331.472 200.067 331.403 200.067ZM343.79 200.067C343.721 200.067 343.653 200.086 343.594 200.122L341.276 201.542C341.216 201.578 341.167 201.629 341.133 201.692C341.099 201.754 341.081 201.824 341.081 201.896V204.739C341.081 204.885 341.155 205.02 341.276 205.093L343.524 206.52C343.583 206.558 343.651 206.578 343.721 206.579C343.79 206.579 343.859 206.56 343.919 206.523L345.024 205.848C345.05 205.832 345.072 205.809 345.087 205.782C345.102 205.754 345.11 205.723 345.11 205.692C345.11 205.66 345.102 205.629 345.087 205.601C345.072 205.574 345.05 205.551 345.024 205.535L342.629 204.052V202.594L343.79 201.884L344.952 202.594V203.61C344.952 203.746 345.06 203.767 345.133 203.722C345.524 203.482 345.916 203.242 346.308 203.004C346.366 202.968 346.415 202.917 346.448 202.855C346.482 202.794 346.5 202.724 346.5 202.653V201.897C346.5 201.825 346.482 201.754 346.448 201.692C346.414 201.63 346.364 201.578 346.305 201.543L343.987 200.123C343.927 200.087 343.859 200.067 343.79 200.068V200.067ZM325.21 200.068C325.141 200.068 325.073 200.087 325.013 200.124L322.695 201.542C322.636 201.578 322.587 201.63 322.552 201.692C322.518 201.755 322.5 201.826 322.5 201.898V205.526C322.5 205.704 322.683 205.813 322.828 205.725L323.856 205.096C323.915 205.061 323.963 205.009 323.997 204.948C324.031 204.886 324.048 204.816 324.048 204.745V202.596L325.21 201.885L326.371 202.596V204.745C326.371 204.816 326.389 204.886 326.423 204.947C326.456 205.009 326.505 205.06 326.563 205.096L327.591 205.725C327.624 205.745 327.662 205.756 327.7 205.756C327.739 205.756 327.777 205.746 327.81 205.726C327.843 205.705 327.871 205.676 327.89 205.641C327.909 205.606 327.919 205.567 327.919 205.526V201.898C327.919 201.826 327.901 201.755 327.867 201.692C327.833 201.63 327.784 201.578 327.724 201.542L325.406 200.124C325.347 200.087 325.279 200.068 325.21 200.068ZM337.597 201.883L338.758 202.595V204.04L337.597 204.752L336.435 204.04V202.594L337.597 201.882V201.883ZM343.79 202.508L343.127 202.914V203.726L343.79 204.13L344.454 203.726V202.914L343.79 202.508ZM334.427 205.755C334.347 205.754 334.268 205.776 334.197 205.817L332.02 207.139C331.95 207.18 331.892 207.241 331.852 207.314C331.811 207.387 331.79 207.47 331.79 207.555V210.194C331.79 210.364 331.881 210.524 332.02 210.61L332.593 210.954C332.868 211.096 332.969 211.096 333.094 211.096C333.504 211.096 333.738 210.838 333.738 210.383V207.775C333.738 207.766 333.737 207.758 333.734 207.749C333.731 207.741 333.726 207.734 333.72 207.727C333.714 207.721 333.707 207.716 333.699 207.712C333.692 207.709 333.683 207.707 333.675 207.707H333.399C333.382 207.707 333.365 207.714 333.353 207.727C333.341 207.74 333.334 207.757 333.334 207.775V210.383C333.334 210.58 333.135 210.784 332.811 210.614L332.215 210.253C332.205 210.246 332.197 210.237 332.191 210.227C332.185 210.216 332.182 210.205 332.182 210.193V207.553C332.182 207.53 332.193 207.502 332.215 207.49L334.392 206.172C334.403 206.166 334.415 206.163 334.426 206.163C334.438 206.163 334.45 206.166 334.461 206.172L336.64 207.489C336.662 207.502 336.673 207.526 336.673 207.553V210.193C336.673 210.205 336.67 210.218 336.664 210.229C336.658 210.24 336.65 210.249 336.64 210.256L334.461 211.579C334.45 211.585 334.438 211.588 334.426 211.588C334.415 211.588 334.403 211.585 334.392 211.579L333.837 211.231C333.821 211.223 333.798 211.219 333.783 211.227C333.681 211.295 333.571 211.349 333.455 211.385C333.417 211.398 333.366 211.422 333.475 211.485L334.197 211.937C334.268 211.977 334.347 211.999 334.427 212C334.507 212.001 334.586 211.978 334.654 211.933L336.832 210.61C336.902 210.569 336.96 210.508 337.001 210.435C337.041 210.362 337.062 210.279 337.062 210.194V207.555C337.061 207.471 337.039 207.388 336.999 207.315C336.959 207.242 336.901 207.182 336.832 207.139L334.654 205.818C334.585 205.776 334.507 205.755 334.427 205.756V205.755ZM337.824 206.973C337.769 206.973 337.714 206.984 337.664 207.007C337.613 207.029 337.567 207.061 337.528 207.102C337.45 207.185 337.406 207.296 337.406 207.413C337.407 207.529 337.451 207.641 337.529 207.723C337.608 207.805 337.714 207.851 337.825 207.851C337.936 207.851 338.042 207.804 338.121 207.722C338.199 207.639 338.243 207.528 338.242 207.411C338.242 207.295 338.198 207.183 338.119 207.101C338.041 207.019 337.934 206.973 337.824 206.973ZM337.819 207.043C338.016 207.043 338.175 207.205 338.175 207.411C338.174 207.51 338.136 207.604 338.069 207.674C338.003 207.744 337.913 207.784 337.819 207.785C337.725 207.784 337.636 207.744 337.571 207.674C337.505 207.604 337.469 207.509 337.47 207.411C337.469 207.363 337.478 207.315 337.496 207.27C337.513 207.225 337.539 207.185 337.571 207.151C337.604 207.116 337.642 207.089 337.685 207.071C337.727 207.052 337.773 207.043 337.819 207.043ZM337.666 207.162V207.656H337.755V207.459H337.839C337.873 207.459 337.881 207.474 337.889 207.501C337.889 207.505 337.903 207.634 337.906 207.657H338.003C337.991 207.615 337.983 207.57 337.981 207.526C337.97 207.462 337.967 207.418 337.903 207.414C337.937 207.402 337.993 207.383 337.993 207.292C337.993 207.162 337.885 207.162 337.828 207.162H337.666ZM337.755 207.241H337.831C337.855 207.241 337.899 207.241 337.899 207.308C337.899 207.336 337.888 207.381 337.827 207.379H337.755V207.241ZM335.011 207.644C334.389 207.644 334.02 207.923 334.02 208.382C334.02 208.884 334.39 209.019 334.985 209.081C335.698 209.157 335.753 209.264 335.753 209.41C335.753 209.667 335.557 209.774 335.097 209.774C334.52 209.774 334.394 209.624 334.352 209.323C334.348 209.291 334.321 209.267 334.287 209.267H334.004C333.995 209.267 333.987 209.269 333.979 209.273C333.971 209.276 333.964 209.281 333.958 209.287C333.952 209.294 333.948 209.301 333.945 209.31C333.942 209.318 333.94 209.327 333.94 209.336C333.94 209.719 334.14 210.179 335.093 210.179C335.792 210.179 336.188 209.894 336.188 209.395C336.188 208.901 335.87 208.769 335.2 208.674C334.522 208.579 334.454 208.531 334.454 208.364C334.454 208.226 334.51 208.044 335.012 208.044C335.459 208.044 335.626 208.148 335.695 208.464C335.702 208.497 335.723 208.515 335.753 208.515H336.036C336.055 208.515 336.071 208.507 336.082 208.496C336.093 208.48 336.1 208.465 336.097 208.445C336.052 207.899 335.709 207.644 335.011 207.644Z" fill="#E2E2E2"/>
<path d="M442.786 213.512V200.447H448.901V199.683H442.786V187.764H449.287V187H442.5V214.276H449.343V213.512H442.786ZM454.857 194.64L452.323 203.542L449.845 194.641H449.473L452.151 204.115L449.215 214.276H449.559L452.322 204.687L455.101 214.276H455.458L452.509 204.114L455.2 194.64L454.857 194.64ZM456.317 221V208.775H456.346C456.518 210.558 456.856 211.991 457.362 213.073C457.868 214.156 458.513 214.697 459.296 214.697C459.802 214.697 460.25 214.423 460.642 213.876C461.032 213.328 461.359 212.583 461.622 211.641C461.885 210.698 462.085 209.603 462.223 208.355C462.362 207.107 462.431 205.796 462.431 204.421C462.431 202.943 462.359 201.581 462.216 200.333C462.073 199.085 461.865 198.002 461.593 197.086C461.321 196.169 460.992 195.455 460.606 194.946C460.218 194.437 459.782 194.182 459.296 194.182C458.923 194.182 458.577 194.329 458.258 194.622C457.937 194.915 457.654 195.328 457.405 195.863C457.156 196.402 456.939 197.04 456.762 197.754C456.58 198.48 456.441 199.276 456.346 200.142H456.317V194.64H456.031V221H456.317ZM459.296 213.971C458.398 213.971 457.677 213.149 457.133 211.507C456.59 209.864 456.317 207.502 456.317 204.42C456.317 203.147 456.383 201.937 456.518 200.791C456.652 199.645 456.844 198.639 457.097 197.773C457.35 196.907 457.663 196.219 458.035 195.71C458.407 195.201 458.828 194.946 459.296 194.946C459.773 194.946 460.191 195.201 460.548 195.71C460.906 196.219 461.203 196.914 461.436 197.792C461.67 198.671 461.846 199.677 461.966 200.81C462.085 201.943 462.145 203.147 462.145 204.42C462.145 205.566 462.09 206.706 461.98 207.839C461.87 208.973 461.7 209.991 461.472 210.896C461.243 211.8 460.95 212.538 460.591 213.111C460.233 213.684 459.802 213.971 459.296 213.971ZM464.006 214.276V203.159C464.006 202.09 464.063 201.046 464.178 200.027C464.292 199.008 464.468 198.11 464.708 197.334C464.947 196.557 465.249 195.946 465.617 195.5C465.985 195.054 466.421 194.87 466.927 194.946V194.182C466.488 194.157 466.103 194.284 465.775 194.564C465.445 194.844 465.161 195.226 464.922 195.71C464.684 196.194 464.493 196.761 464.35 197.41C464.207 198.059 464.1 198.76 464.035 199.492H464.006V194.64H463.719V214.277L464.006 214.276ZM467.284 204.611H473.442C473.461 203.261 473.411 201.963 473.292 200.715C473.172 199.467 472.981 198.359 472.718 197.391C472.456 196.423 472.117 195.646 471.702 195.061C471.287 194.475 470.793 194.182 470.22 194.182C469.81 194.182 469.409 194.411 469.017 194.87C468.626 195.328 468.283 195.997 467.987 196.875C467.69 197.754 467.452 198.83 467.271 200.104C467.089 201.377 466.998 202.828 466.998 204.458C466.998 205.91 467.06 207.266 467.184 208.527C467.309 209.788 467.5 210.883 467.757 211.812C468.015 212.742 468.347 213.461 468.753 213.971C469.159 214.48 469.648 214.722 470.22 214.697C471.06 214.697 471.767 214.066 472.339 212.806C472.912 211.545 473.25 209.769 473.356 207.476H473.069C472.945 209.641 472.628 211.265 472.117 212.347C471.606 213.43 470.965 213.971 470.191 213.971C469.666 213.971 469.223 213.729 468.86 213.245C468.497 212.761 468.202 212.099 467.972 211.258C467.744 210.418 467.573 209.431 467.465 208.298C467.355 207.165 467.294 205.936 467.284 204.611ZM473.156 203.847H467.284C467.313 202.472 467.41 201.237 467.572 200.142C467.734 199.046 467.946 198.11 468.208 197.334C468.471 196.557 468.776 195.965 469.126 195.557C469.473 195.15 469.847 194.946 470.249 194.946C470.726 194.946 471.145 195.182 471.508 195.653C471.871 196.124 472.174 196.767 472.419 197.582C472.662 198.397 472.845 199.346 472.969 200.428C473.094 201.51 473.156 202.65 473.156 203.847ZM479.384 200.447H479.67C479.67 198.257 479.431 196.665 478.954 195.672C478.477 194.679 477.828 194.182 477.007 194.182C476.549 194.182 476.163 194.335 475.848 194.641C475.532 194.946 475.275 195.341 475.074 195.825C474.873 196.308 474.73 196.843 474.645 197.429C474.558 198.015 474.515 198.575 474.515 199.11C474.515 200.18 474.587 201.033 474.73 201.67C474.873 202.306 475.098 202.803 475.404 203.159C475.613 203.414 475.852 203.643 476.119 203.847C476.387 204.051 476.696 204.267 477.05 204.497C477.365 204.701 477.675 204.904 477.981 205.108C478.286 205.312 478.555 205.585 478.789 205.929C479.024 206.273 479.214 206.712 479.362 207.247C479.511 207.782 479.584 208.482 479.584 209.348C479.584 210.189 479.511 210.902 479.362 211.488C479.215 212.07 479.023 212.559 478.797 212.92C478.568 213.29 478.312 213.557 478.031 213.722C477.75 213.888 477.475 213.971 477.208 213.971C476.339 213.971 475.673 213.455 475.21 212.424C474.747 211.392 474.515 209.769 474.515 207.553H474.229C474.229 210.023 474.48 211.831 474.98 212.978C475.482 214.124 476.225 214.697 477.208 214.697C477.523 214.697 477.84 214.601 478.159 214.41C478.48 214.219 478.766 213.907 479.019 213.474C479.269 213.047 479.481 212.472 479.635 211.793C479.791 211.106 479.871 210.265 479.871 209.272C479.871 208.329 479.801 207.566 479.664 206.98C479.525 206.394 479.343 205.91 479.119 205.528C478.895 205.146 478.642 204.847 478.36 204.63C478.077 204.413 477.794 204.202 477.508 204C477.158 203.754 476.806 203.513 476.456 203.274C476.155 203.07 475.875 202.828 475.618 202.548C475.369 202.268 475.171 201.867 475.024 201.345C474.876 200.823 474.802 200.078 474.802 199.11C474.802 198.932 474.821 198.613 474.859 198.155C474.898 197.697 474.988 197.232 475.131 196.761C475.274 196.29 475.494 195.869 475.79 195.5C476.086 195.131 476.491 194.946 477.007 194.946C477.36 194.946 477.682 195.048 477.974 195.252C478.265 195.455 478.515 195.78 478.726 196.226C478.935 196.672 479.097 197.238 479.213 197.926C479.327 198.614 479.384 199.454 479.384 200.447ZM486.013 200.447H486.299C486.299 198.257 486.061 196.665 485.584 195.672C485.106 194.679 484.457 194.182 483.636 194.182C483.178 194.182 482.792 194.335 482.477 194.641C482.162 194.946 481.903 195.341 481.704 195.825C481.503 196.308 481.36 196.843 481.274 197.429C481.188 198.015 481.144 198.575 481.144 199.11C481.144 200.18 481.217 201.033 481.36 201.67C481.503 202.306 481.727 202.803 482.033 203.159C482.243 203.414 482.481 203.643 482.749 203.847C483.016 204.051 483.326 204.267 483.68 204.497C483.995 204.701 484.304 204.904 484.609 205.108C484.916 205.312 485.185 205.585 485.419 205.929C485.653 206.273 485.844 206.712 485.991 207.247C486.14 207.782 486.214 208.482 486.214 209.348C486.214 210.189 486.14 210.902 485.991 211.488C485.846 212.07 485.652 212.559 485.426 212.92C485.196 213.29 484.942 213.557 484.66 213.722C484.378 213.888 484.105 213.971 483.837 213.971C482.968 213.971 482.302 213.455 481.84 212.424C481.377 211.392 481.144 209.769 481.144 207.553H480.858C480.858 210.023 481.109 211.831 481.61 212.978C482.111 214.124 482.853 214.697 483.837 214.697C484.151 214.697 484.469 214.601 484.789 214.41C485.108 214.219 485.395 213.907 485.648 213.474C485.899 213.047 486.11 212.472 486.264 211.793C486.422 211.106 486.5 210.265 486.5 209.272C486.5 208.329 486.431 207.566 486.292 206.98C486.153 206.394 485.972 205.91 485.748 205.528C485.524 205.146 485.271 204.847 484.989 204.63C484.706 204.413 484.422 204.202 484.138 204C483.787 203.754 483.436 203.513 483.084 203.274C482.785 203.07 482.506 202.828 482.247 202.548C482 202.268 481.802 201.867 481.653 201.345C481.505 200.823 481.432 200.078 481.432 199.11C481.432 198.932 481.451 198.613 481.488 198.155C481.527 197.697 481.617 197.232 481.76 196.761C481.903 196.29 482.123 195.869 482.419 195.5C482.715 195.131 483.12 194.946 483.636 194.946C483.989 194.946 484.312 195.048 484.602 195.252C484.894 195.455 485.144 195.78 485.355 196.226C485.565 196.672 485.727 197.238 485.841 197.926C485.955 198.614 486.013 199.454 486.013 200.447Z" fill="#E2E2E2"/>
<path d="M605.335 203.835C605.333 203.204 605.102 202.591 604.678 202.092C604.253 201.593 603.659 201.236 602.988 201.076L606 193H591.072L594.092 201.101C593.44 201.274 592.867 201.635 592.46 202.128C592.052 202.622 591.831 203.223 591.83 203.84C591.831 204.296 591.952 204.744 592.182 205.149C592.412 205.553 592.746 205.901 593.154 206.165C592.832 206.577 592.466 206.959 592.061 207.305C591.316 207.951 590.444 208.463 589.49 208.815C588.649 208.299 588.285 207.389 588.614 206.573C589.329 206.371 589.941 205.943 590.339 205.366C590.738 204.789 590.896 204.102 590.785 203.429C590.674 202.755 590.302 202.14 589.735 201.694C589.169 201.249 588.445 201.002 587.696 201C586.864 201.001 586.067 201.302 585.478 201.837C584.89 202.372 584.559 203.097 584.558 203.853C584.558 204.631 584.908 205.344 585.468 205.853C585.42 205.942 585.371 206.032 585.321 206.128C584.852 207.007 584.32 208 584.116 209.115C583.71 211.344 584.376 213.134 585.981 214.147C586.849 214.704 587.887 215.002 588.95 215C590.792 215 592.662 214.159 594.469 213.344C595.759 212.764 597.09 212.159 598.399 211.866C598.883 211.758 599.387 211.694 599.92 211.624C600.998 211.484 602.112 211.338 603.114 210.808C603.685 210.51 604.178 210.102 604.558 209.613C604.938 209.123 605.196 208.564 605.313 207.975C605.489 207.063 605.313 206.147 604.866 205.344C605.166 204.904 605.335 204.39 605.335 203.835ZM603.969 203.835C603.969 204.72 603.177 205.439 602.204 205.439C601.838 205.438 601.481 205.334 601.183 205.14C600.884 204.947 600.66 204.674 600.54 204.359C600.419 204.044 600.41 203.704 600.512 203.384C600.614 203.064 600.823 202.781 601.11 202.574L601.117 202.567C601.174 202.529 601.236 202.49 601.299 202.453C601.299 202.453 601.307 202.453 601.307 202.446C601.335 202.433 601.362 202.414 601.391 202.4C601.398 202.4 601.405 202.395 601.412 202.395C601.44 202.382 601.475 202.369 601.51 202.356C601.545 202.344 601.58 202.332 601.608 202.319C601.615 202.319 601.621 202.312 601.629 202.312C601.657 202.306 601.685 202.293 601.713 202.287C601.72 202.287 601.733 202.28 601.741 202.28C601.776 202.274 601.804 202.267 601.839 202.262H601.846L601.951 202.242C601.958 202.242 601.971 202.242 601.979 202.235C602.008 202.235 602.035 202.229 602.063 202.229H602.098C602.134 202.229 602.169 202.223 602.21 202.223H602.301C602.329 202.223 602.351 202.223 602.379 202.229H602.393C602.448 202.235 602.505 202.242 602.561 202.255C602.959 202.332 603.315 202.531 603.571 202.818C603.828 203.106 603.968 203.465 603.969 203.835ZM593.027 194.274H604.046L601.517 201.057C601.412 201.076 601.307 201.108 601.202 201.14L598.54 196.204L595.871 201.108C595.766 201.077 595.653 201.057 595.541 201.038L593.027 194.274ZM598.035 203.28C597.907 202.692 597.575 202.157 597.09 201.751L598.539 199.089L600.003 201.809C599.57 202.203 599.254 202.707 599.128 203.28H598.035ZM594.526 202.274C594.56 202.267 594.588 202.261 594.624 202.256H594.644C594.673 202.248 594.7 202.248 594.729 202.242H594.757C594.785 202.242 594.806 202.235 594.833 202.235H595.107C595.135 202.235 595.156 202.242 595.177 202.242C595.191 202.242 595.197 202.242 595.212 202.248C595.24 202.255 595.261 202.255 595.289 202.261C595.296 202.261 595.303 202.261 595.317 202.267L595.415 202.286H595.422C595.45 202.293 595.479 202.3 595.506 202.312C595.513 202.312 595.52 202.319 595.534 202.319C595.555 202.325 595.583 202.332 595.605 202.344C595.612 202.344 595.619 202.35 595.625 202.35C595.653 202.363 595.681 202.369 595.71 202.382H595.717C595.749 202.393 595.779 202.408 595.807 202.427H595.814C595.843 202.44 595.871 202.458 595.899 202.471C595.906 202.471 595.906 202.477 595.912 202.477C595.94 202.49 595.963 202.509 595.99 202.522L595.997 202.529C596.081 202.586 596.158 202.65 596.235 202.713L596.242 202.719C596.554 203.018 596.727 203.415 596.726 203.828C596.71 204.244 596.518 204.639 596.188 204.928C595.859 205.218 595.419 205.379 594.96 205.379C594.502 205.379 594.062 205.218 593.733 204.928C593.403 204.639 593.211 204.244 593.195 203.828C593.194 203.471 593.324 203.124 593.566 202.842C593.807 202.56 594.145 202.36 594.526 202.274ZM587.632 202.229C588.606 202.229 589.397 202.949 589.397 203.834C589.397 204.719 588.606 205.439 587.633 205.439C586.66 205.439 585.867 204.72 585.867 203.835C585.867 202.95 586.659 202.229 587.632 202.229ZM603.927 207.752C603.848 208.159 603.67 208.546 603.407 208.884C603.144 209.222 602.803 209.503 602.407 209.707C601.643 210.109 600.704 210.236 599.716 210.363C599.16 210.428 598.609 210.517 598.063 210.63C596.606 210.956 595.205 211.593 593.846 212.204C592.108 212.987 590.469 213.726 588.95 213.726C588.171 213.73 587.41 213.509 586.778 213.095C585.237 212.127 585.313 210.312 585.496 209.318C585.664 208.388 586.133 207.516 586.581 206.681C586.61 206.631 586.631 206.586 586.659 206.535C586.812 206.586 586.974 206.624 587.142 206.65C586.876 208 587.632 209.395 589.104 210.083L589.37 210.21L589.656 210.115C590.882 209.72 592.018 209.076 593.02 208.217C593.573 207.747 594.062 207.219 594.477 206.644C594.638 206.668 594.799 206.675 594.96 206.675C595.654 206.673 596.327 206.463 596.876 206.078C597.425 205.692 597.817 205.152 597.993 204.542H599.17C599.344 205.153 599.737 205.694 600.286 206.08C600.835 206.466 601.51 206.675 602.204 206.675C602.785 206.675 603.323 206.528 603.787 206.281C603.969 206.757 604.025 207.255 603.927 207.752Z" fill="#E2E2E2"/>
<path d="M726.101 199.584H724.837L724.498 199.1V195.294H726.422V199.1L726.101 199.584ZM724.393 199.938L724.003 201.266L723.48 201.474L720.208 200.3L720.801 198.278L724.075 199.454L724.393 199.938ZM724.168 201.807L725.191 202.629L725.208 203.242L723.186 206.319L721.63 205.07L723.652 201.991L724.168 201.807ZM725.735 202.635L726.759 201.815L727.292 201.985L729.314 205.064L727.758 206.312L725.735 203.234V202.635ZM726.95 201.289L726.56 199.961L726.871 199.454L730.144 198.278L730.738 200.3L727.466 201.474L726.95 201.289Z" fill="#E2E2E2"/>
<path d="M725.5 192C723.845 192 722.226 192.543 720.849 193.56C719.472 194.577 718.399 196.023 717.765 197.714C717.132 199.405 716.966 201.266 717.289 203.062C717.612 204.857 718.409 206.506 719.58 207.801C720.751 209.095 722.243 209.977 723.867 210.334C725.491 210.691 727.175 210.508 728.704 209.807C730.234 209.107 731.542 207.92 732.462 206.398C733.382 204.876 733.873 203.087 733.873 201.256C733.873 198.801 732.991 196.447 731.421 194.711C729.851 192.975 727.721 192 725.5 192ZM725.455 208.49C724.145 208.49 722.865 208.06 721.777 207.256C720.688 206.452 719.839 205.309 719.338 203.971C718.837 202.634 718.706 201.162 718.961 199.742C719.217 198.322 719.847 197.018 720.773 195.994C721.699 194.971 722.879 194.273 724.163 193.991C725.448 193.709 726.779 193.854 727.989 194.408C729.199 194.962 730.233 195.9 730.96 197.103C731.688 198.307 732.076 199.722 732.076 201.17C732.076 202.131 731.905 203.083 731.572 203.971C731.239 204.859 730.752 205.666 730.137 206.346C729.522 207.025 728.792 207.565 727.989 207.932C727.185 208.3 726.324 208.49 725.455 208.49Z" fill="#E2E2E2"/>
<path d="M725.176 204.064H725.699V206.949H725.176V204.064ZM728.02 202.282L728.181 201.732L730.664 202.624L730.502 203.174L728.02 202.282ZM727.341 198.749L726.917 198.409L728.452 196.075L728.875 196.415L727.341 198.749ZM724.075 198.409L723.652 198.748L722.118 196.414L722.541 196.074L724.075 198.409ZM722.744 201.731L722.906 202.281L720.423 203.173L720.262 202.622L722.744 201.731ZM714.33 214.613C714.325 214.683 714.334 214.755 714.354 214.822C714.374 214.889 714.407 214.951 714.449 215.005C714.491 215.058 714.543 215.102 714.601 215.133C714.658 215.164 714.721 215.183 714.785 215.187C714.865 215.189 714.943 215.166 715.012 215.122C715.081 215.078 715.138 215.013 715.176 214.935C715.244 214.752 715.272 214.553 715.257 214.355V212.05H714.804V211.304H716.51V212.039H716.051V214.464C716.051 214.883 716.028 215.199 715.765 215.535C715.64 215.682 715.489 215.8 715.322 215.88C715.154 215.96 714.973 216.001 714.791 216C714.044 216 713.464 215.451 713.502 214.613H714.33ZM719.149 214.166C719.147 214.03 719.122 213.896 719.073 213.77C719.025 213.645 718.955 213.532 718.867 213.437C718.779 213.341 718.675 213.266 718.56 213.216C718.446 213.165 718.324 213.14 718.201 213.142C718.075 213.142 717.951 213.169 717.835 213.223C717.719 213.277 717.613 213.355 717.525 213.454C717.437 213.553 717.367 213.671 717.321 213.8C717.274 213.929 717.251 214.067 717.253 214.206C717.258 214.476 717.358 214.733 717.53 214.924C717.703 215.115 717.936 215.225 718.18 215.231C718.307 215.234 718.434 215.209 718.553 215.156C718.671 215.104 718.779 215.026 718.869 214.926C718.96 214.827 719.031 214.708 719.079 214.578C719.127 214.447 719.151 214.307 719.149 214.166ZM719.137 215.442C719.027 215.622 718.876 215.767 718.701 215.864C718.526 215.961 718.33 216.007 718.134 215.998C717.708 215.993 717.3 215.802 717.001 215.467C716.701 215.131 716.534 214.678 716.536 214.206C716.535 213.725 716.706 213.264 717.012 212.922C717.318 212.58 717.734 212.385 718.169 212.381C718.362 212.377 718.552 212.428 718.722 212.53C718.892 212.632 719.035 212.78 719.137 212.961V212.465H720.252V213.2H719.861V215.174H720.252V215.91H719.137V215.445M721.19 214.908C721.191 214.979 721.205 215.049 721.231 215.113C721.257 215.178 721.295 215.236 721.342 215.284C721.389 215.332 721.444 215.369 721.504 215.393C721.564 215.417 721.628 215.428 721.692 215.424C721.799 215.43 721.904 215.389 721.983 215.311C722.063 215.232 722.112 215.122 722.119 215.004C722.119 214.663 721.827 214.604 721.588 214.533C721.046 214.378 720.451 214.191 720.451 213.437C720.451 212.779 720.953 212.389 721.507 212.389C721.638 212.375 721.77 212.396 721.893 212.45C722.016 212.504 722.125 212.589 722.212 212.699V212.465H722.737V213.399H722.049C722.047 213.343 722.036 213.288 722.014 213.237C721.993 213.186 721.963 213.14 721.926 213.102C721.888 213.064 721.844 213.035 721.796 213.016C721.748 212.997 721.698 212.989 721.647 212.993C721.599 212.987 721.551 212.992 721.505 213.007C721.46 213.022 721.417 213.047 721.38 213.081C721.343 213.114 721.313 213.156 721.29 213.202C721.268 213.249 721.255 213.301 721.251 213.353C721.251 213.676 721.537 213.747 721.764 213.804C722.333 213.946 722.924 214.139 722.924 214.912C722.924 215.608 722.394 215.996 721.81 215.996C721.659 216.004 721.508 215.974 721.369 215.91C721.229 215.845 721.105 215.747 721.004 215.623V215.906H720.462V214.906H721.192M723.518 213.2H723.116V212.465H724.174V212.98C724.26 212.802 724.389 212.653 724.545 212.548C724.701 212.442 724.88 212.385 725.063 212.381C725.27 212.383 725.473 212.453 725.645 212.581C725.817 212.71 725.952 212.892 726.031 213.104C726.121 212.887 726.264 212.704 726.446 212.576C726.627 212.448 726.838 212.38 727.053 212.381C727.222 212.38 727.39 212.418 727.544 212.494C727.699 212.569 727.838 212.68 727.951 212.819C728.196 213.135 728.196 213.477 728.196 213.867V215.17H728.598V215.906H727.081V215.17H727.483V214.057C727.5 213.842 727.468 213.626 727.39 213.429C727.333 213.339 727.256 213.267 727.168 213.218C727.079 213.168 726.981 213.144 726.882 213.146C726.783 213.144 726.685 213.167 726.594 213.211C726.504 213.256 726.423 213.321 726.357 213.404C726.237 213.593 726.185 213.825 726.211 214.055V215.164H726.613V215.899H725.097V215.164H725.5V214.116C725.517 213.896 725.485 213.674 725.408 213.471C725.356 213.371 725.281 213.289 725.191 213.233C725.1 213.177 724.997 213.15 724.894 213.154C724.799 213.15 724.705 213.171 724.619 213.215C724.532 213.258 724.457 213.324 724.397 213.406C724.264 213.608 724.204 213.859 724.229 214.108V215.172H724.63V215.908H723.114V215.172H723.516V213.198M729.945 212.136H729.235V211.298H729.945V212.136ZM729.945 215.172H730.347V215.908H728.831V215.172H729.235V213.198H728.831V212.465H729.945V215.172ZM730.967 213.2H730.563V212.465H731.678V212.955C731.769 212.776 731.903 212.628 732.066 212.527C732.229 212.427 732.413 212.379 732.599 212.387C732.767 212.386 732.933 212.422 733.087 212.494C733.242 212.567 733.381 212.673 733.498 212.806C733.754 213.123 733.759 213.435 733.759 213.818V215.166H734.161V215.901H732.645V215.166H733.046V214.057C733.069 213.838 733.026 213.617 732.923 213.429C732.857 213.339 732.774 213.268 732.679 213.22C732.584 213.172 732.48 213.149 732.375 213.152C732.267 213.148 732.159 213.172 732.06 213.222C731.962 213.273 731.875 213.348 731.807 213.441C731.695 213.661 731.648 213.914 731.672 214.164V215.164H732.074V215.899H730.558V215.164H730.96V213.19M736.839 213.877C736.782 213.64 736.654 213.431 736.476 213.284C736.298 213.137 736.081 213.059 735.859 213.064C735.648 213.071 735.445 213.154 735.28 213.301C735.116 213.448 735 213.65 734.95 213.877H736.839ZM737.382 214.896C737.263 215.219 737.06 215.497 736.798 215.693C736.537 215.889 736.229 215.995 735.913 215.998C735.476 216 735.057 215.811 734.747 215.472C734.436 215.132 734.261 214.671 734.259 214.188C734.256 213.706 734.428 213.242 734.735 212.899C735.042 212.556 735.459 212.362 735.895 212.36C736.335 212.368 736.754 212.568 737.061 212.915C737.207 213.088 737.321 213.29 737.396 213.511C737.471 213.733 737.506 213.968 737.499 214.204L737.476 214.481H734.955C735.004 214.714 735.122 214.923 735.291 215.073C735.461 215.223 735.671 215.305 735.888 215.306C736.036 215.314 736.184 215.28 736.317 215.206C736.449 215.133 736.563 215.023 736.646 214.887H737.387" fill="#E2E2E2"/>
<path d="M73.5 324C73.2476 324 72.9952 324.058 72.7682 324.174L62.2318 329.533C61.7782 329.765 61.5 330.177 61.5 330.641V341.359C61.5 341.81 61.7782 342.235 62.2318 342.467L72.7682 347.826C72.9903 347.94 73.2429 348 73.5 348C73.7571 348 74.0097 347.94 74.2318 347.826L84.7682 342.467C85.2071 342.235 85.4853 341.81 85.5 341.359V330.641C85.5 330.19 85.2218 329.765 84.7682 329.533L74.2318 324.174C74.0096 324.06 73.7571 324 73.5 324ZM73.4855 325.63C73.7049 325.63 73.9247 325.681 74.1149 325.784L83.2169 330.409C83.612 330.602 83.8463 330.963 83.8463 331.362V340.612C83.8463 340.998 83.612 341.372 83.2169 341.565L74.1149 346.19C73.9253 346.292 73.7075 346.345 73.4855 346.345C73.2635 346.345 73.0457 346.292 72.8561 346.19L63.7535 341.565C63.3584 341.372 63.1245 341.011 63.1245 340.612V331.362C63.1245 330.976 63.3584 330.602 63.7535 330.409L72.8561 325.784C73.0457 325.683 73.2635 325.629 73.4855 325.63ZM73.4855 326.016C73.3537 326.016 73.2073 326.055 73.0757 326.119L63.9728 330.744C63.8487 330.81 63.7458 330.902 63.6741 331.013C63.6024 331.123 63.5642 331.248 63.5633 331.375V340.625C63.5633 340.883 63.7241 341.128 63.9728 341.256L73.0755 345.881C73.1927 345.945 73.339 345.984 73.4853 345.984C73.6316 345.984 73.7633 345.945 73.8949 345.881L82.9971 341.256C83.1213 341.191 83.2242 341.099 83.296 340.988C83.3678 340.877 83.406 340.752 83.4069 340.625V331.375C83.406 331.248 83.3678 331.123 83.296 331.012C83.2242 330.902 83.1213 330.809 82.9971 330.744L73.8951 326.119C73.7635 326.055 73.6318 326.016 73.4855 326.016V326.016ZM73.5366 329.649C73.4634 329.739 73.5511 329.958 73.7411 330.216C74.0632 330.705 73.5366 330.976 73.5366 330.976C73.5513 330.898 73.4928 330.654 73.3756 330.538C73.0244 330.074 73.3464 329.855 73.5366 329.649ZM72.9513 330.126C72.8928 330.177 72.9513 330.332 73.0832 330.499C73.3026 330.834 72.9511 331.014 72.9511 331.014C72.9511 330.963 72.9222 330.795 72.8489 330.731C72.6148 330.409 72.8197 330.267 72.9513 330.126ZM71.883 331.234H74.634C74.7217 331.234 74.7805 331.298 74.7805 331.362C74.7805 331.813 74.7072 333.32 73.9754 334.042C73.9626 334.054 73.9468 334.064 73.9291 334.071C73.9115 334.078 73.8924 334.081 73.8732 334.081H72.6438C72.6246 334.081 72.6055 334.078 72.5878 334.071C72.5702 334.065 72.5544 334.055 72.5415 334.042C71.8099 333.307 71.7364 331.8 71.7364 331.362C71.7364 331.285 71.8099 331.234 71.883 331.234ZM72.3072 331.633C72.2685 331.633 72.2314 331.647 72.204 331.671C72.1766 331.695 72.1611 331.728 72.1609 331.762C72.1756 332.122 72.2342 333.153 72.7317 333.668C72.7446 333.681 72.7604 333.691 72.778 333.698C72.7957 333.704 72.8148 333.708 72.834 333.707H73.6977C73.7415 333.707 73.7705 333.694 73.8146 333.668C74.3121 333.14 74.3854 332.122 74.3854 331.762C74.3853 331.728 74.3698 331.695 74.3424 331.671C74.3149 331.647 74.2777 331.633 74.2389 331.633L72.3072 331.633ZM74.1511 332.509C74.0925 332.857 73.9754 333.256 73.7266 333.514C73.6974 333.54 73.6683 333.552 73.6389 333.552H72.9072C72.8778 333.552 72.834 333.54 72.8195 333.514C72.6438 333.321 72.5268 333.063 72.4538 332.792C72.4538 332.792 73.3026 332.895 73.7854 332.741C74.1366 332.625 74.1511 332.509 74.1511 332.509ZM64.1707 333.14H71.6342C71.6342 333.191 71.6489 333.23 71.6489 333.282H64.1707V333.14ZM74.8979 333.14H82.8291V333.282H74.8827C74.8827 333.23 74.8977 333.191 74.8977 333.14H74.8979ZM70.0685 334.544C70.2787 334.545 70.487 334.58 70.6827 334.647C70.8732 334.712 71.0342 334.815 71.1658 334.931C71.2974 335.047 71.4001 335.188 71.4732 335.356C71.5499 335.519 71.5897 335.694 71.5903 335.871V335.884C71.5903 336.064 71.5464 336.232 71.4732 336.4C71.3991 336.559 71.2896 336.703 71.1513 336.825C71.0195 336.941 70.8585 337.044 70.6683 337.108C70.4781 337.186 70.2734 337.211 70.0538 337.211C69.8434 337.21 69.635 337.175 69.4391 337.108C69.2487 337.044 69.0876 336.941 68.956 336.825C68.8244 336.709 68.7217 336.567 68.6487 336.4C68.572 336.236 68.5322 336.061 68.5315 335.884V335.871C68.5315 335.691 68.5754 335.523 68.6487 335.356C68.7228 335.197 68.8322 335.052 68.9705 334.931C69.1023 334.815 69.2634 334.712 69.4536 334.647C69.6438 334.57 69.8489 334.544 70.0685 334.544ZM74.1075 334.544C74.2391 334.544 74.356 334.557 74.473 334.57C74.5901 334.596 74.6781 334.622 74.7805 334.647C74.8683 334.686 74.956 334.725 75.0293 334.776C75.1023 334.828 75.1756 334.879 75.2487 334.944L74.9121 335.278C74.7999 335.19 74.6773 335.112 74.5462 335.047C74.4146 334.982 74.2685 334.957 74.0928 334.957C73.9464 334.957 73.8293 334.982 73.7121 335.034C73.5985 335.083 73.4947 335.149 73.4048 335.227C73.3168 335.305 73.2587 335.407 73.2001 335.51C73.1562 335.626 73.1268 335.742 73.1268 335.858V335.871C73.1268 336 73.1562 336.116 73.2001 336.232C73.244 336.348 73.3168 336.438 73.4046 336.528C73.4925 336.605 73.595 336.683 73.7121 336.722C73.8293 336.76 73.9611 336.799 74.0928 336.799C74.2685 336.799 74.4293 336.773 74.5464 336.709C74.6809 336.637 74.8081 336.555 74.9268 336.464L75.2634 336.76C75.1903 336.837 75.117 336.889 75.0291 336.953C74.9413 337.018 74.8538 337.056 74.7658 337.095C74.6781 337.134 74.5609 337.173 74.4585 337.185C74.3268 337.211 74.195 337.211 74.0634 337.211C73.8623 337.212 73.6632 337.177 73.4778 337.108C73.3023 337.044 73.1413 336.941 73.0095 336.825C72.8778 336.709 72.7756 336.567 72.7026 336.4C72.6293 336.232 72.5856 336.064 72.5856 335.884V335.871C72.5856 335.691 72.6293 335.51 72.7026 335.356C72.7766 335.2 72.8804 335.056 73.0095 334.931C73.1413 334.815 73.3028 334.712 73.493 334.647C73.6884 334.579 73.897 334.544 74.1075 334.544ZM80.9856 334.583H81.4536L82.7415 337.172H82.1999L81.907 336.554H80.5317L80.2242 337.172H79.6977L80.9856 334.583ZM64.5368 334.596H65.0781L65.9707 335.807L66.8636 334.596H67.4052V337.172H66.8928V335.33L65.9707 336.541H65.9562L65.0489 335.343V337.185H64.5368V334.596ZM76.2876 334.596H76.8001V335.665H78.205V334.596H78.717V337.172H78.205V336.09H76.8001V337.172H76.2876V334.596ZM70.0538 334.957C69.9075 334.957 69.7756 334.982 69.6587 335.034C69.545 335.083 69.4411 335.149 69.3511 335.227C69.2634 335.305 69.205 335.407 69.1466 335.51C69.1026 335.626 69.0734 335.742 69.0734 335.858V335.871C69.0734 336 69.1026 336.116 69.1466 336.232C69.1905 336.348 69.2634 336.438 69.3511 336.528C69.4391 336.605 69.5415 336.67 69.6587 336.722C69.7758 336.773 69.9222 336.799 70.0538 336.799C70.2001 336.799 70.3319 336.773 70.4491 336.722C70.5626 336.672 70.6663 336.607 70.756 336.528C70.8438 336.451 70.9026 336.348 70.9611 336.245C71.005 336.129 71.0344 336.013 71.0344 335.897V335.884C71.0344 335.755 71.005 335.639 70.9611 335.523C70.9173 335.407 70.844 335.318 70.756 335.227C70.6663 335.149 70.5626 335.083 70.4491 335.034C70.3319 334.982 70.2001 334.957 70.0538 334.957ZM81.2193 335.124L80.7217 336.154H81.7168L81.2193 335.124ZM64.1709 337.984H82.8295V338.125H64.1707L64.1709 337.984Z" fill="#E2E2E2"/>
<path d="M212.5 328C212.5 330.209 210.622 332 208.304 332H204V324H208.304C210.622 324 212.5 325.791 212.5 328Z" stroke="#E2E2E2" stroke-width="2"/>
<path d="M195.5 328C195.5 330.209 197.378 332 199.696 332H204V324H199.696C197.378 324 195.5 325.791 195.5 328Z" stroke="#E2E2E2" stroke-width="2"/>
<path d="M195.5 336C195.5 338.209 197.378 340 199.696 340H204V332H199.696C197.378 332 195.5 333.791 195.5 336Z" stroke="#E2E2E2" stroke-width="2"/>
<path d="M195.5 344C195.5 346.209 197.405 348 199.723 348C202.07 348 204 346.186 204 343.948V340H199.696C197.378 340 195.5 341.791 195.5 344Z" stroke="#E2E2E2" stroke-width="2"/>
<path d="M204 336C204 338.209 205.878 340 208.196 340H208.304C210.622 340 212.5 338.209 212.5 336C212.5 333.791 210.622 332 208.304 332H208.196C205.878 332 204 333.791 204 336Z" stroke="#E2E2E2" stroke-width="2"/>
<path d="M327.485 327C326.115 327 325.103 328.129 325.149 329.352C325.191 330.528 325.135 332.05 324.727 333.293C324.319 334.538 323.629 335.327 322.5 335.429V336.571C323.629 336.673 324.319 337.462 324.727 338.707C325.135 339.949 325.191 341.472 325.147 342.647C325.103 343.871 326.115 345 327.486 345H341.517C342.886 345 343.899 343.871 343.855 342.647C343.811 341.472 343.867 339.949 344.274 338.707C344.683 337.462 345.373 336.673 346.5 336.571V335.429C345.371 335.327 344.683 334.538 344.274 333.293C343.867 332.051 343.811 330.528 343.855 329.352C343.899 328.129 342.886 327 341.517 327H327.485ZM338.771 338.08C338.771 339.765 337.437 340.787 335.221 340.787H331.449C331.396 340.787 331.343 340.778 331.293 340.758C331.244 340.739 331.199 340.711 331.161 340.676C331.123 340.64 331.093 340.598 331.073 340.551C331.052 340.505 331.042 340.455 331.042 340.405V331.595C331.042 331.545 331.052 331.495 331.073 331.449C331.093 331.402 331.123 331.36 331.161 331.324C331.199 331.289 331.244 331.261 331.293 331.242C331.343 331.222 331.396 331.213 331.449 331.213H335.199C337.046 331.213 338.259 332.155 338.259 333.602C338.259 334.616 337.443 335.526 336.404 335.685V335.738C337.818 335.884 338.771 336.806 338.771 338.08ZM334.809 332.426H332.659V335.286H334.47C335.871 335.286 336.642 334.756 336.642 333.807C336.642 332.918 335.978 332.427 334.809 332.427V332.426ZM332.659 336.421V339.573H334.888C336.346 339.573 337.118 339.022 337.118 337.986C337.118 336.952 336.325 336.421 334.794 336.421H332.659Z" fill="#E2E2E2"/>
<path d="M464.5 324C471.127 324 476.5 329.373 476.5 336C476.5 342.627 471.127 348 464.5 348C457.873 348 452.5 342.627 452.5 336C452.5 329.373 457.873 324 464.5 324ZM462.115 339.998C462.29 340.643 462.271 341.246 462.091 341.79L462.026 341.97C462.002 342.031 461.974 342.09 461.948 342.146C461.808 342.436 461.622 342.706 461.393 342.956C460.695 343.715 459.721 344.003 459.303 343.761C458.853 343.499 459.077 342.426 459.887 341.571C460.758 340.653 462.007 340.062 462.007 340.062V340.059L462.115 339.998ZM472.026 329.137C471.484 327.004 467.949 326.303 464.604 327.492C462.615 328.199 460.46 329.31 458.911 330.759C457.068 332.48 456.775 333.98 456.896 334.607C457.323 336.818 460.353 338.264 461.599 339.337V339.343C461.232 339.523 458.543 340.872 457.913 342.268C457.238 343.738 458.018 344.789 458.528 344.923C460.103 345.359 461.723 344.563 462.593 343.274C463.433 342.013 463.359 340.393 462.997 339.598C463.493 339.463 464.077 339.403 464.827 339.494C466.928 339.734 467.348 341.054 467.257 341.594C467.167 342.133 466.734 342.448 466.583 342.538C466.433 342.629 466.388 342.658 466.402 342.719C466.417 342.809 466.493 342.809 466.612 342.794C466.777 342.764 467.708 342.344 467.753 341.323C467.798 340.033 466.567 338.594 464.378 338.623C463.478 338.639 462.907 338.714 462.503 338.879C462.476 338.837 462.44 338.801 462.398 338.774C461.048 337.319 458.543 336.299 458.648 334.364C458.678 333.659 458.933 331.8 463.448 329.55C467.153 327.704 470.109 328.215 470.619 329.34C471.352 330.944 469.043 333.93 465.188 334.364C463.718 334.529 462.953 333.96 462.757 333.749C462.548 333.524 462.518 333.509 462.443 333.555C462.323 333.615 462.398 333.81 462.443 333.93C462.563 334.23 463.028 334.755 463.839 335.025C464.543 335.25 466.269 335.384 468.339 334.575C470.663 333.676 472.478 331.17 471.953 329.07L472.026 329.137Z" fill="#E2E2E2"/>
<path d="M595 324C591.796 324 589.804 326.66 589 332C590.2 329.34 591.604 328.34 593.2 329C594.112 329.38 594.772 330.48 595.492 331.7C596.668 333.7 598 336 601 336C604.204 336 606.196 333.34 607 328C605.8 330.66 604.396 331.66 602.8 331C601.888 330.62 601.24 329.52 600.508 328.3C599.332 326.3 598 324 595 324ZM589 336C585.796 336 583.804 338.66 583 344C584.2 341.34 585.604 340.34 587.2 341C588.112 341.38 588.76 342.48 589.492 343.7C590.668 345.7 592 348 595 348C598.204 348 600.196 345.34 601 340C599.8 342.66 598.396 343.66 596.8 343C595.888 342.62 595.24 341.52 594.508 340.3C593.332 338.3 592 336 589 336Z" fill="#E2E2E2"/>
<path d="M733.043 340.023C733.136 339.961 733.213 339.872 733.267 339.765C733.321 339.658 733.349 339.536 733.349 339.412L733.36 335.321C733.361 335.197 733.389 335.075 733.443 334.968C733.497 334.86 733.574 334.771 733.667 334.71L735.583 333.434C735.676 333.373 735.782 333.34 735.889 333.341C735.996 333.341 736.101 333.374 736.194 333.436C736.287 333.498 736.364 333.587 736.417 333.694C736.471 333.801 736.499 333.923 736.499 334.047V341.485C736.499 341.61 736.471 341.732 736.417 341.84C736.363 341.947 736.285 342.036 736.192 342.098L728.957 346.907C728.864 346.968 728.76 347 728.653 347C728.547 347 728.442 346.968 728.35 346.907L722.672 343.15C722.579 343.089 722.501 342.999 722.447 342.892C722.392 342.784 722.364 342.661 722.364 342.536V338.785C722.364 338.781 722.368 338.779 722.371 338.781C722.375 338.783 722.379 338.781 722.379 338.776V338.772C722.379 338.768 722.381 338.766 722.382 338.764L727.059 335.657C727.063 335.654 727.061 335.646 727.057 335.646C727.056 335.646 727.055 335.646 727.054 335.646C727.054 335.645 727.053 335.645 727.053 335.644C727.052 335.644 727.052 335.643 727.052 335.642C727.052 335.641 727.052 335.641 727.052 335.64L727.061 331.963C727.062 331.839 727.034 331.716 726.98 331.608C726.926 331.5 726.849 331.41 726.756 331.348C726.663 331.286 726.557 331.253 726.45 331.253C726.343 331.253 726.237 331.286 726.144 331.348L722.669 333.666C722.577 333.728 722.472 333.761 722.365 333.761C722.258 333.761 722.152 333.728 722.06 333.666L718.573 331.344C718.48 331.282 718.375 331.25 718.268 331.25C718.16 331.25 718.055 331.283 717.963 331.345C717.87 331.407 717.793 331.496 717.739 331.603C717.686 331.71 717.657 331.832 717.657 331.956V338.602C717.657 338.726 717.629 338.848 717.576 338.955C717.522 339.062 717.445 339.152 717.353 339.214C717.26 339.276 717.155 339.309 717.048 339.309C716.941 339.31 716.836 339.277 716.743 339.216L714.808 337.936C714.714 337.874 714.637 337.785 714.583 337.677C714.528 337.569 714.5 337.446 714.5 337.321L714.517 325.705C714.518 325.582 714.546 325.46 714.6 325.353C714.653 325.246 714.73 325.157 714.823 325.095C714.915 325.033 715.02 325 715.127 325C715.234 325 715.339 325.032 715.432 325.093L722.06 329.498C722.152 329.559 722.258 329.592 722.365 329.592C722.472 329.592 722.577 329.559 722.669 329.498L729.295 325.093C729.388 325.032 729.493 325 729.6 325C729.707 325 729.813 325.033 729.905 325.095C729.998 325.158 730.076 325.247 730.129 325.354C730.182 325.462 730.21 325.583 730.21 325.707V337.326C730.21 337.45 730.182 337.572 730.128 337.68C730.074 337.788 729.997 337.877 729.904 337.939L726.434 340.251C726.341 340.313 726.263 340.403 726.21 340.511C726.156 340.618 726.128 340.741 726.128 340.865C726.128 340.989 726.156 341.112 726.21 341.219C726.265 341.327 726.343 341.416 726.437 341.478L728.351 342.739C728.443 342.799 728.547 342.831 728.653 342.831C728.76 342.831 728.865 342.798 728.958 342.737L733.043 340.022V340.023ZM733.445 329.6C733.445 329.725 733.473 329.848 733.527 329.956C733.582 330.064 733.66 330.153 733.755 330.214C733.849 330.276 733.955 330.307 734.063 330.306C734.171 330.304 734.276 330.27 734.369 330.206L736.203 328.933C736.293 328.871 736.368 328.782 736.42 328.676C736.472 328.569 736.5 328.449 736.5 328.327V325.735C736.5 325.61 736.471 325.487 736.417 325.38C736.362 325.272 736.284 325.183 736.19 325.121C736.096 325.06 735.989 325.028 735.881 325.03C735.773 325.031 735.668 325.065 735.575 325.129L733.742 326.402C733.651 326.465 733.576 326.553 733.524 326.66C733.472 326.766 733.445 326.886 733.445 327.009V329.6Z" fill="#E2E2E2"/>
</svg>
