<svg width="899" height="32" viewBox="0 0 899 32" fill="none" xmlns="http://www.w3.org/2000/svg">
<mask id="mask0_84_985" style="mask-type:luminance" maskUnits="userSpaceOnUse" x="4" y="4" width="24" height="24">
<path d="M4 4H28V28H4V4Z" fill="white"/>
</mask>
<g mask="url(#mask0_84_985)">
<path d="M9.07996 4H10.162V5.069H11.152V4H12.234V7.236H11.152V6.153H10.162V7.236H9.08096L9.07996 4ZM13.656 5.073H12.704V4H15.691V5.073H14.738V7.236H13.656V5.073ZM16.165 4H17.293L17.987 5.137L18.68 4H19.808V7.236H18.731V5.632L17.987 6.783H17.968L17.223 5.633V7.236H16.165V4ZM20.346 4H21.429V6.167H22.949V7.237H20.346V4Z" fill="#E2E2E2"/>
<path fill-rule="evenodd" clip-rule="evenodd" d="M9.046 26.072L7 8.71704H25L22.953 26.07L15.99 28L9.046 26.072ZM13.183 16.572L12.989 14.392H21.134L21.324 12.264H10.664L11.238 18.701H18.615L18.368 21.461L15.994 22.103H15.992L13.622 21.463L13.47 19.766H11.332L11.63 23.108L15.99 24.318L20.357 23.108L20.889 17.144L20.941 16.573H13.183V16.572Z" fill="#E2E2E2"/>
</g>
<path d="M62.6176 1.8595H65.1956V2.9375H63.6956V4.0155H65.1956V5.0935H62.6176V1.8595ZM65.7106 1.8595H68.2896V2.7975H66.7896V2.9845H68.2896V5.1405H65.7106V4.1565H67.2106V3.9685H65.7106V1.8595ZM68.8056 1.8595H71.3826V2.7975H69.8826V2.9845H71.3826V5.1405H68.8056V4.1565H70.3056V3.9685H68.8056V1.8595Z" fill="#E2E2E2"/>
<path fill-rule="evenodd" clip-rule="evenodd" d="M66.988 30.1405L57.7293 27.7409L55 6.1405H79L76.272 27.7384L66.988 30.1405ZM60.396 15.9182L60.6507 18.5668H70.4867L70.1573 22.0019L66.992 22.801H66.9893L63.8293 22.0044L63.6267 19.8923H60.7773L61.1747 24.0518L66.988 25.5578L72.8107 24.0518L73.52 16.6289L73.5893 15.9182L74.1013 10.5552H59.8853L60.144 13.205H70.992L70.7333 15.9182H60.396Z" fill="#E2E2E2"/>
<path d="M110.985 4C109.615 4 108.603 5.50502 108.649 7.13591C108.691 8.70386 108.635 10.7338 108.227 12.3901C107.819 14.0504 107.129 15.1029 106 15.2381V16.7619C107.129 16.8971 107.819 17.9496 108.227 19.6099C108.635 21.2649 108.691 23.2961 108.647 24.8628C108.603 26.495 109.615 28 110.986 28H125.017C126.386 28 127.399 26.495 127.355 24.8628C127.311 23.2961 127.367 21.2649 127.774 19.6099C128.183 17.9496 128.873 16.8971 130 16.7619V15.2381C128.871 15.1029 128.183 14.0504 127.774 12.3901C127.367 10.7351 127.311 8.70386 127.355 7.13591C127.399 5.50502 126.386 4 125.017 4H110.985ZM122.271 18.773C122.271 21.0199 120.937 22.383 118.721 22.383H114.949C114.896 22.3831 114.843 22.3701 114.793 22.3445C114.744 22.3189 114.699 22.2814 114.661 22.234C114.623 22.1866 114.593 22.1303 114.573 22.0683C114.552 22.0064 114.542 21.9399 114.542 21.8728V10.1272C114.542 10.0601 114.552 9.99365 114.573 9.93167C114.593 9.86968 114.623 9.81339 114.661 9.766C114.699 9.71861 114.744 9.68106 114.793 9.6555C114.843 9.62994 114.896 9.61687 114.949 9.61705H118.699C120.546 9.61705 121.759 10.873 121.759 12.8025C121.759 14.1549 120.943 15.368 119.904 15.5796V15.6505C121.318 15.8447 122.271 17.0752 122.271 18.773ZM118.309 11.2345H116.159V15.048H117.97C119.371 15.048 120.142 14.341 120.142 13.0757C120.142 11.8906 119.478 11.2359 118.309 11.2359V11.2345ZM116.159 16.561V20.7641H118.388C119.846 20.7641 120.618 20.029 120.618 18.6485C120.618 17.2694 119.825 16.561 118.294 16.561H116.159Z" fill="#E2E2E2"/>
<path d="M169 4C165.796 4 163.804 6.66 163 12C164.2 9.34 165.604 8.34 167.2 9C168.112 9.38 168.772 10.48 169.492 11.7C170.668 13.7 172 16 175 16C178.204 16 180.196 13.34 181 8C179.8 10.66 178.396 11.66 176.8 11C175.888 10.62 175.24 9.52 174.508 8.3C173.332 6.3 172 4 169 4ZM163 16C159.796 16 157.804 18.66 157 24C158.2 21.34 159.604 20.34 161.2 21C162.112 21.38 162.76 22.48 163.492 23.7C164.668 25.7 166 28 169 28C172.204 28 174.196 25.34 175 20C173.8 22.66 172.396 23.66 170.8 23C169.888 22.62 169.24 21.52 168.508 20.3C167.332 18.3 166 16 163 16Z" fill="#E2E2E2"/>
<path d="M220 4C226.627 4 232 9.373 232 16C232 22.627 226.627 28 220 28C213.373 28 208 22.627 208 16C208 9.373 213.373 4 220 4ZM217.615 19.998C217.79 20.643 217.771 21.246 217.591 21.79L217.526 21.97C217.502 22.031 217.474 22.09 217.448 22.146C217.308 22.436 217.122 22.706 216.893 22.956C216.195 23.715 215.221 24.003 214.803 23.761C214.353 23.499 214.577 22.426 215.387 21.571C216.258 20.653 217.507 20.062 217.507 20.062V20.059L217.615 19.998ZM227.526 9.137C226.984 7.004 223.449 6.303 220.104 7.492C218.115 8.199 215.96 9.31 214.411 10.759C212.568 12.48 212.275 13.98 212.396 14.607C212.823 16.818 215.853 18.264 217.099 19.337V19.343C216.732 19.523 214.043 20.872 213.413 22.268C212.738 23.738 213.518 24.789 214.028 24.923C215.603 25.359 217.223 24.563 218.093 23.274C218.933 22.013 218.859 20.393 218.497 19.598C218.993 19.463 219.577 19.403 220.327 19.494C222.428 19.734 222.848 21.054 222.757 21.594C222.667 22.133 222.234 22.448 222.083 22.538C221.933 22.629 221.888 22.658 221.902 22.719C221.917 22.809 221.993 22.809 222.112 22.794C222.277 22.764 223.208 22.344 223.253 21.323C223.298 20.033 222.067 18.594 219.878 18.623C218.978 18.639 218.407 18.714 218.003 18.879C217.976 18.8371 217.94 18.8014 217.898 18.774C216.548 17.319 214.043 16.299 214.148 14.364C214.178 13.659 214.433 11.8 218.948 9.55C222.653 7.704 225.609 8.215 226.119 9.34C226.852 10.944 224.543 13.93 220.688 14.364C219.218 14.529 218.453 13.96 218.257 13.749C218.048 13.524 218.018 13.509 217.943 13.555C217.823 13.615 217.898 13.81 217.943 13.93C218.063 14.23 218.528 14.755 219.339 15.025C220.043 15.25 221.769 15.384 223.839 14.575C226.163 13.676 227.978 11.17 227.453 9.07L227.526 9.137Z" fill="#E2E2E2"/>
<path fill-rule="evenodd" clip-rule="evenodd" d="M272.24 19.5692C273.387 20.2043 274.807 20.5577 276.277 20.5738C277.746 20.5899 279.182 20.2677 280.357 19.6581C281.532 19.0485 282.38 18.1861 282.767 17.207C283.153 16.2278 283.057 15.1876 282.493 14.2503C282.021 13.4631 281.24 12.7826 280.238 12.2858C281.092 11.8628 281.788 11.3052 282.268 10.6592C282.749 10.0132 282.999 9.29752 282.998 8.57145C282.998 7.35903 282.301 6.19626 281.059 5.33895C279.818 4.48163 278.134 4 276.378 4H265.62C264.219 3.99996 262.854 4.30703 261.721 4.87699C260.589 5.44695 259.747 6.2504 259.318 7.17165C258.889 8.0929 258.894 9.08442 259.333 10.0035C259.772 10.9225 260.622 11.7216 261.761 12.2858C260.907 12.709 260.211 13.2667 259.731 13.9126C259.25 14.5585 259 15.274 259 16.0001C259 16.7261 259.25 17.4417 259.731 18.0876C260.211 18.7335 260.907 19.2911 261.761 19.7144C260.839 20.171 260.103 20.7836 259.623 21.4932C259.143 22.2029 258.934 22.9858 259.018 23.767C259.102 24.5482 259.476 25.3013 260.102 25.9542C260.729 26.6071 261.588 27.1379 262.597 27.4956C263.607 27.8533 264.732 28.0259 265.866 27.9969C266.999 27.9679 268.103 27.7382 269.071 27.3299C270.039 26.9216 270.839 26.3484 271.394 25.6653C271.949 24.9822 272.24 24.212 272.24 23.4287V19.5692ZM265.62 5.71429C264.523 5.71429 263.471 6.01532 262.695 6.55114C261.919 7.08696 261.483 7.81369 261.483 8.57145C261.483 9.32922 261.919 10.0559 262.695 10.5918C263.471 11.1276 264.523 11.4286 265.62 11.4286H269.758V5.71429H265.62ZM269.758 20.5715H265.62C264.802 20.5715 264.002 20.7391 263.322 21.053C262.641 21.367 262.111 21.8132 261.798 22.3353C261.485 22.8574 261.403 23.4318 261.562 23.9861C261.722 24.5403 262.116 25.0494 262.695 25.449C263.273 25.8486 264.011 26.1207 264.813 26.2309C265.616 26.3412 266.448 26.2846 267.204 26.0683C267.96 25.8521 268.606 25.4859 269.061 25.016C269.515 24.5462 269.758 23.9938 269.758 23.4287V20.5715ZM265.62 13.1429C264.523 13.1429 263.471 13.4439 262.695 13.9797C261.919 14.5156 261.483 15.2423 261.483 16.0001C261.483 16.7578 261.919 17.4846 262.695 18.0204C263.471 18.5562 264.523 18.8572 265.62 18.8572H269.758V13.1429H265.62ZM272.24 16.0001C272.24 16.758 272.676 17.4849 273.453 18.0208C274.229 18.5567 275.281 18.8578 276.379 18.8578C277.476 18.8578 278.529 18.5567 279.305 18.0208C280.081 17.4849 280.517 16.758 280.517 16.0001C280.517 15.2421 280.081 14.5153 279.305 13.9793C278.529 13.4434 277.476 13.1423 276.379 13.1423C275.281 13.1423 274.229 13.4434 273.453 13.9793C272.676 14.5153 272.24 15.2421 272.24 16.0001ZM276.378 11.4286C277.475 11.4286 278.528 11.1276 279.304 10.5918C280.08 10.0559 280.516 9.32922 280.516 8.57145C280.516 7.81369 280.08 7.08696 279.304 6.55114C278.528 6.01532 277.475 5.71429 276.378 5.71429H272.24V11.4286H276.378Z" fill="#E2E2E2"/>
<path d="M330.229 20.3887C330.33 20.3213 330.414 20.2244 330.473 20.1075C330.532 19.9905 330.563 19.8576 330.563 19.7223L330.575 15.259C330.575 15.1236 330.606 14.9908 330.665 14.8737C330.724 14.7567 330.808 14.6598 330.91 14.5926L333 13.2008C333.101 13.1338 333.216 13.0987 333.333 13.099C333.45 13.0994 333.565 13.1353 333.666 13.2031C333.767 13.2705 333.851 13.3675 333.91 13.4843C333.968 13.6014 333.999 13.7343 333.999 13.8695V21.984C333.999 22.1197 333.968 22.253 333.909 22.3704C333.85 22.4878 333.766 22.5852 333.664 22.6527L325.771 27.8981C325.67 27.9649 325.556 28 325.44 28C325.324 28 325.21 27.9649 325.109 27.8981L318.915 23.8004C318.813 23.733 318.728 23.6356 318.669 23.5181C318.61 23.4003 318.579 23.2666 318.579 23.1305V19.0386C318.579 19.0339 318.583 19.0316 318.587 19.0339C318.591 19.0362 318.595 19.0339 318.595 19.0281V19.0235C318.595 19.02 318.597 19.0177 318.599 19.0154L323.701 15.6257C323.705 15.6222 323.703 15.6141 323.698 15.6141C323.697 15.6141 323.696 15.6139 323.696 15.6135C323.695 15.6131 323.694 15.6125 323.694 15.6118C323.694 15.6112 323.693 15.6104 323.693 15.6096C323.693 15.6088 323.693 15.608 323.693 15.6072L323.703 11.5962C323.703 11.4604 323.673 11.3268 323.614 11.2089C323.556 11.0911 323.472 10.9932 323.37 10.9252C323.269 10.8575 323.154 10.8218 323.037 10.8218C322.919 10.8218 322.804 10.8575 322.703 10.9252L318.912 13.4542C318.811 13.5215 318.696 13.5569 318.58 13.5569C318.463 13.5569 318.348 13.5215 318.247 13.4542L314.443 10.9206C314.342 10.8533 314.227 10.818 314.11 10.8182C313.993 10.8184 313.879 10.8541 313.777 10.9216C313.676 10.9892 313.592 11.0864 313.534 11.2033C313.475 11.3203 313.444 11.453 313.444 11.5881V18.8384C313.444 18.9736 313.413 19.1064 313.355 19.2235C313.297 19.3407 313.213 19.4381 313.112 19.5059C313.011 19.5737 312.897 19.6096 312.78 19.6101C312.663 19.6104 312.548 19.5753 312.447 19.5083L310.336 18.1119C310.234 18.0445 310.149 17.9471 310.09 17.8296C310.031 17.7115 310 17.5774 310 17.4409L310.019 4.76934C310.019 4.63438 310.05 4.50188 310.109 4.38508C310.167 4.26828 310.251 4.17126 310.352 4.1037C310.453 4.03615 310.568 4.00042 310.684 4.00009C310.801 3.99976 310.916 4.03483 311.017 4.10181L318.247 8.90642C318.348 8.97372 318.463 9.00914 318.58 9.00914C318.696 9.00914 318.811 8.97372 318.912 8.90642L326.14 4.10181C326.241 4.03468 326.356 3.99957 326.473 4C326.59 4.00028 326.705 4.03619 326.806 4.10413C326.907 4.17183 326.991 4.26918 327.05 4.38641C327.108 4.5037 327.138 4.63654 327.138 4.77166V17.4467C327.138 17.582 327.108 17.7151 327.049 17.8331C326.99 17.9504 326.906 18.0478 326.804 18.1153L323.019 20.6374C322.917 20.7053 322.833 20.803 322.774 20.9208C322.715 21.0383 322.685 21.1716 322.685 21.3072C322.685 21.443 322.716 21.5762 322.775 21.6936C322.834 21.8113 322.92 21.9088 323.022 21.9759L325.11 23.3515C325.211 23.4174 325.324 23.4521 325.44 23.4521C325.557 23.452 325.671 23.4165 325.772 23.3492L330.229 20.3875V20.3887ZM330.667 9.01864C330.667 9.15476 330.698 9.28848 330.757 9.4062C330.817 9.52405 330.902 9.62147 331.005 9.68849C331.107 9.75546 331.223 9.78988 331.341 9.78825C331.459 9.78663 331.574 9.74901 331.675 9.67923L333.676 8.29095C333.775 8.22249 333.856 8.12564 333.913 8.00982C333.97 7.89379 334 7.76264 334 7.6292V4.80174C334 4.66552 333.968 4.53181 333.909 4.41417C333.849 4.29653 333.764 4.19923 333.662 4.13217C333.559 4.06511 333.443 4.03069 333.325 4.0324C333.207 4.03392 333.092 4.07144 332.991 4.14115L330.991 5.52943C330.892 5.59772 330.81 5.69459 330.753 5.81055C330.696 5.92672 330.667 6.05784 330.667 6.19117V9.01864Z" fill="#E2E2E2"/>
<path d="M384.545 14.9305L374.066 4.4528C373.922 4.30925 373.752 4.19537 373.564 4.11768C373.377 4.03999 373.176 4 372.973 4C372.77 4 372.569 4.03999 372.382 4.11768C372.194 4.19537 372.024 4.30925 371.88 4.4528L369.705 6.62784L372.465 9.38788C372.791 9.27675 373.141 9.25936 373.476 9.33771C373.811 9.41606 374.117 9.58698 374.359 9.83098C374.602 10.075 374.771 10.3822 374.847 10.7176C374.923 11.0531 374.904 11.4031 374.79 11.7279L377.45 14.389C377.843 14.2504 378.272 14.25 378.666 14.3878C379.06 14.5256 379.395 14.7933 379.616 15.1469C379.837 15.5006 379.932 15.919 379.883 16.3334C379.835 16.7477 379.647 17.1333 379.35 17.4265C379.05 17.7287 378.654 17.9172 378.23 17.9599C377.806 18.0026 377.381 17.8968 377.026 17.6605C376.672 17.4243 376.41 17.0723 376.286 16.6646C376.163 16.257 376.184 15.819 376.347 15.4255L373.868 12.9444V19.4741C374.245 19.6606 374.546 19.9707 374.722 20.3527C374.898 20.7346 374.938 21.1653 374.835 21.5731C374.732 21.9808 374.492 22.3408 374.156 22.5932C373.819 22.8456 373.407 22.9751 372.986 22.9601C372.566 22.9451 372.164 22.7865 371.846 22.5107C371.529 22.235 371.315 21.8587 371.241 21.4447C371.168 21.0307 371.238 20.6039 371.441 20.2355C371.644 19.8671 371.967 19.5793 372.356 19.4201V12.8304C372.131 12.7384 371.927 12.6029 371.755 12.4316C371.583 12.2603 371.447 12.0567 371.354 11.8325C371.261 11.6082 371.214 11.3678 371.214 11.1252C371.215 10.8825 371.263 10.6423 371.357 10.4184L368.637 7.69735L361.452 14.8825C361.163 15.1724 361 15.5655 361 15.9753C361 16.385 361.163 16.7781 361.452 17.068L371.931 27.5472C372.075 27.6908 372.245 27.8046 372.433 27.8823C372.62 27.96 372.821 28 373.024 28C373.227 28 373.428 27.96 373.615 27.8823C373.803 27.8046 373.973 27.6908 374.117 27.5472L384.546 17.1175C384.69 16.974 384.804 16.8036 384.882 16.6159C384.96 16.4283 385 16.2271 385 16.024C385 15.8209 384.96 15.6197 384.882 15.4321C384.804 15.2444 384.69 15.074 384.546 14.9305" fill="#E2E2E2"/>
<path d="M425.779 21.4067L424.635 22.9907C425.72 23.9587 427.069 24.4427 428.683 24.4427C429.915 24.4133 430.853 24.096 431.499 23.4893C432.155 22.8733 432.481 22.14 432.481 21.2893C432.481 20.4587 432.252 19.7733 431.792 19.236C431.333 18.6987 430.56 18.268 429.475 17.9453C428.576 17.672 427.941 17.4227 427.568 17.1973C427.197 16.9627 427.011 16.6787 427.011 16.3467C427.011 16.044 427.163 15.8 427.465 15.6133C427.769 15.4267 428.175 15.3347 428.683 15.3347C429.056 15.3347 429.475 15.408 429.944 15.5547C430.413 15.6813 430.829 15.888 431.191 16.1707L432.217 14.572C431.319 13.848 430.125 13.4867 428.639 13.4867C427.573 13.4867 426.699 13.76 426.013 14.308C425.309 14.8547 424.957 15.5347 424.957 16.3467C424.968 17.2067 425.251 17.8773 425.808 18.356C426.376 18.836 427.181 19.2267 428.228 19.5293C429.099 19.8027 429.691 20.076 430.003 20.3507C430.147 20.4735 430.262 20.6265 430.341 20.7988C430.419 20.9712 430.459 21.1586 430.457 21.348C430.465 21.5214 430.427 21.6937 430.347 21.848C430.268 22.0023 430.149 22.1333 430.004 22.228C429.691 22.4427 429.24 22.5507 428.653 22.5507C427.696 22.56 426.737 22.1787 425.779 21.4067ZM418.405 22.2573C418.083 22.0545 417.804 21.7904 417.584 21.48L416.205 22.6093C416.616 23.3027 417.125 23.788 417.731 24.0613C418.297 24.3147 418.948 24.4427 419.681 24.4427C420.081 24.4427 420.497 24.3787 420.928 24.252C421.365 24.1217 421.769 23.9019 422.116 23.6067C422.752 23.0987 423.084 22.2667 423.113 21.1133V13.6627H421.133V20.732C421.133 21.4067 420.981 21.8813 420.68 22.1547C420.376 22.4187 419.995 22.5507 419.535 22.5507C419.095 22.5507 418.719 22.4533 418.405 22.2573ZM412 8C412 6.93913 412.421 5.92172 413.172 5.17157C413.922 4.42143 414.939 4 416 4H432C433.061 4 434.078 4.42143 434.828 5.17157C435.579 5.92172 436 6.93913 436 8V24C436 25.0609 435.579 26.0783 434.828 26.8284C434.078 27.5786 433.061 28 432 28H416C414.939 28 413.922 27.5786 413.172 26.8284C412.421 26.0783 412 25.0609 412 24V8ZM416 6.66667C415.646 6.66667 415.307 6.80714 415.057 7.05719C414.807 7.30724 414.667 7.64638 414.667 8V24C414.667 24.3536 414.807 24.6928 415.057 24.9428C415.307 25.1929 415.646 25.3333 416 25.3333H432C432.354 25.3333 432.693 25.1929 432.943 24.9428C433.193 24.6928 433.333 24.3536 433.333 24V8C433.333 7.64638 433.193 7.30724 432.943 7.05719C432.693 6.80714 432.354 6.66667 432 6.66667H416Z" fill="#E2E2E2"/>
<path d="M475 13.146C473.427 13.146 472.146 14.427 472.146 16C472.146 17.573 473.427 18.854 475 18.854C476.573 18.854 477.854 17.573 477.854 16C477.854 14.427 476.573 13.146 475 13.146ZM467.01 21.672L466.38 21.516C461.692 20.328 459 18.318 459 15.995C459 13.672 461.693 11.662 466.38 10.474L467.01 10.318L467.187 10.943C467.663 12.5801 468.271 14.1757 469.005 15.714L469.14 15.995L469.005 16.281C468.269 17.8188 467.661 19.4145 467.187 21.052L467.01 21.672ZM466.089 11.932C462.526 12.932 460.339 14.468 460.339 15.995C460.339 17.522 462.527 19.052 466.089 20.058C466.526 18.6707 467.053 17.3134 467.667 15.995C467.052 14.677 466.525 13.3197 466.089 11.932ZM482.99 21.672L482.813 21.047C482.338 19.4114 481.73 17.8174 480.995 16.281L480.86 15.995L480.995 15.709C481.731 14.1713 482.339 12.5756 482.813 10.938L482.99 10.318L483.62 10.474C488.308 11.662 491 13.672 491 15.995C491 18.318 488.307 20.328 483.62 21.516L482.99 21.672ZM482.333 15.995C482.949 17.3126 483.476 18.6699 483.911 20.058C487.479 19.053 489.661 17.522 489.661 15.995C489.661 14.468 487.473 12.938 483.911 11.932C483.473 13.319 482.946 14.6762 482.333 15.995ZM466.078 11.927L465.901 11.302C464.583 6.65603 464.984 3.32303 467 2.16103C468.979 1.02003 472.151 2.36903 475.479 5.78603L475.932 6.25003L475.479 6.71403C474.297 7.94366 473.217 9.26735 472.25 10.672L472.068 10.927L471.755 10.953C470.053 11.0873 468.366 11.3592 466.708 11.766L466.078 11.927ZM468.609 3.08903C468.25 3.08903 467.932 3.16203 467.666 3.31803C466.343 4.08403 466.109 6.74003 467.02 10.323C468.441 10.0051 469.882 9.78059 471.333 9.65103C472.168 8.46142 473.082 7.32859 474.067 6.26003C471.989 4.23403 470.02 3.08903 468.609 3.08903ZM481.396 30.234C481.391 30.234 481.391 30.234 481.396 30.234C479.495 30.234 477.052 28.807 474.521 26.203L474.068 25.739L474.521 25.275C475.703 24.0454 476.783 22.7217 477.75 21.317L477.927 21.062L478.24 21.031C479.944 20.9012 481.634 20.6293 483.292 20.218L483.922 20.062L484.099 20.687C485.417 25.333 485.016 28.661 483 29.822C482.513 30.1022 481.958 30.2453 481.396 30.234ZM475.932 25.729C478.01 27.755 479.979 28.901 481.39 28.901H481.395C481.749 28.901 482.067 28.823 482.333 28.672C483.656 27.906 483.896 25.25 482.979 21.667C481.558 21.9853 480.117 22.2082 478.666 22.334C477.831 23.5253 476.917 24.6588 475.932 25.729ZM483.922 11.927L483.292 11.766C481.632 11.3606 479.943 11.0887 478.24 10.953L477.927 10.927L477.75 10.672C476.783 9.26735 475.703 7.94366 474.521 6.71403L474.068 6.25003L474.521 5.78603C477.849 2.36903 481.021 1.02003 483 2.16103C485.016 3.32203 485.417 6.65603 484.099 11.302L483.922 11.927ZM478.667 9.65103C480.118 9.78024 481.559 10.0047 482.98 10.323C483.897 6.74003 483.657 4.08303 482.334 3.31803C481.016 2.55803 478.537 3.72403 475.933 6.26103C476.916 7.33189 477.829 8.46454 478.667 9.65203V9.65103ZM468.609 30.234C468.046 30.244 467.489 30.104 467 29.823C464.984 28.662 464.583 25.333 465.901 20.688L466.078 20.063L466.708 20.219C468.25 20.61 469.948 20.88 471.755 21.032L472.068 21.063L472.245 21.318C473.212 22.7227 474.292 24.0464 475.474 25.276L475.927 25.74L475.474 26.204C472.948 28.808 470.505 30.235 468.609 30.235V30.234ZM467.021 21.667C466.104 25.25 466.344 27.907 467.667 28.672C468.985 29.422 471.459 28.266 474.068 25.729C473.083 24.6588 472.169 23.5243 471.334 22.333C469.883 22.2075 468.442 21.9857 467.021 21.667ZM475 22.505C473.901 22.505 472.776 22.458 471.646 22.364L471.333 22.338L471.151 22.078C470.513 21.1609 469.913 20.2174 469.354 19.25C468.794 18.2826 468.274 17.2921 467.797 16.281L467.662 15.995L467.797 15.709C468.753 13.6874 469.875 11.7484 471.151 9.91203L471.333 9.65203L471.646 9.62603C473.878 9.43804 476.122 9.43804 478.354 9.62603L478.667 9.65203L478.849 9.91203C480.127 11.7474 481.249 13.6865 482.203 15.709L482.338 15.995L482.203 16.281C481.251 18.3046 480.129 20.2438 478.849 22.078L478.667 22.338L478.354 22.364C477.238 22.4574 476.119 22.5044 475 22.505ZM472.073 21.057C474.042 21.208 475.958 21.208 477.932 21.057C479.033 19.4449 480.011 17.7525 480.859 15.994C480.015 14.2326 479.035 12.5398 477.927 10.931C475.979 10.78 474.021 10.78 472.073 10.931C470.965 12.5393 469.984 14.2322 469.141 15.994C469.989 17.7534 470.969 19.4459 472.073 21.057Z" fill="#E2E2E2"/>
<path d="M537.703 9.99887C537.528 9.71614 537.271 9.47998 536.959 9.31474L527.041 4.22577C526.719 4.07744 526.362 4 526 4C525.638 4 525.281 4.07744 524.959 4.22577L515.041 9.31474C514.737 9.48811 514.484 9.72338 514.303 10.001C514.122 10.2787 514.018 10.5906 514 10.911V21.089C514.01 21.4106 514.112 21.7246 514.297 22.0011C514.472 22.2839 514.729 22.52 515.041 22.6853L524.959 27.7742C525.281 27.9226 525.638 28 526 28C526.362 28 526.719 27.9226 527.041 27.7742L536.959 22.6853C537.271 22.52 537.528 22.2839 537.703 22.0011C537.888 21.7246 537.99 21.4106 538 21.089V10.911C537.99 10.5894 537.888 10.2754 537.703 9.99887ZM526 23.1053C524.6 23.0998 523.226 22.768 522.015 22.143C520.805 21.5181 519.8 20.622 519.102 19.5442C518.404 18.4663 518.036 17.2446 518.036 16.0011C518.036 14.7575 518.403 13.5357 519.101 12.4577C519.799 11.3798 520.803 10.4834 522.013 9.85813C523.224 9.23289 524.598 8.90072 525.998 8.89481C527.398 8.88889 528.775 9.20944 529.992 9.82443C531.209 10.4394 532.223 11.3273 532.932 12.3993L531.405 13.2515L530.919 13.4915L529.568 14.2237C529.136 13.5131 528.448 12.9519 527.615 12.6302C526.781 12.3085 525.85 12.245 524.97 12.45C524.091 12.6549 523.315 13.1163 522.766 13.7601C522.218 14.4039 521.929 15.1928 521.946 16C521.942 16.6246 522.129 17.2385 522.486 17.7763C522.848 18.3054 523.357 18.7429 523.964 19.0465C524.571 19.3501 525.256 19.5096 525.953 19.5096C526.649 19.5096 527.334 19.3501 527.942 19.0465C528.549 18.7429 529.058 18.3054 529.419 17.7763L532.932 19.6007C532.221 20.6708 531.207 21.5572 529.991 22.172C528.775 22.7867 527.399 23.1085 526 23.1053ZM534 16.3961H533.108V17.2002H532.23V16.4081H531.405V15.6159H532.297V14.7998H533.176V15.5919H534.068L534 16.3961ZM537.338 16.3961H536.446V17.2002H535.554V16.4081H534.676V15.6159H535.554V14.7998H536.446V15.5919H537.338V16.3961Z" fill="#E2E2E2"/>
<path d="M582.3 6C582.22 6 582.144 6.03161 582.088 6.08787C582.032 6.14413 582 6.22044 582 6.3V11.797L580.754 11.07C580.677 11.0245 580.589 11.0005 580.5 11.0005C580.411 11.0005 580.323 11.0245 580.246 11.07L577.252 12.816C577.175 12.8602 577.112 12.9237 577.068 13.0003C577.023 13.0768 577 13.1636 577 13.252V16.748C577 16.928 577.096 17.094 577.252 17.184L580.246 18.93C580.323 18.9755 580.411 18.9995 580.5 18.9995C580.589 18.9995 580.677 18.9755 580.754 18.93L583.748 17.184C583.825 17.1398 583.888 17.0763 583.932 16.9997C583.977 16.9232 584 16.8364 584 16.748V7.23C584 7.14279 583.977 7.05715 583.933 6.98156C583.89 6.90597 583.827 6.84304 583.752 6.799L582.449 6.041C582.404 6.01451 582.353 6.00036 582.301 6H582.3ZM572.5 11.002C572.411 11.0019 572.323 11.0253 572.246 11.07L569.252 12.816C569.175 12.8602 569.112 12.9237 569.068 13.0003C569.023 13.0768 569 13.1636 569 13.252V16.748C569 16.928 569.096 17.094 569.252 17.184L572.246 18.93C572.403 19.02 572.596 19.02 572.754 18.93L575.748 17.184C575.825 17.1398 575.888 17.0763 575.932 16.9997C575.977 16.9232 576 16.8364 576 16.748V13.252C576 13.1636 575.977 13.0767 575.933 13.0001C575.888 12.9236 575.825 12.86 575.748 12.816L572.754 11.07C572.677 11.0253 572.589 11.0019 572.5 11.002ZM588.5 11.002C588.411 11.0016 588.323 11.025 588.246 11.07L585.252 12.816C585.175 12.8602 585.112 12.9237 585.068 13.0003C585.023 13.0768 585 13.1636 585 13.252V16.748C585 16.928 585.096 17.094 585.252 17.184L588.156 18.939C588.233 18.9856 588.321 19.0105 588.41 19.0112C588.5 19.0119 588.589 18.9884 588.666 18.943L590.094 18.113C590.128 18.0932 590.155 18.065 590.175 18.0311C590.194 17.9973 590.204 17.959 590.204 17.92C590.204 17.881 590.194 17.8427 590.175 17.8089C590.155 17.775 590.128 17.7468 590.094 17.727L587 15.904V14.11L588.5 13.237L590 14.11V15.36C590 15.527 590.14 15.553 590.234 15.497C590.74 15.2019 591.246 14.9075 591.752 14.614C591.827 14.57 591.89 14.5071 591.933 14.4315C591.977 14.3559 592 14.2702 592 14.183V13.253C592 13.1646 591.977 13.0777 591.933 13.0011C591.888 12.9246 591.825 12.861 591.748 12.817L588.754 11.071C588.677 11.0262 588.589 11.0027 588.5 11.003V11.002ZM564.5 11.004C564.411 11.0036 564.323 11.027 564.246 11.072L561.252 12.816C561.175 12.8606 561.112 12.9245 561.068 13.0014C561.023 13.0782 561 13.1653 561 13.254V17.717C561 17.935 561.236 18.07 561.424 17.961L562.752 17.188C562.827 17.1439 562.89 17.0808 562.933 17.005C562.977 16.9292 563 16.8434 563 16.756V14.113L564.5 13.238L566 14.113V16.756C566 16.8432 566.023 16.9289 566.067 17.0045C566.11 17.0801 566.173 17.143 566.248 17.187L567.576 17.961C567.619 17.986 567.668 17.9992 567.717 17.9994C567.767 17.9995 567.816 17.9865 567.859 17.9618C567.902 17.937 567.937 17.9014 567.962 17.8584C567.987 17.8154 568 17.7666 568 17.717V13.254C568 13.1653 567.977 13.0782 567.932 13.0014C567.888 12.9245 567.825 12.8606 567.748 12.816L564.754 11.072C564.677 11.027 564.589 11.0036 564.5 11.004ZM580.5 13.236L582 14.111V15.889L580.5 16.764L579 15.889V14.11L580.5 13.235V13.236ZM588.5 14.004L587.643 14.504V15.502L588.5 16L589.357 15.502V14.504L588.5 14.004ZM576.406 17.998C576.302 17.9974 576.2 18.0236 576.109 18.074L573.297 19.7C573.207 19.7513 573.131 19.8258 573.079 19.9157C573.027 20.0057 573 20.108 573 20.212V23.458C573 23.667 573.117 23.864 573.297 23.97L574.037 24.392C574.392 24.567 574.523 24.567 574.684 24.567C575.214 24.567 575.516 24.25 575.516 23.69V20.483C575.516 20.4721 575.514 20.4612 575.51 20.451C575.506 20.4408 575.5 20.4315 575.493 20.4237C575.485 20.4159 575.476 20.4097 575.466 20.4054C575.456 20.4012 575.445 20.399 575.434 20.399H575.078C575.056 20.399 575.034 20.4079 575.019 20.4236C575.003 20.4394 574.994 20.4607 574.994 20.483V23.69C574.994 23.933 574.737 24.183 574.318 23.974L573.548 23.53C573.535 23.5221 573.525 23.5112 573.518 23.4983C573.51 23.4854 573.506 23.4708 573.506 23.456V20.21C573.506 20.181 573.52 20.147 573.549 20.132L576.361 18.511C576.374 18.5036 576.39 18.4997 576.405 18.4997C576.42 18.4997 576.436 18.5036 576.449 18.511L579.264 20.131C579.293 20.147 579.307 20.176 579.307 20.21V23.456C579.307 23.4716 579.303 23.4869 579.295 23.5005C579.288 23.5141 579.277 23.5256 579.264 23.534L576.449 25.161C576.436 25.1684 576.42 25.1723 576.405 25.1723C576.39 25.1723 576.374 25.1684 576.361 25.161L575.643 24.733C575.623 24.723 575.593 24.718 575.574 24.728C575.442 24.8124 575.3 24.878 575.15 24.923C575.101 24.938 575.035 24.968 575.176 25.046L576.109 25.601C576.2 25.6506 576.302 25.6774 576.406 25.679C576.509 25.68 576.611 25.6516 576.699 25.597L579.512 23.97C579.602 23.9187 579.678 23.8442 579.73 23.7543C579.782 23.6643 579.809 23.562 579.809 23.458V20.212C579.808 20.1083 579.78 20.0067 579.728 19.9171C579.676 19.8274 579.601 19.7526 579.512 19.7L576.699 18.075C576.61 18.0244 576.509 17.9981 576.406 17.999V17.998ZM580.793 19.496C580.722 19.4961 580.652 19.5102 580.586 19.5375C580.521 19.5647 580.462 19.6046 580.411 19.6549C580.31 19.7563 580.254 19.8938 580.254 20.037C580.254 20.1802 580.311 20.3175 580.413 20.4185C580.514 20.5196 580.652 20.5763 580.795 20.576C580.938 20.5757 581.075 20.5186 581.177 20.4171C581.278 20.3157 581.334 20.1782 581.334 20.035C581.334 19.8918 581.277 19.7545 581.175 19.6535C581.074 19.5524 580.936 19.4957 580.793 19.496ZM580.787 19.582C581.041 19.582 581.247 19.782 581.247 20.035C581.245 20.1564 581.196 20.2724 581.11 20.3583C581.024 20.4441 580.908 20.4932 580.787 20.495C580.666 20.4937 580.551 20.4445 580.466 20.3583C580.382 20.272 580.335 20.1558 580.336 20.035C580.336 19.9756 580.347 19.9166 580.369 19.8616C580.392 19.8066 580.425 19.7566 580.467 19.7145C580.509 19.6724 580.559 19.639 580.614 19.6163C580.669 19.5935 580.728 19.5819 580.787 19.582ZM580.59 19.729V20.336H580.705V20.094H580.813C580.857 20.094 580.867 20.112 580.877 20.146C580.877 20.151 580.895 20.309 580.9 20.338H581.025C581.009 20.2853 580.999 20.2309 580.996 20.176C580.982 20.098 580.978 20.044 580.895 20.039C580.939 20.024 581.012 20.001 581.012 19.889C581.012 19.728 580.872 19.729 580.799 19.729H580.59ZM580.705 19.826H580.803C580.833 19.826 580.891 19.826 580.891 19.908C580.891 19.942 580.876 19.998 580.797 19.996H580.705V19.826ZM577.16 20.322C576.357 20.322 575.88 20.665 575.88 21.229C575.88 21.847 576.358 22.012 577.127 22.089C578.047 22.182 578.119 22.314 578.119 22.494C578.119 22.81 577.865 22.941 577.271 22.941C576.526 22.941 576.363 22.757 576.309 22.387C576.304 22.347 576.269 22.318 576.225 22.318H575.859C575.848 22.318 575.837 22.3202 575.827 22.3244C575.817 22.3287 575.808 22.3349 575.8 22.3427C575.793 22.3505 575.787 22.3598 575.783 22.37C575.779 22.3802 575.777 22.3911 575.777 22.402C575.777 22.874 576.035 23.439 577.266 23.439C578.169 23.439 578.68 23.089 578.68 22.475C578.68 21.867 578.27 21.705 577.404 21.588C576.528 21.471 576.441 21.412 576.441 21.207C576.441 21.037 576.513 20.814 577.161 20.814C577.739 20.814 577.955 20.941 578.043 21.33C578.053 21.37 578.08 21.393 578.119 21.393H578.484C578.508 21.393 578.529 21.383 578.543 21.369C578.558 21.35 578.567 21.331 578.563 21.307C578.505 20.635 578.061 20.322 577.16 20.322Z" fill="#E2E2E2"/>
<path fill-rule="evenodd" clip-rule="evenodd" d="M631.673 10.1341C631.164 8.53649 630.348 7.12252 629.198 5.90579C628.908 5.59801 628.585 5.31604 628.382 4.93319C628.254 4.69083 628.132 4.44512 628.007 4.20118L627.928 4L627.905 4.07921C627.895 4.47723 627.672 4.74698 627.394 4.999C627.08 5.28235 626.789 5.59012 626.488 5.88746L625.563 7.11483L624.815 8.5024L624.315 9.86494L624.3 9.88602C624.024 10.7981 623.889 11.736 623.822 12.683C623.797 13.0391 623.826 13.4001 623.846 13.7579C623.874 14.2694 623.962 14.7721 624.094 15.2672C624.574 17.0654 625.548 18.5568 626.88 19.8242C627.127 20.0597 627.395 20.2739 627.653 20.4977L627.767 20.8934L627.873 21.5073L627.924 22.1483C627.923 22.2784 627.918 22.409 627.926 22.5386C627.928 22.5719 627.971 22.6027 627.995 22.6346L628.211 22.7111L628.435 22.7991L628.397 22.2295L628.395 21.6683L628.473 20.8136L628.529 20.6275L628.69 20.3397C628.889 20.1785 629.102 20.0319 629.283 19.8524C629.61 19.5279 629.937 19.1988 630.231 18.8431C630.612 18.3821 630.938 17.8771 631.201 17.3385C631.377 16.9774 631.542 16.6089 631.679 16.2315C631.8 15.8989 631.875 15.5492 631.97 15.2069L631.995 15.133C632.191 14.2093 632.224 13.2761 632.152 12.337C632.094 11.5802 631.918 10.8498 631.673 10.1341ZM627.786 20.0404C627.816 19.8884 627.853 19.7373 627.88 19.5848C627.853 19.7373 627.816 19.8884 627.786 20.0404ZM636.296 23.6775C636.135 23.3656 635.898 23.1288 635.585 22.9733C635.323 22.8433 635.041 22.7861 634.751 22.7779C634.534 22.7716 634.316 22.7828 634.099 22.7855C633.905 22.7879 633.712 22.7913 633.519 22.7895C633.292 22.7871 633.065 22.7802 632.837 22.7737C632.8 22.7725 632.773 22.7802 632.755 22.8188C632.728 22.8789 632.695 22.9369 632.661 23.0027L632.699 23.0149C632.812 23.035 632.925 23.0521 633.037 23.0748C633.182 23.1038 633.246 23.1873 633.253 23.3099C633.263 23.4844 633.267 23.6594 633.266 23.8344C633.263 24.5268 633.258 25.2192 633.253 25.9114C633.253 25.9571 633.252 26.0048 633.24 26.0478C633.225 26.0974 633.21 26.1617 633.173 26.1861C633.107 26.2289 633.033 26.2574 632.956 26.2698C632.846 26.288 632.828 26.2929 632.793 26.4016L632.779 26.456C632.762 26.5153 632.771 26.527 632.832 26.5276C633.184 26.5315 633.536 26.5392 633.888 26.538C634.209 26.5368 634.53 26.5565 634.849 26.4956C635.152 26.4383 635.434 26.3378 635.691 26.1678C636.025 25.9469 636.265 25.6517 636.392 25.2665C636.494 24.9554 636.517 24.6379 636.483 24.3126C636.461 24.0909 636.398 23.8754 636.296 23.6775ZM635.68 25.5812C635.491 25.9347 635.21 26.1707 634.809 26.233C634.558 26.2718 634.306 26.2606 634.066 26.1646C633.914 26.1039 633.858 25.9717 633.853 25.8155C633.849 25.6623 633.847 25.5091 633.847 25.3559C633.846 24.8172 633.846 24.2785 633.847 23.74C633.847 23.5704 633.85 23.4003 633.853 23.2305C633.855 23.1111 633.88 23.0711 633.995 23.0614C634.502 23.0184 634.986 23.0736 635.388 23.4336C635.636 23.6563 635.778 23.9402 635.836 24.2663C635.861 24.4023 635.868 24.5414 635.884 24.6793C635.871 24.9942 635.829 25.3006 635.68 25.5812ZM639.936 24.9977C639.836 24.7522 639.646 24.5983 639.408 24.4998C639.327 24.4661 639.243 24.4383 639.155 24.4056L639.186 24.3859C639.281 24.3246 639.386 24.2752 639.468 24.1997C639.666 24.0163 639.749 23.7855 639.71 23.5114C639.673 23.2508 639.544 23.0594 639.314 22.9353C639.105 22.823 638.88 22.782 638.646 22.7822C638.243 22.7826 637.839 22.7887 637.436 22.7895C637.297 22.7897 637.157 22.7792 637.018 22.7773C636.991 22.7769 636.951 22.7838 636.94 22.8019C636.908 22.8512 636.887 22.9079 636.864 22.9627C636.851 22.9946 636.864 23.0121 636.9 23.0169C636.997 23.0303 637.094 23.047 637.191 23.0616C637.326 23.0819 637.391 23.1524 637.399 23.289L637.401 23.37C637.401 23.7946 637.402 24.2192 637.401 24.6438C637.398 25.0679 637.394 25.4919 637.389 25.9159C637.388 25.9693 637.381 26.0229 637.373 26.0759C637.362 26.1559 637.319 26.2111 637.238 26.2284L637.008 26.2742C636.981 26.2797 636.942 26.2789 636.931 26.2958C636.888 26.3595 636.854 26.429 636.859 26.513L636.883 26.5195L637.655 26.5386L637.81 26.538C638.077 26.5348 638.345 26.5402 638.611 26.5264C638.9 26.5118 639.172 26.4253 639.422 26.2765C639.689 26.1179 639.895 25.9088 639.968 25.5944C640.015 25.3936 640.015 25.1916 639.936 24.9977ZM637.974 23.1887C637.975 23.1034 638.012 23.0663 638.096 23.0642C638.303 23.0584 638.509 23.0596 638.708 23.1315C638.967 23.2246 639.125 23.4492 639.122 23.7237C639.121 23.8291 639.123 23.9335 639.084 24.0348C639.008 24.2342 638.862 24.3394 638.656 24.3599C638.548 24.3709 638.439 24.3721 638.343 24.3772L638.022 24.3631C637.98 24.3615 637.961 24.3426 637.961 24.2984L637.974 23.1887ZM639.303 25.8476C639.2 26.0744 639.012 26.1936 638.776 26.235C638.588 26.2675 638.395 26.2589 638.211 26.2099C638.073 26.1743 638.017 26.0625 637.989 25.9386C637.971 25.8556 637.974 25.7569 637.972 25.6706C637.97 25.5374 637.972 25.261 637.972 25.261H637.969C637.969 25.0639 637.97 24.8933 637.968 24.7043C637.968 24.6635 637.975 24.6432 638.025 24.6448C638.2 24.6501 638.376 24.6531 638.551 24.66C638.708 24.6661 638.855 24.713 638.993 24.7881C639.203 24.9024 639.33 25.0773 639.365 25.3177C639.391 25.5 639.38 25.6793 639.303 25.8476ZM620.046 26.06L620.05 24.9887C620.051 24.8275 620.03 24.6695 619.978 24.5166C619.834 24.0955 619.436 23.9038 619.021 24.0549C618.833 24.1237 618.664 24.2279 618.502 24.3461C618.408 24.4151 618.408 24.4151 618.34 24.3168C618.148 24.0385 617.873 23.9434 617.553 24.046C617.346 24.1122 617.165 24.2255 616.994 24.3571C616.978 24.3694 616.946 24.383 616.936 24.3757C616.92 24.3636 616.909 24.3351 616.91 24.3136L616.921 24.1233C616.922 24.0833 616.915 24.0431 616.911 24.0011C616.833 24.0281 616.772 24.0551 616.707 24.0708C616.507 24.1201 616.306 24.1654 616.105 24.2117C616.056 24.223 616.005 24.2377 616 24.2941C615.995 24.3495 616.048 24.3587 616.089 24.3753C616.176 24.4103 616.261 24.4476 616.347 24.4854C616.419 24.5173 616.445 24.5751 616.445 24.6527C616.444 24.9847 616.446 25.3163 616.444 25.6484C616.443 25.7833 616.437 25.9181 616.431 26.0531C616.425 26.1727 616.385 26.2227 616.27 26.2529C616.209 26.269 616.147 26.2799 616.086 26.2945C616.072 26.2976 616.049 26.3063 616.049 26.313C616.046 26.3715 616.043 26.4314 616.053 26.4883C616.055 26.4986 616.116 26.4986 616.15 26.5025L616.173 26.5012C616.41 26.4976 616.647 26.4939 616.884 26.4913C617.009 26.4899 617.135 26.4911 617.271 26.4911L617.286 26.3C617.207 26.2856 617.138 26.2748 617.069 26.2596C616.962 26.2359 616.916 26.1786 616.913 26.0694L616.911 25.9132C616.91 25.5079 616.909 25.1028 616.909 24.6974C616.909 24.6385 616.933 24.5918 616.984 24.5566C617.093 24.4825 617.208 24.4235 617.335 24.3906C617.603 24.3215 617.835 24.4176 617.939 24.6476C617.971 24.7201 617.997 24.8003 618.004 24.8791C618.042 25.2854 618.025 25.6921 618.003 26.0984C617.998 26.1861 617.957 26.2302 617.871 26.2517L617.67 26.2947C617.653 26.2988 617.63 26.2878 617.629 26.3014C617.624 26.3575 617.627 26.4436 617.627 26.4436H617.675L618.288 26.4639C618.457 26.4635 618.625 26.484 618.793 26.4883C618.823 26.4889 618.85 26.4935 618.852 26.4584C618.853 26.4039 618.853 26.3494 618.849 26.295L618.817 26.2893L618.644 26.2501C618.528 26.2223 618.488 26.1776 618.487 26.0586C618.486 25.7652 618.49 25.472 618.487 25.1788C618.486 25.0111 618.48 24.8435 618.469 24.6762C618.466 24.6316 618.473 24.6025 618.508 24.5774C618.61 24.5023 618.724 24.4465 618.846 24.4129C619.224 24.3124 619.533 24.5215 619.553 24.9146C619.572 25.2937 619.564 25.6742 619.561 26.0541C619.56 26.1863 619.517 26.2263 619.388 26.2617L619.343 26.2734C619.211 26.3053 619.212 26.3053 619.22 26.447C619.222 26.4913 619.235 26.5027 619.281 26.5015C619.551 26.4954 619.82 26.4939 620.09 26.4915C620.2 26.4905 620.31 26.4915 620.43 26.4915L620.454 26.3071C620.349 26.2789 620.252 26.258 620.158 26.2271C620.075 26.1987 620.046 26.1483 620.046 26.06ZM629.322 24.4362C629.433 24.3323 629.434 24.1952 629.403 24.0429C629.315 24.1357 629.217 24.1784 629.104 24.1865C628.954 24.1973 628.806 24.1841 628.666 24.1237C628.286 23.9593 627.913 23.9709 627.541 24.1512C627.227 24.3026 627.035 24.5384 627.016 24.8961C627.003 25.1252 627.046 25.3422 627.197 25.5244C627.288 25.6336 627.405 25.7043 627.536 25.7532C627.593 25.7743 627.597 25.8015 627.55 25.8379C627.515 25.8646 627.478 25.8896 627.441 25.9128C627.362 25.9631 627.282 26.0126 627.201 26.0614C627.154 26.0901 627.138 26.1268 627.154 26.1829C627.199 26.3481 627.315 26.4434 627.46 26.513L627.513 26.5502L627.467 26.5969C627.325 26.7134 627.177 26.8233 627.04 26.9469C626.926 27.0507 626.889 27.1898 626.924 27.3433C626.993 27.6497 627.195 27.8393 627.48 27.9264C627.98 28.0789 628.449 27.9914 628.876 27.6929C629.13 27.5157 629.312 27.2852 629.367 26.9679C629.429 26.6115 629.233 26.3021 628.881 26.2383C628.649 26.1957 628.411 26.1835 628.176 26.1563C628.066 26.1437 627.955 26.1362 627.848 26.1108C627.757 26.0891 627.712 26.0145 627.72 25.9416C627.729 25.8698 627.804 25.803 627.891 25.7961C628.065 25.782 628.236 25.7546 628.396 25.6805C628.822 25.4842 629.019 25.1406 628.97 24.6779C628.963 24.6157 628.949 24.5542 628.937 24.4817C629.073 24.5047 629.212 24.5396 629.322 24.4362ZM628.031 26.607C628.205 26.6121 628.401 26.6229 628.592 26.6791C628.759 26.7283 628.897 26.8146 628.937 27.0032C628.986 27.231 628.878 27.4576 628.659 27.5794C628.455 27.6933 628.232 27.7027 628.007 27.6793C627.814 27.6592 627.64 27.5918 627.501 27.4479C627.318 27.2586 627.317 26.9965 627.5 26.8078C627.664 26.6391 627.752 26.6042 628.031 26.607ZM628.464 25.2352C628.364 25.5605 628.07 25.6054 627.84 25.5014C627.644 25.4129 627.559 25.2387 627.514 25.0399C627.497 24.9634 627.493 24.884 627.483 24.8058C627.487 24.6937 627.505 24.5861 627.553 24.4852C627.7 24.1745 628.06 24.193 628.26 24.3337C628.345 24.394 628.405 24.476 628.442 24.5731C628.525 24.7846 628.533 25.0185 628.464 25.2352ZM626.634 26.2722C626.564 26.2614 626.495 26.2459 626.428 26.2257C626.309 26.189 626.295 26.1666 626.293 26.0399C626.29 25.6868 626.287 25.3337 626.283 24.9808C626.281 24.822 626.263 24.6653 626.214 24.5136C626.088 24.1136 625.699 23.8988 625.31 24.0169C625.094 24.0825 624.909 24.2044 624.736 24.3477L624.673 24.3964L624.674 24.3311C624.678 24.2561 624.686 24.181 624.685 24.1059C624.685 24.0667 624.67 24.0273 624.663 23.9928C624.516 24.0375 624.384 24.0825 624.249 24.1168C624.114 24.151 623.976 24.1743 623.84 24.2023C623.772 24.2161 623.722 24.2574 623.723 24.3045C623.725 24.3709 623.78 24.3837 623.827 24.4036C623.914 24.4393 624 24.4754 624.085 24.5136C624.146 24.541 624.171 24.5918 624.17 24.6578C624.166 25.1167 624.163 25.5758 624.157 26.035C624.155 26.18 624.118 26.2182 623.977 26.2501L623.915 26.2625C623.784 26.2852 623.781 26.2905 623.79 26.4298L623.79 26.4529C623.789 26.5065 623.812 26.5238 623.867 26.5232C624.215 26.5191 624.562 26.5171 624.91 26.5185C625.059 26.5191 625.075 26.5073 625.072 26.3528L625.065 26.2864C624.98 26.272 624.898 26.2616 624.819 26.2438C624.735 26.2251 624.705 26.1906 624.698 26.1051C624.69 26.0269 624.688 25.9475 624.687 25.8687C624.683 25.5079 624.68 25.1471 624.678 24.7865C624.678 24.6957 624.695 24.6113 624.777 24.5528C624.899 24.4649 625.043 24.413 625.193 24.4027C625.503 24.3812 625.738 24.5666 625.755 24.8785C625.776 25.2633 625.77 25.6495 625.775 26.0352C625.775 26.0639 625.77 26.0929 625.766 26.1215C625.759 26.1778 625.731 26.2202 625.675 26.2348C625.619 26.2493 625.563 26.2623 625.507 26.271C625.423 26.2836 625.421 26.283 625.414 26.3687L625.417 26.4265C625.427 26.5262 625.427 26.5232 625.527 26.5222C625.863 26.5195 626.199 26.5177 626.535 26.5181C626.676 26.5185 626.686 26.5118 626.687 26.3656L626.687 26.3309C626.689 26.2935 626.672 26.2783 626.634 26.2722ZM631.332 24.0411C630.98 23.9542 630.645 24.0188 630.328 24.1845C630.019 24.3455 629.813 24.5944 629.734 24.938C629.655 25.2854 629.693 25.6243 629.845 25.9469C629.944 26.1563 630.096 26.3183 630.304 26.4235C630.79 26.6702 631.383 26.5583 631.764 26.2283C632.065 25.968 632.175 25.6214 632.182 25.1924C632.178 25.1494 632.174 25.0667 632.162 24.9847C632.099 24.5177 631.778 24.151 631.332 24.0411ZM631.599 25.845C631.506 26.2166 631.187 26.3817 630.828 26.2541C630.644 26.189 630.507 26.0647 630.415 25.8966C630.203 25.5104 630.162 25.0998 630.283 24.6785C630.363 24.3979 630.592 24.2444 630.865 24.2637C631.108 24.2809 631.295 24.3987 631.432 24.5985C631.577 24.8094 631.633 25.0492 631.648 25.301C631.65 25.3414 631.648 25.3818 631.648 25.4224L631.665 25.4243C631.644 25.5648 631.634 25.7081 631.599 25.845ZM622.465 24.035C622.094 23.9495 621.747 24.034 621.425 24.2241C621.146 24.3885 620.966 24.634 620.897 24.9548C620.833 25.2545 620.859 25.549 620.964 25.8361C621.028 26.0111 621.126 26.165 621.268 26.285C621.568 26.5374 621.918 26.6013 622.291 26.5309C622.607 26.4712 622.884 26.3297 623.086 26.0651C623.274 25.8176 623.346 25.5335 623.354 25.2255C623.343 25.128 623.34 25.0287 623.319 24.9335C623.217 24.4584 622.942 24.1447 622.465 24.035ZM622.768 25.8438C622.677 26.2135 622.353 26.3827 621.997 26.255C621.767 26.1729 621.618 26.0036 621.524 25.7867C621.373 25.4381 621.342 25.0754 621.44 24.7077C621.515 24.4265 621.741 24.2194 622.087 24.2691C622.299 24.2994 622.465 24.4088 622.588 24.5828C622.755 24.8174 622.81 25.0862 622.817 25.3686V25.4263L622.831 25.4285C622.811 25.5672 622.801 25.7083 622.768 25.8438Z" fill="#E2E2E2"/>
<path d="M663.208 22.7146V13.4922H667.655V12.9528H663.208V4.53929H667.936V4H663V23.2539H667.977V22.7146H663.208ZM671.987 9.39318L670.144 15.6764L668.342 9.39334H668.071L670.019 16.081L667.884 23.2537H668.134L670.143 16.4851L672.164 23.2537H672.424L670.279 16.0807L672.236 9.39302L671.987 9.39318ZM673.049 28V19.3709H673.07C673.195 20.6293 673.441 21.6406 673.809 22.4047C674.177 23.1686 674.646 23.5507 675.215 23.5507C675.583 23.5507 675.909 23.3575 676.194 22.971C676.478 22.5845 676.716 22.0586 676.907 21.3934C677.098 20.7282 677.244 19.9552 677.344 19.0743C677.445 18.1935 677.495 17.2675 677.495 16.2969C677.495 15.2541 677.443 14.2922 677.339 13.4114C677.235 12.5305 677.084 11.7664 676.886 11.1193C676.688 10.4721 676.449 9.96856 676.168 9.60925C675.886 9.24962 675.569 9.0698 675.215 9.0698C674.944 9.0698 674.692 9.17323 674.46 9.37991C674.227 9.58676 674.021 9.87873 673.84 10.2563C673.659 10.6368 673.501 11.087 673.372 11.5911C673.24 12.1035 673.139 12.6653 673.07 13.2766H673.049V9.39318H672.841V28H673.049ZM675.215 23.0381C674.562 23.0381 674.038 22.4584 673.642 21.2989C673.247 20.1394 673.049 18.4719 673.049 16.2966C673.049 15.3977 673.097 14.5438 673.195 13.7348C673.292 12.9259 673.432 12.2157 673.616 11.6045C673.8 10.9932 674.028 10.5078 674.298 10.1484C674.569 9.78874 674.875 9.60893 675.215 9.60893C675.562 9.60893 675.866 9.78874 676.126 10.1484C676.386 10.5078 676.602 10.9978 676.772 11.618C676.942 12.2382 677.07 12.9484 677.157 13.7483C677.244 14.5483 677.287 15.3977 677.287 16.2966C677.287 17.1057 677.247 17.9102 677.167 18.7101C677.087 19.5101 676.964 20.2292 676.798 20.8676C676.631 21.5056 676.418 22.0269 676.157 22.4315C675.897 22.836 675.583 23.0381 675.215 23.0381ZM678.641 23.2539V15.4067C678.641 14.6517 678.682 13.9145 678.766 13.1955C678.849 12.4764 678.977 11.8426 679.151 11.2944C679.325 10.7461 679.545 10.3146 679.812 9.99996C680.08 9.68532 680.397 9.55503 680.765 9.60893V9.06964C680.446 9.05184 680.166 9.1415 679.927 9.33929C679.687 9.53707 679.481 9.80671 679.307 10.1484C679.134 10.4899 678.995 10.8898 678.891 11.3483C678.787 11.8061 678.709 12.3014 678.662 12.8179H678.641V9.39318H678.432V23.2541L678.641 23.2539ZM681.025 16.4314H685.503C685.517 15.4786 685.481 14.5619 685.394 13.6809C685.307 12.8 685.168 12.0179 684.977 11.3349C684.786 10.6517 684.54 10.1034 684.238 9.68985C683.936 9.27633 683.577 9.06964 683.16 9.06964C682.862 9.06964 682.57 9.23149 682.285 9.55519C682.001 9.87873 681.751 10.3505 681.536 10.9707C681.32 11.5909 681.147 12.3505 681.015 13.2496C680.883 14.1483 680.817 15.173 680.817 16.3236C680.817 17.3483 680.862 18.3056 680.952 19.1955C681.043 20.0853 681.182 20.8585 681.369 21.5146C681.556 22.1708 681.798 22.6787 682.093 23.0381C682.388 23.3978 682.744 23.5685 683.16 23.5506C683.771 23.5506 684.285 23.1055 684.701 22.2158C685.118 21.3258 685.364 20.0719 685.441 18.4539H685.232C685.142 19.9821 684.911 21.1281 684.54 21.8921C684.168 22.6562 683.702 23.0381 683.139 23.0381C682.757 23.0381 682.435 22.8674 682.171 22.5259C681.907 22.1844 681.692 21.7168 681.525 21.1236C681.359 20.5303 681.235 19.8337 681.156 19.0336C681.076 18.2338 681.032 17.3663 681.025 16.4314ZM685.295 15.8921H681.025C681.046 14.9213 681.116 14.0495 681.234 13.2765C681.352 12.5033 681.506 11.8426 681.697 11.2944C681.888 10.7461 682.11 10.3282 682.364 10.0404C682.617 9.75281 682.889 9.60893 683.181 9.60893C683.528 9.60893 683.833 9.77531 684.097 10.1079C684.361 10.4405 684.581 10.8945 684.759 11.4697C684.936 12.0449 685.069 12.7147 685.159 13.4786C685.25 14.2427 685.295 15.0473 685.295 15.8921ZM689.825 13.4922H690.033C690.033 11.946 689.859 10.8225 689.512 10.1213C689.165 9.42021 688.693 9.06964 688.096 9.06964C687.763 9.06964 687.482 9.1776 687.253 9.39334C687.023 9.60893 686.836 9.88763 686.69 10.2291C686.544 10.5706 686.44 10.9482 686.378 11.3618C686.315 11.7753 686.284 12.1709 686.284 12.5483C686.284 13.3033 686.336 13.9056 686.44 14.355C686.544 14.8045 686.708 15.1551 686.93 15.4067C687.082 15.5864 687.256 15.7482 687.45 15.8923C687.645 16.036 687.87 16.1888 688.127 16.3505C688.356 16.4945 688.582 16.6383 688.804 16.782C689.026 16.9259 689.222 17.1191 689.392 17.3617C689.563 17.6045 689.701 17.9146 689.809 18.2922C689.917 18.6696 689.97 19.1641 689.97 19.7752C689.97 20.3686 689.917 20.8719 689.809 21.2853C689.702 21.6967 689.562 22.042 689.398 22.2967C689.231 22.5573 689.045 22.746 688.841 22.8629C688.636 22.9797 688.436 23.0381 688.242 23.0381C687.61 23.0381 687.126 22.6741 686.789 21.9461C686.452 21.218 686.284 20.0719 686.284 18.5078H686.076C686.076 20.2517 686.258 21.5281 686.622 22.3372C686.987 23.1461 687.527 23.5506 688.242 23.5506C688.471 23.5506 688.702 23.4831 688.934 23.3483C689.167 23.2134 689.375 22.9933 689.559 22.6876C689.741 22.3862 689.895 21.9803 690.007 21.5012C690.121 21.0157 690.179 20.4225 690.179 19.7213C690.179 19.0561 690.128 18.5169 690.028 18.1033C689.927 17.69 689.795 17.3483 689.632 17.0787C689.469 16.809 689.285 16.5978 689.08 16.445C688.874 16.2913 688.668 16.1429 688.46 15.9999C688.206 15.8267 687.95 15.656 687.695 15.4877C687.476 15.3438 687.273 15.173 687.086 14.9752C686.905 14.7775 686.761 14.4944 686.654 14.1259C686.546 13.7573 686.492 13.2315 686.492 12.5483C686.492 12.4225 686.506 12.1977 686.534 11.8742C686.562 11.5505 686.628 11.2224 686.732 10.8898C686.836 10.5574 686.996 10.2607 687.211 9.99996C687.426 9.73938 687.721 9.60893 688.096 9.60893C688.353 9.60893 688.587 9.68095 688.799 9.82468C689.011 9.96856 689.193 10.1977 689.346 10.5124C689.498 10.827 689.616 11.2269 689.7 11.7123C689.783 12.1979 689.825 12.7911 689.825 13.4922ZM694.646 13.4922H694.854C694.854 11.946 694.681 10.8225 694.334 10.1213C693.986 9.42021 693.514 9.06964 692.917 9.06964C692.584 9.06964 692.303 9.1776 692.074 9.39334C691.845 9.60893 691.657 9.88763 691.512 10.2291C691.366 10.5706 691.262 10.9482 691.199 11.3618C691.137 11.7753 691.105 12.1709 691.105 12.5483C691.105 13.3033 691.158 13.9056 691.262 14.355C691.366 14.8045 691.529 15.1551 691.751 15.4067C691.904 15.5864 692.077 15.7482 692.272 15.8923C692.466 16.036 692.692 16.1888 692.949 16.3505C693.178 16.4945 693.403 16.6383 693.625 16.782C693.848 16.9259 694.044 17.1191 694.214 17.3617C694.384 17.6045 694.523 17.9146 694.63 18.2922C694.738 18.6696 694.792 19.1641 694.792 19.7752C694.792 20.3686 694.738 20.8719 694.63 21.2853C694.524 21.6967 694.383 22.042 694.219 22.2967C694.052 22.5573 693.867 22.746 693.662 22.8629C693.457 22.9797 693.258 23.0381 693.063 23.0381C692.431 23.0381 691.947 22.6741 691.611 21.9461C691.274 21.218 691.105 20.0719 691.105 18.5078H690.897C690.897 20.2517 691.079 21.5281 691.444 22.3372C691.808 23.1461 692.348 23.5506 693.063 23.5506C693.292 23.5506 693.523 23.4831 693.756 23.3483C693.988 23.2134 694.196 22.9933 694.38 22.6876C694.563 22.3862 694.716 21.9803 694.828 21.5012C694.943 21.0157 695 20.4225 695 19.7213C695 19.0561 694.95 18.5169 694.849 18.1033C694.748 17.69 694.616 17.3483 694.453 17.0787C694.29 16.809 694.106 16.5978 693.901 16.445C693.695 16.2913 693.489 16.1429 693.282 15.9999C693.027 15.8267 692.772 15.656 692.516 15.4877C692.298 15.3438 692.095 15.173 691.907 14.9752C691.727 14.7775 691.583 14.4944 691.475 14.1259C691.367 13.7573 691.314 13.2315 691.314 12.5483C691.314 12.4225 691.328 12.1977 691.355 11.8742C691.383 11.5505 691.449 11.2224 691.553 10.8898C691.657 10.5574 691.817 10.2607 692.032 9.99996C692.247 9.73938 692.542 9.60893 692.917 9.60893C693.174 9.60893 693.409 9.68095 693.62 9.82468C693.832 9.96856 694.014 10.1977 694.167 10.5124C694.32 10.827 694.438 11.2269 694.521 11.7123C694.604 12.1979 694.646 12.7911 694.646 13.4922Z" fill="#E2E2E2"/>
<path d="M741.894 4.09048C741.832 4.02815 741.754 3.99605 741.674 4.00039C741.455 4.00039 741.171 4.18265 741.018 4.28032L740.958 4.31825C740.702 4.47018 740.424 4.55623 740.14 4.57106C739.848 4.58232 739.597 4.60324 739.271 4.64507C737.334 4.88869 736.471 6.70781 735.639 8.46718C735.186 9.4242 734.718 10.4182 734.077 11.1776C733.944 11.3353 733.803 11.4822 733.655 11.6173C732.991 12.2219 732.157 12.6538 731.509 12.9595C730.885 13.2521 730.203 13.515 729.545 13.7694C728.942 14.002 728.372 14.2222 727.849 14.4607C727.645 14.5526 727.441 14.6399 727.235 14.7227C726.757 14.9124 726.414 15.0578 725.911 15.4821C725.731 15.6321 725.555 15.7905 725.385 15.9569C724.986 16.3472 724.633 16.803 724.336 17.3116C724.08 17.7807 723.784 18.2154 723.454 18.6083C723.348 18.7356 723.16 18.7981 722.878 18.7981C722.548 18.7981 722.148 18.7147 721.724 18.6264C721.287 18.5315 720.836 18.4414 720.448 18.4414C720.134 18.4414 719.893 18.5042 719.713 18.6313C719.713 18.6313 719.41 18.8478 719.283 19.1277L719.408 19.1971C719.603 19.3264 719.783 19.4859 719.944 19.6717C720.112 19.8622 720.3 20.0255 720.502 20.1578C720.566 20.1867 720.625 20.2324 720.674 20.2916C720.621 20.3865 720.544 20.509 720.462 20.64C720.015 21.3569 719.754 21.8099 719.904 22.0565C719.976 22.102 720.056 22.1242 720.136 22.1208C721.11 22.1208 721.634 21.8105 722.296 21.4175C722.488 21.3038 722.684 21.1868 722.916 21.0663C723.303 20.8604 723.72 20.532 724.162 20.1842C724.74 19.7223 725.345 19.2475 725.933 19.0185C726.415 18.8382 726.918 18.7518 727.422 18.7623C728.042 18.7623 728.694 18.8636 729.323 18.9627C729.791 19.0367 730.277 19.1125 730.753 19.1477C730.938 19.1608 731.11 19.1675 731.276 19.1675C731.499 19.1683 731.721 19.1541 731.943 19.125L731.996 19.102C732.33 18.8505 732.487 18.3104 732.638 17.788C732.736 17.452 732.818 17.1502 732.948 16.9583C732.956 16.9491 732.964 16.9406 732.973 16.933C732.979 16.9289 732.986 16.9274 732.993 16.9287C733 16.9301 733.006 16.9342 733.011 16.9404V16.9556C732.933 18.9976 732.263 20.2943 731.584 21.4472L731.131 22.0424C731.131 22.0424 731.765 22.0424 732.126 21.8714C733.443 21.389 734.437 20.3258 735.16 18.6301C735.339 18.1949 735.498 17.7484 735.638 17.2925C735.65 17.2546 735.764 17.1845 735.754 17.3808C735.75 17.4387 735.746 17.5033 735.743 17.5708C735.743 17.6106 735.743 17.6513 735.736 17.6922C735.718 17.9772 735.663 18.5791 735.663 18.5791L736.07 18.312C737.05 17.5527 737.806 16.0206 738.379 13.6366C738.618 12.6435 738.793 11.657 738.947 10.7885C739.131 9.74389 739.29 8.8487 739.472 8.50119C739.758 7.95649 740.194 7.58807 740.616 7.23022C740.673 7.18173 740.731 7.13507 740.788 7.08382C741.318 6.62737 741.846 6.10036 741.962 5.1176V5.09577C742.046 4.36283 741.975 4.17575 741.894 4.09048ZM740.528 27.9303H738.592V23.7958H740.339C741.006 23.7958 741.642 23.9498 741.633 24.8668C741.633 25.5134 741.305 25.6919 740.96 25.76C741.45 25.8115 741.745 26.1948 741.745 26.814C741.748 27.7414 741.084 27.9305 740.528 27.9305V27.9303ZM740.384 25.5998C741.052 25.5998 741.201 25.2845 741.201 24.8839C741.201 24.2819 740.902 24.1452 740.384 24.1452H738.996V25.5996L740.384 25.5998ZM740.402 25.9491H738.996V27.5809H740.463C740.874 27.5809 741.308 27.4148 741.308 26.7797C741.308 26.0466 740.809 25.9491 740.402 25.9491ZM734.496 23.7956H736.02C737.3 23.7956 737.94 24.6607 737.93 25.8627C737.94 27.1121 737.234 27.9305 736.132 27.9305H734.496L734.496 23.7956ZM734.917 24.1624V27.5697H736.079C737.097 27.5697 737.485 26.7273 737.485 25.8512C737.485 24.8609 737 24.1624 736.079 24.1624H734.917ZM732.885 25.3936V24.9121H733.523V27.9303H732.887V27.4444C732.719 27.7938 732.373 27.9939 731.953 27.9939C731.075 27.9939 730.583 27.2344 730.583 26.361C730.583 25.5189 731.048 24.842 731.859 24.842C732.319 24.8487 732.703 25.0385 732.885 25.3936ZM731.258 26.4019C731.258 26.9572 731.543 27.4327 732.095 27.4327C732.627 27.4327 732.917 26.9684 732.917 26.4189C732.917 25.8691 732.617 25.3994 732.065 25.3994C731.535 25.3994 731.259 25.8682 731.259 26.4019H731.258ZM729.381 24.1158C729.379 24.061 729.387 24.0065 729.404 23.9557C729.421 23.905 729.446 23.859 729.478 23.8208C729.51 23.7826 729.549 23.753 729.59 23.7338C729.632 23.7147 729.677 23.7063 729.722 23.7094C729.767 23.7076 729.812 23.7171 729.855 23.7374C729.897 23.7577 729.936 23.7883 729.968 23.8275C730 23.8667 730.026 23.9135 730.043 23.9651C730.06 24.0168 730.069 24.0722 730.068 24.1279C730.069 24.1829 730.06 24.2375 730.043 24.2883C730.026 24.339 730 24.3847 729.967 24.4225C729.935 24.4602 729.896 24.4892 729.854 24.5075C729.811 24.5258 729.766 24.533 729.722 24.5288C729.677 24.5312 729.632 24.5222 729.59 24.5023C729.548 24.4825 729.51 24.4522 729.478 24.4135C729.446 24.3747 729.42 24.3282 729.404 24.277C729.387 24.2258 729.379 24.1709 729.381 24.1158ZM729.409 24.9121H730.044V27.1176C730.044 27.2543 730.068 27.352 730.161 27.352C730.202 27.3509 730.242 27.3453 730.282 27.3352L730.381 27.9048C730.247 27.9695 730.104 28.0018 729.96 27.9999C729.694 27.9999 729.409 27.9048 729.409 27.1633L729.409 24.9121ZM727.778 27.9305H727.143V24.9124H727.778V25.5885C727.851 25.3722 727.974 25.1868 728.131 25.0554C728.289 24.9239 728.475 24.8521 728.666 24.8489C728.801 24.8466 728.936 24.8736 729.063 24.9287L728.928 25.4984C728.818 25.4626 728.705 25.4434 728.591 25.4412C728.133 25.4412 727.778 25.8648 727.778 26.4858V27.9305ZM725.709 25.3939V24.9124H726.345V27.9305H725.709V27.4446C725.541 27.794 725.195 27.9942 724.775 27.9942C723.896 27.9942 723.405 27.2346 723.405 26.3612C723.405 25.5191 723.87 24.8423 724.681 24.8423C725.143 24.8489 725.527 25.0388 725.709 25.3939ZM724.082 26.4021C724.082 26.9574 724.367 27.4329 724.919 27.4329C725.451 27.4329 725.741 26.9687 725.741 26.4191C725.741 25.8696 725.441 25.3996 724.889 25.3996C724.359 25.3996 724.083 25.8685 724.083 26.4021H724.082ZM722.35 23.7958L723.222 27.9305H722.564L721.982 24.9519L720.887 27.9305H720.332L719.243 24.9696L718.644 27.9305H718L718.864 23.7958H719.434L720.612 26.9974L721.784 23.7958H722.35Z" fill="#E2E2E2"/>
<path d="M792.274 15.82C792.273 15.1316 792.021 14.463 791.558 13.9185C791.095 13.374 790.446 12.9842 789.714 12.81L793 4H776.715L780.01 12.838C779.299 13.0265 778.674 13.4196 778.229 13.9583C777.784 14.497 777.543 15.1523 777.542 15.826C777.543 16.3227 777.675 16.8119 777.926 17.253C778.177 17.6941 778.541 18.0743 778.986 18.362C778.635 18.8117 778.236 19.2285 777.794 19.606C776.981 20.31 776.029 20.8688 774.989 21.253C774.072 20.69 773.675 19.697 774.033 18.807C774.814 18.5866 775.481 18.1196 775.916 17.4904C776.35 16.8612 776.523 16.1113 776.402 15.3766C776.281 14.6419 775.874 13.9708 775.256 13.4848C774.638 12.9988 773.85 12.73 773.033 12.727C772.125 12.7281 771.255 13.0564 770.613 13.6399C769.971 14.2235 769.61 15.0147 769.609 15.84C769.609 16.688 769.99 17.466 770.602 18.022C770.549 18.119 770.495 18.217 770.441 18.321C769.93 19.28 769.349 20.364 769.127 21.58C768.684 24.012 769.41 25.964 771.161 27.069C772.108 27.6767 773.24 28.002 774.4 28C776.409 28 778.449 27.083 780.421 26.193C781.828 25.561 783.28 24.901 784.708 24.581C785.236 24.463 785.786 24.394 786.367 24.317C787.544 24.164 788.759 24.005 789.851 23.427C790.475 23.102 791.013 22.657 791.427 22.123C791.842 21.5891 792.123 20.9792 792.251 20.336C792.442 19.342 792.251 18.342 791.763 17.466C792.09 16.986 792.274 16.425 792.274 15.82ZM790.784 15.82C790.784 16.785 789.92 17.57 788.859 17.57C788.459 17.569 788.07 17.4551 787.745 17.244C787.419 17.0329 787.174 16.7351 787.043 16.3918C786.912 16.0485 786.902 15.6767 787.013 15.3277C787.125 14.9787 787.353 14.6699 787.666 14.444L787.674 14.437C787.735 14.395 787.803 14.353 787.871 14.312C787.871 14.312 787.88 14.312 787.88 14.305C787.911 14.291 787.941 14.27 787.972 14.255C787.979 14.255 787.987 14.249 787.995 14.249C788.025 14.235 788.064 14.221 788.101 14.207C788.14 14.193 788.178 14.18 788.209 14.166C788.217 14.166 788.223 14.159 788.231 14.159C788.262 14.152 788.293 14.138 788.324 14.131C788.331 14.131 788.346 14.124 788.354 14.124C788.392 14.117 788.422 14.11 788.461 14.104H788.469L788.583 14.082C788.591 14.082 788.605 14.082 788.614 14.075C788.645 14.075 788.674 14.068 788.705 14.068H788.744C788.782 14.068 788.821 14.061 788.866 14.061H788.965C788.996 14.061 789.02 14.061 789.049 14.068H789.065C789.125 14.075 789.187 14.082 789.248 14.096C789.682 14.1805 790.071 14.3976 790.351 14.7111C790.63 15.0245 790.783 15.4165 790.784 15.82ZM778.847 5.39H790.869L788.109 12.79C787.995 12.81 787.88 12.845 787.766 12.88L784.862 7.495L781.95 12.845C781.836 12.811 781.712 12.79 781.59 12.769L778.847 5.39ZM784.311 15.215C784.171 14.5736 783.809 13.9894 783.28 13.547L784.861 10.643L786.458 13.61C785.985 14.04 785.641 14.59 785.504 15.215H784.311ZM780.483 14.117C780.52 14.11 780.551 14.103 780.589 14.097H780.611C780.643 14.089 780.673 14.089 780.704 14.082H780.735C780.765 14.082 780.789 14.075 780.818 14.075H781.116C781.147 14.075 781.17 14.082 781.193 14.082C781.209 14.082 781.215 14.082 781.232 14.089C781.261 14.096 781.285 14.096 781.315 14.103C781.323 14.103 781.331 14.103 781.346 14.11L781.453 14.13H781.461C781.491 14.138 781.522 14.145 781.552 14.159C781.56 14.159 781.567 14.166 781.583 14.166C781.606 14.173 781.637 14.18 781.66 14.193C781.667 14.193 781.675 14.2 781.682 14.2C781.712 14.214 781.743 14.221 781.774 14.235H781.782C781.817 14.2471 781.85 14.2636 781.881 14.284H781.888C781.919 14.298 781.95 14.318 781.981 14.332C781.988 14.332 781.988 14.339 781.995 14.339C782.026 14.353 782.05 14.374 782.08 14.388L782.087 14.395C782.179 14.457 782.263 14.527 782.347 14.596L782.355 14.603C782.695 14.9292 782.884 15.3622 782.883 15.812C782.866 16.2662 782.655 16.6966 782.296 17.0124C781.937 17.3283 781.457 17.5048 780.957 17.5048C780.457 17.5048 779.977 17.3283 779.618 17.0124C779.258 16.6966 779.048 16.2662 779.031 15.812C779.03 15.4226 779.172 15.044 779.435 14.7368C779.698 14.4295 780.067 14.2113 780.483 14.117ZM772.962 14.068C774.025 14.068 774.888 14.854 774.888 15.819C774.888 16.784 774.025 17.57 772.963 17.57C771.902 17.57 771.036 16.785 771.036 15.82C771.036 14.855 771.901 14.068 772.962 14.068ZM790.739 20.093C790.652 20.5376 790.458 20.9592 790.171 21.3279C789.885 21.6966 789.512 22.0032 789.08 22.226C788.247 22.664 787.223 22.803 786.145 22.942C785.539 23.0126 784.937 23.1097 784.341 23.233C782.752 23.588 781.224 24.283 779.742 24.95C777.845 25.804 776.057 26.61 774.4 26.61C773.55 26.6148 772.72 26.3739 772.031 25.922C770.349 24.866 770.433 22.886 770.632 21.802C770.815 20.787 771.327 19.836 771.816 18.925C771.847 18.87 771.87 18.821 771.901 18.765C772.068 18.821 772.244 18.863 772.428 18.891C772.137 20.364 772.962 21.885 774.568 22.636L774.858 22.775L775.171 22.671C776.508 22.24 777.746 21.538 778.84 20.6C779.443 20.0882 779.977 19.512 780.429 18.884C780.605 18.911 780.781 18.918 780.957 18.918C781.713 18.9164 782.448 18.6873 783.047 18.2664C783.645 17.8455 784.073 17.2564 784.265 16.591H785.549C785.739 17.2574 786.168 17.8475 786.767 18.2687C787.366 18.6898 788.102 18.9182 788.859 18.918C789.493 18.918 790.08 18.758 790.586 18.488C790.784 19.008 790.845 19.551 790.739 20.093Z" fill="#E2E2E2"/>
<path d="M832.601 11.5837H831.337L830.998 11.0997V7.29419H832.922V11.0997L832.601 11.5837ZM830.893 11.9379L830.503 13.2664L829.98 13.4739L826.708 12.3004L827.301 10.2782L830.575 11.4538L830.893 11.9379ZM830.668 13.8071L831.691 14.6285L831.709 15.2425L829.686 18.3187L828.13 17.0698L830.152 13.9915L830.668 13.8071ZM832.235 14.6348L833.259 13.8154L833.792 13.9852L835.814 17.0635L834.258 18.3124L832.235 15.2341V14.6348ZM833.451 13.2895L833.06 11.9609L833.371 11.4538L836.644 10.2782L837.238 12.3004L833.966 13.4739L833.451 13.2895Z" fill="#E2E2E2"/>
<path d="M832 4C830.345 4 828.726 4.54285 827.349 5.5599C825.972 6.57695 824.899 8.02253 824.265 9.71383C823.632 11.4051 823.466 13.2662 823.789 15.0616C824.112 16.8571 824.909 18.5064 826.08 19.8008C827.251 21.0953 828.743 21.9768 830.367 22.334C831.991 22.6911 833.675 22.5078 835.204 21.8073C836.734 21.1067 838.042 19.9203 838.962 18.3982C839.882 16.8761 840.373 15.0866 840.373 13.2559C840.373 10.8011 839.491 8.44681 837.921 6.71099C836.351 4.97517 834.221 4 832 4ZM831.955 20.4896C830.645 20.4896 829.365 20.0604 828.277 19.2561C827.188 18.4518 826.339 17.3086 825.838 15.9711C825.337 14.6336 825.206 13.1619 825.461 11.742C825.717 10.3221 826.347 9.01789 827.273 7.99422C828.199 6.97055 829.379 6.27342 830.663 5.99099C831.948 5.70856 833.279 5.85351 834.489 6.40752C835.699 6.96153 836.733 7.8997 837.46 9.10341C838.188 10.3071 838.576 11.7223 838.576 13.17C838.576 14.1312 838.405 15.083 838.072 15.9711C837.739 16.8592 837.252 17.6661 836.637 18.3458C836.022 19.0255 835.292 19.5646 834.489 19.9325C833.685 20.3003 832.824 20.4896 831.955 20.4896Z" fill="#E2E2E2"/>
<path d="M831.676 16.0638H832.199V18.9493H831.676V16.0638ZM834.52 14.282L834.681 13.7321L837.164 14.6237L837.002 15.1738L834.52 14.282ZM833.841 10.7491L833.417 10.409L834.952 8.0746L835.375 8.41471L833.841 10.7491ZM830.575 10.4086L830.152 10.7485L828.618 8.41408L829.041 8.07397L830.575 10.4086ZM829.244 13.7308L829.406 14.2809L826.923 15.1725L826.762 14.6225L829.244 13.7308ZM820.83 26.6126C820.825 26.6834 820.834 26.7546 820.854 26.8219C820.874 26.8892 820.907 26.9514 820.949 27.0048C820.991 27.0582 821.043 27.1018 821.101 27.133C821.158 27.1643 821.221 27.1825 821.285 27.1868C821.365 27.1888 821.443 27.1664 821.512 27.122C821.581 27.0776 821.638 27.013 821.676 26.9353C821.744 26.7517 821.772 26.5528 821.757 26.3549V24.0498H821.304V23.3038H823.01V24.0393H822.551V26.4638C822.551 26.8829 822.528 27.1994 822.265 27.5346C822.14 27.6821 821.989 27.7996 821.822 27.8796C821.654 27.9597 821.473 28.0006 821.291 27.9999C820.544 27.9999 819.964 27.4508 820.002 26.6126H820.83ZM825.649 26.1663C825.647 26.0302 825.622 25.8956 825.573 25.7704C825.525 25.6452 825.455 25.5318 825.367 25.4366C825.279 25.3414 825.175 25.2664 825.06 25.2157C824.946 25.1651 824.824 25.1399 824.701 25.1416C824.575 25.1415 824.451 25.1692 824.335 25.2229C824.219 25.2766 824.113 25.3553 824.025 25.4543C823.937 25.5534 823.867 25.6709 823.821 25.8C823.774 25.929 823.751 26.0671 823.753 26.2061C823.758 26.476 823.858 26.7333 824.03 26.9242C824.203 27.1151 824.436 27.2249 824.68 27.2308C824.807 27.2339 824.934 27.2086 825.053 27.1562C825.171 27.1039 825.279 27.0257 825.369 26.9264C825.46 26.827 825.531 26.7084 825.579 26.5778C825.627 26.4472 825.651 26.3072 825.649 26.1663ZM825.637 27.4424C825.527 27.6217 825.376 27.7669 825.201 27.864C825.026 27.9612 824.83 28.0072 824.634 27.9978C824.208 27.9933 823.8 27.8023 823.501 27.4666C823.201 27.1308 823.034 26.6776 823.036 26.2061C823.035 25.7253 823.206 25.2636 823.512 24.9216C823.818 24.5797 824.234 24.3853 824.669 24.3809C824.862 24.377 825.052 24.4284 825.222 24.5301C825.392 24.6318 825.535 24.7804 825.637 24.9613V24.4647H826.752V25.2002H826.361V27.1742H826.752V27.9097H825.637V27.4445M827.69 26.9081C827.691 26.9788 827.705 27.0486 827.731 27.1131C827.757 27.1777 827.795 27.2358 827.842 27.2839C827.889 27.332 827.944 27.3692 828.004 27.3932C828.064 27.4172 828.128 27.4275 828.192 27.4236C828.299 27.4299 828.404 27.3894 828.483 27.311C828.563 27.2325 828.612 27.1224 828.619 27.0045C828.619 26.6629 828.327 26.6042 828.088 26.533C827.546 26.3779 826.951 26.1914 826.951 25.437C826.951 24.779 827.453 24.3893 828.007 24.3893C828.138 24.3753 828.27 24.3961 828.393 24.4501C828.516 24.504 828.625 24.5895 828.712 24.6994V24.4647H829.237V25.3993H828.549C828.547 25.3432 828.536 25.2879 828.514 25.2368C828.493 25.1857 828.463 25.1399 828.426 25.1019C828.388 25.064 828.344 25.0348 828.296 25.0161C828.248 24.9973 828.198 24.9894 828.147 24.9928C828.099 24.987 828.051 24.9918 828.005 25.0069C827.96 25.022 827.917 25.0471 827.88 25.0807C827.843 25.1142 827.813 25.1557 827.79 25.2025C827.768 25.2493 827.755 25.3005 827.751 25.3532C827.751 25.6759 828.037 25.7472 828.264 25.8037C828.833 25.9462 829.424 26.139 829.424 26.9123C829.424 27.608 828.894 27.9957 828.31 27.9957C828.159 28.0038 828.008 27.9745 827.869 27.91C827.729 27.8454 827.605 27.7473 827.504 27.6227V27.9056H826.962V26.906H827.692M830.018 25.2002H829.616V24.4647H830.674V24.9802C830.76 24.8022 830.889 24.653 831.045 24.5477C831.201 24.4424 831.38 24.3848 831.563 24.3809C831.77 24.3831 831.973 24.4528 832.145 24.5814C832.317 24.7099 832.452 24.8916 832.531 25.1038C832.621 24.8875 832.764 24.7042 832.946 24.5759C833.127 24.4477 833.338 24.38 833.553 24.3809C833.722 24.3798 833.89 24.4183 834.044 24.4938C834.199 24.5693 834.338 24.68 834.451 24.8189C834.696 25.1353 834.696 25.4768 834.696 25.8666V27.17H835.098V27.9056H833.581V27.17H833.983V26.0573C834 25.8425 833.968 25.6263 833.89 25.4287C833.833 25.3394 833.756 25.2671 833.668 25.2178C833.579 25.1685 833.481 25.1438 833.382 25.1458C833.283 25.1445 833.185 25.1669 833.094 25.2113C833.004 25.2558 832.923 25.3214 832.857 25.4035C832.737 25.593 832.685 25.8255 832.711 26.0552V27.1637H833.113V27.8993H831.597V27.1637H832V26.116C832.017 25.8957 831.985 25.6742 831.908 25.4706C831.856 25.3711 831.781 25.289 831.691 25.2332C831.6 25.1775 831.497 25.1501 831.394 25.1541C831.299 25.1504 831.205 25.1711 831.119 25.2148C831.032 25.2585 830.957 25.3238 830.897 25.4056C830.764 25.6082 830.704 25.8585 830.729 26.1076V27.1721H831.13V27.9077H829.614V27.1721H830.016V25.1981M836.445 24.1357H835.735V23.2975H836.445V24.1357ZM836.445 27.1721H836.847V27.9077H835.331V27.1721H835.735V25.1981H835.331V24.4647H836.445V27.1721ZM837.467 25.2002H837.063V24.4647H838.178V24.9551C838.269 24.7756 838.403 24.6276 838.566 24.5274C838.729 24.4271 838.913 24.3786 839.099 24.3872C839.267 24.3859 839.433 24.4224 839.587 24.4944C839.742 24.5665 839.881 24.6726 839.998 24.8063C840.254 25.1227 840.259 25.4349 840.259 25.8184V27.1658H840.661V27.9014H839.145V27.1658H839.546V26.0573C839.569 25.8385 839.526 25.6174 839.423 25.4287C839.357 25.3392 839.274 25.2677 839.179 25.2197C839.084 25.1717 838.98 25.1486 838.875 25.152C838.767 25.1481 838.659 25.1722 838.56 25.2224C838.462 25.2726 838.375 25.3475 838.307 25.4412C838.195 25.6609 838.148 25.9136 838.172 26.1642V27.1637H838.574V27.8993H837.058V27.1637H837.46V25.1898M843.339 25.8771C843.282 25.6401 843.154 25.4314 842.976 25.2841C842.798 25.1367 842.581 25.0593 842.359 25.064C842.148 25.0707 841.945 25.1538 841.78 25.3007C841.616 25.4476 841.5 25.6501 841.45 25.8771H843.339ZM843.882 26.8955C843.763 27.2192 843.56 27.4967 843.298 27.6929C843.037 27.8891 842.729 27.9952 842.413 27.9978C841.976 28.0003 841.557 27.811 841.247 27.4717C840.936 27.1323 840.761 26.6707 840.759 26.1883C840.756 25.7059 840.928 25.2422 841.235 24.8994C841.542 24.5565 841.959 24.3624 842.395 24.3599C842.835 24.368 843.254 24.5675 843.561 24.9152C843.707 25.0877 843.821 25.2903 843.896 25.5115C843.971 25.7326 844.006 25.9679 843.999 26.204L843.976 26.4806H841.455C841.504 26.7144 841.622 26.9232 841.791 27.0731C841.961 27.223 842.171 27.3052 842.388 27.3062C842.536 27.3141 842.684 27.2796 842.817 27.2062C842.949 27.1328 843.063 27.023 843.146 26.8871H843.887" fill="#E2E2E2"/>
<path d="M883 4C882.748 4 882.495 4.05813 882.268 4.174L871.732 9.53313C871.278 9.76506 871 10.1772 871 10.6409V21.3591C871 21.8101 871.278 22.2351 871.732 22.4669L882.268 27.826C882.49 27.9399 882.743 28 883 28C883.257 28 883.51 27.9399 883.732 27.826L894.268 22.4669C894.707 22.2351 894.985 21.8101 895 21.3591V10.6409C895 10.1899 894.722 9.76506 894.268 9.53313L883.732 4.174C883.51 4.06012 883.257 4.00009 883 4ZM882.986 5.62975C883.205 5.62975 883.425 5.68112 883.615 5.78425L892.717 10.4091C893.112 10.6022 893.346 10.963 893.346 11.3624V20.6118C893.346 20.9982 893.112 21.3721 892.717 21.5654L883.615 26.1902C883.425 26.2919 883.207 26.3454 882.986 26.3447C882.764 26.3454 882.546 26.2919 882.356 26.1902L873.253 21.5654C872.858 21.3722 872.624 21.0111 872.624 20.6118V11.3624C872.624 10.9759 872.858 10.6022 873.253 10.4091L882.356 5.78425C882.546 5.68259 882.764 5.62912 882.986 5.62975ZM882.986 6.016C882.854 6.016 882.707 6.05481 882.576 6.11913L873.473 10.7444C873.349 10.8097 873.246 10.9021 873.174 11.0126C873.102 11.1231 873.064 11.248 873.063 11.3753V20.6251C873.063 20.8827 873.224 21.1276 873.473 21.2564L882.576 25.8809C882.693 25.9454 882.839 25.9842 882.985 25.9842C883.132 25.9842 883.263 25.9454 883.395 25.8811L892.497 21.2564C892.621 21.191 892.724 21.0986 892.796 20.988C892.868 20.8774 892.906 20.7524 892.907 20.6251V11.3751C892.906 11.2478 892.868 11.1229 892.796 11.0124C892.724 10.9018 892.621 10.8095 892.497 10.7442L883.395 6.11931C883.263 6.05481 883.132 6.01619 882.986 6.01619V6.016ZM883.037 9.64881C882.963 9.739 883.051 9.95819 883.241 10.2156C883.563 10.7052 883.037 10.9756 883.037 10.9756C883.051 10.8983 882.993 10.6536 882.876 10.5376C882.524 10.0739 882.846 9.85506 883.037 9.64881ZM882.451 10.1256C882.393 10.1772 882.451 10.3317 882.583 10.4991C882.803 10.8342 882.451 11.0144 882.451 11.0144C882.451 10.9628 882.422 10.7954 882.349 10.7311C882.115 10.4089 882.32 10.2674 882.451 10.1256ZM881.383 11.2338H884.134C884.222 11.2338 884.281 11.2979 884.281 11.3624C884.281 11.8131 884.207 13.3204 883.475 14.0417C883.463 14.0544 883.447 14.0644 883.429 14.0711C883.411 14.0779 883.392 14.0812 883.373 14.0807H882.144C882.125 14.0812 882.105 14.0779 882.088 14.0712C882.07 14.0645 882.054 14.0545 882.042 14.0419C881.31 13.3075 881.236 11.8004 881.236 11.3624C881.236 11.2849 881.31 11.2338 881.383 11.2338ZM881.807 11.6331C881.768 11.6333 881.731 11.6469 881.704 11.671C881.677 11.6951 881.661 11.7278 881.661 11.7619C881.676 12.1225 881.734 13.1532 882.232 13.6684C882.245 13.681 882.26 13.691 882.278 13.6977C882.296 13.7044 882.315 13.7077 882.334 13.7072H883.198C883.242 13.7072 883.271 13.6941 883.315 13.6684C883.812 13.1402 883.885 12.1225 883.885 11.7619C883.885 11.7278 883.87 11.695 883.842 11.6708C883.815 11.6467 883.778 11.633 883.739 11.6329L881.807 11.6331ZM883.651 12.5089C883.593 12.8568 883.475 13.2561 883.227 13.5139C883.197 13.5396 883.168 13.5522 883.139 13.5522H882.407C882.378 13.5522 882.334 13.5396 882.319 13.5138C882.144 13.3206 882.027 13.063 881.954 12.7924C881.954 12.7924 882.803 12.8954 883.285 12.7407C883.637 12.6248 883.651 12.5089 883.651 12.5089ZM873.671 13.1399H881.134C881.134 13.1914 881.149 13.2304 881.149 13.282H873.671V13.1399ZM884.398 13.1399H892.329V13.282H884.383C884.383 13.2304 884.398 13.1914 884.398 13.1399H884.398ZM879.568 14.5443C879.779 14.5449 879.987 14.5799 880.183 14.6474C880.373 14.7117 880.534 14.8148 880.666 14.9307C880.797 15.0466 880.9 15.1883 880.973 15.3559C881.05 15.5193 881.09 15.6944 881.09 15.8712V15.8839C881.09 16.0643 881.046 16.2321 880.973 16.3996C880.899 16.5587 880.79 16.7033 880.651 16.8248C880.519 16.9407 880.358 17.0438 880.168 17.1081C879.978 17.1856 879.773 17.2107 879.554 17.2107C879.343 17.2102 879.135 17.1755 878.939 17.1081C878.749 17.0438 878.588 16.9407 878.456 16.8248C878.324 16.7088 878.222 16.567 878.149 16.3996C878.072 16.236 878.032 16.0609 878.032 15.8839V15.8712C878.032 15.6908 878.075 15.5234 878.149 15.3559C878.223 15.1968 878.332 15.0522 878.471 14.9307C878.602 14.8148 878.763 14.7117 878.954 14.6472C879.144 14.5699 879.349 14.5443 879.568 14.5443ZM883.607 14.5443C883.739 14.5443 883.856 14.557 883.973 14.5699C884.09 14.5958 884.178 14.6215 884.281 14.6472C884.368 14.6858 884.456 14.7246 884.529 14.7762C884.602 14.8277 884.676 14.8793 884.749 14.9438L884.412 15.2785C884.3 15.1899 884.177 15.1122 884.046 15.0468C883.915 14.9824 883.768 14.9568 883.593 14.9568C883.446 14.9568 883.329 14.9824 883.212 15.034C883.099 15.0834 882.995 15.1487 882.905 15.2273C882.817 15.3046 882.759 15.4073 882.7 15.5104C882.656 15.6263 882.627 15.7424 882.627 15.8582V15.8712C882.627 16 882.656 16.1159 882.7 16.2318C882.744 16.3478 882.817 16.438 882.905 16.528C882.993 16.6054 883.095 16.6829 883.212 16.7215C883.329 16.7601 883.461 16.7988 883.593 16.7988C883.768 16.7988 883.929 16.7731 884.046 16.7087C884.181 16.6368 884.308 16.555 884.427 16.4641L884.763 16.7599C884.69 16.8372 884.617 16.8889 884.529 16.9532C884.441 17.0177 884.354 17.0564 884.266 17.095C884.178 17.1336 884.061 17.1726 883.958 17.1854C883.827 17.2111 883.695 17.2107 883.563 17.2107C883.362 17.2116 883.163 17.1767 882.978 17.1081C882.802 17.0438 882.641 16.9407 882.509 16.8248C882.378 16.7088 882.276 16.567 882.203 16.3996C882.129 16.2321 882.086 16.0643 882.086 15.8839V15.8712C882.086 15.6908 882.129 15.5104 882.203 15.3559C882.277 15.1998 882.38 15.056 882.509 14.9307C882.641 14.8148 882.803 14.7117 882.993 14.6472C883.188 14.5785 883.397 14.5436 883.607 14.5443ZM890.486 14.5831H890.954L892.242 17.1724H891.7L891.407 16.5541H890.032L889.724 17.1722H889.198L890.486 14.5831ZM874.037 14.596H874.578L875.471 15.8067L876.364 14.596H876.905V17.1722H876.393V15.3303L875.471 16.5413H875.456L874.549 15.3432V17.1854H874.037V14.596ZM885.788 14.596H886.3V15.6653H887.705V14.596H888.217V17.1722H887.705V16.0902H886.3V17.1722H885.788V14.596ZM879.554 14.9568C879.407 14.9568 879.276 14.9824 879.159 15.034C879.045 15.0834 878.941 15.1487 878.851 15.2273C878.763 15.3046 878.705 15.4073 878.647 15.5104C878.603 15.6263 878.573 15.7424 878.573 15.8582V15.8712C878.573 16 878.603 16.1159 878.647 16.2318C878.691 16.3478 878.763 16.438 878.851 16.528C878.939 16.6054 879.042 16.6699 879.159 16.7215C879.276 16.7731 879.422 16.7988 879.554 16.7988C879.7 16.7988 879.832 16.7731 879.949 16.7215C880.063 16.6721 880.166 16.6068 880.256 16.5282C880.344 16.4508 880.403 16.3476 880.461 16.2447C880.505 16.1286 880.534 16.0128 880.534 15.8967V15.8839C880.534 15.7551 880.505 15.6391 880.461 15.5232C880.417 15.4073 880.344 15.3175 880.256 15.2273C880.166 15.1487 880.063 15.0834 879.949 15.034C879.832 14.9824 879.7 14.9568 879.554 14.9568ZM890.719 15.124L890.222 16.1545H891.217L890.719 15.124ZM873.671 17.9841H892.33V18.1255H873.671L873.671 17.9841Z" fill="#E2E2E2"/>
</svg>
