<svg width="300" height="204" viewBox="0 0 300 204" fill="none" xmlns="http://www.w3.org/2000/svg">
<rect x="1" y="1" width="298" height="202" rx="15" fill="#1C1C1F"/>
<path d="M65.6667 59.5H40.3333C38.4933 59.5 37 61.1291 37 63.1364V88.5909H57.8533L56.52 87.1364H38.3333V68.2273H67.6667V80.7945L69 82.2491V63.1364C69 61.1291 67.5067 59.5 65.6667 59.5ZM38.3333 66.7727V63.1364C38.3333 61.9291 39.2267 60.9545 40.3333 60.9545H65.6667C66.7733 60.9545 67.6667 61.9291 67.6667 63.1364V66.7727H38.3333ZM57.72 74.0455H53V79.1945L63.3067 90.4382C63.9333 91.1218 64.7733 91.5 65.6667 91.5C66.56 91.5 67.4 91.1218 68.0267 90.4382C68.6533 89.7545 69 88.8382 69 87.8636C69 86.8891 68.6533 85.9727 68.0267 85.2891L57.72 74.0455ZM67.08 89.4055C66.32 90.2345 65.0133 90.2345 64.2533 89.4055L54.3333 78.5836V75.5H57.16L67.08 86.3218C67.4533 86.7291 67.6667 87.2818 67.6667 87.8636C67.6667 88.4455 67.4533 88.9982 67.08 89.4055Z" fill="#7C7B84"/>
<path d="M33.4 141.5V127.1H37.91C38.0433 127.1 38.29 127.103 38.65 127.11C39.0167 127.117 39.3667 127.143 39.7 127.19C40.8267 127.33 41.7733 127.733 42.54 128.4C43.3133 129.067 43.8967 129.913 44.29 130.94C44.6833 131.96 44.88 133.08 44.88 134.3C44.88 135.527 44.6833 136.653 44.29 137.68C43.8967 138.7 43.3133 139.543 42.54 140.21C41.7733 140.87 40.8267 141.27 39.7 141.41C39.3667 141.457 39.0167 141.483 38.65 141.49C38.29 141.497 38.0433 141.5 37.91 141.5H33.4ZM35.54 139.51H37.91C38.1367 139.51 38.4067 139.503 38.72 139.49C39.0333 139.477 39.31 139.45 39.55 139.41C40.2833 139.27 40.8767 138.953 41.33 138.46C41.79 137.96 42.1267 137.347 42.34 136.62C42.5533 135.893 42.66 135.12 42.66 134.3C42.66 133.453 42.55 132.67 42.33 131.95C42.11 131.223 41.77 130.617 41.31 130.13C40.8567 129.637 40.27 129.323 39.55 129.19C39.31 129.143 39.03 129.117 38.71 129.11C38.3967 129.097 38.13 129.09 37.91 129.09H35.54V139.51ZM47.4086 128.93V126.9H49.4986V128.93H47.4086ZM47.4086 141.5V130.7H49.4986V141.5H47.4086ZM56.6316 141.79C55.3182 141.79 54.2482 141.5 53.4216 140.92C52.5949 140.34 52.0882 139.523 51.9016 138.47L54.0416 138.14C54.1749 138.7 54.4816 139.143 54.9616 139.47C55.4482 139.79 56.0516 139.95 56.7716 139.95C57.4249 139.95 57.9349 139.817 58.3016 139.55C58.6749 139.283 58.8616 138.917 58.8616 138.45C58.8616 138.177 58.7949 137.957 58.6616 137.79C58.5349 137.617 58.2649 137.453 57.8516 137.3C57.4382 137.147 56.8082 136.957 55.9616 136.73C55.0349 136.49 54.2982 136.233 53.7516 135.96C53.2116 135.68 52.8249 135.357 52.5916 134.99C52.3649 134.617 52.2516 134.167 52.2516 133.64C52.2516 132.987 52.4249 132.417 52.7716 131.93C53.1182 131.443 53.6049 131.067 54.2316 130.8C54.8649 130.533 55.6049 130.4 56.4516 130.4C57.2782 130.4 58.0149 130.53 58.6616 130.79C59.3082 131.05 59.8316 131.42 60.2316 131.9C60.6316 132.373 60.8716 132.93 60.9516 133.57L58.8116 133.96C58.7382 133.44 58.4949 133.03 58.0816 132.73C57.6682 132.43 57.1316 132.267 56.4716 132.24C55.8382 132.213 55.3249 132.32 54.9316 132.56C54.5382 132.793 54.3416 133.117 54.3416 133.53C54.3416 133.77 54.4149 133.973 54.5616 134.14C54.7149 134.307 55.0082 134.467 55.4416 134.62C55.8749 134.773 56.5149 134.957 57.3616 135.17C58.2682 135.403 58.9882 135.663 59.5216 135.95C60.0549 136.23 60.4349 136.567 60.6616 136.96C60.8949 137.347 61.0116 137.817 61.0116 138.37C61.0116 139.437 60.6216 140.273 59.8416 140.88C59.0682 141.487 57.9982 141.79 56.6316 141.79ZM68.0142 141.8C66.9409 141.8 65.9976 141.567 65.1842 141.1C64.3776 140.627 63.7476 139.97 63.2942 139.13C62.8476 138.283 62.6242 137.303 62.6242 136.19C62.6242 135.01 62.8442 133.987 63.2842 133.12C63.7309 132.253 64.3509 131.583 65.1442 131.11C65.9376 130.637 66.8609 130.4 67.9142 130.4C69.0142 130.4 69.9509 130.657 70.7242 131.17C71.4976 131.677 72.0742 132.4 72.4542 133.34C72.8409 134.28 72.9942 135.397 72.9142 136.69H70.8242V135.93C70.8109 134.677 70.5709 133.75 70.1042 133.15C69.6442 132.55 68.9409 132.25 67.9942 132.25C66.9476 132.25 66.1609 132.58 65.6342 133.24C65.1076 133.9 64.8442 134.853 64.8442 136.1C64.8442 137.287 65.1076 138.207 65.6342 138.86C66.1609 139.507 66.9209 139.83 67.9142 139.83C68.5676 139.83 69.1309 139.683 69.6042 139.39C70.0842 139.09 70.4576 138.663 70.7242 138.11L72.7742 138.76C72.3542 139.727 71.7176 140.477 70.8642 141.01C70.0109 141.537 69.0609 141.8 68.0142 141.8ZM64.1642 136.69V135.06H71.8742V136.69H64.1642ZM81.5278 129.06C81.2278 129.06 80.9345 128.993 80.6478 128.86C80.3678 128.727 80.0978 128.577 79.8378 128.41C79.5778 128.237 79.3345 128.083 79.1078 127.95C78.8811 127.817 78.6678 127.75 78.4678 127.75C78.2411 127.75 78.0911 127.86 78.0178 128.08C77.9445 128.293 77.9478 128.543 78.0278 128.83H76.6678C76.4878 128.09 76.5378 127.467 76.8178 126.96C77.0978 126.447 77.5945 126.19 78.3078 126.19C78.6145 126.19 78.9078 126.257 79.1878 126.39C79.4678 126.523 79.7378 126.677 79.9978 126.85C80.2578 127.017 80.5011 127.167 80.7278 127.3C80.9611 127.433 81.1745 127.5 81.3678 127.5C81.5878 127.5 81.7378 127.397 81.8178 127.19C81.9045 126.977 81.9045 126.717 81.8178 126.41H83.1778C83.3578 127.137 83.3078 127.76 83.0278 128.28C82.7478 128.8 82.2478 129.06 81.5278 129.06ZM82.7378 141.5V136.19C82.7378 135.77 82.7011 135.34 82.6278 134.9C82.5611 134.453 82.4278 134.04 82.2278 133.66C82.0345 133.28 81.7578 132.973 81.3978 132.74C81.0445 132.507 80.5811 132.39 80.0078 132.39C79.6345 132.39 79.2811 132.453 78.9478 132.58C78.6145 132.7 78.3211 132.897 78.0678 133.17C77.8211 133.443 77.6245 133.803 77.4778 134.25C77.3378 134.697 77.2678 135.24 77.2678 135.88L75.9678 135.39C75.9678 134.41 76.1511 133.547 76.5178 132.8C76.8845 132.047 77.4111 131.46 78.0978 131.04C78.7845 130.62 79.6145 130.41 80.5878 130.41C81.3345 130.41 81.9611 130.53 82.4678 130.77C82.9745 131.01 83.3845 131.327 83.6978 131.72C84.0178 132.107 84.2611 132.53 84.4278 132.99C84.5945 133.45 84.7078 133.9 84.7678 134.34C84.8278 134.78 84.8578 135.167 84.8578 135.5V141.5H82.7378ZM75.1478 141.5V130.7H77.0178V133.82H77.2678V141.5H75.1478ZM92.1525 141.8C91.0725 141.8 90.1358 141.557 89.3425 141.07C88.5492 140.583 87.9358 139.913 87.5025 139.06C87.0758 138.2 86.8625 137.21 86.8625 136.09C86.8625 134.963 87.0825 133.973 87.5225 133.12C87.9625 132.26 88.5792 131.593 89.3725 131.12C90.1658 130.64 91.0925 130.4 92.1525 130.4C93.2325 130.4 94.1692 130.643 94.9625 131.13C95.7558 131.617 96.3692 132.287 96.8025 133.14C97.2358 133.993 97.4525 134.977 97.4525 136.09C97.4525 137.217 97.2325 138.21 96.7925 139.07C96.3592 139.923 95.7458 140.593 94.9525 141.08C94.1592 141.56 93.2258 141.8 92.1525 141.8ZM92.1525 139.83C93.1858 139.83 93.9558 139.483 94.4625 138.79C94.9758 138.09 95.2325 137.19 95.2325 136.09C95.2325 134.963 94.9725 134.063 94.4525 133.39C93.9392 132.71 93.1725 132.37 92.1525 132.37C91.4525 132.37 90.8758 132.53 90.4225 132.85C89.9692 133.163 89.6325 133.6 89.4125 134.16C89.1925 134.713 89.0825 135.357 89.0825 136.09C89.0825 137.223 89.3425 138.13 89.8625 138.81C90.3825 139.49 91.1458 139.83 92.1525 139.83ZM109.394 141.8C108.267 141.8 107.271 141.57 106.404 141.11C105.544 140.643 104.871 139.993 104.384 139.16C103.897 138.32 103.654 137.333 103.654 136.2V127.11L105.774 127.1V136.09C105.774 136.703 105.877 137.243 106.084 137.71C106.291 138.177 106.567 138.567 106.914 138.88C107.261 139.193 107.647 139.43 108.074 139.59C108.507 139.75 108.947 139.83 109.394 139.83C109.847 139.83 110.287 139.75 110.714 139.59C111.147 139.423 111.537 139.183 111.884 138.87C112.231 138.557 112.504 138.167 112.704 137.7C112.911 137.233 113.014 136.697 113.014 136.09V127.1H115.134V136.2C115.134 137.327 114.891 138.31 114.404 139.15C113.917 139.99 113.241 140.643 112.374 141.11C111.514 141.57 110.521 141.8 109.394 141.8ZM118.131 141.5V127.1H120.221V141.5H118.131ZM126.864 127.1H128.974L125.134 141.5H123.024L126.864 127.1ZM137.324 141.8C136.197 141.8 135.2 141.57 134.334 141.11C133.474 140.643 132.8 139.993 132.314 139.16C131.827 138.32 131.584 137.333 131.584 136.2V127.11L133.704 127.1V136.09C133.704 136.703 133.807 137.243 134.014 137.71C134.22 138.177 134.497 138.567 134.844 138.88C135.19 139.193 135.577 139.43 136.004 139.59C136.437 139.75 136.877 139.83 137.324 139.83C137.777 139.83 138.217 139.75 138.644 139.59C139.077 139.423 139.467 139.183 139.814 138.87C140.16 138.557 140.434 138.167 140.634 137.7C140.84 137.233 140.944 136.697 140.944 136.09V127.1H143.064V136.2C143.064 137.327 142.82 138.31 142.334 139.15C141.847 139.99 141.17 140.643 140.304 141.11C139.444 141.57 138.45 141.8 137.324 141.8ZM144.661 141.5L149.571 134.21L144.791 127.1H147.351L150.861 132.44L154.351 127.1H156.921L152.141 134.21L157.041 141.5H154.481L150.861 135.99L147.231 141.5H144.661Z" fill="white"/>
<rect x="1" y="1" width="298" height="202" rx="15" stroke="#7C7B84" stroke-width="2"/>
</svg>
